%TF.GenerationSoftware,KiCad,Pcbnew,(6.0.5)*%
%TF.CreationDate,2022-10-16T21:35:56+03:00*%
%TF.ProjectId,VGA_SCREENSYNC,5647415f-5343-4524-9545-4e53594e432e,rev?*%
%TF.SameCoordinates,Original*%
%TF.FileFunction,Plated,1,2,PTH,Drill*%
%TF.FilePolarity,Positive*%
%FSLAX46Y46*%
G04 Gerber Fmt 4.6, Leading zero omitted, Abs format (unit mm)*
G04 Created by KiCad (PCBNEW (6.0.5)) date 2022-10-16 21:35:56*
%MOMM*%
%LPD*%
G01*
G04 APERTURE LIST*
%TA.AperFunction,ViaDrill*%
%ADD10C,0.400000*%
%TD*%
%TA.AperFunction,ComponentDrill*%
%ADD11C,0.800000*%
%TD*%
%TA.AperFunction,ComponentDrill*%
%ADD12C,1.000000*%
%TD*%
%TA.AperFunction,ComponentDrill*%
%ADD13C,3.200000*%
%TD*%
G04 APERTURE END LIST*
D10*
X52500000Y-52560000D03*
X52500000Y-74060000D03*
X52500000Y-95560000D03*
X53400000Y-55060000D03*
X53400000Y-76560000D03*
X53400000Y-98060000D03*
X53800000Y-119560000D03*
X53800000Y-124660000D03*
X53800000Y-129660000D03*
X54300000Y-70360000D03*
X54300000Y-91860000D03*
X54300000Y-113360000D03*
X55200000Y-52560000D03*
X55200000Y-67760000D03*
X55200000Y-70360000D03*
X55200000Y-74060000D03*
X55200000Y-89260000D03*
X55200000Y-110760000D03*
X55200000Y-113360000D03*
X60300000Y-48560000D03*
X60300000Y-57660000D03*
X61100000Y-47860000D03*
X61100000Y-60260000D03*
X61100000Y-69660000D03*
X61100000Y-89860000D03*
X61900000Y-48560000D03*
X61900000Y-62760000D03*
X62700000Y-47860000D03*
X62700000Y-49460000D03*
X62700000Y-65260000D03*
X62700000Y-110160000D03*
X63500000Y-48560000D03*
X63500000Y-72260000D03*
X63500000Y-79160000D03*
X63500000Y-92460000D03*
X64300000Y-47860000D03*
X64300000Y-81660000D03*
X64300000Y-94960000D03*
X65100000Y-48560000D03*
X65100000Y-51960000D03*
X65100000Y-74760000D03*
X65100000Y-84160000D03*
X65100000Y-97460000D03*
X65900000Y-47860000D03*
X65900000Y-54560000D03*
X65900000Y-77260000D03*
X65900000Y-86760000D03*
X65900000Y-99760000D03*
X66700000Y-100660000D03*
X66700000Y-112660000D03*
X67500000Y-57160000D03*
X67500000Y-79860000D03*
X67500000Y-102560000D03*
X67500000Y-115260000D03*
X67500000Y-122160000D03*
X68300000Y-59660000D03*
X68300000Y-117760000D03*
X68300000Y-123060000D03*
X69100000Y-62160000D03*
X69100000Y-86960000D03*
X69100000Y-107160000D03*
X69100000Y-120360000D03*
X69100000Y-123960000D03*
X69900000Y-87960000D03*
X69900000Y-108160000D03*
X69900000Y-124860000D03*
X70700000Y-66760000D03*
X70700000Y-122860000D03*
X70700000Y-125760000D03*
X71500000Y-67560000D03*
X71500000Y-82460000D03*
X71500000Y-126660000D03*
X75800000Y-110250000D03*
X75810000Y-131850000D03*
X78510000Y-48650000D03*
X82430000Y-133550000D03*
X82910000Y-131050000D03*
X84310000Y-84250000D03*
X84710000Y-113250000D03*
X84710000Y-133550000D03*
X86010000Y-131050000D03*
X87010000Y-133550000D03*
X89510000Y-113250000D03*
X92210000Y-133250000D03*
X92310000Y-71650000D03*
X92410000Y-80750000D03*
X92410000Y-82850000D03*
X93210000Y-72650000D03*
X93210000Y-75250000D03*
X93210000Y-77750000D03*
X95110000Y-67650000D03*
X95110000Y-70150000D03*
X96710000Y-87650000D03*
X101610000Y-67650000D03*
X101610000Y-70150000D03*
X103410000Y-72650000D03*
X104310000Y-75250000D03*
X104610000Y-132850000D03*
X105710000Y-77750000D03*
X110310000Y-91450000D03*
X110310000Y-112150000D03*
X110310000Y-113450000D03*
X110310000Y-114750000D03*
X112810000Y-112150000D03*
X113725000Y-133550000D03*
X114110000Y-131150000D03*
X116015000Y-133550000D03*
X117610000Y-49350000D03*
X118210000Y-89850000D03*
X118210000Y-107650000D03*
X118310000Y-133550000D03*
X125100000Y-67660000D03*
X125100000Y-87760000D03*
X125100000Y-108060000D03*
X125100000Y-117360000D03*
X125900000Y-116560000D03*
X126700000Y-66760000D03*
X126700000Y-87060000D03*
X126700000Y-115760000D03*
X127500000Y-64660000D03*
X127500000Y-84960000D03*
X127500000Y-105160000D03*
X127500000Y-114960000D03*
X127500000Y-120260000D03*
X128300000Y-62160000D03*
X128300000Y-114160000D03*
X129100000Y-47960000D03*
X129100000Y-59560000D03*
X129100000Y-82460000D03*
X129100000Y-102660000D03*
X129100000Y-108030000D03*
X129100000Y-122860000D03*
X129900000Y-48660000D03*
X129900000Y-105530000D03*
X130700000Y-47960000D03*
X130700000Y-102930000D03*
X131400000Y-127360000D03*
X131500000Y-48660000D03*
X131500000Y-57060000D03*
X131500000Y-79860000D03*
X131500000Y-100260000D03*
X131500000Y-125360000D03*
X132300000Y-47960000D03*
X132300000Y-86530000D03*
X132300000Y-128260000D03*
X133100000Y-48660000D03*
X133100000Y-54460000D03*
X133100000Y-77360000D03*
X133100000Y-84030000D03*
X133100000Y-106760000D03*
X133900000Y-47960000D03*
X133900000Y-51960000D03*
X133900000Y-74760000D03*
X133900000Y-81430000D03*
X133900000Y-97560000D03*
X134700000Y-48660000D03*
X134700000Y-78930000D03*
X134700000Y-95060000D03*
X134700000Y-112660000D03*
X135500000Y-65030000D03*
X136300000Y-62530000D03*
X136300000Y-72260000D03*
X136300000Y-92560000D03*
X136710000Y-43350000D03*
X136710000Y-45750000D03*
X141400000Y-52310000D03*
X141400000Y-54910000D03*
X141400000Y-76410000D03*
X141400000Y-91610000D03*
X141400000Y-95310000D03*
X141400000Y-97910000D03*
X141400000Y-113110000D03*
X142300000Y-52310000D03*
X142300000Y-73810000D03*
X142300000Y-95310000D03*
X142300000Y-117140000D03*
X142610000Y-122050000D03*
X143200000Y-67610000D03*
X143200000Y-89110000D03*
X143200000Y-110610000D03*
X143510000Y-127060000D03*
X144100000Y-70110000D03*
X144100000Y-91610000D03*
X144100000Y-113110000D03*
D11*
%TO.C,74LS161*%
X50500000Y-52560000D03*
X50500000Y-55100000D03*
X50500000Y-57640000D03*
X50500000Y-60180000D03*
X50500000Y-62720000D03*
X50500000Y-65260000D03*
X50500000Y-67800000D03*
X50500000Y-70340000D03*
X50500000Y-74060000D03*
X50500000Y-76600000D03*
X50500000Y-79140000D03*
X50500000Y-81680000D03*
X50500000Y-84220000D03*
X50500000Y-86760000D03*
X50500000Y-89300000D03*
X50500000Y-91840000D03*
X50500000Y-95560000D03*
X50500000Y-98100000D03*
X50500000Y-100640000D03*
X50500000Y-103180000D03*
X50500000Y-105720000D03*
X50500000Y-108260000D03*
X50500000Y-110800000D03*
X50500000Y-113340000D03*
%TO.C,74LS04*%
X50500000Y-117060000D03*
X50500000Y-119600000D03*
X50500000Y-122140000D03*
X50500000Y-124680000D03*
X50500000Y-127220000D03*
X50500000Y-129760000D03*
X50500000Y-132300000D03*
%TO.C,74LS161*%
X58120000Y-52560000D03*
X58120000Y-55100000D03*
X58120000Y-57640000D03*
X58120000Y-60180000D03*
X58120000Y-62720000D03*
X58120000Y-65260000D03*
X58120000Y-67800000D03*
X58120000Y-70340000D03*
X58120000Y-74060000D03*
X58120000Y-76600000D03*
X58120000Y-79140000D03*
X58120000Y-81680000D03*
X58120000Y-84220000D03*
X58120000Y-86760000D03*
X58120000Y-89300000D03*
X58120000Y-91840000D03*
X58120000Y-95560000D03*
X58120000Y-98100000D03*
X58120000Y-100640000D03*
X58120000Y-103180000D03*
X58120000Y-105720000D03*
X58120000Y-108260000D03*
X58120000Y-110800000D03*
X58120000Y-113340000D03*
%TO.C,74LS04*%
X58120000Y-117060000D03*
X58120000Y-119600000D03*
X58120000Y-122140000D03*
X58120000Y-124680000D03*
X58120000Y-127220000D03*
X58120000Y-129760000D03*
X58120000Y-132300000D03*
%TO.C,74LS30*%
X73700000Y-49460000D03*
X73700000Y-52000000D03*
X73700000Y-54540000D03*
X73700000Y-57080000D03*
X73700000Y-59620000D03*
X73700000Y-62160000D03*
X73700000Y-64700000D03*
X73700000Y-69660000D03*
X73700000Y-72200000D03*
X73700000Y-74740000D03*
X73700000Y-77280000D03*
X73700000Y-79820000D03*
X73700000Y-82360000D03*
X73700000Y-84900000D03*
X73700000Y-89860000D03*
X73700000Y-92400000D03*
X73700000Y-94940000D03*
X73700000Y-97480000D03*
X73700000Y-100020000D03*
X73700000Y-102560000D03*
X73700000Y-105100000D03*
X73700000Y-110160000D03*
X73700000Y-112700000D03*
X73700000Y-115240000D03*
X73700000Y-117780000D03*
X73700000Y-120320000D03*
X73700000Y-122860000D03*
X73700000Y-125400000D03*
X81320000Y-49460000D03*
X81320000Y-52000000D03*
X81320000Y-54540000D03*
X81320000Y-57080000D03*
X81320000Y-59620000D03*
X81320000Y-62160000D03*
X81320000Y-64700000D03*
X81320000Y-69660000D03*
X81320000Y-72200000D03*
X81320000Y-74740000D03*
X81320000Y-77280000D03*
X81320000Y-79820000D03*
X81320000Y-82360000D03*
X81320000Y-84900000D03*
X81320000Y-89860000D03*
X81320000Y-92400000D03*
X81320000Y-94940000D03*
X81320000Y-97480000D03*
X81320000Y-100020000D03*
X81320000Y-102560000D03*
X81320000Y-105100000D03*
X81320000Y-110160000D03*
X81320000Y-112700000D03*
X81320000Y-115240000D03*
X81320000Y-117780000D03*
X81320000Y-120320000D03*
X81320000Y-122860000D03*
X81320000Y-125400000D03*
%TO.C,74LS00*%
X85010000Y-95025000D03*
X85010000Y-97565000D03*
X85010000Y-100105000D03*
X85010000Y-102645000D03*
X85010000Y-105185000D03*
X85010000Y-107725000D03*
X85010000Y-110265000D03*
X92630000Y-95025000D03*
X92630000Y-97565000D03*
X92630000Y-100105000D03*
X92630000Y-102645000D03*
X92630000Y-105185000D03*
X92630000Y-107725000D03*
X92630000Y-110265000D03*
%TO.C,*%
X95010000Y-117250000D03*
X95010000Y-124850000D03*
X102610000Y-117250000D03*
X102610000Y-124850000D03*
%TO.C,74LS00*%
X103690000Y-94990000D03*
X103690000Y-97530000D03*
X103690000Y-100070000D03*
X103690000Y-102610000D03*
X103690000Y-105150000D03*
X103690000Y-107690000D03*
X103690000Y-110230000D03*
X111310000Y-94990000D03*
X111310000Y-97530000D03*
X111310000Y-100070000D03*
X111310000Y-102610000D03*
X111310000Y-105150000D03*
X111310000Y-107690000D03*
X111310000Y-110230000D03*
%TO.C,74LS30*%
X115180000Y-49420000D03*
X115180000Y-51960000D03*
X115180000Y-54500000D03*
X115180000Y-57040000D03*
X115180000Y-59580000D03*
X115180000Y-62120000D03*
X115180000Y-64660000D03*
X115180000Y-69720000D03*
X115180000Y-72260000D03*
X115180000Y-74800000D03*
X115180000Y-77340000D03*
X115180000Y-79880000D03*
X115180000Y-82420000D03*
X115180000Y-84960000D03*
X115180000Y-89920000D03*
X115180000Y-92460000D03*
X115180000Y-95000000D03*
X115180000Y-97540000D03*
X115180000Y-100080000D03*
X115180000Y-102620000D03*
X115180000Y-105160000D03*
X115180000Y-110120000D03*
X115180000Y-112660000D03*
X115180000Y-115200000D03*
X115180000Y-117740000D03*
X115180000Y-120280000D03*
X115180000Y-122820000D03*
X115180000Y-125360000D03*
X122800000Y-49420000D03*
X122800000Y-51960000D03*
X122800000Y-54500000D03*
X122800000Y-57040000D03*
X122800000Y-59580000D03*
X122800000Y-62120000D03*
X122800000Y-64660000D03*
X122800000Y-69720000D03*
X122800000Y-72260000D03*
X122800000Y-74800000D03*
X122800000Y-77340000D03*
X122800000Y-79880000D03*
X122800000Y-82420000D03*
X122800000Y-84960000D03*
X122800000Y-89920000D03*
X122800000Y-92460000D03*
X122800000Y-95000000D03*
X122800000Y-97540000D03*
X122800000Y-100080000D03*
X122800000Y-102620000D03*
X122800000Y-105160000D03*
X122800000Y-110120000D03*
X122800000Y-112660000D03*
X122800000Y-115200000D03*
X122800000Y-117740000D03*
X122800000Y-120280000D03*
X122800000Y-122820000D03*
X122800000Y-125360000D03*
%TO.C,74LS161*%
X138480000Y-52330000D03*
X138480000Y-54870000D03*
X138480000Y-57410000D03*
X138480000Y-59950000D03*
X138480000Y-62490000D03*
X138480000Y-65030000D03*
X138480000Y-67570000D03*
X138480000Y-70110000D03*
X138480000Y-73830000D03*
X138480000Y-76370000D03*
X138480000Y-78910000D03*
X138480000Y-81450000D03*
X138480000Y-83990000D03*
X138480000Y-86530000D03*
X138480000Y-89070000D03*
X138480000Y-91610000D03*
X138480000Y-95330000D03*
X138480000Y-97870000D03*
X138480000Y-100410000D03*
X138480000Y-102950000D03*
X138480000Y-105490000D03*
X138480000Y-108030000D03*
X138480000Y-110570000D03*
X138480000Y-113110000D03*
%TO.C,74LS04*%
X138500000Y-116930000D03*
X138500000Y-119470000D03*
X138500000Y-122010000D03*
X138500000Y-124550000D03*
X138500000Y-127090000D03*
X138500000Y-129630000D03*
X138500000Y-132170000D03*
%TO.C,74LS161*%
X146100000Y-52330000D03*
X146100000Y-54870000D03*
X146100000Y-57410000D03*
X146100000Y-59950000D03*
X146100000Y-62490000D03*
X146100000Y-65030000D03*
X146100000Y-67570000D03*
X146100000Y-70110000D03*
X146100000Y-73830000D03*
X146100000Y-76370000D03*
X146100000Y-78910000D03*
X146100000Y-81450000D03*
X146100000Y-83990000D03*
X146100000Y-86530000D03*
X146100000Y-89070000D03*
X146100000Y-91610000D03*
X146100000Y-95330000D03*
X146100000Y-97870000D03*
X146100000Y-100410000D03*
X146100000Y-102950000D03*
X146100000Y-105490000D03*
X146100000Y-108030000D03*
X146100000Y-110570000D03*
X146100000Y-113110000D03*
%TO.C,74LS04*%
X146120000Y-116930000D03*
X146120000Y-119470000D03*
X146120000Y-122010000D03*
X146120000Y-124550000D03*
X146120000Y-127090000D03*
X146120000Y-129630000D03*
X146120000Y-132170000D03*
D12*
%TO.C,VGA PORT 1*%
X77850000Y-135430000D03*
X77850000Y-139390000D03*
X78995000Y-137410000D03*
X80140000Y-135430000D03*
X80140000Y-139390000D03*
X81285000Y-137410000D03*
X82430000Y-135430000D03*
X82430000Y-139390000D03*
X83575000Y-137410000D03*
X84720000Y-135430000D03*
X84720000Y-139390000D03*
X85865000Y-137410000D03*
X87010000Y-135430000D03*
X87010000Y-139390000D03*
X88155000Y-137410000D03*
%TO.C,2x17 Connector  *%
X97070000Y-44750000D03*
X97070000Y-47290000D03*
X97070000Y-49830000D03*
X97070000Y-52370000D03*
X97070000Y-54910000D03*
X97070000Y-57450000D03*
X97070000Y-59990000D03*
X97070000Y-62530000D03*
X97070000Y-65070000D03*
X97070000Y-67610000D03*
X97070000Y-70150000D03*
X97070000Y-72690000D03*
X97070000Y-75230000D03*
X97070000Y-77770000D03*
X97070000Y-80310000D03*
X97070000Y-82850000D03*
X97070000Y-85390000D03*
X99610000Y-44750000D03*
X99610000Y-47290000D03*
X99610000Y-49830000D03*
X99610000Y-52370000D03*
X99610000Y-54910000D03*
X99610000Y-57450000D03*
X99610000Y-59990000D03*
X99610000Y-62530000D03*
X99610000Y-65070000D03*
X99610000Y-67610000D03*
X99610000Y-70150000D03*
X99610000Y-72690000D03*
X99610000Y-75230000D03*
X99610000Y-77770000D03*
X99610000Y-80310000D03*
X99610000Y-82850000D03*
X99610000Y-85390000D03*
%TO.C,VGA PORT 2*%
X109145000Y-135440000D03*
X109145000Y-139400000D03*
X110290000Y-137420000D03*
X111435000Y-135440000D03*
X111435000Y-139400000D03*
X112580000Y-137420000D03*
X113725000Y-135440000D03*
X113725000Y-139400000D03*
X114870000Y-137420000D03*
X116015000Y-135440000D03*
X116015000Y-139400000D03*
X117160000Y-137420000D03*
X118305000Y-135440000D03*
X118305000Y-139400000D03*
X119450000Y-137420000D03*
D13*
%TO.C,VGA PORT 1*%
X70195000Y-137480000D03*
X95195000Y-137480000D03*
%TO.C,VGA PORT 2*%
X101490000Y-137490000D03*
X126490000Y-137490000D03*
M02*
