%TF.GenerationSoftware,KiCad,Pcbnew,(6.0.5)*%
%TF.CreationDate,2022-10-16T21:23:39+03:00*%
%TF.ProjectId,VGA_SCREENSYNC,5647415f-5343-4524-9545-4e53594e432e,rev?*%
%TF.SameCoordinates,Original*%
%TF.FileFunction,Copper,L1,Top*%
%TF.FilePolarity,Positive*%
%FSLAX46Y46*%
G04 Gerber Fmt 4.6, Leading zero omitted, Abs format (unit mm)*
G04 Created by KiCad (PCBNEW (6.0.5)) date 2022-10-16 21:23:39*
%MOMM*%
%LPD*%
G01*
G04 APERTURE LIST*
%TA.AperFunction,ComponentPad*%
%ADD10C,1.600000*%
%TD*%
%TA.AperFunction,ComponentPad*%
%ADD11R,2.400000X1.600000*%
%TD*%
%TA.AperFunction,ComponentPad*%
%ADD12O,2.400000X1.600000*%
%TD*%
%TA.AperFunction,ComponentPad*%
%ADD13R,1.700000X1.700000*%
%TD*%
%TA.AperFunction,ComponentPad*%
%ADD14O,1.700000X1.700000*%
%TD*%
%TA.AperFunction,ComponentPad*%
%ADD15C,4.000000*%
%TD*%
%TA.AperFunction,ComponentPad*%
%ADD16R,1.600000X1.600000*%
%TD*%
%TA.AperFunction,ViaPad*%
%ADD17C,0.800000*%
%TD*%
%TA.AperFunction,Conductor*%
%ADD18C,0.400000*%
%TD*%
%TA.AperFunction,Conductor*%
%ADD19C,0.300000*%
%TD*%
%TA.AperFunction,Conductor*%
%ADD20C,0.150000*%
%TD*%
G04 APERTURE END LIST*
D10*
%TO.P,,2*%
%TO.N,N/C*%
X95010000Y-117250000D03*
%TD*%
D11*
%TO.P,74LS30,1*%
%TO.N,N/C*%
X73700000Y-49460000D03*
D12*
%TO.P,74LS30,2*%
X73700000Y-52000000D03*
%TO.P,74LS30,3*%
X73700000Y-54540000D03*
%TO.P,74LS30,4*%
X73700000Y-57080000D03*
%TO.P,74LS30,5*%
X73700000Y-59620000D03*
%TO.P,74LS30,6*%
X73700000Y-62160000D03*
%TO.P,74LS30,7*%
X73700000Y-64700000D03*
%TO.P,74LS30,8*%
X81320000Y-64700000D03*
%TO.P,74LS30,9*%
X81320000Y-62160000D03*
%TO.P,74LS30,10*%
X81320000Y-59620000D03*
%TO.P,74LS30,11*%
X81320000Y-57080000D03*
%TO.P,74LS30,12*%
X81320000Y-54540000D03*
%TO.P,74LS30,13*%
X81320000Y-52000000D03*
%TO.P,74LS30,14*%
X81320000Y-49460000D03*
%TD*%
D13*
%TO.P,2x17 Connector  ,1*%
%TO.N,N/C*%
X97070000Y-44750000D03*
D14*
%TO.P,2x17 Connector  ,2*%
X99610000Y-44750000D03*
%TO.P,2x17 Connector  ,3*%
X97070000Y-47290000D03*
%TO.P,2x17 Connector  ,4*%
X99610000Y-47290000D03*
%TO.P,2x17 Connector  ,5*%
X97070000Y-49830000D03*
%TO.P,2x17 Connector  ,6*%
X99610000Y-49830000D03*
%TO.P,2x17 Connector  ,7*%
X97070000Y-52370000D03*
%TO.P,2x17 Connector  ,8*%
X99610000Y-52370000D03*
%TO.P,2x17 Connector  ,9*%
X97070000Y-54910000D03*
%TO.P,2x17 Connector  ,10*%
X99610000Y-54910000D03*
%TO.P,2x17 Connector  ,11*%
X97070000Y-57450000D03*
%TO.P,2x17 Connector  ,12*%
X99610000Y-57450000D03*
%TO.P,2x17 Connector  ,13*%
X97070000Y-59990000D03*
%TO.P,2x17 Connector  ,14*%
X99610000Y-59990000D03*
%TO.P,2x17 Connector  ,15*%
X97070000Y-62530000D03*
%TO.P,2x17 Connector  ,16*%
X99610000Y-62530000D03*
%TO.P,2x17 Connector  ,17*%
X97070000Y-65070000D03*
%TO.P,2x17 Connector  ,18*%
X99610000Y-65070000D03*
%TO.P,2x17 Connector  ,19*%
X97070000Y-67610000D03*
%TO.P,2x17 Connector  ,20*%
X99610000Y-67610000D03*
%TO.P,2x17 Connector  ,21*%
X97070000Y-70150000D03*
%TO.P,2x17 Connector  ,22*%
X99610000Y-70150000D03*
%TO.P,2x17 Connector  ,23*%
X97070000Y-72690000D03*
%TO.P,2x17 Connector  ,24*%
X99610000Y-72690000D03*
%TO.P,2x17 Connector  ,25*%
X97070000Y-75230000D03*
%TO.P,2x17 Connector  ,26*%
X99610000Y-75230000D03*
%TO.P,2x17 Connector  ,27*%
X97070000Y-77770000D03*
%TO.P,2x17 Connector  ,28*%
X99610000Y-77770000D03*
%TO.P,2x17 Connector  ,29*%
X97070000Y-80310000D03*
%TO.P,2x17 Connector  ,30*%
X99610000Y-80310000D03*
%TO.P,2x17 Connector  ,31*%
X97070000Y-82850000D03*
%TO.P,2x17 Connector  ,32*%
X99610000Y-82850000D03*
%TO.P,2x17 Connector  ,33*%
X97070000Y-85390000D03*
%TO.P,2x17 Connector  ,34*%
X99610000Y-85390000D03*
%TD*%
D15*
%TO.P,VGA PORT 2,0*%
%TO.N,N/C*%
X126490000Y-137490000D03*
X101490000Y-137490000D03*
D16*
%TO.P,VGA PORT 2,1*%
X118305000Y-135440000D03*
D10*
%TO.P,VGA PORT 2,2*%
X116015000Y-135440000D03*
%TO.P,VGA PORT 2,3*%
X113725000Y-135440000D03*
%TO.P,VGA PORT 2,4*%
X111435000Y-135440000D03*
%TO.P,VGA PORT 2,5*%
X109145000Y-135440000D03*
%TO.P,VGA PORT 2,6*%
X119450000Y-137420000D03*
%TO.P,VGA PORT 2,7*%
X117160000Y-137420000D03*
%TO.P,VGA PORT 2,8*%
X114870000Y-137420000D03*
%TO.P,VGA PORT 2,9*%
X112580000Y-137420000D03*
%TO.P,VGA PORT 2,10*%
X110290000Y-137420000D03*
%TO.P,VGA PORT 2,11*%
X118305000Y-139400000D03*
%TO.P,VGA PORT 2,12*%
X116015000Y-139400000D03*
%TO.P,VGA PORT 2,13*%
X113725000Y-139400000D03*
%TO.P,VGA PORT 2,14*%
X111435000Y-139400000D03*
%TO.P,VGA PORT 2,15*%
X109145000Y-139400000D03*
%TD*%
D11*
%TO.P,74LS161,1*%
%TO.N,N/C*%
X50500000Y-95560000D03*
D12*
%TO.P,74LS161,2*%
X50500000Y-98100000D03*
%TO.P,74LS161,3*%
X50500000Y-100640000D03*
%TO.P,74LS161,4*%
X50500000Y-103180000D03*
%TO.P,74LS161,5*%
X50500000Y-105720000D03*
%TO.P,74LS161,6*%
X50500000Y-108260000D03*
%TO.P,74LS161,7*%
X50500000Y-110800000D03*
%TO.P,74LS161,8*%
X50500000Y-113340000D03*
%TO.P,74LS161,9*%
X58120000Y-113340000D03*
%TO.P,74LS161,10*%
X58120000Y-110800000D03*
%TO.P,74LS161,11*%
X58120000Y-108260000D03*
%TO.P,74LS161,12*%
X58120000Y-105720000D03*
%TO.P,74LS161,13*%
X58120000Y-103180000D03*
%TO.P,74LS161,14*%
X58120000Y-100640000D03*
%TO.P,74LS161,15*%
X58120000Y-98100000D03*
%TO.P,74LS161,16*%
X58120000Y-95560000D03*
%TD*%
D10*
%TO.P,,3*%
%TO.N,N/C*%
X102610000Y-117250000D03*
%TD*%
D11*
%TO.P,74LS30,1*%
%TO.N,N/C*%
X73700000Y-89860000D03*
D12*
%TO.P,74LS30,2*%
X73700000Y-92400000D03*
%TO.P,74LS30,3*%
X73700000Y-94940000D03*
%TO.P,74LS30,4*%
X73700000Y-97480000D03*
%TO.P,74LS30,5*%
X73700000Y-100020000D03*
%TO.P,74LS30,6*%
X73700000Y-102560000D03*
%TO.P,74LS30,7*%
X73700000Y-105100000D03*
%TO.P,74LS30,8*%
X81320000Y-105100000D03*
%TO.P,74LS30,9*%
X81320000Y-102560000D03*
%TO.P,74LS30,10*%
X81320000Y-100020000D03*
%TO.P,74LS30,11*%
X81320000Y-97480000D03*
%TO.P,74LS30,12*%
X81320000Y-94940000D03*
%TO.P,74LS30,13*%
X81320000Y-92400000D03*
%TO.P,74LS30,14*%
X81320000Y-89860000D03*
%TD*%
D11*
%TO.P,74LS30,1*%
%TO.N,N/C*%
X122800000Y-84960000D03*
D12*
%TO.P,74LS30,2*%
X122800000Y-82420000D03*
%TO.P,74LS30,3*%
X122800000Y-79880000D03*
%TO.P,74LS30,4*%
X122800000Y-77340000D03*
%TO.P,74LS30,5*%
X122800000Y-74800000D03*
%TO.P,74LS30,6*%
X122800000Y-72260000D03*
%TO.P,74LS30,7*%
X122800000Y-69720000D03*
%TO.P,74LS30,8*%
X115180000Y-69720000D03*
%TO.P,74LS30,9*%
X115180000Y-72260000D03*
%TO.P,74LS30,10*%
X115180000Y-74800000D03*
%TO.P,74LS30,11*%
X115180000Y-77340000D03*
%TO.P,74LS30,12*%
X115180000Y-79880000D03*
%TO.P,74LS30,13*%
X115180000Y-82420000D03*
%TO.P,74LS30,14*%
X115180000Y-84960000D03*
%TD*%
D11*
%TO.P,74LS161,1*%
%TO.N,N/C*%
X146100000Y-70110000D03*
D12*
%TO.P,74LS161,2*%
X146100000Y-67570000D03*
%TO.P,74LS161,3*%
X146100000Y-65030000D03*
%TO.P,74LS161,4*%
X146100000Y-62490000D03*
%TO.P,74LS161,5*%
X146100000Y-59950000D03*
%TO.P,74LS161,6*%
X146100000Y-57410000D03*
%TO.P,74LS161,7*%
X146100000Y-54870000D03*
%TO.P,74LS161,8*%
X146100000Y-52330000D03*
%TO.P,74LS161,9*%
X138480000Y-52330000D03*
%TO.P,74LS161,10*%
X138480000Y-54870000D03*
%TO.P,74LS161,11*%
X138480000Y-57410000D03*
%TO.P,74LS161,12*%
X138480000Y-59950000D03*
%TO.P,74LS161,13*%
X138480000Y-62490000D03*
%TO.P,74LS161,14*%
X138480000Y-65030000D03*
%TO.P,74LS161,15*%
X138480000Y-67570000D03*
%TO.P,74LS161,16*%
X138480000Y-70110000D03*
%TD*%
D11*
%TO.P,74LS161,1*%
%TO.N,N/C*%
X146100000Y-113110000D03*
D12*
%TO.P,74LS161,2*%
X146100000Y-110570000D03*
%TO.P,74LS161,3*%
X146100000Y-108030000D03*
%TO.P,74LS161,4*%
X146100000Y-105490000D03*
%TO.P,74LS161,5*%
X146100000Y-102950000D03*
%TO.P,74LS161,6*%
X146100000Y-100410000D03*
%TO.P,74LS161,7*%
X146100000Y-97870000D03*
%TO.P,74LS161,8*%
X146100000Y-95330000D03*
%TO.P,74LS161,9*%
X138480000Y-95330000D03*
%TO.P,74LS161,10*%
X138480000Y-97870000D03*
%TO.P,74LS161,11*%
X138480000Y-100410000D03*
%TO.P,74LS161,12*%
X138480000Y-102950000D03*
%TO.P,74LS161,13*%
X138480000Y-105490000D03*
%TO.P,74LS161,14*%
X138480000Y-108030000D03*
%TO.P,74LS161,15*%
X138480000Y-110570000D03*
%TO.P,74LS161,16*%
X138480000Y-113110000D03*
%TD*%
D10*
%TO.P,,4*%
%TO.N,N/C*%
X102610000Y-124850000D03*
%TD*%
D11*
%TO.P,74LS00,1*%
%TO.N,N/C*%
X85010000Y-95025000D03*
D12*
%TO.P,74LS00,2*%
X85010000Y-97565000D03*
%TO.P,74LS00,3*%
X85010000Y-100105000D03*
%TO.P,74LS00,4*%
X85010000Y-102645000D03*
%TO.P,74LS00,5*%
X85010000Y-105185000D03*
%TO.P,74LS00,6*%
X85010000Y-107725000D03*
%TO.P,74LS00,7*%
X85010000Y-110265000D03*
%TO.P,74LS00,8*%
X92630000Y-110265000D03*
%TO.P,74LS00,9*%
X92630000Y-107725000D03*
%TO.P,74LS00,10*%
X92630000Y-105185000D03*
%TO.P,74LS00,11*%
X92630000Y-102645000D03*
%TO.P,74LS00,12*%
X92630000Y-100105000D03*
%TO.P,74LS00,13*%
X92630000Y-97565000D03*
%TO.P,74LS00,14*%
X92630000Y-95025000D03*
%TD*%
D11*
%TO.P,74LS30,1*%
%TO.N,N/C*%
X122800000Y-105160000D03*
D12*
%TO.P,74LS30,2*%
X122800000Y-102620000D03*
%TO.P,74LS30,3*%
X122800000Y-100080000D03*
%TO.P,74LS30,4*%
X122800000Y-97540000D03*
%TO.P,74LS30,5*%
X122800000Y-95000000D03*
%TO.P,74LS30,6*%
X122800000Y-92460000D03*
%TO.P,74LS30,7*%
X122800000Y-89920000D03*
%TO.P,74LS30,8*%
X115180000Y-89920000D03*
%TO.P,74LS30,9*%
X115180000Y-92460000D03*
%TO.P,74LS30,10*%
X115180000Y-95000000D03*
%TO.P,74LS30,11*%
X115180000Y-97540000D03*
%TO.P,74LS30,12*%
X115180000Y-100080000D03*
%TO.P,74LS30,13*%
X115180000Y-102620000D03*
%TO.P,74LS30,14*%
X115180000Y-105160000D03*
%TD*%
D11*
%TO.P,74LS30,1*%
%TO.N,N/C*%
X73700000Y-69660000D03*
D12*
%TO.P,74LS30,2*%
X73700000Y-72200000D03*
%TO.P,74LS30,3*%
X73700000Y-74740000D03*
%TO.P,74LS30,4*%
X73700000Y-77280000D03*
%TO.P,74LS30,5*%
X73700000Y-79820000D03*
%TO.P,74LS30,6*%
X73700000Y-82360000D03*
%TO.P,74LS30,7*%
X73700000Y-84900000D03*
%TO.P,74LS30,8*%
X81320000Y-84900000D03*
%TO.P,74LS30,9*%
X81320000Y-82360000D03*
%TO.P,74LS30,10*%
X81320000Y-79820000D03*
%TO.P,74LS30,11*%
X81320000Y-77280000D03*
%TO.P,74LS30,12*%
X81320000Y-74740000D03*
%TO.P,74LS30,13*%
X81320000Y-72200000D03*
%TO.P,74LS30,14*%
X81320000Y-69660000D03*
%TD*%
D11*
%TO.P,74LS04,1*%
%TO.N,N/C*%
X50500000Y-117060000D03*
D12*
%TO.P,74LS04,2*%
X50500000Y-119600000D03*
%TO.P,74LS04,3*%
X50500000Y-122140000D03*
%TO.P,74LS04,4*%
X50500000Y-124680000D03*
%TO.P,74LS04,5*%
X50500000Y-127220000D03*
%TO.P,74LS04,6*%
X50500000Y-129760000D03*
%TO.P,74LS04,7*%
X50500000Y-132300000D03*
%TO.P,74LS04,8*%
X58120000Y-132300000D03*
%TO.P,74LS04,9*%
X58120000Y-129760000D03*
%TO.P,74LS04,10*%
X58120000Y-127220000D03*
%TO.P,74LS04,11*%
X58120000Y-124680000D03*
%TO.P,74LS04,12*%
X58120000Y-122140000D03*
%TO.P,74LS04,13*%
X58120000Y-119600000D03*
%TO.P,74LS04,14*%
X58120000Y-117060000D03*
%TD*%
D11*
%TO.P,74LS161,1*%
%TO.N,N/C*%
X50500000Y-52560000D03*
D12*
%TO.P,74LS161,2*%
X50500000Y-55100000D03*
%TO.P,74LS161,3*%
X50500000Y-57640000D03*
%TO.P,74LS161,4*%
X50500000Y-60180000D03*
%TO.P,74LS161,5*%
X50500000Y-62720000D03*
%TO.P,74LS161,6*%
X50500000Y-65260000D03*
%TO.P,74LS161,7*%
X50500000Y-67800000D03*
%TO.P,74LS161,8*%
X50500000Y-70340000D03*
%TO.P,74LS161,9*%
X58120000Y-70340000D03*
%TO.P,74LS161,10*%
X58120000Y-67800000D03*
%TO.P,74LS161,11*%
X58120000Y-65260000D03*
%TO.P,74LS161,12*%
X58120000Y-62720000D03*
%TO.P,74LS161,13*%
X58120000Y-60180000D03*
%TO.P,74LS161,14*%
X58120000Y-57640000D03*
%TO.P,74LS161,15*%
X58120000Y-55100000D03*
%TO.P,74LS161,16*%
X58120000Y-52560000D03*
%TD*%
D11*
%TO.P,74LS30,1*%
%TO.N,N/C*%
X122800000Y-125360000D03*
D12*
%TO.P,74LS30,2*%
X122800000Y-122820000D03*
%TO.P,74LS30,3*%
X122800000Y-120280000D03*
%TO.P,74LS30,4*%
X122800000Y-117740000D03*
%TO.P,74LS30,5*%
X122800000Y-115200000D03*
%TO.P,74LS30,6*%
X122800000Y-112660000D03*
%TO.P,74LS30,7*%
X122800000Y-110120000D03*
%TO.P,74LS30,8*%
X115180000Y-110120000D03*
%TO.P,74LS30,9*%
X115180000Y-112660000D03*
%TO.P,74LS30,10*%
X115180000Y-115200000D03*
%TO.P,74LS30,11*%
X115180000Y-117740000D03*
%TO.P,74LS30,12*%
X115180000Y-120280000D03*
%TO.P,74LS30,13*%
X115180000Y-122820000D03*
%TO.P,74LS30,14*%
X115180000Y-125360000D03*
%TD*%
D11*
%TO.P,74LS04,1*%
%TO.N,N/C*%
X138500000Y-116930000D03*
D12*
%TO.P,74LS04,2*%
X138500000Y-119470000D03*
%TO.P,74LS04,3*%
X138500000Y-122010000D03*
%TO.P,74LS04,4*%
X138500000Y-124550000D03*
%TO.P,74LS04,5*%
X138500000Y-127090000D03*
%TO.P,74LS04,6*%
X138500000Y-129630000D03*
%TO.P,74LS04,7*%
X138500000Y-132170000D03*
%TO.P,74LS04,8*%
X146120000Y-132170000D03*
%TO.P,74LS04,9*%
X146120000Y-129630000D03*
%TO.P,74LS04,10*%
X146120000Y-127090000D03*
%TO.P,74LS04,11*%
X146120000Y-124550000D03*
%TO.P,74LS04,12*%
X146120000Y-122010000D03*
%TO.P,74LS04,13*%
X146120000Y-119470000D03*
%TO.P,74LS04,14*%
X146120000Y-116930000D03*
%TD*%
D11*
%TO.P,74LS161,1*%
%TO.N,N/C*%
X146100000Y-91610000D03*
D12*
%TO.P,74LS161,2*%
X146100000Y-89070000D03*
%TO.P,74LS161,3*%
X146100000Y-86530000D03*
%TO.P,74LS161,4*%
X146100000Y-83990000D03*
%TO.P,74LS161,5*%
X146100000Y-81450000D03*
%TO.P,74LS161,6*%
X146100000Y-78910000D03*
%TO.P,74LS161,7*%
X146100000Y-76370000D03*
%TO.P,74LS161,8*%
X146100000Y-73830000D03*
%TO.P,74LS161,9*%
X138480000Y-73830000D03*
%TO.P,74LS161,10*%
X138480000Y-76370000D03*
%TO.P,74LS161,11*%
X138480000Y-78910000D03*
%TO.P,74LS161,12*%
X138480000Y-81450000D03*
%TO.P,74LS161,13*%
X138480000Y-83990000D03*
%TO.P,74LS161,14*%
X138480000Y-86530000D03*
%TO.P,74LS161,15*%
X138480000Y-89070000D03*
%TO.P,74LS161,16*%
X138480000Y-91610000D03*
%TD*%
D11*
%TO.P,74LS30,1*%
%TO.N,N/C*%
X73700000Y-110160000D03*
D12*
%TO.P,74LS30,2*%
X73700000Y-112700000D03*
%TO.P,74LS30,3*%
X73700000Y-115240000D03*
%TO.P,74LS30,4*%
X73700000Y-117780000D03*
%TO.P,74LS30,5*%
X73700000Y-120320000D03*
%TO.P,74LS30,6*%
X73700000Y-122860000D03*
%TO.P,74LS30,7*%
X73700000Y-125400000D03*
%TO.P,74LS30,8*%
X81320000Y-125400000D03*
%TO.P,74LS30,9*%
X81320000Y-122860000D03*
%TO.P,74LS30,10*%
X81320000Y-120320000D03*
%TO.P,74LS30,11*%
X81320000Y-117780000D03*
%TO.P,74LS30,12*%
X81320000Y-115240000D03*
%TO.P,74LS30,13*%
X81320000Y-112700000D03*
%TO.P,74LS30,14*%
X81320000Y-110160000D03*
%TD*%
D11*
%TO.P,74LS161,1*%
%TO.N,N/C*%
X50500000Y-74060000D03*
D12*
%TO.P,74LS161,2*%
X50500000Y-76600000D03*
%TO.P,74LS161,3*%
X50500000Y-79140000D03*
%TO.P,74LS161,4*%
X50500000Y-81680000D03*
%TO.P,74LS161,5*%
X50500000Y-84220000D03*
%TO.P,74LS161,6*%
X50500000Y-86760000D03*
%TO.P,74LS161,7*%
X50500000Y-89300000D03*
%TO.P,74LS161,8*%
X50500000Y-91840000D03*
%TO.P,74LS161,9*%
X58120000Y-91840000D03*
%TO.P,74LS161,10*%
X58120000Y-89300000D03*
%TO.P,74LS161,11*%
X58120000Y-86760000D03*
%TO.P,74LS161,12*%
X58120000Y-84220000D03*
%TO.P,74LS161,13*%
X58120000Y-81680000D03*
%TO.P,74LS161,14*%
X58120000Y-79140000D03*
%TO.P,74LS161,15*%
X58120000Y-76600000D03*
%TO.P,74LS161,16*%
X58120000Y-74060000D03*
%TD*%
D10*
%TO.P,,1*%
%TO.N,N/C*%
X95010000Y-124850000D03*
%TD*%
D11*
%TO.P,74LS30,1*%
%TO.N,N/C*%
X122800000Y-64660000D03*
D12*
%TO.P,74LS30,2*%
X122800000Y-62120000D03*
%TO.P,74LS30,3*%
X122800000Y-59580000D03*
%TO.P,74LS30,4*%
X122800000Y-57040000D03*
%TO.P,74LS30,5*%
X122800000Y-54500000D03*
%TO.P,74LS30,6*%
X122800000Y-51960000D03*
%TO.P,74LS30,7*%
X122800000Y-49420000D03*
%TO.P,74LS30,8*%
X115180000Y-49420000D03*
%TO.P,74LS30,9*%
X115180000Y-51960000D03*
%TO.P,74LS30,10*%
X115180000Y-54500000D03*
%TO.P,74LS30,11*%
X115180000Y-57040000D03*
%TO.P,74LS30,12*%
X115180000Y-59580000D03*
%TO.P,74LS30,13*%
X115180000Y-62120000D03*
%TO.P,74LS30,14*%
X115180000Y-64660000D03*
%TD*%
D15*
%TO.P,VGA PORT 1,0*%
%TO.N,N/C*%
X70195000Y-137480000D03*
X95195000Y-137480000D03*
D16*
%TO.P,VGA PORT 1,1*%
X87010000Y-135430000D03*
D10*
%TO.P,VGA PORT 1,2*%
X84720000Y-135430000D03*
%TO.P,VGA PORT 1,3*%
X82430000Y-135430000D03*
%TO.P,VGA PORT 1,4*%
X80140000Y-135430000D03*
%TO.P,VGA PORT 1,5*%
X77850000Y-135430000D03*
%TO.P,VGA PORT 1,6*%
X88155000Y-137410000D03*
%TO.P,VGA PORT 1,7*%
X85865000Y-137410000D03*
%TO.P,VGA PORT 1,8*%
X83575000Y-137410000D03*
%TO.P,VGA PORT 1,9*%
X81285000Y-137410000D03*
%TO.P,VGA PORT 1,10*%
X78995000Y-137410000D03*
%TO.P,VGA PORT 1,11*%
X87010000Y-139390000D03*
%TO.P,VGA PORT 1,12*%
X84720000Y-139390000D03*
%TO.P,VGA PORT 1,13*%
X82430000Y-139390000D03*
%TO.P,VGA PORT 1,14*%
X80140000Y-139390000D03*
%TO.P,VGA PORT 1,15*%
X77850000Y-139390000D03*
%TD*%
D11*
%TO.P,74LS00,1*%
%TO.N,N/C*%
X103690000Y-94990000D03*
D12*
%TO.P,74LS00,2*%
X103690000Y-97530000D03*
%TO.P,74LS00,3*%
X103690000Y-100070000D03*
%TO.P,74LS00,4*%
X103690000Y-102610000D03*
%TO.P,74LS00,5*%
X103690000Y-105150000D03*
%TO.P,74LS00,6*%
X103690000Y-107690000D03*
%TO.P,74LS00,7*%
X103690000Y-110230000D03*
%TO.P,74LS00,8*%
X111310000Y-110230000D03*
%TO.P,74LS00,9*%
X111310000Y-107690000D03*
%TO.P,74LS00,10*%
X111310000Y-105150000D03*
%TO.P,74LS00,11*%
X111310000Y-102610000D03*
%TO.P,74LS00,12*%
X111310000Y-100070000D03*
%TO.P,74LS00,13*%
X111310000Y-97530000D03*
%TO.P,74LS00,14*%
X111310000Y-94990000D03*
%TD*%
D17*
%TO.N,*%
X61900000Y-62760000D03*
X54300000Y-91860000D03*
X65900000Y-99760000D03*
X54300000Y-113360000D03*
X141400000Y-54910000D03*
X129100000Y-102660000D03*
X69100000Y-86960000D03*
X131500000Y-100260000D03*
X135500000Y-65030000D03*
X68300000Y-117760000D03*
X53800000Y-129660000D03*
X61100000Y-69660000D03*
X67500000Y-115260000D03*
X126700000Y-66760000D03*
X52500000Y-95560000D03*
X134700000Y-95060000D03*
X61100000Y-89860000D03*
X65100000Y-51960000D03*
X133900000Y-51960000D03*
X64300000Y-47860000D03*
X105710000Y-77750000D03*
X96710000Y-87650000D03*
X126700000Y-115760000D03*
X114110000Y-131150000D03*
X116015000Y-133550000D03*
X55200000Y-74060000D03*
X52500000Y-52560000D03*
X52500000Y-74060000D03*
X131500000Y-57060000D03*
X95110000Y-70150000D03*
X69100000Y-120360000D03*
X95110000Y-67650000D03*
X69900000Y-87960000D03*
X118210000Y-89850000D03*
X55200000Y-113360000D03*
X143200000Y-67610000D03*
X131500000Y-79860000D03*
X78510000Y-48650000D03*
X134700000Y-112660000D03*
X70700000Y-125760000D03*
X84710000Y-133550000D03*
X66700000Y-112660000D03*
X142610000Y-122050000D03*
X142300000Y-95310000D03*
X65900000Y-47860000D03*
X133100000Y-48660000D03*
X70700000Y-66760000D03*
X104610000Y-132850000D03*
X144100000Y-113110000D03*
X103410000Y-72650000D03*
X125100000Y-87760000D03*
X55200000Y-52560000D03*
X130700000Y-47960000D03*
X67500000Y-122160000D03*
X128300000Y-114160000D03*
X136300000Y-62530000D03*
X130700000Y-102930000D03*
X55200000Y-70360000D03*
X86010000Y-131050000D03*
X129100000Y-122860000D03*
X110310000Y-91450000D03*
X118310000Y-133550000D03*
X71500000Y-126660000D03*
X131500000Y-48660000D03*
X53800000Y-124660000D03*
X60300000Y-48560000D03*
X141400000Y-97910000D03*
X61100000Y-47860000D03*
X131400000Y-127360000D03*
X104310000Y-75250000D03*
X62700000Y-65260000D03*
X75800000Y-110250000D03*
X101610000Y-67650000D03*
X125900000Y-116560000D03*
X67500000Y-79860000D03*
X82430000Y-133550000D03*
X69100000Y-123960000D03*
X93210000Y-72650000D03*
X70700000Y-122860000D03*
X60300000Y-57660000D03*
X93210000Y-75250000D03*
X68300000Y-123060000D03*
X144100000Y-70110000D03*
X132300000Y-86530000D03*
X133900000Y-97560000D03*
X66700000Y-100660000D03*
X75810000Y-131850000D03*
X110310000Y-114750000D03*
X125100000Y-67660000D03*
X53400000Y-98060000D03*
X84710000Y-113250000D03*
X141400000Y-76410000D03*
X143200000Y-110610000D03*
X126700000Y-87060000D03*
X63500000Y-72260000D03*
X53800000Y-119560000D03*
X92410000Y-80750000D03*
X67500000Y-57160000D03*
X53400000Y-76560000D03*
X110310000Y-112150000D03*
X127500000Y-64660000D03*
X64300000Y-94960000D03*
X65900000Y-77260000D03*
X141400000Y-52310000D03*
X68300000Y-59660000D03*
X127500000Y-114960000D03*
X71500000Y-67560000D03*
X61900000Y-48560000D03*
X129100000Y-82460000D03*
X92210000Y-133250000D03*
X84310000Y-84250000D03*
X69100000Y-62160000D03*
X69900000Y-124860000D03*
X63500000Y-79160000D03*
X144100000Y-91610000D03*
X113725000Y-133550000D03*
X132300000Y-128260000D03*
X65100000Y-84160000D03*
X92310000Y-71650000D03*
X64300000Y-81660000D03*
X65900000Y-86760000D03*
X63500000Y-92460000D03*
X131500000Y-125360000D03*
X82910000Y-131050000D03*
X133900000Y-74760000D03*
X133900000Y-47960000D03*
X117610000Y-49350000D03*
X143510000Y-127060000D03*
X61100000Y-60260000D03*
X69900000Y-108160000D03*
X62700000Y-47860000D03*
X133100000Y-106760000D03*
X127500000Y-84960000D03*
X89510000Y-113250000D03*
X101610000Y-70150000D03*
X112810000Y-112150000D03*
X65900000Y-54560000D03*
X142300000Y-117140000D03*
X129100000Y-108030000D03*
X53400000Y-55060000D03*
X55200000Y-67760000D03*
X127500000Y-105160000D03*
X92410000Y-82850000D03*
X128300000Y-62160000D03*
X141400000Y-91610000D03*
X87010000Y-133550000D03*
X93210000Y-77750000D03*
X129100000Y-59560000D03*
X133100000Y-84030000D03*
X65100000Y-48560000D03*
X143200000Y-89110000D03*
X136300000Y-72260000D03*
X127500000Y-120260000D03*
X118210000Y-107650000D03*
X141400000Y-95310000D03*
X136710000Y-45750000D03*
X71500000Y-82460000D03*
X133100000Y-77360000D03*
X65100000Y-74760000D03*
X54300000Y-70360000D03*
X63500000Y-48560000D03*
X142300000Y-73810000D03*
X55200000Y-89260000D03*
X133100000Y-54460000D03*
X55200000Y-110760000D03*
X142300000Y-52310000D03*
X125100000Y-117360000D03*
X62700000Y-49460000D03*
X129900000Y-48660000D03*
X136710000Y-43350000D03*
X136300000Y-92560000D03*
X134700000Y-48660000D03*
X125100000Y-108060000D03*
X129100000Y-47960000D03*
X133900000Y-81430000D03*
X132300000Y-47960000D03*
X69100000Y-107160000D03*
X129900000Y-105530000D03*
X67500000Y-102560000D03*
X141400000Y-113110000D03*
X65100000Y-97460000D03*
X134700000Y-78930000D03*
X62700000Y-110160000D03*
X110310000Y-113450000D03*
%TD*%
D18*
%TO.N,*%
X92630000Y-95025000D02*
X92630000Y-92570000D01*
X110210000Y-113450000D02*
X110310000Y-113450000D01*
X111710000Y-92350000D02*
X112210000Y-91850000D01*
X138400000Y-105410000D02*
X138480000Y-105490000D01*
X118420000Y-100080000D02*
X115280000Y-100080000D01*
X130700000Y-46860000D02*
X129800000Y-45960000D01*
X146100000Y-113110000D02*
X144100000Y-113110000D01*
X63500000Y-48560000D02*
X63500000Y-46160000D01*
X112140000Y-49420000D02*
X106140000Y-49420000D01*
X133020000Y-114960000D02*
X135500000Y-117440000D01*
X137090000Y-124550000D02*
X138500000Y-124550000D01*
X61100000Y-47860000D02*
X61100000Y-45860000D01*
X146100000Y-89070000D02*
X143240000Y-89070000D01*
X104310000Y-56750000D02*
X101070000Y-59990000D01*
X133900000Y-118540000D02*
X131920000Y-116560000D01*
X96750000Y-64750000D02*
X97070000Y-65070000D01*
X69100000Y-86960000D02*
X69200000Y-87060000D01*
X78995000Y-137410000D02*
X77850000Y-136265000D01*
X76510000Y-66760000D02*
X76510000Y-56550000D01*
X127300000Y-107160000D02*
X120600000Y-107160000D01*
X111310000Y-107690000D02*
X118170000Y-107690000D01*
X130700000Y-47960000D02*
X130700000Y-46860000D01*
X131480000Y-79880000D02*
X131500000Y-79860000D01*
X85010000Y-87450000D02*
X84910000Y-87350000D01*
X92310000Y-80650000D02*
X92310000Y-71650000D01*
X71400000Y-126560000D02*
X64400000Y-126560000D01*
X55300000Y-133360000D02*
X55300000Y-125660000D01*
X54100000Y-129660000D02*
X53800000Y-129660000D01*
X87010000Y-135430000D02*
X87010000Y-133550000D01*
X112210000Y-49490000D02*
X112140000Y-49420000D01*
X141440000Y-97870000D02*
X146100000Y-97870000D01*
X55800000Y-135760000D02*
X53010000Y-132970000D01*
X120600000Y-99760000D02*
X118380000Y-97540000D01*
X73700000Y-69660000D02*
X61100000Y-69660000D01*
X119010000Y-128650000D02*
X119010000Y-126050000D01*
X127480000Y-120280000D02*
X127500000Y-120260000D01*
X73700000Y-59620000D02*
X68340000Y-59620000D01*
X60300000Y-45760000D02*
X63100000Y-42960000D01*
X129060000Y-122820000D02*
X129100000Y-122860000D01*
X95590000Y-62530000D02*
X97070000Y-62530000D01*
X143240000Y-89070000D02*
X143200000Y-89110000D01*
X140560000Y-54870000D02*
X138480000Y-54870000D01*
X110310000Y-112150000D02*
X108510000Y-110350000D01*
X119800000Y-67660000D02*
X119800000Y-61060000D01*
X91610000Y-100105000D02*
X90630000Y-101085000D01*
X73700000Y-82360000D02*
X71600000Y-82360000D01*
X50500000Y-98100000D02*
X53360000Y-98100000D01*
X92410000Y-82850000D02*
X94110000Y-82850000D01*
X103110000Y-52850000D02*
X101050000Y-54910000D01*
X58120000Y-100640000D02*
X66680000Y-100640000D01*
X53400000Y-55060000D02*
X50540000Y-55060000D01*
X56800000Y-133960000D02*
X56000000Y-133160000D01*
X73700000Y-52000000D02*
X65100000Y-52000000D01*
X75800000Y-76960000D02*
X78020000Y-74740000D01*
X63500000Y-92400000D02*
X63500000Y-92460000D01*
X85710000Y-132450000D02*
X89610000Y-132450000D01*
X133880000Y-97540000D02*
X133900000Y-97560000D01*
X138480000Y-89070000D02*
X140540000Y-89070000D01*
X146100000Y-95330000D02*
X142320000Y-95330000D01*
X91160000Y-97565000D02*
X90410000Y-96815000D01*
X64700000Y-45960000D02*
X91920000Y-45960000D01*
X95650000Y-59990000D02*
X97070000Y-59990000D01*
X67500000Y-115240000D02*
X67500000Y-115260000D01*
X50500000Y-52560000D02*
X52500000Y-52560000D01*
X146120000Y-116930000D02*
X144470000Y-116930000D01*
X122800000Y-117740000D02*
X123520000Y-117740000D01*
X58160000Y-119560000D02*
X58120000Y-119600000D01*
X110290000Y-137420000D02*
X109145000Y-136275000D01*
X79110000Y-109550000D02*
X80110000Y-108550000D01*
X111310000Y-97530000D02*
X110530000Y-97530000D01*
X138480000Y-62490000D02*
X136340000Y-62490000D01*
X122800000Y-120280000D02*
X127480000Y-120280000D01*
X142600000Y-127970000D02*
X142600000Y-133360000D01*
X75800000Y-107260000D02*
X75800000Y-97160000D01*
X122800000Y-92460000D02*
X136200000Y-92460000D01*
X129500000Y-46560000D02*
X104600000Y-46560000D01*
X131920000Y-116560000D02*
X125900000Y-116560000D01*
X122800000Y-122820000D02*
X129060000Y-122820000D01*
X127500000Y-114960000D02*
X133020000Y-114960000D01*
X120600000Y-120060000D02*
X118280000Y-117740000D01*
X64300000Y-45360000D02*
X92620000Y-45360000D01*
X54280000Y-91840000D02*
X50500000Y-91840000D01*
X64300000Y-46360000D02*
X64700000Y-45960000D01*
X144470000Y-116930000D02*
X141400000Y-113860000D01*
X82630000Y-47160000D02*
X82640000Y-47150000D01*
X122800000Y-77340000D02*
X133080000Y-77340000D01*
X92310000Y-46350000D02*
X92310000Y-54150000D01*
X130720000Y-102950000D02*
X130700000Y-102930000D01*
X101910000Y-44550000D02*
X101910000Y-48950000D01*
X75800000Y-87060000D02*
X75800000Y-76960000D01*
X105510000Y-50050000D02*
X105510000Y-60750000D01*
X95010000Y-86550000D02*
X95010000Y-82850000D01*
X103710000Y-110250000D02*
X107010000Y-110250000D01*
X53400000Y-113360000D02*
X52500000Y-113360000D01*
X110110000Y-93150000D02*
X112010000Y-93150000D01*
X73700000Y-89860000D02*
X61100000Y-89860000D01*
X110610000Y-114750000D02*
X110310000Y-114750000D01*
X73700000Y-122860000D02*
X70700000Y-122860000D01*
X140600000Y-54910000D02*
X140560000Y-54870000D01*
X129810000Y-128950000D02*
X119310000Y-128950000D01*
X129940000Y-105490000D02*
X129900000Y-105530000D01*
X105710000Y-77750000D02*
X105690000Y-77770000D01*
X73700000Y-99760000D02*
X65900000Y-99760000D01*
X73700000Y-100020000D02*
X73700000Y-99760000D01*
X136340000Y-62490000D02*
X136300000Y-62530000D01*
X67500000Y-79820000D02*
X67500000Y-79860000D01*
X91920000Y-45960000D02*
X92310000Y-46350000D01*
X142300000Y-117040000D02*
X142300000Y-117140000D01*
X129080000Y-59580000D02*
X129100000Y-59560000D01*
X138480000Y-102950000D02*
X130720000Y-102950000D01*
X104290000Y-75230000D02*
X99610000Y-75230000D01*
X105510000Y-60750000D02*
X101190000Y-65070000D01*
X58020000Y-95460000D02*
X58120000Y-95560000D01*
X101710000Y-98950000D02*
X101710000Y-106450000D01*
X86010000Y-131050000D02*
X87010000Y-130050000D01*
X56060000Y-76600000D02*
X56000000Y-76660000D01*
X95010000Y-127650000D02*
X95010000Y-124850000D01*
X65100000Y-52000000D02*
X65100000Y-51960000D01*
X124700000Y-116560000D02*
X125900000Y-116560000D01*
X118210000Y-89850000D02*
X115250000Y-89850000D01*
X107065000Y-140270000D02*
X107065000Y-136705000D01*
X82430000Y-139390000D02*
X82430000Y-139395000D01*
X70700000Y-66760000D02*
X76510000Y-66760000D01*
X69200000Y-107260000D02*
X75800000Y-107260000D01*
X84310000Y-112150000D02*
X83610000Y-112850000D01*
X129060000Y-102620000D02*
X129100000Y-102660000D01*
X112810000Y-112150000D02*
X112810000Y-112050000D01*
X92630000Y-97565000D02*
X91160000Y-97565000D01*
X62700000Y-49460000D02*
X73700000Y-49460000D01*
X67500000Y-57160000D02*
X73700000Y-57160000D01*
X107795000Y-139960000D02*
X108595000Y-140760000D01*
X141400000Y-95310000D02*
X138500000Y-95310000D01*
X65900000Y-77280000D02*
X65900000Y-77260000D01*
X84720000Y-135430000D02*
X84720000Y-133560000D01*
D19*
X54300000Y-116460000D02*
X52400000Y-118360000D01*
D18*
X72000000Y-127160000D02*
X71500000Y-126660000D01*
X93710000Y-49010000D02*
X97070000Y-52370000D01*
X65210000Y-131850000D02*
X75810000Y-131850000D01*
X62700000Y-46060000D02*
X64000000Y-44760000D01*
X93710000Y-45150000D02*
X93710000Y-49010000D01*
X93010000Y-52250000D02*
X95670000Y-54910000D01*
X115250000Y-89850000D02*
X115180000Y-89920000D01*
X126800000Y-114160000D02*
X128300000Y-114160000D01*
X75800000Y-97160000D02*
X78020000Y-94940000D01*
X140310000Y-115050000D02*
X142300000Y-117040000D01*
X55200000Y-89260000D02*
X55160000Y-89300000D01*
X61900000Y-48560000D02*
X61900000Y-45960000D01*
X138500000Y-95310000D02*
X138480000Y-95330000D01*
X63100000Y-42960000D02*
X96420000Y-42960000D01*
X128300000Y-114160000D02*
X133620000Y-114160000D01*
X55200000Y-110760000D02*
X55160000Y-110800000D01*
X50540000Y-55060000D02*
X50500000Y-55100000D01*
D19*
X54300000Y-113360000D02*
X54300000Y-116460000D01*
D18*
X101030000Y-49830000D02*
X99610000Y-49830000D01*
X107795000Y-136035000D02*
X107795000Y-139960000D01*
X59600000Y-134560000D02*
X56500000Y-134560000D01*
X100300000Y-42960000D02*
X99610000Y-43650000D01*
X82430000Y-135430000D02*
X82430000Y-133550000D01*
D20*
X142320000Y-95330000D02*
X142300000Y-95310000D01*
D18*
X82430000Y-139395000D02*
X82555000Y-139520000D01*
X97030000Y-67650000D02*
X97070000Y-67610000D01*
X54600000Y-130160000D02*
X54100000Y-129660000D01*
D19*
X52400000Y-118360000D02*
X52400000Y-132260000D01*
D18*
X84980000Y-105215000D02*
X85010000Y-105185000D01*
X81025000Y-141560000D02*
X80140000Y-140675000D01*
X58080000Y-67760000D02*
X58120000Y-67800000D01*
X93010000Y-45750000D02*
X93010000Y-52250000D01*
X65900000Y-47160000D02*
X82630000Y-47160000D01*
X86960000Y-97565000D02*
X85010000Y-97565000D01*
X109910000Y-92350000D02*
X111710000Y-92350000D01*
X76500000Y-78860000D02*
X78080000Y-77280000D01*
X120600000Y-107160000D02*
X120600000Y-99760000D01*
X90410000Y-91750000D02*
X83410000Y-84750000D01*
X81320000Y-64700000D02*
X81370000Y-64750000D01*
X73700000Y-62160000D02*
X69100000Y-62160000D01*
X142300000Y-52310000D02*
X143200000Y-52310000D01*
X102810000Y-132450000D02*
X89610000Y-132450000D01*
X130100000Y-45360000D02*
X103500000Y-45360000D01*
X59140000Y-127220000D02*
X58120000Y-127220000D01*
X144470000Y-116930000D02*
X144390000Y-116850000D01*
X92630000Y-92570000D02*
X84310000Y-84250000D01*
X73700000Y-115240000D02*
X67500000Y-115240000D01*
X132300000Y-46660000D02*
X130400000Y-44760000D01*
X81320000Y-97480000D02*
X78080000Y-97480000D01*
X93750000Y-91450000D02*
X92630000Y-92570000D01*
X137270000Y-129630000D02*
X138500000Y-129630000D01*
X103110000Y-45750000D02*
X103110000Y-52850000D01*
X134700000Y-124960000D02*
X136300000Y-126560000D01*
X58120000Y-122140000D02*
X67480000Y-122140000D01*
X73700000Y-54560000D02*
X73700000Y-54540000D01*
X138580000Y-70210000D02*
X138480000Y-70110000D01*
D19*
X52500000Y-133560000D02*
X52600000Y-133560000D01*
D18*
X144310000Y-116850000D02*
X144310000Y-132900000D01*
X75810000Y-64250000D02*
X75360000Y-64700000D01*
X120600000Y-79660000D02*
X120600000Y-87060000D01*
X95650000Y-47290000D02*
X97070000Y-47290000D01*
D19*
X52400000Y-132260000D02*
X52360000Y-132300000D01*
D18*
X141300000Y-134660000D02*
X136900000Y-134660000D01*
X67480000Y-122140000D02*
X67500000Y-122160000D01*
X55200000Y-67760000D02*
X55160000Y-67800000D01*
X105610000Y-131850000D02*
X105610000Y-112150000D01*
X138500000Y-73810000D02*
X138480000Y-73830000D01*
X110395000Y-140760000D02*
X111435000Y-139720000D01*
X63500000Y-46160000D02*
X64300000Y-45360000D01*
X122800000Y-64660000D02*
X127500000Y-64660000D01*
X94110000Y-82850000D02*
X97070000Y-82850000D01*
X95110000Y-70150000D02*
X97070000Y-70150000D01*
X106140000Y-49420000D02*
X105510000Y-50050000D01*
X111310000Y-97530000D02*
X110790000Y-97530000D01*
X81320000Y-84900000D02*
X82460000Y-84900000D01*
X69900000Y-87960000D02*
X70100000Y-87760000D01*
D19*
X53000000Y-118860000D02*
X55200000Y-116660000D01*
D18*
X87010000Y-106565000D02*
X87010000Y-111350000D01*
X63200000Y-127760000D02*
X63200000Y-131860000D01*
X87010000Y-130050000D02*
X92610000Y-130050000D01*
X56200000Y-135160000D02*
X54600000Y-133560000D01*
X55160000Y-110800000D02*
X50500000Y-110800000D01*
X82640000Y-47150000D02*
X90610000Y-47150000D01*
X101310000Y-44100000D02*
X101310000Y-47050000D01*
X131480000Y-57040000D02*
X131500000Y-57060000D01*
X99610000Y-43650000D02*
X99610000Y-44750000D01*
X101910000Y-48950000D02*
X101030000Y-49830000D01*
X84625000Y-110265000D02*
X85010000Y-110265000D01*
X84720000Y-133560000D02*
X84710000Y-133550000D01*
X97030000Y-72650000D02*
X97070000Y-72690000D01*
X104600000Y-46560000D02*
X104310000Y-46850000D01*
X119800000Y-61060000D02*
X118320000Y-59580000D01*
X78080000Y-97480000D02*
X76500000Y-99060000D01*
X93250000Y-72690000D02*
X97070000Y-72690000D01*
X77850000Y-133890000D02*
X77850000Y-135430000D01*
X141400000Y-91610000D02*
X138480000Y-91610000D01*
X128260000Y-62120000D02*
X128300000Y-62160000D01*
X135500000Y-120560000D02*
X136300000Y-121360000D01*
X50500000Y-70340000D02*
X54280000Y-70340000D01*
X78520000Y-54540000D02*
X81320000Y-54540000D01*
X136200000Y-92460000D02*
X136300000Y-92560000D01*
X141440000Y-54870000D02*
X146100000Y-54870000D01*
X87010000Y-111350000D02*
X86210000Y-112150000D01*
X85010000Y-100105000D02*
X85010000Y-102645000D01*
X65100000Y-48560000D02*
X65100000Y-46760000D01*
X69200000Y-87060000D02*
X75800000Y-87060000D01*
X110790000Y-97530000D02*
X109310000Y-96050000D01*
X77210000Y-58250000D02*
X78380000Y-57080000D01*
X138520000Y-97910000D02*
X138480000Y-97870000D01*
X60300000Y-135760000D02*
X55800000Y-135760000D01*
X55200000Y-74060000D02*
X58120000Y-74060000D01*
X141400000Y-97910000D02*
X141440000Y-97870000D01*
X129100000Y-47960000D02*
X129100000Y-47160000D01*
X118320000Y-79880000D02*
X119800000Y-81360000D01*
X103710000Y-46300000D02*
X103710000Y-54850000D01*
X131300000Y-42960000D02*
X100300000Y-42960000D01*
X50500000Y-76600000D02*
X53360000Y-76600000D01*
X136300000Y-121360000D02*
X136300000Y-123760000D01*
X129060000Y-82420000D02*
X129100000Y-82460000D01*
X52500000Y-74060000D02*
X50500000Y-74060000D01*
X52500000Y-133460000D02*
X55400000Y-136360000D01*
X138500000Y-52310000D02*
X138480000Y-52330000D01*
X78510000Y-48650000D02*
X78510000Y-53250000D01*
X82910000Y-108550000D02*
X84625000Y-110265000D01*
X58100000Y-91860000D02*
X58120000Y-91840000D01*
X119800000Y-108060000D02*
X119800000Y-101460000D01*
X65100000Y-97480000D02*
X65100000Y-97460000D01*
X140540000Y-89070000D02*
X140600000Y-89010000D01*
X141600000Y-122660000D02*
X141600000Y-133060000D01*
X53360000Y-76600000D02*
X53400000Y-76560000D01*
X73700000Y-79820000D02*
X67500000Y-79820000D01*
X81405000Y-105185000D02*
X85010000Y-105185000D01*
X104310000Y-46850000D02*
X104310000Y-56750000D01*
X80110000Y-108550000D02*
X82910000Y-108550000D01*
X75810000Y-131850000D02*
X77850000Y-133890000D01*
X94410000Y-44550000D02*
X94410000Y-48550000D01*
X138480000Y-78910000D02*
X134720000Y-78910000D01*
X133620000Y-114160000D02*
X136300000Y-116840000D01*
X101090000Y-52370000D02*
X99610000Y-52370000D01*
X142300000Y-73810000D02*
X142320000Y-73830000D01*
X62500000Y-127260000D02*
X62500000Y-131660000D01*
X144100000Y-52310000D02*
X146080000Y-52310000D01*
X87010000Y-97615000D02*
X86960000Y-97565000D01*
X136300000Y-117270000D02*
X138500000Y-119470000D01*
X83410000Y-64750000D02*
X83360000Y-64700000D01*
X107270000Y-94990000D02*
X109910000Y-92350000D01*
X101710000Y-106450000D02*
X102950000Y-107690000D01*
X56000000Y-133160000D02*
X56000000Y-120960000D01*
X141440000Y-76370000D02*
X146100000Y-76370000D01*
X61100000Y-130260000D02*
X59060000Y-132300000D01*
X65100000Y-74740000D02*
X65100000Y-74760000D01*
X62700000Y-47860000D02*
X62700000Y-46060000D01*
X118280000Y-57040000D02*
X115180000Y-57040000D01*
X140900000Y-133760000D02*
X137300000Y-133760000D01*
X87010000Y-106565000D02*
X87010000Y-97615000D01*
X52500000Y-113360000D02*
X50520000Y-113360000D01*
X109310000Y-96050000D02*
X109310000Y-93950000D01*
X93320000Y-44760000D02*
X93710000Y-45150000D01*
X117680000Y-49420000D02*
X122800000Y-49420000D01*
X119450000Y-137420000D02*
X117160000Y-137420000D01*
X101570000Y-67610000D02*
X101610000Y-67650000D01*
X65900000Y-54560000D02*
X73700000Y-54560000D01*
X97050000Y-77750000D02*
X97070000Y-77770000D01*
X66680000Y-100640000D02*
X66700000Y-100660000D01*
X95110000Y-46750000D02*
X95650000Y-47290000D01*
X103410000Y-72650000D02*
X103370000Y-72690000D01*
X101070000Y-59990000D02*
X99610000Y-59990000D01*
X136900000Y-134660000D02*
X133100000Y-130860000D01*
X64400000Y-126560000D02*
X63200000Y-127760000D01*
X129900000Y-48660000D02*
X129900000Y-46960000D01*
X93210000Y-72650000D02*
X93250000Y-72690000D01*
X122800000Y-79880000D02*
X131480000Y-79880000D01*
X54600000Y-133560000D02*
X54600000Y-130160000D01*
X109310000Y-101050000D02*
X109310000Y-109850000D01*
X130700000Y-44160000D02*
X102300000Y-44160000D01*
X131500000Y-100260000D02*
X131650000Y-100410000D01*
X61800000Y-131460000D02*
X59300000Y-133960000D01*
X63480000Y-79140000D02*
X58120000Y-79140000D01*
X119010000Y-126050000D02*
X118320000Y-125360000D01*
X82460000Y-84900000D02*
X84910000Y-87350000D01*
X118320000Y-59580000D02*
X115180000Y-59580000D01*
X64000000Y-125760000D02*
X62500000Y-127260000D01*
X115180000Y-77340000D02*
X118280000Y-77340000D01*
X107795000Y-132865000D02*
X107795000Y-136035000D01*
D19*
X52400000Y-132260000D02*
X52400000Y-133460000D01*
D18*
X75360000Y-64700000D02*
X73700000Y-64700000D01*
X118170000Y-107690000D02*
X118210000Y-107650000D01*
X78510000Y-53250000D02*
X75810000Y-55950000D01*
X103710000Y-54850000D02*
X101110000Y-57450000D01*
X109310000Y-109850000D02*
X109690000Y-110230000D01*
X129900000Y-46960000D02*
X129500000Y-46560000D01*
X87685000Y-140790000D02*
X83425000Y-140790000D01*
X142610000Y-122050000D02*
X142210000Y-122050000D01*
X125760000Y-115200000D02*
X126800000Y-114160000D01*
X92610000Y-130050000D02*
X95010000Y-127650000D01*
X92210000Y-133250000D02*
X90335000Y-135125000D01*
X123520000Y-117740000D02*
X124700000Y-116560000D01*
X118210000Y-107650000D02*
X118190000Y-107630000D01*
X89610000Y-134450000D02*
X89610000Y-138865000D01*
X102950000Y-107690000D02*
X103690000Y-107690000D01*
X96420000Y-42960000D02*
X97070000Y-43610000D01*
X81960000Y-125400000D02*
X81320000Y-125400000D01*
X54600000Y-119560000D02*
X53800000Y-119560000D01*
X65040000Y-84220000D02*
X58120000Y-84220000D01*
X103130000Y-97530000D02*
X101710000Y-98950000D01*
X101130000Y-62530000D02*
X99610000Y-62530000D01*
X122800000Y-54500000D02*
X133060000Y-54500000D01*
X58200000Y-60260000D02*
X58120000Y-60180000D01*
X56500000Y-134560000D02*
X55300000Y-133360000D01*
X133900000Y-51960000D02*
X122800000Y-51960000D01*
X102510000Y-45250000D02*
X102510000Y-50950000D01*
X74800000Y-127160000D02*
X72000000Y-127160000D01*
X122800000Y-110120000D02*
X134380000Y-110120000D01*
X133900000Y-47960000D02*
X133900000Y-46460000D01*
X146080000Y-52310000D02*
X146100000Y-52330000D01*
X59900000Y-135160000D02*
X56200000Y-135160000D01*
X78020000Y-74740000D02*
X81320000Y-74740000D01*
X56040000Y-110800000D02*
X58120000Y-110800000D01*
X133900000Y-46460000D02*
X131000000Y-43560000D01*
X73700000Y-117780000D02*
X68300000Y-117780000D01*
X78910000Y-110250000D02*
X79110000Y-110050000D01*
X94410000Y-48550000D02*
X95690000Y-49830000D01*
X95610000Y-57450000D02*
X97070000Y-57450000D01*
X118320000Y-120280000D02*
X115180000Y-120280000D01*
X75800000Y-126160000D02*
X74800000Y-127160000D01*
X78080000Y-117780000D02*
X75800000Y-120060000D01*
X120600000Y-66760000D02*
X120600000Y-59360000D01*
X73700000Y-102560000D02*
X67500000Y-102560000D01*
D19*
X57720000Y-116660000D02*
X55200000Y-116660000D01*
X53000000Y-132950000D02*
X53000000Y-118860000D01*
D18*
X136300000Y-126560000D02*
X136300000Y-128660000D01*
X114740000Y-110120000D02*
X115180000Y-110120000D01*
X105690000Y-77770000D02*
X99610000Y-77770000D01*
X103690000Y-100070000D02*
X103690000Y-102610000D01*
X65900000Y-47860000D02*
X65900000Y-47160000D01*
X133920000Y-81450000D02*
X133900000Y-81430000D01*
X97070000Y-43610000D02*
X97070000Y-44750000D01*
X133080000Y-77340000D02*
X133100000Y-77360000D01*
X95670000Y-54910000D02*
X97070000Y-54910000D01*
X83610000Y-130350000D02*
X85710000Y-132450000D01*
X90410000Y-96815000D02*
X90410000Y-91750000D01*
X61900000Y-45960000D02*
X63700000Y-44160000D01*
X77850000Y-136265000D02*
X77850000Y-135430000D01*
X53360000Y-98100000D02*
X53400000Y-98060000D01*
X140600000Y-89010000D02*
X140600000Y-54910000D01*
X111435000Y-139720000D02*
X111435000Y-139400000D01*
X59060000Y-132300000D02*
X58120000Y-132300000D01*
X133100000Y-119040000D02*
X131420000Y-117360000D01*
X137300000Y-133760000D02*
X133900000Y-130360000D01*
D20*
X54280000Y-70340000D02*
X54300000Y-70360000D01*
D18*
X83425000Y-140790000D02*
X82430000Y-139795000D01*
X112810000Y-112050000D02*
X114740000Y-110120000D01*
X118305000Y-133555000D02*
X118310000Y-133550000D01*
X93210000Y-77750000D02*
X97050000Y-77750000D01*
X138440000Y-102910000D02*
X138480000Y-102950000D01*
X126710000Y-115750000D02*
X132510000Y-115750000D01*
X120600000Y-127560000D02*
X120600000Y-120060000D01*
X68300000Y-117780000D02*
X68300000Y-117760000D01*
X141400000Y-97910000D02*
X138520000Y-97910000D01*
X101610000Y-70150000D02*
X99610000Y-70150000D01*
X73700000Y-110160000D02*
X62700000Y-110160000D01*
X108595000Y-140760000D02*
X110395000Y-140760000D01*
X103370000Y-72690000D02*
X99610000Y-72690000D01*
X63700000Y-44160000D02*
X94020000Y-44160000D01*
X133900000Y-130360000D02*
X133900000Y-118540000D01*
X54300000Y-91860000D02*
X54280000Y-91840000D01*
D19*
X52400000Y-133460000D02*
X52500000Y-133560000D01*
D18*
X122800000Y-112660000D02*
X134700000Y-112660000D01*
X143510000Y-127060000D02*
X142600000Y-127970000D01*
X131650000Y-100410000D02*
X138480000Y-100410000D01*
X105100000Y-47160000D02*
X104910000Y-47350000D01*
X115180000Y-49420000D02*
X112140000Y-49420000D01*
X81370000Y-64750000D02*
X96750000Y-64750000D01*
X96110000Y-87650000D02*
X95010000Y-86550000D01*
X79110000Y-110050000D02*
X79110000Y-109550000D01*
X56000000Y-120960000D02*
X54600000Y-119560000D01*
X134720000Y-78910000D02*
X134700000Y-78930000D01*
X73700000Y-92400000D02*
X63500000Y-92400000D01*
X105610000Y-112150000D02*
X103690000Y-110230000D01*
X131400000Y-127360000D02*
X131200000Y-127560000D01*
X127700000Y-106760000D02*
X127300000Y-107160000D01*
X142210000Y-122050000D02*
X141600000Y-122660000D01*
X62500000Y-131660000D02*
X59600000Y-134560000D01*
X71600000Y-82360000D02*
X71500000Y-82460000D01*
X94520000Y-43560000D02*
X95110000Y-44150000D01*
X61100000Y-126360000D02*
X61100000Y-130260000D01*
X132300000Y-47960000D02*
X132300000Y-46660000D01*
X118305000Y-135440000D02*
X118305000Y-133555000D01*
X138480000Y-65030000D02*
X135500000Y-65030000D01*
X143240000Y-67570000D02*
X143200000Y-67610000D01*
X141400000Y-113860000D02*
X141400000Y-113110000D01*
X107065000Y-136705000D02*
X102810000Y-132450000D01*
X64000000Y-44760000D02*
X93320000Y-44760000D01*
X131000000Y-43560000D02*
X101850000Y-43560000D01*
X78020000Y-94940000D02*
X81320000Y-94940000D01*
X141600000Y-133060000D02*
X140900000Y-133760000D01*
X104610000Y-132850000D02*
X107795000Y-136035000D01*
X85010000Y-107725000D02*
X87010000Y-107725000D01*
X92630000Y-102645000D02*
X92630000Y-105185000D01*
X111310000Y-110230000D02*
X111310000Y-114050000D01*
X69100000Y-123960000D02*
X63500000Y-123960000D01*
X131320000Y-100080000D02*
X122800000Y-100080000D01*
X91220000Y-46560000D02*
X91610000Y-46950000D01*
X81320000Y-105100000D02*
X81405000Y-105185000D01*
X112210000Y-91850000D02*
X112210000Y-49490000D01*
X84710000Y-113250000D02*
X89510000Y-113250000D01*
X146100000Y-67570000D02*
X143240000Y-67570000D01*
X81320000Y-117780000D02*
X81320000Y-115240000D01*
X89610000Y-132450000D02*
X89610000Y-134450000D01*
X73700000Y-120320000D02*
X69100000Y-120320000D01*
X101050000Y-54910000D02*
X99610000Y-54910000D01*
X136710000Y-45750000D02*
X136710000Y-43350000D01*
X63500000Y-123960000D02*
X61100000Y-126360000D01*
X136410000Y-135550000D02*
X129810000Y-128950000D01*
X108355000Y-141560000D02*
X107065000Y-140270000D01*
X90910000Y-57850000D02*
X95590000Y-62530000D01*
X104610000Y-132850000D02*
X105610000Y-131850000D01*
X109510000Y-131150000D02*
X107795000Y-132865000D01*
X113725000Y-139930000D02*
X112095000Y-141560000D01*
X70700000Y-125760000D02*
X64000000Y-125760000D01*
X81260000Y-64760000D02*
X81320000Y-64700000D01*
X126700000Y-66760000D02*
X120600000Y-66760000D01*
X55300000Y-125660000D02*
X54300000Y-124660000D01*
X71500000Y-126660000D02*
X71400000Y-126560000D01*
X138480000Y-81450000D02*
X133920000Y-81450000D01*
X103000000Y-44760000D02*
X102510000Y-45250000D01*
X55200000Y-113360000D02*
X58100000Y-113360000D01*
X114870000Y-137420000D02*
X117160000Y-137420000D01*
X55160000Y-89300000D02*
X50500000Y-89300000D01*
X134700000Y-46360000D02*
X131300000Y-42960000D01*
X141400000Y-76410000D02*
X141440000Y-76370000D01*
X73700000Y-77280000D02*
X65900000Y-77280000D01*
X133100000Y-48660000D02*
X133100000Y-46560000D01*
X135500000Y-117440000D02*
X135500000Y-120560000D01*
X133100000Y-130860000D02*
X133100000Y-119040000D01*
X96710000Y-87650000D02*
X96110000Y-87650000D01*
X122800000Y-72260000D02*
X136300000Y-72260000D01*
X131500000Y-100260000D02*
X131320000Y-100080000D01*
X119800000Y-101460000D02*
X118420000Y-100080000D01*
X55200000Y-70360000D02*
X58100000Y-70360000D01*
X68340000Y-59620000D02*
X68300000Y-59660000D01*
X64300000Y-94940000D02*
X64300000Y-94960000D01*
X95690000Y-49830000D02*
X97070000Y-49830000D01*
X104910000Y-58750000D02*
X101130000Y-62530000D01*
X103690000Y-94990000D02*
X107270000Y-94990000D01*
X134700000Y-117940000D02*
X134700000Y-124960000D01*
X55160000Y-67800000D02*
X50500000Y-67800000D01*
X129100000Y-108030000D02*
X138480000Y-108030000D01*
X119800000Y-87760000D02*
X125100000Y-87760000D01*
X61900000Y-62760000D02*
X58160000Y-62760000D01*
X141660000Y-135550000D02*
X136410000Y-135550000D01*
X112010000Y-93150000D02*
X113010000Y-92150000D01*
X122800000Y-95000000D02*
X134640000Y-95000000D01*
X143200000Y-52310000D02*
X144100000Y-52310000D01*
X136910000Y-115050000D02*
X140310000Y-115050000D01*
X78380000Y-57080000D02*
X81320000Y-57080000D01*
X65100000Y-84160000D02*
X65040000Y-84220000D01*
X83410000Y-84750000D02*
X83410000Y-64750000D01*
X69100000Y-107160000D02*
X69200000Y-107260000D01*
X119310000Y-128950000D02*
X119010000Y-128650000D01*
X115180000Y-79880000D02*
X118320000Y-79880000D01*
X56000000Y-110760000D02*
X56040000Y-110800000D01*
X129100000Y-47160000D02*
X105100000Y-47160000D01*
X101110000Y-57450000D02*
X99610000Y-57450000D01*
X122800000Y-102620000D02*
X129060000Y-102620000D01*
X90335000Y-139210000D02*
X87985000Y-141560000D01*
X131500000Y-48660000D02*
X131500000Y-46760000D01*
X136300000Y-123760000D02*
X137090000Y-124550000D01*
X138480000Y-86530000D02*
X132300000Y-86530000D01*
X101190000Y-65070000D02*
X99610000Y-65070000D01*
X110310000Y-91450000D02*
X93750000Y-91450000D01*
X101310000Y-47050000D02*
X101070000Y-47290000D01*
X95110000Y-44150000D02*
X95110000Y-46750000D01*
X110290000Y-100070000D02*
X109310000Y-101050000D01*
X76500000Y-87760000D02*
X76500000Y-78860000D01*
D19*
X55200000Y-113360000D02*
X55200000Y-116660000D01*
D18*
X126700000Y-115760000D02*
X126710000Y-115750000D01*
X75800000Y-110250000D02*
X78910000Y-110250000D01*
X132300000Y-128260000D02*
X119800000Y-128260000D01*
D19*
X53010000Y-132960000D02*
X53000000Y-132950000D01*
D18*
X120600000Y-87060000D02*
X126700000Y-87060000D01*
X131500000Y-46760000D02*
X130100000Y-45360000D01*
X109690000Y-110230000D02*
X111310000Y-110230000D01*
X103690000Y-97530000D02*
X103130000Y-97530000D01*
X118280000Y-117740000D02*
X115180000Y-117740000D01*
X131420000Y-117360000D02*
X125100000Y-117360000D01*
X86210000Y-112150000D02*
X84310000Y-112150000D01*
X54300000Y-124660000D02*
X53800000Y-124660000D01*
X111310000Y-100070000D02*
X110290000Y-100070000D01*
X112095000Y-141560000D02*
X108355000Y-141560000D01*
X122800000Y-57040000D02*
X131480000Y-57040000D01*
X101070000Y-47290000D02*
X99610000Y-47290000D01*
X119450000Y-137420000D02*
X119775000Y-137095000D01*
X122800000Y-97540000D02*
X133880000Y-97540000D01*
X130400000Y-44760000D02*
X103000000Y-44760000D01*
X113725000Y-139400000D02*
X113725000Y-139930000D01*
X66700000Y-112700000D02*
X66700000Y-112660000D01*
X95010000Y-82850000D02*
X94110000Y-82850000D01*
X73700000Y-74740000D02*
X65100000Y-74740000D01*
X133140000Y-83990000D02*
X133100000Y-84030000D01*
X73700000Y-94940000D02*
X64300000Y-94940000D01*
X119800000Y-81360000D02*
X119800000Y-87760000D01*
X113725000Y-135440000D02*
X113725000Y-133550000D01*
X122800000Y-82420000D02*
X129060000Y-82420000D01*
X73700000Y-97480000D02*
X65100000Y-97480000D01*
X58160000Y-62760000D02*
X58120000Y-62720000D01*
X111310000Y-114050000D02*
X110610000Y-114750000D01*
X142320000Y-73830000D02*
X146100000Y-73830000D01*
X144310000Y-132900000D02*
X141660000Y-135550000D01*
X83610000Y-112850000D02*
X83610000Y-130350000D01*
X113790000Y-69720000D02*
X115180000Y-69720000D01*
X77210000Y-67560000D02*
X77210000Y-58250000D01*
X125100000Y-108060000D02*
X119800000Y-108060000D01*
X91610000Y-110265000D02*
X92630000Y-110265000D01*
X52500000Y-95560000D02*
X50500000Y-95560000D01*
X76500000Y-107960000D02*
X69900000Y-107960000D01*
X90630000Y-109285000D02*
X91610000Y-110265000D01*
X136300000Y-116840000D02*
X136300000Y-117270000D01*
X71500000Y-67560000D02*
X77210000Y-67560000D01*
X55200000Y-67760000D02*
X58080000Y-67760000D01*
X60700000Y-136360000D02*
X65210000Y-131850000D01*
X63500000Y-72200000D02*
X63500000Y-72260000D01*
X83575000Y-137410000D02*
X85865000Y-137410000D01*
X122800000Y-74800000D02*
X133860000Y-74800000D01*
X134700000Y-48660000D02*
X134700000Y-46360000D01*
X65100000Y-46760000D02*
X65300000Y-46560000D01*
X73700000Y-72200000D02*
X63500000Y-72200000D01*
X138480000Y-113110000D02*
X141400000Y-113110000D01*
X58100000Y-70360000D02*
X58120000Y-70340000D01*
X122800000Y-59580000D02*
X129080000Y-59580000D01*
X60280000Y-57640000D02*
X60300000Y-57660000D01*
X119800000Y-121760000D02*
X118320000Y-120280000D01*
X117610000Y-49350000D02*
X117680000Y-49420000D01*
X136300000Y-128660000D02*
X137270000Y-129630000D01*
X88155000Y-137410000D02*
X85865000Y-137410000D01*
X144100000Y-91610000D02*
X146100000Y-91610000D01*
X54300000Y-113360000D02*
X53400000Y-113360000D01*
X92410000Y-80750000D02*
X92310000Y-80650000D01*
X125100000Y-67660000D02*
X119800000Y-67660000D01*
X60300000Y-48560000D02*
X60300000Y-45760000D01*
X58120000Y-52560000D02*
X55200000Y-52560000D01*
X104910000Y-47350000D02*
X104910000Y-58750000D01*
X136310000Y-114450000D02*
X136910000Y-115050000D01*
X104310000Y-75250000D02*
X104290000Y-75230000D01*
X133100000Y-106760000D02*
X127700000Y-106760000D01*
X146060000Y-110610000D02*
X146100000Y-110570000D01*
X144390000Y-116850000D02*
X144310000Y-116850000D01*
X114110000Y-131150000D02*
X109510000Y-131150000D01*
X63500000Y-79160000D02*
X63480000Y-79140000D01*
X75810000Y-55950000D02*
X75810000Y-64250000D01*
X56000000Y-76660000D02*
X56000000Y-110760000D01*
X90630000Y-101085000D02*
X90630000Y-109285000D01*
X63300000Y-123060000D02*
X59140000Y-127220000D01*
X68300000Y-123060000D02*
X63300000Y-123060000D01*
X113010000Y-70500000D02*
X113790000Y-69720000D01*
D19*
X58120000Y-117060000D02*
X57720000Y-116660000D01*
D18*
X92310000Y-54150000D02*
X95610000Y-57450000D01*
X109145000Y-136275000D02*
X109145000Y-135440000D01*
X104050000Y-45960000D02*
X103710000Y-46300000D01*
X120600000Y-59360000D02*
X118280000Y-57040000D01*
X113010000Y-92150000D02*
X113010000Y-70500000D01*
X106810000Y-105150000D02*
X103690000Y-105150000D01*
X102510000Y-50950000D02*
X101090000Y-52370000D01*
X97050000Y-75250000D02*
X97070000Y-75230000D01*
X76510000Y-56550000D02*
X78520000Y-54540000D01*
X144100000Y-70110000D02*
X146100000Y-70110000D01*
X129800000Y-45960000D02*
X104050000Y-45960000D01*
X58120000Y-76600000D02*
X56060000Y-76600000D01*
X107010000Y-110250000D02*
X110210000Y-113450000D01*
X95110000Y-67650000D02*
X97030000Y-67650000D01*
X78080000Y-77280000D02*
X81320000Y-77280000D01*
X90335000Y-135125000D02*
X90335000Y-139210000D01*
X59300000Y-133960000D02*
X56800000Y-133960000D01*
X138480000Y-83990000D02*
X133140000Y-83990000D01*
X92620000Y-45360000D02*
X93010000Y-45750000D01*
X70100000Y-87760000D02*
X76500000Y-87760000D01*
X103500000Y-45360000D02*
X103110000Y-45750000D01*
X136310000Y-112050000D02*
X136310000Y-114450000D01*
X92630000Y-100105000D02*
X91610000Y-100105000D01*
X58100000Y-113360000D02*
X58120000Y-113340000D01*
X63200000Y-131860000D02*
X59900000Y-135160000D01*
X85010000Y-95025000D02*
X85010000Y-87450000D01*
X82910000Y-131050000D02*
X65010000Y-131050000D01*
X118380000Y-97540000D02*
X115280000Y-97540000D01*
X69900000Y-124860000D02*
X63700000Y-124860000D01*
X82430000Y-139795000D02*
X82430000Y-139390000D01*
X108510000Y-106850000D02*
X106810000Y-105150000D01*
X131200000Y-127560000D02*
X120600000Y-127560000D01*
X87010000Y-107725000D02*
X87010000Y-106565000D01*
X87985000Y-141560000D02*
X81025000Y-141560000D01*
X134380000Y-110120000D02*
X136310000Y-112050000D01*
X58120000Y-81680000D02*
X64280000Y-81680000D01*
X141400000Y-52310000D02*
X138500000Y-52310000D01*
X61100000Y-45860000D02*
X63400000Y-43560000D01*
X90910000Y-47450000D02*
X90910000Y-57850000D01*
X122800000Y-105160000D02*
X127500000Y-105160000D01*
X118320000Y-125360000D02*
X115180000Y-125360000D01*
X53010000Y-132970000D02*
X53010000Y-132960000D01*
X65300000Y-46560000D02*
X91220000Y-46560000D01*
X143200000Y-110610000D02*
X146060000Y-110610000D01*
X91610000Y-55950000D02*
X95650000Y-59990000D01*
X75800000Y-120060000D02*
X75800000Y-126160000D01*
X73700000Y-112700000D02*
X66700000Y-112700000D01*
X61100000Y-60260000D02*
X58200000Y-60260000D01*
X116015000Y-135440000D02*
X116015000Y-133550000D01*
X101850000Y-43560000D02*
X101310000Y-44100000D01*
X69900000Y-107960000D02*
X69900000Y-108160000D01*
X80140000Y-140675000D02*
X80140000Y-139390000D01*
X109310000Y-93950000D02*
X110110000Y-93150000D01*
X102300000Y-44160000D02*
X101910000Y-44550000D01*
X118280000Y-77340000D02*
X120600000Y-79660000D01*
X50520000Y-113360000D02*
X50500000Y-113340000D01*
X99610000Y-67610000D02*
X101570000Y-67610000D01*
X83360000Y-64700000D02*
X81320000Y-64700000D01*
X63400000Y-43560000D02*
X94520000Y-43560000D01*
X94020000Y-44160000D02*
X94410000Y-44550000D01*
X90610000Y-47150000D02*
X90910000Y-47450000D01*
X91610000Y-46950000D02*
X91610000Y-55950000D01*
X69100000Y-120320000D02*
X69100000Y-120360000D01*
X119800000Y-128260000D02*
X119800000Y-121760000D01*
X133860000Y-74800000D02*
X133900000Y-74760000D01*
X64280000Y-81680000D02*
X64300000Y-81660000D01*
X81320000Y-117780000D02*
X78080000Y-117780000D01*
X134640000Y-95000000D02*
X134700000Y-95060000D01*
X65010000Y-131050000D02*
X60300000Y-135760000D01*
X58140000Y-124660000D02*
X58120000Y-124680000D01*
X108510000Y-110350000D02*
X108510000Y-106850000D01*
X122800000Y-62120000D02*
X128260000Y-62120000D01*
X52360000Y-132300000D02*
X50500000Y-132300000D01*
X62700000Y-65260000D02*
X58120000Y-65260000D01*
X93210000Y-75250000D02*
X97050000Y-75250000D01*
X133060000Y-54500000D02*
X133100000Y-54460000D01*
X63700000Y-124860000D02*
X61800000Y-126760000D01*
X73700000Y-57160000D02*
X73700000Y-57080000D01*
X122800000Y-115200000D02*
X125760000Y-115200000D01*
X141400000Y-54910000D02*
X141440000Y-54870000D01*
X111310000Y-102610000D02*
X111310000Y-105150000D01*
X122800000Y-125360000D02*
X131500000Y-125360000D01*
X61800000Y-126760000D02*
X61800000Y-131460000D01*
X89610000Y-138865000D02*
X87685000Y-140790000D01*
X138480000Y-105490000D02*
X129940000Y-105490000D01*
X103690000Y-110230000D02*
X103710000Y-110250000D01*
X58120000Y-86760000D02*
X65900000Y-86760000D01*
X64300000Y-47860000D02*
X64300000Y-46360000D01*
X76500000Y-99060000D02*
X76500000Y-107960000D01*
X133100000Y-46560000D02*
X130700000Y-44160000D01*
X58120000Y-57640000D02*
X60280000Y-57640000D01*
X132510000Y-115750000D02*
X134700000Y-117940000D01*
X55400000Y-136360000D02*
X60700000Y-136360000D01*
X142600000Y-133360000D02*
X141300000Y-134660000D01*
X122800000Y-84960000D02*
X127500000Y-84960000D01*
%TD*%
M02*
