%TF.GenerationSoftware,KiCad,Pcbnew,(6.0.5)*%
%TF.CreationDate,2022-10-16T21:23:39+03:00*%
%TF.ProjectId,VGA_SCREENSYNC,5647415f-5343-4524-9545-4e53594e432e,rev?*%
%TF.SameCoordinates,Original*%
%TF.FileFunction,Legend,Top*%
%TF.FilePolarity,Positive*%
%FSLAX46Y46*%
G04 Gerber Fmt 4.6, Leading zero omitted, Abs format (unit mm)*
G04 Created by KiCad (PCBNEW (6.0.5)) date 2022-10-16 21:23:39*
%MOMM*%
%LPD*%
G01*
G04 APERTURE LIST*
%ADD10C,0.200000*%
%ADD11C,0.160000*%
%ADD12C,0.150000*%
%ADD13C,0.120000*%
G04 APERTURE END LIST*
D10*
X102610000Y-126750000D02*
X93410000Y-126750000D01*
X104510000Y-116500000D02*
X104510000Y-124850000D01*
X148100000Y-46060000D02*
G75*
G03*
X148100000Y-46060000I-3500000J0D01*
G01*
X104510000Y-116500000D02*
X104510000Y-115350000D01*
X93410000Y-126750000D02*
X93110000Y-126750000D01*
X104510000Y-115350000D02*
X103910000Y-115350000D01*
X93710000Y-115350000D02*
X93210000Y-115350000D01*
X55500000Y-46060000D02*
G75*
G03*
X55500000Y-46060000I-3500000J0D01*
G01*
X55500000Y-138660000D02*
G75*
G03*
X55500000Y-138660000I-3500000J0D01*
G01*
X93710000Y-115350000D02*
X103910000Y-115350000D01*
X104510000Y-124850000D02*
X102610000Y-126750000D01*
X93110000Y-115350000D02*
X93110000Y-115950000D01*
X93110000Y-126150000D02*
X93110000Y-115950000D01*
X148100000Y-138660000D02*
G75*
G03*
X148100000Y-138660000I-3500000J0D01*
G01*
X93210000Y-115350000D02*
X93110000Y-115350000D01*
X87281428Y-91102380D02*
X87614761Y-92102380D01*
X87948095Y-91102380D01*
X88281428Y-92102380D02*
X88281428Y-91102380D01*
X88757619Y-92102380D02*
X88757619Y-91102380D01*
X88995714Y-91102380D01*
X89138571Y-91150000D01*
X89233809Y-91245238D01*
X89281428Y-91340476D01*
X89329047Y-91530952D01*
X89329047Y-91673809D01*
X89281428Y-91864285D01*
X89233809Y-91959523D01*
X89138571Y-92054761D01*
X88995714Y-92102380D01*
X88757619Y-92102380D01*
X89757619Y-91578571D02*
X90090952Y-91578571D01*
X90233809Y-92102380D02*
X89757619Y-92102380D01*
X89757619Y-91102380D01*
X90233809Y-91102380D01*
X90852857Y-91102380D02*
X91043333Y-91102380D01*
X91138571Y-91150000D01*
X91233809Y-91245238D01*
X91281428Y-91435714D01*
X91281428Y-91769047D01*
X91233809Y-91959523D01*
X91138571Y-92054761D01*
X91043333Y-92102380D01*
X90852857Y-92102380D01*
X90757619Y-92054761D01*
X90662380Y-91959523D01*
X90614761Y-91769047D01*
X90614761Y-91435714D01*
X90662380Y-91245238D01*
X90757619Y-91150000D01*
X90852857Y-91102380D01*
X92281428Y-92007142D02*
X92233809Y-92054761D01*
X92090952Y-92102380D01*
X91995714Y-92102380D01*
X91852857Y-92054761D01*
X91757619Y-91959523D01*
X91710000Y-91864285D01*
X91662380Y-91673809D01*
X91662380Y-91530952D01*
X91710000Y-91340476D01*
X91757619Y-91245238D01*
X91852857Y-91150000D01*
X91995714Y-91102380D01*
X92090952Y-91102380D01*
X92233809Y-91150000D01*
X92281428Y-91197619D01*
X92662380Y-91816666D02*
X93138571Y-91816666D01*
X92567142Y-92102380D02*
X92900476Y-91102380D01*
X93233809Y-92102380D01*
X94138571Y-92102380D02*
X93805238Y-91626190D01*
X93567142Y-92102380D02*
X93567142Y-91102380D01*
X93948095Y-91102380D01*
X94043333Y-91150000D01*
X94090952Y-91197619D01*
X94138571Y-91292857D01*
X94138571Y-91435714D01*
X94090952Y-91530952D01*
X94043333Y-91578571D01*
X93948095Y-91626190D01*
X93567142Y-91626190D01*
X94567142Y-92102380D02*
X94567142Y-91102380D01*
X94805238Y-91102380D01*
X94948095Y-91150000D01*
X95043333Y-91245238D01*
X95090952Y-91340476D01*
X95138571Y-91530952D01*
X95138571Y-91673809D01*
X95090952Y-91864285D01*
X95043333Y-91959523D01*
X94948095Y-92054761D01*
X94805238Y-92102380D01*
X94567142Y-92102380D01*
X95329047Y-92197619D02*
X96090952Y-92197619D01*
X96186190Y-91102380D02*
X96519523Y-92102380D01*
X96852857Y-91102380D01*
X97710000Y-91150000D02*
X97614761Y-91102380D01*
X97471904Y-91102380D01*
X97329047Y-91150000D01*
X97233809Y-91245238D01*
X97186190Y-91340476D01*
X97138571Y-91530952D01*
X97138571Y-91673809D01*
X97186190Y-91864285D01*
X97233809Y-91959523D01*
X97329047Y-92054761D01*
X97471904Y-92102380D01*
X97567142Y-92102380D01*
X97710000Y-92054761D01*
X97757619Y-92007142D01*
X97757619Y-91673809D01*
X97567142Y-91673809D01*
X98138571Y-91816666D02*
X98614761Y-91816666D01*
X98043333Y-92102380D02*
X98376666Y-91102380D01*
X98710000Y-92102380D01*
X98805238Y-92197619D02*
X99567142Y-92197619D01*
X99757619Y-92054761D02*
X99900476Y-92102380D01*
X100138571Y-92102380D01*
X100233809Y-92054761D01*
X100281428Y-92007142D01*
X100329047Y-91911904D01*
X100329047Y-91816666D01*
X100281428Y-91721428D01*
X100233809Y-91673809D01*
X100138571Y-91626190D01*
X99948095Y-91578571D01*
X99852857Y-91530952D01*
X99805238Y-91483333D01*
X99757619Y-91388095D01*
X99757619Y-91292857D01*
X99805238Y-91197619D01*
X99852857Y-91150000D01*
X99948095Y-91102380D01*
X100186190Y-91102380D01*
X100329047Y-91150000D01*
X101329047Y-92007142D02*
X101281428Y-92054761D01*
X101138571Y-92102380D01*
X101043333Y-92102380D01*
X100900476Y-92054761D01*
X100805238Y-91959523D01*
X100757619Y-91864285D01*
X100710000Y-91673809D01*
X100710000Y-91530952D01*
X100757619Y-91340476D01*
X100805238Y-91245238D01*
X100900476Y-91150000D01*
X101043333Y-91102380D01*
X101138571Y-91102380D01*
X101281428Y-91150000D01*
X101329047Y-91197619D01*
X102329047Y-92102380D02*
X101995714Y-91626190D01*
X101757619Y-92102380D02*
X101757619Y-91102380D01*
X102138571Y-91102380D01*
X102233809Y-91150000D01*
X102281428Y-91197619D01*
X102329047Y-91292857D01*
X102329047Y-91435714D01*
X102281428Y-91530952D01*
X102233809Y-91578571D01*
X102138571Y-91626190D01*
X101757619Y-91626190D01*
X102757619Y-91578571D02*
X103090952Y-91578571D01*
X103233809Y-92102380D02*
X102757619Y-92102380D01*
X102757619Y-91102380D01*
X103233809Y-91102380D01*
X103662380Y-91578571D02*
X103995714Y-91578571D01*
X104138571Y-92102380D02*
X103662380Y-92102380D01*
X103662380Y-91102380D01*
X104138571Y-91102380D01*
X104567142Y-92102380D02*
X104567142Y-91102380D01*
X105138571Y-92102380D01*
X105138571Y-91102380D01*
X105567142Y-92054761D02*
X105710000Y-92102380D01*
X105948095Y-92102380D01*
X106043333Y-92054761D01*
X106090952Y-92007142D01*
X106138571Y-91911904D01*
X106138571Y-91816666D01*
X106090952Y-91721428D01*
X106043333Y-91673809D01*
X105948095Y-91626190D01*
X105757619Y-91578571D01*
X105662380Y-91530952D01*
X105614761Y-91483333D01*
X105567142Y-91388095D01*
X105567142Y-91292857D01*
X105614761Y-91197619D01*
X105662380Y-91150000D01*
X105757619Y-91102380D01*
X105995714Y-91102380D01*
X106138571Y-91150000D01*
X106757619Y-91626190D02*
X106757619Y-92102380D01*
X106424285Y-91102380D02*
X106757619Y-91626190D01*
X107090952Y-91102380D01*
X107424285Y-92102380D02*
X107424285Y-91102380D01*
X107995714Y-92102380D01*
X107995714Y-91102380D01*
X109043333Y-92007142D02*
X108995714Y-92054761D01*
X108852857Y-92102380D01*
X108757619Y-92102380D01*
X108614761Y-92054761D01*
X108519523Y-91959523D01*
X108471904Y-91864285D01*
X108424285Y-91673809D01*
X108424285Y-91530952D01*
X108471904Y-91340476D01*
X108519523Y-91245238D01*
X108614761Y-91150000D01*
X108757619Y-91102380D01*
X108852857Y-91102380D01*
X108995714Y-91150000D01*
X109043333Y-91197619D01*
X101395714Y-49202380D02*
X101729047Y-50202380D01*
X102062380Y-49202380D01*
X102729047Y-49511904D02*
X102348095Y-49511904D01*
X102310000Y-49892857D01*
X102348095Y-49854761D01*
X102424285Y-49816666D01*
X102614761Y-49816666D01*
X102690952Y-49854761D01*
X102729047Y-49892857D01*
X102767142Y-49969047D01*
X102767142Y-50159523D01*
X102729047Y-50235714D01*
X102690952Y-50273809D01*
X102614761Y-50311904D01*
X102424285Y-50311904D01*
X102348095Y-50273809D01*
X102310000Y-50235714D01*
D11*
X93741428Y-68011904D02*
X93741428Y-67211904D01*
X93741428Y-67592857D02*
X94198571Y-67592857D01*
X94198571Y-68011904D02*
X94198571Y-67211904D01*
X94510952Y-68069047D02*
X94571904Y-68099523D01*
X94693809Y-68099523D01*
X94754761Y-68069047D01*
X94785238Y-68008095D01*
X94785238Y-67977619D01*
X94754761Y-67916666D01*
X94693809Y-67886190D01*
X94602380Y-67886190D01*
X94541428Y-67855714D01*
X94510952Y-67794761D01*
X94510952Y-67764285D01*
X94541428Y-67703333D01*
X94602380Y-67672857D01*
X94693809Y-67672857D01*
X94754761Y-67703333D01*
X95516666Y-68011904D02*
X95059523Y-68011904D01*
X95288095Y-68011904D02*
X95288095Y-67211904D01*
X95211904Y-67326190D01*
X95135714Y-67402380D01*
X95059523Y-67440476D01*
D10*
X98457380Y-123664285D02*
X98457380Y-124235714D01*
X98457380Y-123950000D02*
X97457380Y-123950000D01*
X97600238Y-124045238D01*
X97695476Y-124140476D01*
X97743095Y-124235714D01*
X97457380Y-123045238D02*
X97457380Y-122950000D01*
X97505000Y-122854761D01*
X97552619Y-122807142D01*
X97647857Y-122759523D01*
X97838333Y-122711904D01*
X98076428Y-122711904D01*
X98266904Y-122759523D01*
X98362142Y-122807142D01*
X98409761Y-122854761D01*
X98457380Y-122950000D01*
X98457380Y-123045238D01*
X98409761Y-123140476D01*
X98362142Y-123188095D01*
X98266904Y-123235714D01*
X98076428Y-123283333D01*
X97838333Y-123283333D01*
X97647857Y-123235714D01*
X97552619Y-123188095D01*
X97505000Y-123140476D01*
X97457380Y-123045238D01*
X98362142Y-122283333D02*
X98409761Y-122235714D01*
X98457380Y-122283333D01*
X98409761Y-122330952D01*
X98362142Y-122283333D01*
X98457380Y-122283333D01*
X97457380Y-120854761D02*
X97457380Y-120759523D01*
X97505000Y-120664285D01*
X97552619Y-120616666D01*
X97647857Y-120569047D01*
X97838333Y-120521428D01*
X98076428Y-120521428D01*
X98266904Y-120569047D01*
X98362142Y-120616666D01*
X98409761Y-120664285D01*
X98457380Y-120759523D01*
X98457380Y-120854761D01*
X98409761Y-120950000D01*
X98362142Y-120997619D01*
X98266904Y-121045238D01*
X98076428Y-121092857D01*
X97838333Y-121092857D01*
X97647857Y-121045238D01*
X97552619Y-120997619D01*
X97505000Y-120950000D01*
X97457380Y-120854761D01*
X97457380Y-119902380D02*
X97457380Y-119807142D01*
X97505000Y-119711904D01*
X97552619Y-119664285D01*
X97647857Y-119616666D01*
X97838333Y-119569047D01*
X98076428Y-119569047D01*
X98266904Y-119616666D01*
X98362142Y-119664285D01*
X98409761Y-119711904D01*
X98457380Y-119807142D01*
X98457380Y-119902380D01*
X98409761Y-119997619D01*
X98362142Y-120045238D01*
X98266904Y-120092857D01*
X98076428Y-120140476D01*
X97838333Y-120140476D01*
X97647857Y-120092857D01*
X97552619Y-120045238D01*
X97505000Y-119997619D01*
X97457380Y-119902380D01*
X97457380Y-118950000D02*
X97457380Y-118854761D01*
X97505000Y-118759523D01*
X97552619Y-118711904D01*
X97647857Y-118664285D01*
X97838333Y-118616666D01*
X98076428Y-118616666D01*
X98266904Y-118664285D01*
X98362142Y-118711904D01*
X98409761Y-118759523D01*
X98457380Y-118854761D01*
X98457380Y-118950000D01*
X98409761Y-119045238D01*
X98362142Y-119092857D01*
X98266904Y-119140476D01*
X98076428Y-119188095D01*
X97838333Y-119188095D01*
X97647857Y-119140476D01*
X97552619Y-119092857D01*
X97505000Y-119045238D01*
X97457380Y-118950000D01*
X97457380Y-117997619D02*
X97457380Y-117902380D01*
X97505000Y-117807142D01*
X97552619Y-117759523D01*
X97647857Y-117711904D01*
X97838333Y-117664285D01*
X98076428Y-117664285D01*
X98266904Y-117711904D01*
X98362142Y-117759523D01*
X98409761Y-117807142D01*
X98457380Y-117902380D01*
X98457380Y-117997619D01*
X98409761Y-118092857D01*
X98362142Y-118140476D01*
X98266904Y-118188095D01*
X98076428Y-118235714D01*
X97838333Y-118235714D01*
X97647857Y-118188095D01*
X97552619Y-118140476D01*
X97505000Y-118092857D01*
X97457380Y-117997619D01*
X100067380Y-121830952D02*
X99067380Y-121830952D01*
X99781666Y-121497619D01*
X99067380Y-121164285D01*
X100067380Y-121164285D01*
X100067380Y-120688095D02*
X99067380Y-120688095D01*
X99543571Y-120688095D02*
X99543571Y-120116666D01*
X100067380Y-120116666D02*
X99067380Y-120116666D01*
X99400714Y-119735714D02*
X99400714Y-119211904D01*
X100067380Y-119735714D01*
X100067380Y-119211904D01*
X101295714Y-44302380D02*
X101629047Y-45302380D01*
X101962380Y-44302380D01*
X102171904Y-44611904D02*
X102705238Y-44611904D01*
X102362380Y-45411904D01*
X125052380Y-83602857D02*
X125052380Y-83793333D01*
X125100000Y-83888571D01*
X125147619Y-83936190D01*
X125290476Y-84031428D01*
X125480952Y-84079047D01*
X125861904Y-84079047D01*
X125957142Y-84031428D01*
X126004761Y-83983809D01*
X126052380Y-83888571D01*
X126052380Y-83698095D01*
X126004761Y-83602857D01*
X125957142Y-83555238D01*
X125861904Y-83507619D01*
X125623809Y-83507619D01*
X125528571Y-83555238D01*
X125480952Y-83602857D01*
X125433333Y-83698095D01*
X125433333Y-83888571D01*
X125480952Y-83983809D01*
X125528571Y-84031428D01*
X125623809Y-84079047D01*
X125052380Y-82888571D02*
X125052380Y-82793333D01*
X125100000Y-82698095D01*
X125147619Y-82650476D01*
X125242857Y-82602857D01*
X125433333Y-82555238D01*
X125671428Y-82555238D01*
X125861904Y-82602857D01*
X125957142Y-82650476D01*
X126004761Y-82698095D01*
X126052380Y-82793333D01*
X126052380Y-82888571D01*
X126004761Y-82983809D01*
X125957142Y-83031428D01*
X125861904Y-83079047D01*
X125671428Y-83126666D01*
X125433333Y-83126666D01*
X125242857Y-83079047D01*
X125147619Y-83031428D01*
X125100000Y-82983809D01*
X125052380Y-82888571D01*
X126052380Y-81602857D02*
X126052380Y-82174285D01*
X126052380Y-81888571D02*
X125052380Y-81888571D01*
X125195238Y-81983809D01*
X125290476Y-82079047D01*
X125338095Y-82174285D01*
X125671428Y-81174285D02*
X125671428Y-80412380D01*
X126052380Y-79412380D02*
X126052380Y-79983809D01*
X126052380Y-79698095D02*
X125052380Y-79698095D01*
X125195238Y-79793333D01*
X125290476Y-79888571D01*
X125338095Y-79983809D01*
X125052380Y-78793333D02*
X125052380Y-78698095D01*
X125100000Y-78602857D01*
X125147619Y-78555238D01*
X125242857Y-78507619D01*
X125433333Y-78460000D01*
X125671428Y-78460000D01*
X125861904Y-78507619D01*
X125957142Y-78555238D01*
X126004761Y-78602857D01*
X126052380Y-78698095D01*
X126052380Y-78793333D01*
X126004761Y-78888571D01*
X125957142Y-78936190D01*
X125861904Y-78983809D01*
X125671428Y-79031428D01*
X125433333Y-79031428D01*
X125242857Y-78983809D01*
X125147619Y-78936190D01*
X125100000Y-78888571D01*
X125052380Y-78793333D01*
X125052380Y-77840952D02*
X125052380Y-77745714D01*
X125100000Y-77650476D01*
X125147619Y-77602857D01*
X125242857Y-77555238D01*
X125433333Y-77507619D01*
X125671428Y-77507619D01*
X125861904Y-77555238D01*
X125957142Y-77602857D01*
X126004761Y-77650476D01*
X126052380Y-77745714D01*
X126052380Y-77840952D01*
X126004761Y-77936190D01*
X125957142Y-77983809D01*
X125861904Y-78031428D01*
X125671428Y-78079047D01*
X125433333Y-78079047D01*
X125242857Y-78031428D01*
X125147619Y-77983809D01*
X125100000Y-77936190D01*
X125052380Y-77840952D01*
X126052380Y-76555238D02*
X126052380Y-77126666D01*
X126052380Y-76840952D02*
X125052380Y-76840952D01*
X125195238Y-76936190D01*
X125290476Y-77031428D01*
X125338095Y-77126666D01*
X125052380Y-75936190D02*
X125052380Y-75840952D01*
X125100000Y-75745714D01*
X125147619Y-75698095D01*
X125242857Y-75650476D01*
X125433333Y-75602857D01*
X125671428Y-75602857D01*
X125861904Y-75650476D01*
X125957142Y-75698095D01*
X126004761Y-75745714D01*
X126052380Y-75840952D01*
X126052380Y-75936190D01*
X126004761Y-76031428D01*
X125957142Y-76079047D01*
X125861904Y-76126666D01*
X125671428Y-76174285D01*
X125433333Y-76174285D01*
X125242857Y-76126666D01*
X125147619Y-76079047D01*
X125100000Y-76031428D01*
X125052380Y-75936190D01*
X126052380Y-74650476D02*
X126052380Y-75221904D01*
X126052380Y-74936190D02*
X125052380Y-74936190D01*
X125195238Y-75031428D01*
X125290476Y-75126666D01*
X125338095Y-75221904D01*
X126052380Y-73698095D02*
X126052380Y-74269523D01*
X126052380Y-73983809D02*
X125052380Y-73983809D01*
X125195238Y-74079047D01*
X125290476Y-74174285D01*
X125338095Y-74269523D01*
X125052380Y-73079047D02*
X125052380Y-72983809D01*
X125100000Y-72888571D01*
X125147619Y-72840952D01*
X125242857Y-72793333D01*
X125433333Y-72745714D01*
X125671428Y-72745714D01*
X125861904Y-72793333D01*
X125957142Y-72840952D01*
X126004761Y-72888571D01*
X126052380Y-72983809D01*
X126052380Y-73079047D01*
X126004761Y-73174285D01*
X125957142Y-73221904D01*
X125861904Y-73269523D01*
X125671428Y-73317142D01*
X125433333Y-73317142D01*
X125242857Y-73269523D01*
X125147619Y-73221904D01*
X125100000Y-73174285D01*
X125052380Y-73079047D01*
X125052380Y-72126666D02*
X125052380Y-72031428D01*
X125100000Y-71936190D01*
X125147619Y-71888571D01*
X125242857Y-71840952D01*
X125433333Y-71793333D01*
X125671428Y-71793333D01*
X125861904Y-71840952D01*
X125957142Y-71888571D01*
X126004761Y-71936190D01*
X126052380Y-72031428D01*
X126052380Y-72126666D01*
X126004761Y-72221904D01*
X125957142Y-72269523D01*
X125861904Y-72317142D01*
X125671428Y-72364761D01*
X125433333Y-72364761D01*
X125242857Y-72317142D01*
X125147619Y-72269523D01*
X125100000Y-72221904D01*
X125052380Y-72126666D01*
X126052380Y-70840952D02*
X126052380Y-71412380D01*
X126052380Y-71126666D02*
X125052380Y-71126666D01*
X125195238Y-71221904D01*
X125290476Y-71317142D01*
X125338095Y-71412380D01*
X101395714Y-46802380D02*
X101729047Y-47802380D01*
X102062380Y-46802380D01*
X102690952Y-47111904D02*
X102538571Y-47111904D01*
X102462380Y-47150000D01*
X102424285Y-47188095D01*
X102348095Y-47302380D01*
X102310000Y-47454761D01*
X102310000Y-47759523D01*
X102348095Y-47835714D01*
X102386190Y-47873809D01*
X102462380Y-47911904D01*
X102614761Y-47911904D01*
X102690952Y-47873809D01*
X102729047Y-47835714D01*
X102767142Y-47759523D01*
X102767142Y-47569047D01*
X102729047Y-47492857D01*
X102690952Y-47454761D01*
X102614761Y-47416666D01*
X102462380Y-47416666D01*
X102386190Y-47454761D01*
X102348095Y-47492857D01*
X102310000Y-47569047D01*
X70442619Y-62902857D02*
X70395000Y-62855238D01*
X70347380Y-62760000D01*
X70347380Y-62521904D01*
X70395000Y-62426666D01*
X70442619Y-62379047D01*
X70537857Y-62331428D01*
X70633095Y-62331428D01*
X70775952Y-62379047D01*
X71347380Y-62950476D01*
X71347380Y-62331428D01*
X70347380Y-61712380D02*
X70347380Y-61617142D01*
X70395000Y-61521904D01*
X70442619Y-61474285D01*
X70537857Y-61426666D01*
X70728333Y-61379047D01*
X70966428Y-61379047D01*
X71156904Y-61426666D01*
X71252142Y-61474285D01*
X71299761Y-61521904D01*
X71347380Y-61617142D01*
X71347380Y-61712380D01*
X71299761Y-61807619D01*
X71252142Y-61855238D01*
X71156904Y-61902857D01*
X70966428Y-61950476D01*
X70728333Y-61950476D01*
X70537857Y-61902857D01*
X70442619Y-61855238D01*
X70395000Y-61807619D01*
X70347380Y-61712380D01*
X70347380Y-60760000D02*
X70347380Y-60664761D01*
X70395000Y-60569523D01*
X70442619Y-60521904D01*
X70537857Y-60474285D01*
X70728333Y-60426666D01*
X70966428Y-60426666D01*
X71156904Y-60474285D01*
X71252142Y-60521904D01*
X71299761Y-60569523D01*
X71347380Y-60664761D01*
X71347380Y-60760000D01*
X71299761Y-60855238D01*
X71252142Y-60902857D01*
X71156904Y-60950476D01*
X70966428Y-60998095D01*
X70728333Y-60998095D01*
X70537857Y-60950476D01*
X70442619Y-60902857D01*
X70395000Y-60855238D01*
X70347380Y-60760000D01*
X70966428Y-59998095D02*
X70966428Y-59236190D01*
X70347380Y-58569523D02*
X70347380Y-58474285D01*
X70395000Y-58379047D01*
X70442619Y-58331428D01*
X70537857Y-58283809D01*
X70728333Y-58236190D01*
X70966428Y-58236190D01*
X71156904Y-58283809D01*
X71252142Y-58331428D01*
X71299761Y-58379047D01*
X71347380Y-58474285D01*
X71347380Y-58569523D01*
X71299761Y-58664761D01*
X71252142Y-58712380D01*
X71156904Y-58760000D01*
X70966428Y-58807619D01*
X70728333Y-58807619D01*
X70537857Y-58760000D01*
X70442619Y-58712380D01*
X70395000Y-58664761D01*
X70347380Y-58569523D01*
X71347380Y-57283809D02*
X71347380Y-57855238D01*
X71347380Y-57569523D02*
X70347380Y-57569523D01*
X70490238Y-57664761D01*
X70585476Y-57760000D01*
X70633095Y-57855238D01*
X71347380Y-56331428D02*
X71347380Y-56902857D01*
X71347380Y-56617142D02*
X70347380Y-56617142D01*
X70490238Y-56712380D01*
X70585476Y-56807619D01*
X70633095Y-56902857D01*
X70347380Y-55712380D02*
X70347380Y-55617142D01*
X70395000Y-55521904D01*
X70442619Y-55474285D01*
X70537857Y-55426666D01*
X70728333Y-55379047D01*
X70966428Y-55379047D01*
X71156904Y-55426666D01*
X71252142Y-55474285D01*
X71299761Y-55521904D01*
X71347380Y-55617142D01*
X71347380Y-55712380D01*
X71299761Y-55807619D01*
X71252142Y-55855238D01*
X71156904Y-55902857D01*
X70966428Y-55950476D01*
X70728333Y-55950476D01*
X70537857Y-55902857D01*
X70442619Y-55855238D01*
X70395000Y-55807619D01*
X70347380Y-55712380D01*
X70347380Y-54760000D02*
X70347380Y-54664761D01*
X70395000Y-54569523D01*
X70442619Y-54521904D01*
X70537857Y-54474285D01*
X70728333Y-54426666D01*
X70966428Y-54426666D01*
X71156904Y-54474285D01*
X71252142Y-54521904D01*
X71299761Y-54569523D01*
X71347380Y-54664761D01*
X71347380Y-54760000D01*
X71299761Y-54855238D01*
X71252142Y-54902857D01*
X71156904Y-54950476D01*
X70966428Y-54998095D01*
X70728333Y-54998095D01*
X70537857Y-54950476D01*
X70442619Y-54902857D01*
X70395000Y-54855238D01*
X70347380Y-54760000D01*
X71347380Y-53474285D02*
X71347380Y-54045714D01*
X71347380Y-53760000D02*
X70347380Y-53760000D01*
X70490238Y-53855238D01*
X70585476Y-53950476D01*
X70633095Y-54045714D01*
X70347380Y-52855238D02*
X70347380Y-52760000D01*
X70395000Y-52664761D01*
X70442619Y-52617142D01*
X70537857Y-52569523D01*
X70728333Y-52521904D01*
X70966428Y-52521904D01*
X71156904Y-52569523D01*
X71252142Y-52617142D01*
X71299761Y-52664761D01*
X71347380Y-52760000D01*
X71347380Y-52855238D01*
X71299761Y-52950476D01*
X71252142Y-52998095D01*
X71156904Y-53045714D01*
X70966428Y-53093333D01*
X70728333Y-53093333D01*
X70537857Y-53045714D01*
X70442619Y-52998095D01*
X70395000Y-52950476D01*
X70347380Y-52855238D01*
X70347380Y-51902857D02*
X70347380Y-51807619D01*
X70395000Y-51712380D01*
X70442619Y-51664761D01*
X70537857Y-51617142D01*
X70728333Y-51569523D01*
X70966428Y-51569523D01*
X71156904Y-51617142D01*
X71252142Y-51664761D01*
X71299761Y-51712380D01*
X71347380Y-51807619D01*
X71347380Y-51902857D01*
X71299761Y-51998095D01*
X71252142Y-52045714D01*
X71156904Y-52093333D01*
X70966428Y-52140952D01*
X70728333Y-52140952D01*
X70537857Y-52093333D01*
X70442619Y-52045714D01*
X70395000Y-51998095D01*
X70347380Y-51902857D01*
X70347380Y-50950476D02*
X70347380Y-50855238D01*
X70395000Y-50760000D01*
X70442619Y-50712380D01*
X70537857Y-50664761D01*
X70728333Y-50617142D01*
X70966428Y-50617142D01*
X71156904Y-50664761D01*
X71252142Y-50712380D01*
X71299761Y-50760000D01*
X71347380Y-50855238D01*
X71347380Y-50950476D01*
X71299761Y-51045714D01*
X71252142Y-51093333D01*
X71156904Y-51140952D01*
X70966428Y-51188571D01*
X70728333Y-51188571D01*
X70537857Y-51140952D01*
X70442619Y-51093333D01*
X70395000Y-51045714D01*
X70347380Y-50950476D01*
X70347619Y-123602857D02*
X70300000Y-123555238D01*
X70252380Y-123460000D01*
X70252380Y-123221904D01*
X70300000Y-123126666D01*
X70347619Y-123079047D01*
X70442857Y-123031428D01*
X70538095Y-123031428D01*
X70680952Y-123079047D01*
X71252380Y-123650476D01*
X71252380Y-123031428D01*
X70252380Y-122174285D02*
X70252380Y-122364761D01*
X70300000Y-122460000D01*
X70347619Y-122507619D01*
X70490476Y-122602857D01*
X70680952Y-122650476D01*
X71061904Y-122650476D01*
X71157142Y-122602857D01*
X71204761Y-122555238D01*
X71252380Y-122460000D01*
X71252380Y-122269523D01*
X71204761Y-122174285D01*
X71157142Y-122126666D01*
X71061904Y-122079047D01*
X70823809Y-122079047D01*
X70728571Y-122126666D01*
X70680952Y-122174285D01*
X70633333Y-122269523D01*
X70633333Y-122460000D01*
X70680952Y-122555238D01*
X70728571Y-122602857D01*
X70823809Y-122650476D01*
X70585714Y-121221904D02*
X71252380Y-121221904D01*
X70204761Y-121460000D02*
X70919047Y-121698095D01*
X70919047Y-121079047D01*
X70871428Y-120698095D02*
X70871428Y-119936190D01*
X71252380Y-118936190D02*
X71252380Y-119507619D01*
X71252380Y-119221904D02*
X70252380Y-119221904D01*
X70395238Y-119317142D01*
X70490476Y-119412380D01*
X70538095Y-119507619D01*
X70252380Y-118317142D02*
X70252380Y-118221904D01*
X70300000Y-118126666D01*
X70347619Y-118079047D01*
X70442857Y-118031428D01*
X70633333Y-117983809D01*
X70871428Y-117983809D01*
X71061904Y-118031428D01*
X71157142Y-118079047D01*
X71204761Y-118126666D01*
X71252380Y-118221904D01*
X71252380Y-118317142D01*
X71204761Y-118412380D01*
X71157142Y-118460000D01*
X71061904Y-118507619D01*
X70871428Y-118555238D01*
X70633333Y-118555238D01*
X70442857Y-118507619D01*
X70347619Y-118460000D01*
X70300000Y-118412380D01*
X70252380Y-118317142D01*
X70252380Y-117364761D02*
X70252380Y-117269523D01*
X70300000Y-117174285D01*
X70347619Y-117126666D01*
X70442857Y-117079047D01*
X70633333Y-117031428D01*
X70871428Y-117031428D01*
X71061904Y-117079047D01*
X71157142Y-117126666D01*
X71204761Y-117174285D01*
X71252380Y-117269523D01*
X71252380Y-117364761D01*
X71204761Y-117460000D01*
X71157142Y-117507619D01*
X71061904Y-117555238D01*
X70871428Y-117602857D01*
X70633333Y-117602857D01*
X70442857Y-117555238D01*
X70347619Y-117507619D01*
X70300000Y-117460000D01*
X70252380Y-117364761D01*
X70252380Y-116412380D02*
X70252380Y-116317142D01*
X70300000Y-116221904D01*
X70347619Y-116174285D01*
X70442857Y-116126666D01*
X70633333Y-116079047D01*
X70871428Y-116079047D01*
X71061904Y-116126666D01*
X71157142Y-116174285D01*
X71204761Y-116221904D01*
X71252380Y-116317142D01*
X71252380Y-116412380D01*
X71204761Y-116507619D01*
X71157142Y-116555238D01*
X71061904Y-116602857D01*
X70871428Y-116650476D01*
X70633333Y-116650476D01*
X70442857Y-116602857D01*
X70347619Y-116555238D01*
X70300000Y-116507619D01*
X70252380Y-116412380D01*
X70252380Y-115460000D02*
X70252380Y-115364761D01*
X70300000Y-115269523D01*
X70347619Y-115221904D01*
X70442857Y-115174285D01*
X70633333Y-115126666D01*
X70871428Y-115126666D01*
X71061904Y-115174285D01*
X71157142Y-115221904D01*
X71204761Y-115269523D01*
X71252380Y-115364761D01*
X71252380Y-115460000D01*
X71204761Y-115555238D01*
X71157142Y-115602857D01*
X71061904Y-115650476D01*
X70871428Y-115698095D01*
X70633333Y-115698095D01*
X70442857Y-115650476D01*
X70347619Y-115602857D01*
X70300000Y-115555238D01*
X70252380Y-115460000D01*
X71252380Y-114174285D02*
X71252380Y-114745714D01*
X71252380Y-114460000D02*
X70252380Y-114460000D01*
X70395238Y-114555238D01*
X70490476Y-114650476D01*
X70538095Y-114745714D01*
X70252380Y-113555238D02*
X70252380Y-113460000D01*
X70300000Y-113364761D01*
X70347619Y-113317142D01*
X70442857Y-113269523D01*
X70633333Y-113221904D01*
X70871428Y-113221904D01*
X71061904Y-113269523D01*
X71157142Y-113317142D01*
X71204761Y-113364761D01*
X71252380Y-113460000D01*
X71252380Y-113555238D01*
X71204761Y-113650476D01*
X71157142Y-113698095D01*
X71061904Y-113745714D01*
X70871428Y-113793333D01*
X70633333Y-113793333D01*
X70442857Y-113745714D01*
X70347619Y-113698095D01*
X70300000Y-113650476D01*
X70252380Y-113555238D01*
X70252380Y-112602857D02*
X70252380Y-112507619D01*
X70300000Y-112412380D01*
X70347619Y-112364761D01*
X70442857Y-112317142D01*
X70633333Y-112269523D01*
X70871428Y-112269523D01*
X71061904Y-112317142D01*
X71157142Y-112364761D01*
X71204761Y-112412380D01*
X71252380Y-112507619D01*
X71252380Y-112602857D01*
X71204761Y-112698095D01*
X71157142Y-112745714D01*
X71061904Y-112793333D01*
X70871428Y-112840952D01*
X70633333Y-112840952D01*
X70442857Y-112793333D01*
X70347619Y-112745714D01*
X70300000Y-112698095D01*
X70252380Y-112602857D01*
X70252380Y-111650476D02*
X70252380Y-111555238D01*
X70300000Y-111460000D01*
X70347619Y-111412380D01*
X70442857Y-111364761D01*
X70633333Y-111317142D01*
X70871428Y-111317142D01*
X71061904Y-111364761D01*
X71157142Y-111412380D01*
X71204761Y-111460000D01*
X71252380Y-111555238D01*
X71252380Y-111650476D01*
X71204761Y-111745714D01*
X71157142Y-111793333D01*
X71061904Y-111840952D01*
X70871428Y-111888571D01*
X70633333Y-111888571D01*
X70442857Y-111840952D01*
X70347619Y-111793333D01*
X70300000Y-111745714D01*
X70252380Y-111650476D01*
X70347619Y-103502857D02*
X70300000Y-103455238D01*
X70252380Y-103360000D01*
X70252380Y-103121904D01*
X70300000Y-103026666D01*
X70347619Y-102979047D01*
X70442857Y-102931428D01*
X70538095Y-102931428D01*
X70680952Y-102979047D01*
X71252380Y-103550476D01*
X71252380Y-102931428D01*
X70585714Y-102074285D02*
X71252380Y-102074285D01*
X70204761Y-102312380D02*
X70919047Y-102550476D01*
X70919047Y-101931428D01*
X70347619Y-101598095D02*
X70300000Y-101550476D01*
X70252380Y-101455238D01*
X70252380Y-101217142D01*
X70300000Y-101121904D01*
X70347619Y-101074285D01*
X70442857Y-101026666D01*
X70538095Y-101026666D01*
X70680952Y-101074285D01*
X71252380Y-101645714D01*
X71252380Y-101026666D01*
X70871428Y-100598095D02*
X70871428Y-99836190D01*
X70252380Y-99169523D02*
X70252380Y-99074285D01*
X70300000Y-98979047D01*
X70347619Y-98931428D01*
X70442857Y-98883809D01*
X70633333Y-98836190D01*
X70871428Y-98836190D01*
X71061904Y-98883809D01*
X71157142Y-98931428D01*
X71204761Y-98979047D01*
X71252380Y-99074285D01*
X71252380Y-99169523D01*
X71204761Y-99264761D01*
X71157142Y-99312380D01*
X71061904Y-99360000D01*
X70871428Y-99407619D01*
X70633333Y-99407619D01*
X70442857Y-99360000D01*
X70347619Y-99312380D01*
X70300000Y-99264761D01*
X70252380Y-99169523D01*
X71252380Y-97883809D02*
X71252380Y-98455238D01*
X71252380Y-98169523D02*
X70252380Y-98169523D01*
X70395238Y-98264761D01*
X70490476Y-98360000D01*
X70538095Y-98455238D01*
X71252380Y-96931428D02*
X71252380Y-97502857D01*
X71252380Y-97217142D02*
X70252380Y-97217142D01*
X70395238Y-97312380D01*
X70490476Y-97407619D01*
X70538095Y-97502857D01*
X71252380Y-95979047D02*
X71252380Y-96550476D01*
X71252380Y-96264761D02*
X70252380Y-96264761D01*
X70395238Y-96360000D01*
X70490476Y-96455238D01*
X70538095Y-96550476D01*
X71252380Y-95026666D02*
X71252380Y-95598095D01*
X71252380Y-95312380D02*
X70252380Y-95312380D01*
X70395238Y-95407619D01*
X70490476Y-95502857D01*
X70538095Y-95598095D01*
X70252380Y-94407619D02*
X70252380Y-94312380D01*
X70300000Y-94217142D01*
X70347619Y-94169523D01*
X70442857Y-94121904D01*
X70633333Y-94074285D01*
X70871428Y-94074285D01*
X71061904Y-94121904D01*
X71157142Y-94169523D01*
X71204761Y-94217142D01*
X71252380Y-94312380D01*
X71252380Y-94407619D01*
X71204761Y-94502857D01*
X71157142Y-94550476D01*
X71061904Y-94598095D01*
X70871428Y-94645714D01*
X70633333Y-94645714D01*
X70442857Y-94598095D01*
X70347619Y-94550476D01*
X70300000Y-94502857D01*
X70252380Y-94407619D01*
X70252380Y-93455238D02*
X70252380Y-93360000D01*
X70300000Y-93264761D01*
X70347619Y-93217142D01*
X70442857Y-93169523D01*
X70633333Y-93121904D01*
X70871428Y-93121904D01*
X71061904Y-93169523D01*
X71157142Y-93217142D01*
X71204761Y-93264761D01*
X71252380Y-93360000D01*
X71252380Y-93455238D01*
X71204761Y-93550476D01*
X71157142Y-93598095D01*
X71061904Y-93645714D01*
X70871428Y-93693333D01*
X70633333Y-93693333D01*
X70442857Y-93645714D01*
X70347619Y-93598095D01*
X70300000Y-93550476D01*
X70252380Y-93455238D01*
X71252380Y-92169523D02*
X71252380Y-92740952D01*
X71252380Y-92455238D02*
X70252380Y-92455238D01*
X70395238Y-92550476D01*
X70490476Y-92645714D01*
X70538095Y-92740952D01*
X70252380Y-91550476D02*
X70252380Y-91455238D01*
X70300000Y-91360000D01*
X70347619Y-91312380D01*
X70442857Y-91264761D01*
X70633333Y-91217142D01*
X70871428Y-91217142D01*
X71061904Y-91264761D01*
X71157142Y-91312380D01*
X71204761Y-91360000D01*
X71252380Y-91455238D01*
X71252380Y-91550476D01*
X71204761Y-91645714D01*
X71157142Y-91693333D01*
X71061904Y-91740952D01*
X70871428Y-91788571D01*
X70633333Y-91788571D01*
X70442857Y-91740952D01*
X70347619Y-91693333D01*
X70300000Y-91645714D01*
X70252380Y-91550476D01*
X92795714Y-89002380D02*
X93367142Y-89002380D01*
X93081428Y-90002380D02*
X93081428Y-89002380D01*
X93843333Y-90002380D02*
X93748095Y-89954761D01*
X93700476Y-89907142D01*
X93652857Y-89811904D01*
X93652857Y-89526190D01*
X93700476Y-89430952D01*
X93748095Y-89383333D01*
X93843333Y-89335714D01*
X93986190Y-89335714D01*
X94081428Y-89383333D01*
X94129047Y-89430952D01*
X94176666Y-89526190D01*
X94176666Y-89811904D01*
X94129047Y-89907142D01*
X94081428Y-89954761D01*
X93986190Y-90002380D01*
X93843333Y-90002380D01*
X94605238Y-89335714D02*
X94605238Y-90002380D01*
X94605238Y-89430952D02*
X94652857Y-89383333D01*
X94748095Y-89335714D01*
X94890952Y-89335714D01*
X94986190Y-89383333D01*
X95033809Y-89478571D01*
X95033809Y-90002380D01*
X95510000Y-90002380D02*
X95510000Y-89335714D01*
X95510000Y-89002380D02*
X95462380Y-89050000D01*
X95510000Y-89097619D01*
X95557619Y-89050000D01*
X95510000Y-89002380D01*
X95510000Y-89097619D01*
X95986190Y-90002380D02*
X95986190Y-89002380D01*
X96081428Y-89621428D02*
X96367142Y-90002380D01*
X96367142Y-89335714D02*
X95986190Y-89716666D01*
X96795714Y-90002380D02*
X96795714Y-89335714D01*
X96795714Y-89002380D02*
X96748095Y-89050000D01*
X96795714Y-89097619D01*
X96843333Y-89050000D01*
X96795714Y-89002380D01*
X96795714Y-89097619D01*
X97414761Y-90002380D02*
X97319523Y-89954761D01*
X97271904Y-89859523D01*
X97271904Y-89002380D01*
X97938571Y-90002380D02*
X97843333Y-89954761D01*
X97795714Y-89859523D01*
X97795714Y-89002380D01*
X98700476Y-89954761D02*
X98605238Y-90002380D01*
X98414761Y-90002380D01*
X98319523Y-89954761D01*
X98271904Y-89859523D01*
X98271904Y-89478571D01*
X98319523Y-89383333D01*
X98414761Y-89335714D01*
X98605238Y-89335714D01*
X98700476Y-89383333D01*
X98748095Y-89478571D01*
X98748095Y-89573809D01*
X98271904Y-89669047D01*
X99176666Y-90002380D02*
X99176666Y-89335714D01*
X99176666Y-89526190D02*
X99224285Y-89430952D01*
X99271904Y-89383333D01*
X99367142Y-89335714D01*
X99462380Y-89335714D01*
X100319523Y-90002380D02*
X99748095Y-90002380D01*
X100033809Y-90002380D02*
X100033809Y-89002380D01*
X99938571Y-89145238D01*
X99843333Y-89240476D01*
X99748095Y-89288095D01*
X100938571Y-89002380D02*
X101033809Y-89002380D01*
X101129047Y-89050000D01*
X101176666Y-89097619D01*
X101224285Y-89192857D01*
X101271904Y-89383333D01*
X101271904Y-89621428D01*
X101224285Y-89811904D01*
X101176666Y-89907142D01*
X101129047Y-89954761D01*
X101033809Y-90002380D01*
X100938571Y-90002380D01*
X100843333Y-89954761D01*
X100795714Y-89907142D01*
X100748095Y-89811904D01*
X100700476Y-89621428D01*
X100700476Y-89383333D01*
X100748095Y-89192857D01*
X100795714Y-89097619D01*
X100843333Y-89050000D01*
X100938571Y-89002380D01*
X101890952Y-89002380D02*
X101986190Y-89002380D01*
X102081428Y-89050000D01*
X102129047Y-89097619D01*
X102176666Y-89192857D01*
X102224285Y-89383333D01*
X102224285Y-89621428D01*
X102176666Y-89811904D01*
X102129047Y-89907142D01*
X102081428Y-89954761D01*
X101986190Y-90002380D01*
X101890952Y-90002380D01*
X101795714Y-89954761D01*
X101748095Y-89907142D01*
X101700476Y-89811904D01*
X101652857Y-89621428D01*
X101652857Y-89383333D01*
X101700476Y-89192857D01*
X101748095Y-89097619D01*
X101795714Y-89050000D01*
X101890952Y-89002380D01*
X102843333Y-89002380D02*
X102938571Y-89002380D01*
X103033809Y-89050000D01*
X103081428Y-89097619D01*
X103129047Y-89192857D01*
X103176666Y-89383333D01*
X103176666Y-89621428D01*
X103129047Y-89811904D01*
X103081428Y-89907142D01*
X103033809Y-89954761D01*
X102938571Y-90002380D01*
X102843333Y-90002380D01*
X102748095Y-89954761D01*
X102700476Y-89907142D01*
X102652857Y-89811904D01*
X102605238Y-89621428D01*
X102605238Y-89383333D01*
X102652857Y-89192857D01*
X102700476Y-89097619D01*
X102748095Y-89050000D01*
X102843333Y-89002380D01*
X103795714Y-89002380D02*
X103890952Y-89002380D01*
X103986190Y-89050000D01*
X104033809Y-89097619D01*
X104081428Y-89192857D01*
X104129047Y-89383333D01*
X104129047Y-89621428D01*
X104081428Y-89811904D01*
X104033809Y-89907142D01*
X103986190Y-89954761D01*
X103890952Y-90002380D01*
X103795714Y-90002380D01*
X103700476Y-89954761D01*
X103652857Y-89907142D01*
X103605238Y-89811904D01*
X103557619Y-89621428D01*
X103557619Y-89383333D01*
X103605238Y-89192857D01*
X103652857Y-89097619D01*
X103700476Y-89050000D01*
X103795714Y-89002380D01*
X93514761Y-80707142D02*
X93467142Y-80754761D01*
X93324285Y-80802380D01*
X93229047Y-80802380D01*
X93086190Y-80754761D01*
X92990952Y-80659523D01*
X92943333Y-80564285D01*
X92895714Y-80373809D01*
X92895714Y-80230952D01*
X92943333Y-80040476D01*
X92990952Y-79945238D01*
X93086190Y-79850000D01*
X93229047Y-79802380D01*
X93324285Y-79802380D01*
X93467142Y-79850000D01*
X93514761Y-79897619D01*
X94419523Y-80802380D02*
X93943333Y-80802380D01*
X93943333Y-79802380D01*
X94752857Y-80802380D02*
X94752857Y-79802380D01*
X95324285Y-80802380D02*
X94895714Y-80230952D01*
X95324285Y-79802380D02*
X94752857Y-80373809D01*
D11*
X101390000Y-77411904D02*
X101656666Y-78211904D01*
X101923333Y-77411904D01*
X102609047Y-77450000D02*
X102532857Y-77411904D01*
X102418571Y-77411904D01*
X102304285Y-77450000D01*
X102228095Y-77526190D01*
X102190000Y-77602380D01*
X102151904Y-77754761D01*
X102151904Y-77869047D01*
X102190000Y-78021428D01*
X102228095Y-78097619D01*
X102304285Y-78173809D01*
X102418571Y-78211904D01*
X102494761Y-78211904D01*
X102609047Y-78173809D01*
X102647142Y-78135714D01*
X102647142Y-77869047D01*
X102494761Y-77869047D01*
X102951904Y-77983333D02*
X103332857Y-77983333D01*
X102875714Y-78211904D02*
X103142380Y-77411904D01*
X103409047Y-78211904D01*
X103637619Y-77488095D02*
X103675714Y-77450000D01*
X103751904Y-77411904D01*
X103942380Y-77411904D01*
X104018571Y-77450000D01*
X104056666Y-77488095D01*
X104094761Y-77564285D01*
X104094761Y-77640476D01*
X104056666Y-77754761D01*
X103599523Y-78211904D01*
X104094761Y-78211904D01*
X104765238Y-78299523D02*
X104551904Y-77994761D01*
X104399523Y-78299523D02*
X104399523Y-77659523D01*
X104643333Y-77659523D01*
X104704285Y-77690000D01*
X104734761Y-77720476D01*
X104765238Y-77781428D01*
X104765238Y-77872857D01*
X104734761Y-77933809D01*
X104704285Y-77964285D01*
X104643333Y-77994761D01*
X104399523Y-77994761D01*
X105039523Y-77964285D02*
X105252857Y-77964285D01*
X105344285Y-78299523D02*
X105039523Y-78299523D01*
X105039523Y-77659523D01*
X105344285Y-77659523D01*
X105618571Y-78299523D02*
X105618571Y-77659523D01*
X105770952Y-77659523D01*
X105862380Y-77690000D01*
X105923333Y-77750952D01*
X105953809Y-77811904D01*
X105984285Y-77933809D01*
X105984285Y-78025238D01*
X105953809Y-78147142D01*
X105923333Y-78208095D01*
X105862380Y-78269047D01*
X105770952Y-78299523D01*
X105618571Y-78299523D01*
X90690000Y-77211904D02*
X90956666Y-78011904D01*
X91223333Y-77211904D01*
X91909047Y-77250000D02*
X91832857Y-77211904D01*
X91718571Y-77211904D01*
X91604285Y-77250000D01*
X91528095Y-77326190D01*
X91490000Y-77402380D01*
X91451904Y-77554761D01*
X91451904Y-77669047D01*
X91490000Y-77821428D01*
X91528095Y-77897619D01*
X91604285Y-77973809D01*
X91718571Y-78011904D01*
X91794761Y-78011904D01*
X91909047Y-77973809D01*
X91947142Y-77935714D01*
X91947142Y-77669047D01*
X91794761Y-77669047D01*
X92251904Y-77783333D02*
X92632857Y-77783333D01*
X92175714Y-78011904D02*
X92442380Y-77211904D01*
X92709047Y-78011904D01*
X93394761Y-78011904D02*
X92937619Y-78011904D01*
X93166190Y-78011904D02*
X93166190Y-77211904D01*
X93090000Y-77326190D01*
X93013809Y-77402380D01*
X92937619Y-77440476D01*
X94065238Y-78099523D02*
X93851904Y-77794761D01*
X93699523Y-78099523D02*
X93699523Y-77459523D01*
X93943333Y-77459523D01*
X94004285Y-77490000D01*
X94034761Y-77520476D01*
X94065238Y-77581428D01*
X94065238Y-77672857D01*
X94034761Y-77733809D01*
X94004285Y-77764285D01*
X93943333Y-77794761D01*
X93699523Y-77794761D01*
X94339523Y-77764285D02*
X94552857Y-77764285D01*
X94644285Y-78099523D02*
X94339523Y-78099523D01*
X94339523Y-77459523D01*
X94644285Y-77459523D01*
X94918571Y-78099523D02*
X94918571Y-77459523D01*
X95070952Y-77459523D01*
X95162380Y-77490000D01*
X95223333Y-77550952D01*
X95253809Y-77611904D01*
X95284285Y-77733809D01*
X95284285Y-77825238D01*
X95253809Y-77947142D01*
X95223333Y-78008095D01*
X95162380Y-78069047D01*
X95070952Y-78099523D01*
X94918571Y-78099523D01*
D10*
X70147619Y-83702857D02*
X70100000Y-83655238D01*
X70052380Y-83560000D01*
X70052380Y-83321904D01*
X70100000Y-83226666D01*
X70147619Y-83179047D01*
X70242857Y-83131428D01*
X70338095Y-83131428D01*
X70480952Y-83179047D01*
X71052380Y-83750476D01*
X71052380Y-83131428D01*
X71052380Y-82179047D02*
X71052380Y-82750476D01*
X71052380Y-82464761D02*
X70052380Y-82464761D01*
X70195238Y-82560000D01*
X70290476Y-82655238D01*
X70338095Y-82750476D01*
X70052380Y-81560000D02*
X70052380Y-81464761D01*
X70100000Y-81369523D01*
X70147619Y-81321904D01*
X70242857Y-81274285D01*
X70433333Y-81226666D01*
X70671428Y-81226666D01*
X70861904Y-81274285D01*
X70957142Y-81321904D01*
X71004761Y-81369523D01*
X71052380Y-81464761D01*
X71052380Y-81560000D01*
X71004761Y-81655238D01*
X70957142Y-81702857D01*
X70861904Y-81750476D01*
X70671428Y-81798095D01*
X70433333Y-81798095D01*
X70242857Y-81750476D01*
X70147619Y-81702857D01*
X70100000Y-81655238D01*
X70052380Y-81560000D01*
X70671428Y-80798095D02*
X70671428Y-80036190D01*
X70052380Y-79369523D02*
X70052380Y-79274285D01*
X70100000Y-79179047D01*
X70147619Y-79131428D01*
X70242857Y-79083809D01*
X70433333Y-79036190D01*
X70671428Y-79036190D01*
X70861904Y-79083809D01*
X70957142Y-79131428D01*
X71004761Y-79179047D01*
X71052380Y-79274285D01*
X71052380Y-79369523D01*
X71004761Y-79464761D01*
X70957142Y-79512380D01*
X70861904Y-79560000D01*
X70671428Y-79607619D01*
X70433333Y-79607619D01*
X70242857Y-79560000D01*
X70147619Y-79512380D01*
X70100000Y-79464761D01*
X70052380Y-79369523D01*
X71052380Y-78083809D02*
X71052380Y-78655238D01*
X71052380Y-78369523D02*
X70052380Y-78369523D01*
X70195238Y-78464761D01*
X70290476Y-78560000D01*
X70338095Y-78655238D01*
X71052380Y-77131428D02*
X71052380Y-77702857D01*
X71052380Y-77417142D02*
X70052380Y-77417142D01*
X70195238Y-77512380D01*
X70290476Y-77607619D01*
X70338095Y-77702857D01*
X70052380Y-76512380D02*
X70052380Y-76417142D01*
X70100000Y-76321904D01*
X70147619Y-76274285D01*
X70242857Y-76226666D01*
X70433333Y-76179047D01*
X70671428Y-76179047D01*
X70861904Y-76226666D01*
X70957142Y-76274285D01*
X71004761Y-76321904D01*
X71052380Y-76417142D01*
X71052380Y-76512380D01*
X71004761Y-76607619D01*
X70957142Y-76655238D01*
X70861904Y-76702857D01*
X70671428Y-76750476D01*
X70433333Y-76750476D01*
X70242857Y-76702857D01*
X70147619Y-76655238D01*
X70100000Y-76607619D01*
X70052380Y-76512380D01*
X71052380Y-75226666D02*
X71052380Y-75798095D01*
X71052380Y-75512380D02*
X70052380Y-75512380D01*
X70195238Y-75607619D01*
X70290476Y-75702857D01*
X70338095Y-75798095D01*
X70052380Y-74607619D02*
X70052380Y-74512380D01*
X70100000Y-74417142D01*
X70147619Y-74369523D01*
X70242857Y-74321904D01*
X70433333Y-74274285D01*
X70671428Y-74274285D01*
X70861904Y-74321904D01*
X70957142Y-74369523D01*
X71004761Y-74417142D01*
X71052380Y-74512380D01*
X71052380Y-74607619D01*
X71004761Y-74702857D01*
X70957142Y-74750476D01*
X70861904Y-74798095D01*
X70671428Y-74845714D01*
X70433333Y-74845714D01*
X70242857Y-74798095D01*
X70147619Y-74750476D01*
X70100000Y-74702857D01*
X70052380Y-74607619D01*
X70052380Y-73655238D02*
X70052380Y-73560000D01*
X70100000Y-73464761D01*
X70147619Y-73417142D01*
X70242857Y-73369523D01*
X70433333Y-73321904D01*
X70671428Y-73321904D01*
X70861904Y-73369523D01*
X70957142Y-73417142D01*
X71004761Y-73464761D01*
X71052380Y-73560000D01*
X71052380Y-73655238D01*
X71004761Y-73750476D01*
X70957142Y-73798095D01*
X70861904Y-73845714D01*
X70671428Y-73893333D01*
X70433333Y-73893333D01*
X70242857Y-73845714D01*
X70147619Y-73798095D01*
X70100000Y-73750476D01*
X70052380Y-73655238D01*
X71052380Y-72369523D02*
X71052380Y-72940952D01*
X71052380Y-72655238D02*
X70052380Y-72655238D01*
X70195238Y-72750476D01*
X70290476Y-72845714D01*
X70338095Y-72940952D01*
X70052380Y-71750476D02*
X70052380Y-71655238D01*
X70100000Y-71560000D01*
X70147619Y-71512380D01*
X70242857Y-71464761D01*
X70433333Y-71417142D01*
X70671428Y-71417142D01*
X70861904Y-71464761D01*
X70957142Y-71512380D01*
X71004761Y-71560000D01*
X71052380Y-71655238D01*
X71052380Y-71750476D01*
X71004761Y-71845714D01*
X70957142Y-71893333D01*
X70861904Y-71940952D01*
X70671428Y-71988571D01*
X70433333Y-71988571D01*
X70242857Y-71940952D01*
X70147619Y-71893333D01*
X70100000Y-71845714D01*
X70052380Y-71750476D01*
X101395714Y-54402380D02*
X101729047Y-55402380D01*
X102062380Y-54402380D01*
X102271904Y-54711904D02*
X102767142Y-54711904D01*
X102500476Y-55016666D01*
X102614761Y-55016666D01*
X102690952Y-55054761D01*
X102729047Y-55092857D01*
X102767142Y-55169047D01*
X102767142Y-55359523D01*
X102729047Y-55435714D01*
X102690952Y-55473809D01*
X102614761Y-55511904D01*
X102386190Y-55511904D01*
X102310000Y-55473809D01*
X102271904Y-55435714D01*
D11*
X93817619Y-65311904D02*
X93817619Y-64511904D01*
X93817619Y-64892857D02*
X94274761Y-64892857D01*
X94274761Y-65311904D02*
X94274761Y-64511904D01*
X94587142Y-65369047D02*
X94648095Y-65399523D01*
X94770000Y-65399523D01*
X94830952Y-65369047D01*
X94861428Y-65308095D01*
X94861428Y-65277619D01*
X94830952Y-65216666D01*
X94770000Y-65186190D01*
X94678571Y-65186190D01*
X94617619Y-65155714D01*
X94587142Y-65094761D01*
X94587142Y-65064285D01*
X94617619Y-65003333D01*
X94678571Y-64972857D01*
X94770000Y-64972857D01*
X94830952Y-65003333D01*
X95257619Y-64759523D02*
X95318571Y-64759523D01*
X95379523Y-64790000D01*
X95410000Y-64820476D01*
X95440476Y-64881428D01*
X95470952Y-65003333D01*
X95470952Y-65155714D01*
X95440476Y-65277619D01*
X95410000Y-65338571D01*
X95379523Y-65369047D01*
X95318571Y-65399523D01*
X95257619Y-65399523D01*
X95196666Y-65369047D01*
X95166190Y-65338571D01*
X95135714Y-65277619D01*
X95105238Y-65155714D01*
X95105238Y-65003333D01*
X95135714Y-64881428D01*
X95166190Y-64820476D01*
X95196666Y-64790000D01*
X95257619Y-64759523D01*
D10*
X104019523Y-86502380D02*
X103448095Y-86502380D01*
X103733809Y-86502380D02*
X103733809Y-85502380D01*
X103638571Y-85645238D01*
X103543333Y-85740476D01*
X103448095Y-85788095D01*
X104590952Y-85930952D02*
X104495714Y-85883333D01*
X104448095Y-85835714D01*
X104400476Y-85740476D01*
X104400476Y-85692857D01*
X104448095Y-85597619D01*
X104495714Y-85550000D01*
X104590952Y-85502380D01*
X104781428Y-85502380D01*
X104876666Y-85550000D01*
X104924285Y-85597619D01*
X104971904Y-85692857D01*
X104971904Y-85740476D01*
X104924285Y-85835714D01*
X104876666Y-85883333D01*
X104781428Y-85930952D01*
X104590952Y-85930952D01*
X104495714Y-85978571D01*
X104448095Y-86026190D01*
X104400476Y-86121428D01*
X104400476Y-86311904D01*
X104448095Y-86407142D01*
X104495714Y-86454761D01*
X104590952Y-86502380D01*
X104781428Y-86502380D01*
X104876666Y-86454761D01*
X104924285Y-86407142D01*
X104971904Y-86311904D01*
X104971904Y-86121428D01*
X104924285Y-86026190D01*
X104876666Y-85978571D01*
X104781428Y-85930952D01*
X101395714Y-51802380D02*
X101729047Y-52802380D01*
X102062380Y-51802380D01*
X102690952Y-52378571D02*
X102690952Y-52911904D01*
X102500476Y-52073809D02*
X102310000Y-52645238D01*
X102805238Y-52645238D01*
X101424285Y-85902380D02*
X101424285Y-84902380D01*
X101995714Y-85902380D01*
X101995714Y-84902380D01*
X103043333Y-85807142D02*
X102995714Y-85854761D01*
X102852857Y-85902380D01*
X102757619Y-85902380D01*
X102614761Y-85854761D01*
X102519523Y-85759523D01*
X102471904Y-85664285D01*
X102424285Y-85473809D01*
X102424285Y-85330952D01*
X102471904Y-85140476D01*
X102519523Y-85045238D01*
X102614761Y-84950000D01*
X102757619Y-84902380D01*
X102852857Y-84902380D01*
X102995714Y-84950000D01*
X103043333Y-84997619D01*
D11*
X101315714Y-72211904D02*
X101582380Y-73011904D01*
X101849047Y-72211904D01*
X102534761Y-72250000D02*
X102458571Y-72211904D01*
X102344285Y-72211904D01*
X102230000Y-72250000D01*
X102153809Y-72326190D01*
X102115714Y-72402380D01*
X102077619Y-72554761D01*
X102077619Y-72669047D01*
X102115714Y-72821428D01*
X102153809Y-72897619D01*
X102230000Y-72973809D01*
X102344285Y-73011904D01*
X102420476Y-73011904D01*
X102534761Y-72973809D01*
X102572857Y-72935714D01*
X102572857Y-72669047D01*
X102420476Y-72669047D01*
X102877619Y-72783333D02*
X103258571Y-72783333D01*
X102801428Y-73011904D02*
X103068095Y-72211904D01*
X103334761Y-73011904D01*
X103563333Y-72288095D02*
X103601428Y-72250000D01*
X103677619Y-72211904D01*
X103868095Y-72211904D01*
X103944285Y-72250000D01*
X103982380Y-72288095D01*
X104020476Y-72364285D01*
X104020476Y-72440476D01*
X103982380Y-72554761D01*
X103525238Y-73011904D01*
X104020476Y-73011904D01*
X104538571Y-72764285D02*
X104630000Y-72794761D01*
X104660476Y-72825238D01*
X104690952Y-72886190D01*
X104690952Y-72977619D01*
X104660476Y-73038571D01*
X104630000Y-73069047D01*
X104569047Y-73099523D01*
X104325238Y-73099523D01*
X104325238Y-72459523D01*
X104538571Y-72459523D01*
X104599523Y-72490000D01*
X104630000Y-72520476D01*
X104660476Y-72581428D01*
X104660476Y-72642380D01*
X104630000Y-72703333D01*
X104599523Y-72733809D01*
X104538571Y-72764285D01*
X104325238Y-72764285D01*
X105270000Y-73099523D02*
X104965238Y-73099523D01*
X104965238Y-72459523D01*
X105483333Y-72459523D02*
X105483333Y-72977619D01*
X105513809Y-73038571D01*
X105544285Y-73069047D01*
X105605238Y-73099523D01*
X105727142Y-73099523D01*
X105788095Y-73069047D01*
X105818571Y-73038571D01*
X105849047Y-72977619D01*
X105849047Y-72459523D01*
X106153809Y-72764285D02*
X106367142Y-72764285D01*
X106458571Y-73099523D02*
X106153809Y-73099523D01*
X106153809Y-72459523D01*
X106458571Y-72459523D01*
D10*
X103200476Y-43702380D02*
X103819523Y-43702380D01*
X103486190Y-44083333D01*
X103629047Y-44083333D01*
X103724285Y-44130952D01*
X103771904Y-44178571D01*
X103819523Y-44273809D01*
X103819523Y-44511904D01*
X103771904Y-44607142D01*
X103724285Y-44654761D01*
X103629047Y-44702380D01*
X103343333Y-44702380D01*
X103248095Y-44654761D01*
X103200476Y-44607142D01*
X104676666Y-44035714D02*
X104676666Y-44702380D01*
X104438571Y-43654761D02*
X104200476Y-44369047D01*
X104819523Y-44369047D01*
X124952380Y-63502857D02*
X124952380Y-63693333D01*
X125000000Y-63788571D01*
X125047619Y-63836190D01*
X125190476Y-63931428D01*
X125380952Y-63979047D01*
X125761904Y-63979047D01*
X125857142Y-63931428D01*
X125904761Y-63883809D01*
X125952380Y-63788571D01*
X125952380Y-63598095D01*
X125904761Y-63502857D01*
X125857142Y-63455238D01*
X125761904Y-63407619D01*
X125523809Y-63407619D01*
X125428571Y-63455238D01*
X125380952Y-63502857D01*
X125333333Y-63598095D01*
X125333333Y-63788571D01*
X125380952Y-63883809D01*
X125428571Y-63931428D01*
X125523809Y-63979047D01*
X124952380Y-62788571D02*
X124952380Y-62693333D01*
X125000000Y-62598095D01*
X125047619Y-62550476D01*
X125142857Y-62502857D01*
X125333333Y-62455238D01*
X125571428Y-62455238D01*
X125761904Y-62502857D01*
X125857142Y-62550476D01*
X125904761Y-62598095D01*
X125952380Y-62693333D01*
X125952380Y-62788571D01*
X125904761Y-62883809D01*
X125857142Y-62931428D01*
X125761904Y-62979047D01*
X125571428Y-63026666D01*
X125333333Y-63026666D01*
X125142857Y-62979047D01*
X125047619Y-62931428D01*
X125000000Y-62883809D01*
X124952380Y-62788571D01*
X124952380Y-61836190D02*
X124952380Y-61740952D01*
X125000000Y-61645714D01*
X125047619Y-61598095D01*
X125142857Y-61550476D01*
X125333333Y-61502857D01*
X125571428Y-61502857D01*
X125761904Y-61550476D01*
X125857142Y-61598095D01*
X125904761Y-61645714D01*
X125952380Y-61740952D01*
X125952380Y-61836190D01*
X125904761Y-61931428D01*
X125857142Y-61979047D01*
X125761904Y-62026666D01*
X125571428Y-62074285D01*
X125333333Y-62074285D01*
X125142857Y-62026666D01*
X125047619Y-61979047D01*
X125000000Y-61931428D01*
X124952380Y-61836190D01*
X125571428Y-61074285D02*
X125571428Y-60312380D01*
X125952380Y-59312380D02*
X125952380Y-59883809D01*
X125952380Y-59598095D02*
X124952380Y-59598095D01*
X125095238Y-59693333D01*
X125190476Y-59788571D01*
X125238095Y-59883809D01*
X124952380Y-58693333D02*
X124952380Y-58598095D01*
X125000000Y-58502857D01*
X125047619Y-58455238D01*
X125142857Y-58407619D01*
X125333333Y-58360000D01*
X125571428Y-58360000D01*
X125761904Y-58407619D01*
X125857142Y-58455238D01*
X125904761Y-58502857D01*
X125952380Y-58598095D01*
X125952380Y-58693333D01*
X125904761Y-58788571D01*
X125857142Y-58836190D01*
X125761904Y-58883809D01*
X125571428Y-58931428D01*
X125333333Y-58931428D01*
X125142857Y-58883809D01*
X125047619Y-58836190D01*
X125000000Y-58788571D01*
X124952380Y-58693333D01*
X124952380Y-57740952D02*
X124952380Y-57645714D01*
X125000000Y-57550476D01*
X125047619Y-57502857D01*
X125142857Y-57455238D01*
X125333333Y-57407619D01*
X125571428Y-57407619D01*
X125761904Y-57455238D01*
X125857142Y-57502857D01*
X125904761Y-57550476D01*
X125952380Y-57645714D01*
X125952380Y-57740952D01*
X125904761Y-57836190D01*
X125857142Y-57883809D01*
X125761904Y-57931428D01*
X125571428Y-57979047D01*
X125333333Y-57979047D01*
X125142857Y-57931428D01*
X125047619Y-57883809D01*
X125000000Y-57836190D01*
X124952380Y-57740952D01*
X125952380Y-56455238D02*
X125952380Y-57026666D01*
X125952380Y-56740952D02*
X124952380Y-56740952D01*
X125095238Y-56836190D01*
X125190476Y-56931428D01*
X125238095Y-57026666D01*
X124952380Y-55836190D02*
X124952380Y-55740952D01*
X125000000Y-55645714D01*
X125047619Y-55598095D01*
X125142857Y-55550476D01*
X125333333Y-55502857D01*
X125571428Y-55502857D01*
X125761904Y-55550476D01*
X125857142Y-55598095D01*
X125904761Y-55645714D01*
X125952380Y-55740952D01*
X125952380Y-55836190D01*
X125904761Y-55931428D01*
X125857142Y-55979047D01*
X125761904Y-56026666D01*
X125571428Y-56074285D01*
X125333333Y-56074285D01*
X125142857Y-56026666D01*
X125047619Y-55979047D01*
X125000000Y-55931428D01*
X124952380Y-55836190D01*
X125952380Y-54550476D02*
X125952380Y-55121904D01*
X125952380Y-54836190D02*
X124952380Y-54836190D01*
X125095238Y-54931428D01*
X125190476Y-55026666D01*
X125238095Y-55121904D01*
X125952380Y-53598095D02*
X125952380Y-54169523D01*
X125952380Y-53883809D02*
X124952380Y-53883809D01*
X125095238Y-53979047D01*
X125190476Y-54074285D01*
X125238095Y-54169523D01*
X124952380Y-52979047D02*
X124952380Y-52883809D01*
X125000000Y-52788571D01*
X125047619Y-52740952D01*
X125142857Y-52693333D01*
X125333333Y-52645714D01*
X125571428Y-52645714D01*
X125761904Y-52693333D01*
X125857142Y-52740952D01*
X125904761Y-52788571D01*
X125952380Y-52883809D01*
X125952380Y-52979047D01*
X125904761Y-53074285D01*
X125857142Y-53121904D01*
X125761904Y-53169523D01*
X125571428Y-53217142D01*
X125333333Y-53217142D01*
X125142857Y-53169523D01*
X125047619Y-53121904D01*
X125000000Y-53074285D01*
X124952380Y-52979047D01*
X124952380Y-52026666D02*
X124952380Y-51931428D01*
X125000000Y-51836190D01*
X125047619Y-51788571D01*
X125142857Y-51740952D01*
X125333333Y-51693333D01*
X125571428Y-51693333D01*
X125761904Y-51740952D01*
X125857142Y-51788571D01*
X125904761Y-51836190D01*
X125952380Y-51931428D01*
X125952380Y-52026666D01*
X125904761Y-52121904D01*
X125857142Y-52169523D01*
X125761904Y-52217142D01*
X125571428Y-52264761D01*
X125333333Y-52264761D01*
X125142857Y-52217142D01*
X125047619Y-52169523D01*
X125000000Y-52121904D01*
X124952380Y-52026666D01*
X124952380Y-51074285D02*
X124952380Y-50979047D01*
X125000000Y-50883809D01*
X125047619Y-50836190D01*
X125142857Y-50788571D01*
X125333333Y-50740952D01*
X125571428Y-50740952D01*
X125761904Y-50788571D01*
X125857142Y-50836190D01*
X125904761Y-50883809D01*
X125952380Y-50979047D01*
X125952380Y-51074285D01*
X125904761Y-51169523D01*
X125857142Y-51217142D01*
X125761904Y-51264761D01*
X125571428Y-51312380D01*
X125333333Y-51312380D01*
X125142857Y-51264761D01*
X125047619Y-51217142D01*
X125000000Y-51169523D01*
X124952380Y-51074285D01*
X93724285Y-85902380D02*
X93724285Y-84902380D01*
X94295714Y-85902380D01*
X94295714Y-84902380D01*
X95343333Y-85807142D02*
X95295714Y-85854761D01*
X95152857Y-85902380D01*
X95057619Y-85902380D01*
X94914761Y-85854761D01*
X94819523Y-85759523D01*
X94771904Y-85664285D01*
X94724285Y-85473809D01*
X94724285Y-85330952D01*
X94771904Y-85140476D01*
X94819523Y-85045238D01*
X94914761Y-84950000D01*
X95057619Y-84902380D01*
X95152857Y-84902380D01*
X95295714Y-84950000D01*
X95343333Y-84997619D01*
X101833809Y-83207142D02*
X101786190Y-83254761D01*
X101643333Y-83302380D01*
X101548095Y-83302380D01*
X101405238Y-83254761D01*
X101310000Y-83159523D01*
X101262380Y-83064285D01*
X101214761Y-82873809D01*
X101214761Y-82730952D01*
X101262380Y-82540476D01*
X101310000Y-82445238D01*
X101405238Y-82350000D01*
X101548095Y-82302380D01*
X101643333Y-82302380D01*
X101786190Y-82350000D01*
X101833809Y-82397619D01*
X102738571Y-83302380D02*
X102262380Y-83302380D01*
X102262380Y-82302380D01*
X103071904Y-83302380D02*
X103071904Y-82302380D01*
X103643333Y-83302380D02*
X103214761Y-82730952D01*
X103643333Y-82302380D02*
X103071904Y-82873809D01*
X104367142Y-82878571D02*
X104367142Y-83411904D01*
X104176666Y-82573809D02*
X103986190Y-83145238D01*
X104481428Y-83145238D01*
X124952380Y-123702857D02*
X124952380Y-123893333D01*
X125000000Y-123988571D01*
X125047619Y-124036190D01*
X125190476Y-124131428D01*
X125380952Y-124179047D01*
X125761904Y-124179047D01*
X125857142Y-124131428D01*
X125904761Y-124083809D01*
X125952380Y-123988571D01*
X125952380Y-123798095D01*
X125904761Y-123702857D01*
X125857142Y-123655238D01*
X125761904Y-123607619D01*
X125523809Y-123607619D01*
X125428571Y-123655238D01*
X125380952Y-123702857D01*
X125333333Y-123798095D01*
X125333333Y-123988571D01*
X125380952Y-124083809D01*
X125428571Y-124131428D01*
X125523809Y-124179047D01*
X125047619Y-123226666D02*
X125000000Y-123179047D01*
X124952380Y-123083809D01*
X124952380Y-122845714D01*
X125000000Y-122750476D01*
X125047619Y-122702857D01*
X125142857Y-122655238D01*
X125238095Y-122655238D01*
X125380952Y-122702857D01*
X125952380Y-123274285D01*
X125952380Y-122655238D01*
X125380952Y-122083809D02*
X125333333Y-122179047D01*
X125285714Y-122226666D01*
X125190476Y-122274285D01*
X125142857Y-122274285D01*
X125047619Y-122226666D01*
X125000000Y-122179047D01*
X124952380Y-122083809D01*
X124952380Y-121893333D01*
X125000000Y-121798095D01*
X125047619Y-121750476D01*
X125142857Y-121702857D01*
X125190476Y-121702857D01*
X125285714Y-121750476D01*
X125333333Y-121798095D01*
X125380952Y-121893333D01*
X125380952Y-122083809D01*
X125428571Y-122179047D01*
X125476190Y-122226666D01*
X125571428Y-122274285D01*
X125761904Y-122274285D01*
X125857142Y-122226666D01*
X125904761Y-122179047D01*
X125952380Y-122083809D01*
X125952380Y-121893333D01*
X125904761Y-121798095D01*
X125857142Y-121750476D01*
X125761904Y-121702857D01*
X125571428Y-121702857D01*
X125476190Y-121750476D01*
X125428571Y-121798095D01*
X125380952Y-121893333D01*
X125571428Y-121274285D02*
X125571428Y-120512380D01*
X125952380Y-119512380D02*
X125952380Y-120083809D01*
X125952380Y-119798095D02*
X124952380Y-119798095D01*
X125095238Y-119893333D01*
X125190476Y-119988571D01*
X125238095Y-120083809D01*
X124952380Y-118893333D02*
X124952380Y-118798095D01*
X125000000Y-118702857D01*
X125047619Y-118655238D01*
X125142857Y-118607619D01*
X125333333Y-118560000D01*
X125571428Y-118560000D01*
X125761904Y-118607619D01*
X125857142Y-118655238D01*
X125904761Y-118702857D01*
X125952380Y-118798095D01*
X125952380Y-118893333D01*
X125904761Y-118988571D01*
X125857142Y-119036190D01*
X125761904Y-119083809D01*
X125571428Y-119131428D01*
X125333333Y-119131428D01*
X125142857Y-119083809D01*
X125047619Y-119036190D01*
X125000000Y-118988571D01*
X124952380Y-118893333D01*
X124952380Y-117940952D02*
X124952380Y-117845714D01*
X125000000Y-117750476D01*
X125047619Y-117702857D01*
X125142857Y-117655238D01*
X125333333Y-117607619D01*
X125571428Y-117607619D01*
X125761904Y-117655238D01*
X125857142Y-117702857D01*
X125904761Y-117750476D01*
X125952380Y-117845714D01*
X125952380Y-117940952D01*
X125904761Y-118036190D01*
X125857142Y-118083809D01*
X125761904Y-118131428D01*
X125571428Y-118179047D01*
X125333333Y-118179047D01*
X125142857Y-118131428D01*
X125047619Y-118083809D01*
X125000000Y-118036190D01*
X124952380Y-117940952D01*
X125952380Y-116655238D02*
X125952380Y-117226666D01*
X125952380Y-116940952D02*
X124952380Y-116940952D01*
X125095238Y-117036190D01*
X125190476Y-117131428D01*
X125238095Y-117226666D01*
X125952380Y-115702857D02*
X125952380Y-116274285D01*
X125952380Y-115988571D02*
X124952380Y-115988571D01*
X125095238Y-116083809D01*
X125190476Y-116179047D01*
X125238095Y-116274285D01*
X125952380Y-114750476D02*
X125952380Y-115321904D01*
X125952380Y-115036190D02*
X124952380Y-115036190D01*
X125095238Y-115131428D01*
X125190476Y-115226666D01*
X125238095Y-115321904D01*
X124952380Y-114131428D02*
X124952380Y-114036190D01*
X125000000Y-113940952D01*
X125047619Y-113893333D01*
X125142857Y-113845714D01*
X125333333Y-113798095D01*
X125571428Y-113798095D01*
X125761904Y-113845714D01*
X125857142Y-113893333D01*
X125904761Y-113940952D01*
X125952380Y-114036190D01*
X125952380Y-114131428D01*
X125904761Y-114226666D01*
X125857142Y-114274285D01*
X125761904Y-114321904D01*
X125571428Y-114369523D01*
X125333333Y-114369523D01*
X125142857Y-114321904D01*
X125047619Y-114274285D01*
X125000000Y-114226666D01*
X124952380Y-114131428D01*
X125952380Y-112845714D02*
X125952380Y-113417142D01*
X125952380Y-113131428D02*
X124952380Y-113131428D01*
X125095238Y-113226666D01*
X125190476Y-113321904D01*
X125238095Y-113417142D01*
X124952380Y-112226666D02*
X124952380Y-112131428D01*
X125000000Y-112036190D01*
X125047619Y-111988571D01*
X125142857Y-111940952D01*
X125333333Y-111893333D01*
X125571428Y-111893333D01*
X125761904Y-111940952D01*
X125857142Y-111988571D01*
X125904761Y-112036190D01*
X125952380Y-112131428D01*
X125952380Y-112226666D01*
X125904761Y-112321904D01*
X125857142Y-112369523D01*
X125761904Y-112417142D01*
X125571428Y-112464761D01*
X125333333Y-112464761D01*
X125142857Y-112417142D01*
X125047619Y-112369523D01*
X125000000Y-112321904D01*
X124952380Y-112226666D01*
X124952380Y-111274285D02*
X124952380Y-111179047D01*
X125000000Y-111083809D01*
X125047619Y-111036190D01*
X125142857Y-110988571D01*
X125333333Y-110940952D01*
X125571428Y-110940952D01*
X125761904Y-110988571D01*
X125857142Y-111036190D01*
X125904761Y-111083809D01*
X125952380Y-111179047D01*
X125952380Y-111274285D01*
X125904761Y-111369523D01*
X125857142Y-111417142D01*
X125761904Y-111464761D01*
X125571428Y-111512380D01*
X125333333Y-111512380D01*
X125142857Y-111464761D01*
X125047619Y-111417142D01*
X125000000Y-111369523D01*
X124952380Y-111274285D01*
D11*
X101303333Y-64611904D02*
X101570000Y-65411904D01*
X101836666Y-64611904D01*
X102034761Y-65469047D02*
X102095714Y-65499523D01*
X102217619Y-65499523D01*
X102278571Y-65469047D01*
X102309047Y-65408095D01*
X102309047Y-65377619D01*
X102278571Y-65316666D01*
X102217619Y-65286190D01*
X102126190Y-65286190D01*
X102065238Y-65255714D01*
X102034761Y-65194761D01*
X102034761Y-65164285D01*
X102065238Y-65103333D01*
X102126190Y-65072857D01*
X102217619Y-65072857D01*
X102278571Y-65103333D01*
X102773809Y-64611904D02*
X102850000Y-64611904D01*
X102926190Y-64650000D01*
X102964285Y-64688095D01*
X103002380Y-64764285D01*
X103040476Y-64916666D01*
X103040476Y-65107142D01*
X103002380Y-65259523D01*
X102964285Y-65335714D01*
X102926190Y-65373809D01*
X102850000Y-65411904D01*
X102773809Y-65411904D01*
X102697619Y-65373809D01*
X102659523Y-65335714D01*
X102621428Y-65259523D01*
X102583333Y-65107142D01*
X102583333Y-64916666D01*
X102621428Y-64764285D01*
X102659523Y-64688095D01*
X102697619Y-64650000D01*
X102773809Y-64611904D01*
D10*
X101395714Y-56902380D02*
X101729047Y-57902380D01*
X102062380Y-56902380D01*
X102310000Y-57288095D02*
X102348095Y-57250000D01*
X102424285Y-57211904D01*
X102614761Y-57211904D01*
X102690952Y-57250000D01*
X102729047Y-57288095D01*
X102767142Y-57364285D01*
X102767142Y-57440476D01*
X102729047Y-57554761D01*
X102271904Y-58011904D01*
X102767142Y-58011904D01*
X94043333Y-52702380D02*
X94043333Y-51702380D01*
X94043333Y-52178571D02*
X94614761Y-52178571D01*
X94614761Y-52702380D02*
X94614761Y-51702380D01*
X94967142Y-52011904D02*
X95462380Y-52011904D01*
X95195714Y-52316666D01*
X95310000Y-52316666D01*
X95386190Y-52354761D01*
X95424285Y-52392857D01*
X95462380Y-52469047D01*
X95462380Y-52659523D01*
X95424285Y-52735714D01*
X95386190Y-52773809D01*
X95310000Y-52811904D01*
X95081428Y-52811904D01*
X95005238Y-52773809D01*
X94967142Y-52735714D01*
X88748095Y-69420000D02*
X89795714Y-69420000D01*
X88986190Y-70702380D02*
X88986190Y-69702380D01*
X88986190Y-70178571D02*
X89557619Y-70178571D01*
X89557619Y-70702380D02*
X89557619Y-69702380D01*
X89795714Y-69420000D02*
X90557619Y-69420000D01*
X90557619Y-69420000D02*
X91557619Y-69420000D01*
X91129047Y-70178571D02*
X91271904Y-70226190D01*
X91319523Y-70273809D01*
X91367142Y-70369047D01*
X91367142Y-70511904D01*
X91319523Y-70607142D01*
X91271904Y-70654761D01*
X91176666Y-70702380D01*
X90795714Y-70702380D01*
X90795714Y-69702380D01*
X91129047Y-69702380D01*
X91224285Y-69750000D01*
X91271904Y-69797619D01*
X91319523Y-69892857D01*
X91319523Y-69988095D01*
X91271904Y-70083333D01*
X91224285Y-70130952D01*
X91129047Y-70178571D01*
X90795714Y-70178571D01*
X91557619Y-69420000D02*
X92367142Y-69420000D01*
X92271904Y-70702380D02*
X91795714Y-70702380D01*
X91795714Y-69702380D01*
X92367142Y-69420000D02*
X93224285Y-69420000D01*
X92557619Y-70416666D02*
X93033809Y-70416666D01*
X92462380Y-70702380D02*
X92795714Y-69702380D01*
X93129047Y-70702380D01*
X93224285Y-69420000D02*
X94271904Y-69420000D01*
X93462380Y-70702380D02*
X93462380Y-69702380D01*
X94033809Y-70702380D01*
X94033809Y-69702380D01*
X94271904Y-69420000D02*
X95271904Y-69420000D01*
X94510000Y-70702380D02*
X94510000Y-69702380D01*
X95081428Y-70702380D02*
X94652857Y-70130952D01*
X95081428Y-69702380D02*
X94510000Y-70273809D01*
X93943333Y-45202380D02*
X93943333Y-44202380D01*
X93943333Y-44678571D02*
X94514761Y-44678571D01*
X94514761Y-45202380D02*
X94514761Y-44202380D01*
X95095714Y-44511904D02*
X95171904Y-44511904D01*
X95248095Y-44550000D01*
X95286190Y-44588095D01*
X95324285Y-44664285D01*
X95362380Y-44816666D01*
X95362380Y-45007142D01*
X95324285Y-45159523D01*
X95286190Y-45235714D01*
X95248095Y-45273809D01*
X95171904Y-45311904D01*
X95095714Y-45311904D01*
X95019523Y-45273809D01*
X94981428Y-45235714D01*
X94943333Y-45159523D01*
X94905238Y-45007142D01*
X94905238Y-44816666D01*
X94943333Y-44664285D01*
X94981428Y-44588095D01*
X95019523Y-44550000D01*
X95095714Y-44511904D01*
X101443333Y-69420000D02*
X102300476Y-69420000D01*
X101538571Y-69702380D02*
X101871904Y-70702380D01*
X102205238Y-69702380D01*
X102300476Y-69420000D02*
X103062380Y-69420000D01*
X103062380Y-69420000D02*
X104062380Y-69420000D01*
X103633809Y-70178571D02*
X103776666Y-70226190D01*
X103824285Y-70273809D01*
X103871904Y-70369047D01*
X103871904Y-70511904D01*
X103824285Y-70607142D01*
X103776666Y-70654761D01*
X103681428Y-70702380D01*
X103300476Y-70702380D01*
X103300476Y-69702380D01*
X103633809Y-69702380D01*
X103729047Y-69750000D01*
X103776666Y-69797619D01*
X103824285Y-69892857D01*
X103824285Y-69988095D01*
X103776666Y-70083333D01*
X103729047Y-70130952D01*
X103633809Y-70178571D01*
X103300476Y-70178571D01*
X104062380Y-69420000D02*
X104871904Y-69420000D01*
X104776666Y-70702380D02*
X104300476Y-70702380D01*
X104300476Y-69702380D01*
X104871904Y-69420000D02*
X105729047Y-69420000D01*
X105062380Y-70416666D02*
X105538571Y-70416666D01*
X104967142Y-70702380D02*
X105300476Y-69702380D01*
X105633809Y-70702380D01*
X105729047Y-69420000D02*
X106776666Y-69420000D01*
X105967142Y-70702380D02*
X105967142Y-69702380D01*
X106538571Y-70702380D01*
X106538571Y-69702380D01*
X106776666Y-69420000D02*
X107776666Y-69420000D01*
X107014761Y-70702380D02*
X107014761Y-69702380D01*
X107586190Y-70702380D02*
X107157619Y-70130952D01*
X107586190Y-69702380D02*
X107014761Y-70273809D01*
X92776666Y-82302380D02*
X93110000Y-83302380D01*
X93443333Y-82302380D01*
X94348095Y-83207142D02*
X94300476Y-83254761D01*
X94157619Y-83302380D01*
X94062380Y-83302380D01*
X93919523Y-83254761D01*
X93824285Y-83159523D01*
X93776666Y-83064285D01*
X93729047Y-82873809D01*
X93729047Y-82730952D01*
X93776666Y-82540476D01*
X93824285Y-82445238D01*
X93919523Y-82350000D01*
X94062380Y-82302380D01*
X94157619Y-82302380D01*
X94300476Y-82350000D01*
X94348095Y-82397619D01*
X95348095Y-83207142D02*
X95300476Y-83254761D01*
X95157619Y-83302380D01*
X95062380Y-83302380D01*
X94919523Y-83254761D01*
X94824285Y-83159523D01*
X94776666Y-83064285D01*
X94729047Y-82873809D01*
X94729047Y-82730952D01*
X94776666Y-82540476D01*
X94824285Y-82445238D01*
X94919523Y-82350000D01*
X95062380Y-82302380D01*
X95157619Y-82302380D01*
X95300476Y-82350000D01*
X95348095Y-82397619D01*
X94043333Y-55302380D02*
X94043333Y-54302380D01*
X94043333Y-54778571D02*
X94614761Y-54778571D01*
X94614761Y-55302380D02*
X94614761Y-54302380D01*
X95386190Y-54878571D02*
X95386190Y-55411904D01*
X95195714Y-54573809D02*
X95005238Y-55145238D01*
X95500476Y-55145238D01*
X101848095Y-79850000D02*
X101752857Y-79802380D01*
X101610000Y-79802380D01*
X101467142Y-79850000D01*
X101371904Y-79945238D01*
X101324285Y-80040476D01*
X101276666Y-80230952D01*
X101276666Y-80373809D01*
X101324285Y-80564285D01*
X101371904Y-80659523D01*
X101467142Y-80754761D01*
X101610000Y-80802380D01*
X101705238Y-80802380D01*
X101848095Y-80754761D01*
X101895714Y-80707142D01*
X101895714Y-80373809D01*
X101705238Y-80373809D01*
X102324285Y-80802380D02*
X102324285Y-79802380D01*
X102895714Y-80802380D01*
X102895714Y-79802380D01*
X103371904Y-80802380D02*
X103371904Y-79802380D01*
X103610000Y-79802380D01*
X103752857Y-79850000D01*
X103848095Y-79945238D01*
X103895714Y-80040476D01*
X103943333Y-80230952D01*
X103943333Y-80373809D01*
X103895714Y-80564285D01*
X103848095Y-80659523D01*
X103752857Y-80754761D01*
X103610000Y-80802380D01*
X103371904Y-80802380D01*
X124952380Y-104602857D02*
X124952380Y-104793333D01*
X125000000Y-104888571D01*
X125047619Y-104936190D01*
X125190476Y-105031428D01*
X125380952Y-105079047D01*
X125761904Y-105079047D01*
X125857142Y-105031428D01*
X125904761Y-104983809D01*
X125952380Y-104888571D01*
X125952380Y-104698095D01*
X125904761Y-104602857D01*
X125857142Y-104555238D01*
X125761904Y-104507619D01*
X125523809Y-104507619D01*
X125428571Y-104555238D01*
X125380952Y-104602857D01*
X125333333Y-104698095D01*
X125333333Y-104888571D01*
X125380952Y-104983809D01*
X125428571Y-105031428D01*
X125523809Y-105079047D01*
X124952380Y-103888571D02*
X124952380Y-103793333D01*
X125000000Y-103698095D01*
X125047619Y-103650476D01*
X125142857Y-103602857D01*
X125333333Y-103555238D01*
X125571428Y-103555238D01*
X125761904Y-103602857D01*
X125857142Y-103650476D01*
X125904761Y-103698095D01*
X125952380Y-103793333D01*
X125952380Y-103888571D01*
X125904761Y-103983809D01*
X125857142Y-104031428D01*
X125761904Y-104079047D01*
X125571428Y-104126666D01*
X125333333Y-104126666D01*
X125142857Y-104079047D01*
X125047619Y-104031428D01*
X125000000Y-103983809D01*
X124952380Y-103888571D01*
X124952380Y-102650476D02*
X124952380Y-103126666D01*
X125428571Y-103174285D01*
X125380952Y-103126666D01*
X125333333Y-103031428D01*
X125333333Y-102793333D01*
X125380952Y-102698095D01*
X125428571Y-102650476D01*
X125523809Y-102602857D01*
X125761904Y-102602857D01*
X125857142Y-102650476D01*
X125904761Y-102698095D01*
X125952380Y-102793333D01*
X125952380Y-103031428D01*
X125904761Y-103126666D01*
X125857142Y-103174285D01*
X125571428Y-102174285D02*
X125571428Y-101412380D01*
X125952380Y-100412380D02*
X125952380Y-100983809D01*
X125952380Y-100698095D02*
X124952380Y-100698095D01*
X125095238Y-100793333D01*
X125190476Y-100888571D01*
X125238095Y-100983809D01*
X124952380Y-99793333D02*
X124952380Y-99698095D01*
X125000000Y-99602857D01*
X125047619Y-99555238D01*
X125142857Y-99507619D01*
X125333333Y-99460000D01*
X125571428Y-99460000D01*
X125761904Y-99507619D01*
X125857142Y-99555238D01*
X125904761Y-99602857D01*
X125952380Y-99698095D01*
X125952380Y-99793333D01*
X125904761Y-99888571D01*
X125857142Y-99936190D01*
X125761904Y-99983809D01*
X125571428Y-100031428D01*
X125333333Y-100031428D01*
X125142857Y-99983809D01*
X125047619Y-99936190D01*
X125000000Y-99888571D01*
X124952380Y-99793333D01*
X124952380Y-98840952D02*
X124952380Y-98745714D01*
X125000000Y-98650476D01*
X125047619Y-98602857D01*
X125142857Y-98555238D01*
X125333333Y-98507619D01*
X125571428Y-98507619D01*
X125761904Y-98555238D01*
X125857142Y-98602857D01*
X125904761Y-98650476D01*
X125952380Y-98745714D01*
X125952380Y-98840952D01*
X125904761Y-98936190D01*
X125857142Y-98983809D01*
X125761904Y-99031428D01*
X125571428Y-99079047D01*
X125333333Y-99079047D01*
X125142857Y-99031428D01*
X125047619Y-98983809D01*
X125000000Y-98936190D01*
X124952380Y-98840952D01*
X125952380Y-97555238D02*
X125952380Y-98126666D01*
X125952380Y-97840952D02*
X124952380Y-97840952D01*
X125095238Y-97936190D01*
X125190476Y-98031428D01*
X125238095Y-98126666D01*
X124952380Y-96936190D02*
X124952380Y-96840952D01*
X125000000Y-96745714D01*
X125047619Y-96698095D01*
X125142857Y-96650476D01*
X125333333Y-96602857D01*
X125571428Y-96602857D01*
X125761904Y-96650476D01*
X125857142Y-96698095D01*
X125904761Y-96745714D01*
X125952380Y-96840952D01*
X125952380Y-96936190D01*
X125904761Y-97031428D01*
X125857142Y-97079047D01*
X125761904Y-97126666D01*
X125571428Y-97174285D01*
X125333333Y-97174285D01*
X125142857Y-97126666D01*
X125047619Y-97079047D01*
X125000000Y-97031428D01*
X124952380Y-96936190D01*
X125952380Y-95650476D02*
X125952380Y-96221904D01*
X125952380Y-95936190D02*
X124952380Y-95936190D01*
X125095238Y-96031428D01*
X125190476Y-96126666D01*
X125238095Y-96221904D01*
X125952380Y-94698095D02*
X125952380Y-95269523D01*
X125952380Y-94983809D02*
X124952380Y-94983809D01*
X125095238Y-95079047D01*
X125190476Y-95174285D01*
X125238095Y-95269523D01*
X125952380Y-93745714D02*
X125952380Y-94317142D01*
X125952380Y-94031428D02*
X124952380Y-94031428D01*
X125095238Y-94126666D01*
X125190476Y-94221904D01*
X125238095Y-94317142D01*
X124952380Y-93126666D02*
X124952380Y-93031428D01*
X125000000Y-92936190D01*
X125047619Y-92888571D01*
X125142857Y-92840952D01*
X125333333Y-92793333D01*
X125571428Y-92793333D01*
X125761904Y-92840952D01*
X125857142Y-92888571D01*
X125904761Y-92936190D01*
X125952380Y-93031428D01*
X125952380Y-93126666D01*
X125904761Y-93221904D01*
X125857142Y-93269523D01*
X125761904Y-93317142D01*
X125571428Y-93364761D01*
X125333333Y-93364761D01*
X125142857Y-93317142D01*
X125047619Y-93269523D01*
X125000000Y-93221904D01*
X124952380Y-93126666D01*
X125952380Y-91840952D02*
X125952380Y-92412380D01*
X125952380Y-92126666D02*
X124952380Y-92126666D01*
X125095238Y-92221904D01*
X125190476Y-92317142D01*
X125238095Y-92412380D01*
D11*
X101365238Y-74711904D02*
X101631904Y-75511904D01*
X101898571Y-74711904D01*
X102584285Y-74750000D02*
X102508095Y-74711904D01*
X102393809Y-74711904D01*
X102279523Y-74750000D01*
X102203333Y-74826190D01*
X102165238Y-74902380D01*
X102127142Y-75054761D01*
X102127142Y-75169047D01*
X102165238Y-75321428D01*
X102203333Y-75397619D01*
X102279523Y-75473809D01*
X102393809Y-75511904D01*
X102470000Y-75511904D01*
X102584285Y-75473809D01*
X102622380Y-75435714D01*
X102622380Y-75169047D01*
X102470000Y-75169047D01*
X102927142Y-75283333D02*
X103308095Y-75283333D01*
X102850952Y-75511904D02*
X103117619Y-74711904D01*
X103384285Y-75511904D01*
X103612857Y-74788095D02*
X103650952Y-74750000D01*
X103727142Y-74711904D01*
X103917619Y-74711904D01*
X103993809Y-74750000D01*
X104031904Y-74788095D01*
X104070000Y-74864285D01*
X104070000Y-74940476D01*
X104031904Y-75054761D01*
X103574761Y-75511904D01*
X104070000Y-75511904D01*
X104710000Y-74990000D02*
X104649047Y-74959523D01*
X104557619Y-74959523D01*
X104466190Y-74990000D01*
X104405238Y-75050952D01*
X104374761Y-75111904D01*
X104344285Y-75233809D01*
X104344285Y-75325238D01*
X104374761Y-75447142D01*
X104405238Y-75508095D01*
X104466190Y-75569047D01*
X104557619Y-75599523D01*
X104618571Y-75599523D01*
X104710000Y-75569047D01*
X104740476Y-75538571D01*
X104740476Y-75325238D01*
X104618571Y-75325238D01*
X105380476Y-75599523D02*
X105167142Y-75294761D01*
X105014761Y-75599523D02*
X105014761Y-74959523D01*
X105258571Y-74959523D01*
X105319523Y-74990000D01*
X105350000Y-75020476D01*
X105380476Y-75081428D01*
X105380476Y-75172857D01*
X105350000Y-75233809D01*
X105319523Y-75264285D01*
X105258571Y-75294761D01*
X105014761Y-75294761D01*
X105654761Y-75264285D02*
X105868095Y-75264285D01*
X105959523Y-75599523D02*
X105654761Y-75599523D01*
X105654761Y-74959523D01*
X105959523Y-74959523D01*
X106233809Y-75264285D02*
X106447142Y-75264285D01*
X106538571Y-75599523D02*
X106233809Y-75599523D01*
X106233809Y-74959523D01*
X106538571Y-74959523D01*
X106812857Y-75599523D02*
X106812857Y-74959523D01*
X107178571Y-75599523D01*
X107178571Y-74959523D01*
D10*
X101395714Y-61902380D02*
X101729047Y-62902380D01*
X102062380Y-61902380D01*
X102500476Y-62211904D02*
X102576666Y-62211904D01*
X102652857Y-62250000D01*
X102690952Y-62288095D01*
X102729047Y-62364285D01*
X102767142Y-62516666D01*
X102767142Y-62707142D01*
X102729047Y-62859523D01*
X102690952Y-62935714D01*
X102652857Y-62973809D01*
X102576666Y-63011904D01*
X102500476Y-63011904D01*
X102424285Y-62973809D01*
X102386190Y-62935714D01*
X102348095Y-62859523D01*
X102310000Y-62707142D01*
X102310000Y-62516666D01*
X102348095Y-62364285D01*
X102386190Y-62288095D01*
X102424285Y-62250000D01*
X102500476Y-62211904D01*
X94043333Y-47702380D02*
X94043333Y-46702380D01*
X94043333Y-47178571D02*
X94614761Y-47178571D01*
X94614761Y-47702380D02*
X94614761Y-46702380D01*
X95462380Y-47811904D02*
X95005238Y-47811904D01*
X95233809Y-47811904D02*
X95233809Y-47011904D01*
X95157619Y-47126190D01*
X95081428Y-47202380D01*
X95005238Y-47240476D01*
X94043333Y-60202380D02*
X94043333Y-59202380D01*
X94043333Y-59678571D02*
X94614761Y-59678571D01*
X94614761Y-60202380D02*
X94614761Y-59202380D01*
X95386190Y-59511904D02*
X95233809Y-59511904D01*
X95157619Y-59550000D01*
X95119523Y-59588095D01*
X95043333Y-59702380D01*
X95005238Y-59854761D01*
X95005238Y-60159523D01*
X95043333Y-60235714D01*
X95081428Y-60273809D01*
X95157619Y-60311904D01*
X95310000Y-60311904D01*
X95386190Y-60273809D01*
X95424285Y-60235714D01*
X95462380Y-60159523D01*
X95462380Y-59969047D01*
X95424285Y-59892857D01*
X95386190Y-59854761D01*
X95310000Y-59816666D01*
X95157619Y-59816666D01*
X95081428Y-59854761D01*
X95043333Y-59892857D01*
X95005238Y-59969047D01*
X94043333Y-50102380D02*
X94043333Y-49102380D01*
X94043333Y-49578571D02*
X94614761Y-49578571D01*
X94614761Y-50102380D02*
X94614761Y-49102380D01*
X95005238Y-49488095D02*
X95043333Y-49450000D01*
X95119523Y-49411904D01*
X95310000Y-49411904D01*
X95386190Y-49450000D01*
X95424285Y-49488095D01*
X95462380Y-49564285D01*
X95462380Y-49640476D01*
X95424285Y-49754761D01*
X94967142Y-50211904D01*
X95462380Y-50211904D01*
X92219523Y-86702380D02*
X91648095Y-86702380D01*
X91933809Y-86702380D02*
X91933809Y-85702380D01*
X91838571Y-85845238D01*
X91743333Y-85940476D01*
X91648095Y-85988095D01*
X92552857Y-85702380D02*
X93219523Y-85702380D01*
X92790952Y-86702380D01*
D11*
X89465238Y-74611904D02*
X89731904Y-75411904D01*
X89998571Y-74611904D01*
X90684285Y-74650000D02*
X90608095Y-74611904D01*
X90493809Y-74611904D01*
X90379523Y-74650000D01*
X90303333Y-74726190D01*
X90265238Y-74802380D01*
X90227142Y-74954761D01*
X90227142Y-75069047D01*
X90265238Y-75221428D01*
X90303333Y-75297619D01*
X90379523Y-75373809D01*
X90493809Y-75411904D01*
X90570000Y-75411904D01*
X90684285Y-75373809D01*
X90722380Y-75335714D01*
X90722380Y-75069047D01*
X90570000Y-75069047D01*
X91027142Y-75183333D02*
X91408095Y-75183333D01*
X90950952Y-75411904D02*
X91217619Y-74611904D01*
X91484285Y-75411904D01*
X92170000Y-75411904D02*
X91712857Y-75411904D01*
X91941428Y-75411904D02*
X91941428Y-74611904D01*
X91865238Y-74726190D01*
X91789047Y-74802380D01*
X91712857Y-74840476D01*
X92810000Y-74890000D02*
X92749047Y-74859523D01*
X92657619Y-74859523D01*
X92566190Y-74890000D01*
X92505238Y-74950952D01*
X92474761Y-75011904D01*
X92444285Y-75133809D01*
X92444285Y-75225238D01*
X92474761Y-75347142D01*
X92505238Y-75408095D01*
X92566190Y-75469047D01*
X92657619Y-75499523D01*
X92718571Y-75499523D01*
X92810000Y-75469047D01*
X92840476Y-75438571D01*
X92840476Y-75225238D01*
X92718571Y-75225238D01*
X93480476Y-75499523D02*
X93267142Y-75194761D01*
X93114761Y-75499523D02*
X93114761Y-74859523D01*
X93358571Y-74859523D01*
X93419523Y-74890000D01*
X93450000Y-74920476D01*
X93480476Y-74981428D01*
X93480476Y-75072857D01*
X93450000Y-75133809D01*
X93419523Y-75164285D01*
X93358571Y-75194761D01*
X93114761Y-75194761D01*
X93754761Y-75164285D02*
X93968095Y-75164285D01*
X94059523Y-75499523D02*
X93754761Y-75499523D01*
X93754761Y-74859523D01*
X94059523Y-74859523D01*
X94333809Y-75164285D02*
X94547142Y-75164285D01*
X94638571Y-75499523D02*
X94333809Y-75499523D01*
X94333809Y-74859523D01*
X94638571Y-74859523D01*
X94912857Y-75499523D02*
X94912857Y-74859523D01*
X95278571Y-75499523D01*
X95278571Y-74859523D01*
X90115714Y-72111904D02*
X90382380Y-72911904D01*
X90649047Y-72111904D01*
X91334761Y-72150000D02*
X91258571Y-72111904D01*
X91144285Y-72111904D01*
X91030000Y-72150000D01*
X90953809Y-72226190D01*
X90915714Y-72302380D01*
X90877619Y-72454761D01*
X90877619Y-72569047D01*
X90915714Y-72721428D01*
X90953809Y-72797619D01*
X91030000Y-72873809D01*
X91144285Y-72911904D01*
X91220476Y-72911904D01*
X91334761Y-72873809D01*
X91372857Y-72835714D01*
X91372857Y-72569047D01*
X91220476Y-72569047D01*
X91677619Y-72683333D02*
X92058571Y-72683333D01*
X91601428Y-72911904D02*
X91868095Y-72111904D01*
X92134761Y-72911904D01*
X92820476Y-72911904D02*
X92363333Y-72911904D01*
X92591904Y-72911904D02*
X92591904Y-72111904D01*
X92515714Y-72226190D01*
X92439523Y-72302380D01*
X92363333Y-72340476D01*
X93338571Y-72664285D02*
X93430000Y-72694761D01*
X93460476Y-72725238D01*
X93490952Y-72786190D01*
X93490952Y-72877619D01*
X93460476Y-72938571D01*
X93430000Y-72969047D01*
X93369047Y-72999523D01*
X93125238Y-72999523D01*
X93125238Y-72359523D01*
X93338571Y-72359523D01*
X93399523Y-72390000D01*
X93430000Y-72420476D01*
X93460476Y-72481428D01*
X93460476Y-72542380D01*
X93430000Y-72603333D01*
X93399523Y-72633809D01*
X93338571Y-72664285D01*
X93125238Y-72664285D01*
X94070000Y-72999523D02*
X93765238Y-72999523D01*
X93765238Y-72359523D01*
X94283333Y-72359523D02*
X94283333Y-72877619D01*
X94313809Y-72938571D01*
X94344285Y-72969047D01*
X94405238Y-72999523D01*
X94527142Y-72999523D01*
X94588095Y-72969047D01*
X94618571Y-72938571D01*
X94649047Y-72877619D01*
X94649047Y-72359523D01*
X94953809Y-72664285D02*
X95167142Y-72664285D01*
X95258571Y-72999523D02*
X94953809Y-72999523D01*
X94953809Y-72359523D01*
X95258571Y-72359523D01*
D10*
X94043333Y-57802380D02*
X94043333Y-56802380D01*
X94043333Y-57278571D02*
X94614761Y-57278571D01*
X94614761Y-57802380D02*
X94614761Y-56802380D01*
X95424285Y-57111904D02*
X95043333Y-57111904D01*
X95005238Y-57492857D01*
X95043333Y-57454761D01*
X95119523Y-57416666D01*
X95310000Y-57416666D01*
X95386190Y-57454761D01*
X95424285Y-57492857D01*
X95462380Y-57569047D01*
X95462380Y-57759523D01*
X95424285Y-57835714D01*
X95386190Y-57873809D01*
X95310000Y-57911904D01*
X95119523Y-57911904D01*
X95043333Y-57873809D01*
X95005238Y-57835714D01*
X101395714Y-59302380D02*
X101729047Y-60302380D01*
X102062380Y-59302380D01*
X102767142Y-60411904D02*
X102310000Y-60411904D01*
X102538571Y-60411904D02*
X102538571Y-59611904D01*
X102462380Y-59726190D01*
X102386190Y-59802380D01*
X102310000Y-59840476D01*
X93395714Y-44602380D02*
X92824285Y-44602380D01*
X93110000Y-44602380D02*
X93110000Y-43602380D01*
X93014761Y-43745238D01*
X92919523Y-43840476D01*
X92824285Y-43888095D01*
D11*
X101403333Y-67211904D02*
X101670000Y-68011904D01*
X101936666Y-67211904D01*
X102134761Y-68069047D02*
X102195714Y-68099523D01*
X102317619Y-68099523D01*
X102378571Y-68069047D01*
X102409047Y-68008095D01*
X102409047Y-67977619D01*
X102378571Y-67916666D01*
X102317619Y-67886190D01*
X102226190Y-67886190D01*
X102165238Y-67855714D01*
X102134761Y-67794761D01*
X102134761Y-67764285D01*
X102165238Y-67703333D01*
X102226190Y-67672857D01*
X102317619Y-67672857D01*
X102378571Y-67703333D01*
X103140476Y-68011904D02*
X102683333Y-68011904D01*
X102911904Y-68011904D02*
X102911904Y-67211904D01*
X102835714Y-67326190D01*
X102759523Y-67402380D01*
X102683333Y-67440476D01*
D10*
X94043333Y-62802380D02*
X94043333Y-61802380D01*
X94043333Y-62278571D02*
X94614761Y-62278571D01*
X94614761Y-62802380D02*
X94614761Y-61802380D01*
X94967142Y-62111904D02*
X95500476Y-62111904D01*
X95157619Y-62911904D01*
X93110000Y-126750000D02*
X93110000Y-126150000D01*
D12*
%TO.C,*%
%TO.C,74LS30*%
X77052380Y-59702857D02*
X77052380Y-59036190D01*
X78052380Y-59464761D01*
X77385714Y-58226666D02*
X78052380Y-58226666D01*
X77004761Y-58464761D02*
X77719047Y-58702857D01*
X77719047Y-58083809D01*
X78052380Y-57226666D02*
X78052380Y-57702857D01*
X77052380Y-57702857D01*
X78004761Y-56940952D02*
X78052380Y-56798095D01*
X78052380Y-56560000D01*
X78004761Y-56464761D01*
X77957142Y-56417142D01*
X77861904Y-56369523D01*
X77766666Y-56369523D01*
X77671428Y-56417142D01*
X77623809Y-56464761D01*
X77576190Y-56560000D01*
X77528571Y-56750476D01*
X77480952Y-56845714D01*
X77433333Y-56893333D01*
X77338095Y-56940952D01*
X77242857Y-56940952D01*
X77147619Y-56893333D01*
X77100000Y-56845714D01*
X77052380Y-56750476D01*
X77052380Y-56512380D01*
X77100000Y-56369523D01*
X77052380Y-56036190D02*
X77052380Y-55417142D01*
X77433333Y-55750476D01*
X77433333Y-55607619D01*
X77480952Y-55512380D01*
X77528571Y-55464761D01*
X77623809Y-55417142D01*
X77861904Y-55417142D01*
X77957142Y-55464761D01*
X78004761Y-55512380D01*
X78052380Y-55607619D01*
X78052380Y-55893333D01*
X78004761Y-55988571D01*
X77957142Y-56036190D01*
X77052380Y-54798095D02*
X77052380Y-54702857D01*
X77100000Y-54607619D01*
X77147619Y-54560000D01*
X77242857Y-54512380D01*
X77433333Y-54464761D01*
X77671428Y-54464761D01*
X77861904Y-54512380D01*
X77957142Y-54560000D01*
X78004761Y-54607619D01*
X78052380Y-54702857D01*
X78052380Y-54798095D01*
X78004761Y-54893333D01*
X77957142Y-54940952D01*
X77861904Y-54988571D01*
X77671428Y-55036190D01*
X77433333Y-55036190D01*
X77242857Y-54988571D01*
X77147619Y-54940952D01*
X77100000Y-54893333D01*
X77052380Y-54798095D01*
%TO.C,VGA PORT 2*%
X120105238Y-132302380D02*
X120438571Y-133302380D01*
X120771904Y-132302380D01*
X121629047Y-132350000D02*
X121533809Y-132302380D01*
X121390952Y-132302380D01*
X121248095Y-132350000D01*
X121152857Y-132445238D01*
X121105238Y-132540476D01*
X121057619Y-132730952D01*
X121057619Y-132873809D01*
X121105238Y-133064285D01*
X121152857Y-133159523D01*
X121248095Y-133254761D01*
X121390952Y-133302380D01*
X121486190Y-133302380D01*
X121629047Y-133254761D01*
X121676666Y-133207142D01*
X121676666Y-132873809D01*
X121486190Y-132873809D01*
X122057619Y-133016666D02*
X122533809Y-133016666D01*
X121962380Y-133302380D02*
X122295714Y-132302380D01*
X122629047Y-133302380D01*
X123724285Y-133302380D02*
X123724285Y-132302380D01*
X124105238Y-132302380D01*
X124200476Y-132350000D01*
X124248095Y-132397619D01*
X124295714Y-132492857D01*
X124295714Y-132635714D01*
X124248095Y-132730952D01*
X124200476Y-132778571D01*
X124105238Y-132826190D01*
X123724285Y-132826190D01*
X124914761Y-132302380D02*
X125105238Y-132302380D01*
X125200476Y-132350000D01*
X125295714Y-132445238D01*
X125343333Y-132635714D01*
X125343333Y-132969047D01*
X125295714Y-133159523D01*
X125200476Y-133254761D01*
X125105238Y-133302380D01*
X124914761Y-133302380D01*
X124819523Y-133254761D01*
X124724285Y-133159523D01*
X124676666Y-132969047D01*
X124676666Y-132635714D01*
X124724285Y-132445238D01*
X124819523Y-132350000D01*
X124914761Y-132302380D01*
X126343333Y-133302380D02*
X126010000Y-132826190D01*
X125771904Y-133302380D02*
X125771904Y-132302380D01*
X126152857Y-132302380D01*
X126248095Y-132350000D01*
X126295714Y-132397619D01*
X126343333Y-132492857D01*
X126343333Y-132635714D01*
X126295714Y-132730952D01*
X126248095Y-132778571D01*
X126152857Y-132826190D01*
X125771904Y-132826190D01*
X126629047Y-132302380D02*
X127200476Y-132302380D01*
X126914761Y-133302380D02*
X126914761Y-132302380D01*
X128248095Y-132397619D02*
X128295714Y-132350000D01*
X128390952Y-132302380D01*
X128629047Y-132302380D01*
X128724285Y-132350000D01*
X128771904Y-132397619D01*
X128819523Y-132492857D01*
X128819523Y-132588095D01*
X128771904Y-132730952D01*
X128200476Y-133302380D01*
X128819523Y-133302380D01*
%TO.C,74LS161*%
X53762380Y-107079047D02*
X53762380Y-106412380D01*
X54762380Y-106840952D01*
X54095714Y-105602857D02*
X54762380Y-105602857D01*
X53714761Y-105840952D02*
X54429047Y-106079047D01*
X54429047Y-105460000D01*
X54762380Y-104602857D02*
X54762380Y-105079047D01*
X53762380Y-105079047D01*
X54714761Y-104317142D02*
X54762380Y-104174285D01*
X54762380Y-103936190D01*
X54714761Y-103840952D01*
X54667142Y-103793333D01*
X54571904Y-103745714D01*
X54476666Y-103745714D01*
X54381428Y-103793333D01*
X54333809Y-103840952D01*
X54286190Y-103936190D01*
X54238571Y-104126666D01*
X54190952Y-104221904D01*
X54143333Y-104269523D01*
X54048095Y-104317142D01*
X53952857Y-104317142D01*
X53857619Y-104269523D01*
X53810000Y-104221904D01*
X53762380Y-104126666D01*
X53762380Y-103888571D01*
X53810000Y-103745714D01*
X54762380Y-102793333D02*
X54762380Y-103364761D01*
X54762380Y-103079047D02*
X53762380Y-103079047D01*
X53905238Y-103174285D01*
X54000476Y-103269523D01*
X54048095Y-103364761D01*
X53762380Y-101936190D02*
X53762380Y-102126666D01*
X53810000Y-102221904D01*
X53857619Y-102269523D01*
X54000476Y-102364761D01*
X54190952Y-102412380D01*
X54571904Y-102412380D01*
X54667142Y-102364761D01*
X54714761Y-102317142D01*
X54762380Y-102221904D01*
X54762380Y-102031428D01*
X54714761Y-101936190D01*
X54667142Y-101888571D01*
X54571904Y-101840952D01*
X54333809Y-101840952D01*
X54238571Y-101888571D01*
X54190952Y-101936190D01*
X54143333Y-102031428D01*
X54143333Y-102221904D01*
X54190952Y-102317142D01*
X54238571Y-102364761D01*
X54333809Y-102412380D01*
X54762380Y-100888571D02*
X54762380Y-101460000D01*
X54762380Y-101174285D02*
X53762380Y-101174285D01*
X53905238Y-101269523D01*
X54000476Y-101364761D01*
X54048095Y-101460000D01*
%TO.C,*%
%TO.C,74LS30*%
X77052380Y-100102857D02*
X77052380Y-99436190D01*
X78052380Y-99864761D01*
X77385714Y-98626666D02*
X78052380Y-98626666D01*
X77004761Y-98864761D02*
X77719047Y-99102857D01*
X77719047Y-98483809D01*
X78052380Y-97626666D02*
X78052380Y-98102857D01*
X77052380Y-98102857D01*
X78004761Y-97340952D02*
X78052380Y-97198095D01*
X78052380Y-96960000D01*
X78004761Y-96864761D01*
X77957142Y-96817142D01*
X77861904Y-96769523D01*
X77766666Y-96769523D01*
X77671428Y-96817142D01*
X77623809Y-96864761D01*
X77576190Y-96960000D01*
X77528571Y-97150476D01*
X77480952Y-97245714D01*
X77433333Y-97293333D01*
X77338095Y-97340952D01*
X77242857Y-97340952D01*
X77147619Y-97293333D01*
X77100000Y-97245714D01*
X77052380Y-97150476D01*
X77052380Y-96912380D01*
X77100000Y-96769523D01*
X77052380Y-96436190D02*
X77052380Y-95817142D01*
X77433333Y-96150476D01*
X77433333Y-96007619D01*
X77480952Y-95912380D01*
X77528571Y-95864761D01*
X77623809Y-95817142D01*
X77861904Y-95817142D01*
X77957142Y-95864761D01*
X78004761Y-95912380D01*
X78052380Y-96007619D01*
X78052380Y-96293333D01*
X78004761Y-96388571D01*
X77957142Y-96436190D01*
X77052380Y-95198095D02*
X77052380Y-95102857D01*
X77100000Y-95007619D01*
X77147619Y-94960000D01*
X77242857Y-94912380D01*
X77433333Y-94864761D01*
X77671428Y-94864761D01*
X77861904Y-94912380D01*
X77957142Y-94960000D01*
X78004761Y-95007619D01*
X78052380Y-95102857D01*
X78052380Y-95198095D01*
X78004761Y-95293333D01*
X77957142Y-95340952D01*
X77861904Y-95388571D01*
X77671428Y-95436190D01*
X77433333Y-95436190D01*
X77242857Y-95388571D01*
X77147619Y-95340952D01*
X77100000Y-95293333D01*
X77052380Y-95198095D01*
X118352380Y-80002857D02*
X118352380Y-79336190D01*
X119352380Y-79764761D01*
X118685714Y-78526666D02*
X119352380Y-78526666D01*
X118304761Y-78764761D02*
X119019047Y-79002857D01*
X119019047Y-78383809D01*
X119352380Y-77526666D02*
X119352380Y-78002857D01*
X118352380Y-78002857D01*
X119304761Y-77240952D02*
X119352380Y-77098095D01*
X119352380Y-76860000D01*
X119304761Y-76764761D01*
X119257142Y-76717142D01*
X119161904Y-76669523D01*
X119066666Y-76669523D01*
X118971428Y-76717142D01*
X118923809Y-76764761D01*
X118876190Y-76860000D01*
X118828571Y-77050476D01*
X118780952Y-77145714D01*
X118733333Y-77193333D01*
X118638095Y-77240952D01*
X118542857Y-77240952D01*
X118447619Y-77193333D01*
X118400000Y-77145714D01*
X118352380Y-77050476D01*
X118352380Y-76812380D01*
X118400000Y-76669523D01*
X118352380Y-76336190D02*
X118352380Y-75717142D01*
X118733333Y-76050476D01*
X118733333Y-75907619D01*
X118780952Y-75812380D01*
X118828571Y-75764761D01*
X118923809Y-75717142D01*
X119161904Y-75717142D01*
X119257142Y-75764761D01*
X119304761Y-75812380D01*
X119352380Y-75907619D01*
X119352380Y-76193333D01*
X119304761Y-76288571D01*
X119257142Y-76336190D01*
X118352380Y-75098095D02*
X118352380Y-75002857D01*
X118400000Y-74907619D01*
X118447619Y-74860000D01*
X118542857Y-74812380D01*
X118733333Y-74764761D01*
X118971428Y-74764761D01*
X119161904Y-74812380D01*
X119257142Y-74860000D01*
X119304761Y-74907619D01*
X119352380Y-75002857D01*
X119352380Y-75098095D01*
X119304761Y-75193333D01*
X119257142Y-75240952D01*
X119161904Y-75288571D01*
X118971428Y-75336190D01*
X118733333Y-75336190D01*
X118542857Y-75288571D01*
X118447619Y-75240952D01*
X118400000Y-75193333D01*
X118352380Y-75098095D01*
%TO.C,74LS161*%
X141742380Y-64829047D02*
X141742380Y-64162380D01*
X142742380Y-64590952D01*
X142075714Y-63352857D02*
X142742380Y-63352857D01*
X141694761Y-63590952D02*
X142409047Y-63829047D01*
X142409047Y-63210000D01*
X142742380Y-62352857D02*
X142742380Y-62829047D01*
X141742380Y-62829047D01*
X142694761Y-62067142D02*
X142742380Y-61924285D01*
X142742380Y-61686190D01*
X142694761Y-61590952D01*
X142647142Y-61543333D01*
X142551904Y-61495714D01*
X142456666Y-61495714D01*
X142361428Y-61543333D01*
X142313809Y-61590952D01*
X142266190Y-61686190D01*
X142218571Y-61876666D01*
X142170952Y-61971904D01*
X142123333Y-62019523D01*
X142028095Y-62067142D01*
X141932857Y-62067142D01*
X141837619Y-62019523D01*
X141790000Y-61971904D01*
X141742380Y-61876666D01*
X141742380Y-61638571D01*
X141790000Y-61495714D01*
X142742380Y-60543333D02*
X142742380Y-61114761D01*
X142742380Y-60829047D02*
X141742380Y-60829047D01*
X141885238Y-60924285D01*
X141980476Y-61019523D01*
X142028095Y-61114761D01*
X141742380Y-59686190D02*
X141742380Y-59876666D01*
X141790000Y-59971904D01*
X141837619Y-60019523D01*
X141980476Y-60114761D01*
X142170952Y-60162380D01*
X142551904Y-60162380D01*
X142647142Y-60114761D01*
X142694761Y-60067142D01*
X142742380Y-59971904D01*
X142742380Y-59781428D01*
X142694761Y-59686190D01*
X142647142Y-59638571D01*
X142551904Y-59590952D01*
X142313809Y-59590952D01*
X142218571Y-59638571D01*
X142170952Y-59686190D01*
X142123333Y-59781428D01*
X142123333Y-59971904D01*
X142170952Y-60067142D01*
X142218571Y-60114761D01*
X142313809Y-60162380D01*
X142742380Y-58638571D02*
X142742380Y-59210000D01*
X142742380Y-58924285D02*
X141742380Y-58924285D01*
X141885238Y-59019523D01*
X141980476Y-59114761D01*
X142028095Y-59210000D01*
X141742380Y-107829047D02*
X141742380Y-107162380D01*
X142742380Y-107590952D01*
X142075714Y-106352857D02*
X142742380Y-106352857D01*
X141694761Y-106590952D02*
X142409047Y-106829047D01*
X142409047Y-106210000D01*
X142742380Y-105352857D02*
X142742380Y-105829047D01*
X141742380Y-105829047D01*
X142694761Y-105067142D02*
X142742380Y-104924285D01*
X142742380Y-104686190D01*
X142694761Y-104590952D01*
X142647142Y-104543333D01*
X142551904Y-104495714D01*
X142456666Y-104495714D01*
X142361428Y-104543333D01*
X142313809Y-104590952D01*
X142266190Y-104686190D01*
X142218571Y-104876666D01*
X142170952Y-104971904D01*
X142123333Y-105019523D01*
X142028095Y-105067142D01*
X141932857Y-105067142D01*
X141837619Y-105019523D01*
X141790000Y-104971904D01*
X141742380Y-104876666D01*
X141742380Y-104638571D01*
X141790000Y-104495714D01*
X142742380Y-103543333D02*
X142742380Y-104114761D01*
X142742380Y-103829047D02*
X141742380Y-103829047D01*
X141885238Y-103924285D01*
X141980476Y-104019523D01*
X142028095Y-104114761D01*
X141742380Y-102686190D02*
X141742380Y-102876666D01*
X141790000Y-102971904D01*
X141837619Y-103019523D01*
X141980476Y-103114761D01*
X142170952Y-103162380D01*
X142551904Y-103162380D01*
X142647142Y-103114761D01*
X142694761Y-103067142D01*
X142742380Y-102971904D01*
X142742380Y-102781428D01*
X142694761Y-102686190D01*
X142647142Y-102638571D01*
X142551904Y-102590952D01*
X142313809Y-102590952D01*
X142218571Y-102638571D01*
X142170952Y-102686190D01*
X142123333Y-102781428D01*
X142123333Y-102971904D01*
X142170952Y-103067142D01*
X142218571Y-103114761D01*
X142313809Y-103162380D01*
X142742380Y-101638571D02*
X142742380Y-102210000D01*
X142742380Y-101924285D02*
X141742380Y-101924285D01*
X141885238Y-102019523D01*
X141980476Y-102114761D01*
X142028095Y-102210000D01*
%TO.C,*%
%TO.C,74LS00*%
X88362380Y-105267857D02*
X88362380Y-104601190D01*
X89362380Y-105029761D01*
X88695714Y-103791666D02*
X89362380Y-103791666D01*
X88314761Y-104029761D02*
X89029047Y-104267857D01*
X89029047Y-103648809D01*
X89362380Y-102791666D02*
X89362380Y-103267857D01*
X88362380Y-103267857D01*
X89314761Y-102505952D02*
X89362380Y-102363095D01*
X89362380Y-102125000D01*
X89314761Y-102029761D01*
X89267142Y-101982142D01*
X89171904Y-101934523D01*
X89076666Y-101934523D01*
X88981428Y-101982142D01*
X88933809Y-102029761D01*
X88886190Y-102125000D01*
X88838571Y-102315476D01*
X88790952Y-102410714D01*
X88743333Y-102458333D01*
X88648095Y-102505952D01*
X88552857Y-102505952D01*
X88457619Y-102458333D01*
X88410000Y-102410714D01*
X88362380Y-102315476D01*
X88362380Y-102077380D01*
X88410000Y-101934523D01*
X88362380Y-101315476D02*
X88362380Y-101220238D01*
X88410000Y-101125000D01*
X88457619Y-101077380D01*
X88552857Y-101029761D01*
X88743333Y-100982142D01*
X88981428Y-100982142D01*
X89171904Y-101029761D01*
X89267142Y-101077380D01*
X89314761Y-101125000D01*
X89362380Y-101220238D01*
X89362380Y-101315476D01*
X89314761Y-101410714D01*
X89267142Y-101458333D01*
X89171904Y-101505952D01*
X88981428Y-101553571D01*
X88743333Y-101553571D01*
X88552857Y-101505952D01*
X88457619Y-101458333D01*
X88410000Y-101410714D01*
X88362380Y-101315476D01*
X88362380Y-100363095D02*
X88362380Y-100267857D01*
X88410000Y-100172619D01*
X88457619Y-100125000D01*
X88552857Y-100077380D01*
X88743333Y-100029761D01*
X88981428Y-100029761D01*
X89171904Y-100077380D01*
X89267142Y-100125000D01*
X89314761Y-100172619D01*
X89362380Y-100267857D01*
X89362380Y-100363095D01*
X89314761Y-100458333D01*
X89267142Y-100505952D01*
X89171904Y-100553571D01*
X88981428Y-100601190D01*
X88743333Y-100601190D01*
X88552857Y-100553571D01*
X88457619Y-100505952D01*
X88410000Y-100458333D01*
X88362380Y-100363095D01*
%TO.C,74LS30*%
X118352380Y-100202857D02*
X118352380Y-99536190D01*
X119352380Y-99964761D01*
X118685714Y-98726666D02*
X119352380Y-98726666D01*
X118304761Y-98964761D02*
X119019047Y-99202857D01*
X119019047Y-98583809D01*
X119352380Y-97726666D02*
X119352380Y-98202857D01*
X118352380Y-98202857D01*
X119304761Y-97440952D02*
X119352380Y-97298095D01*
X119352380Y-97060000D01*
X119304761Y-96964761D01*
X119257142Y-96917142D01*
X119161904Y-96869523D01*
X119066666Y-96869523D01*
X118971428Y-96917142D01*
X118923809Y-96964761D01*
X118876190Y-97060000D01*
X118828571Y-97250476D01*
X118780952Y-97345714D01*
X118733333Y-97393333D01*
X118638095Y-97440952D01*
X118542857Y-97440952D01*
X118447619Y-97393333D01*
X118400000Y-97345714D01*
X118352380Y-97250476D01*
X118352380Y-97012380D01*
X118400000Y-96869523D01*
X118352380Y-96536190D02*
X118352380Y-95917142D01*
X118733333Y-96250476D01*
X118733333Y-96107619D01*
X118780952Y-96012380D01*
X118828571Y-95964761D01*
X118923809Y-95917142D01*
X119161904Y-95917142D01*
X119257142Y-95964761D01*
X119304761Y-96012380D01*
X119352380Y-96107619D01*
X119352380Y-96393333D01*
X119304761Y-96488571D01*
X119257142Y-96536190D01*
X118352380Y-95298095D02*
X118352380Y-95202857D01*
X118400000Y-95107619D01*
X118447619Y-95060000D01*
X118542857Y-95012380D01*
X118733333Y-94964761D01*
X118971428Y-94964761D01*
X119161904Y-95012380D01*
X119257142Y-95060000D01*
X119304761Y-95107619D01*
X119352380Y-95202857D01*
X119352380Y-95298095D01*
X119304761Y-95393333D01*
X119257142Y-95440952D01*
X119161904Y-95488571D01*
X118971428Y-95536190D01*
X118733333Y-95536190D01*
X118542857Y-95488571D01*
X118447619Y-95440952D01*
X118400000Y-95393333D01*
X118352380Y-95298095D01*
X77052380Y-79902857D02*
X77052380Y-79236190D01*
X78052380Y-79664761D01*
X77385714Y-78426666D02*
X78052380Y-78426666D01*
X77004761Y-78664761D02*
X77719047Y-78902857D01*
X77719047Y-78283809D01*
X78052380Y-77426666D02*
X78052380Y-77902857D01*
X77052380Y-77902857D01*
X78004761Y-77140952D02*
X78052380Y-76998095D01*
X78052380Y-76760000D01*
X78004761Y-76664761D01*
X77957142Y-76617142D01*
X77861904Y-76569523D01*
X77766666Y-76569523D01*
X77671428Y-76617142D01*
X77623809Y-76664761D01*
X77576190Y-76760000D01*
X77528571Y-76950476D01*
X77480952Y-77045714D01*
X77433333Y-77093333D01*
X77338095Y-77140952D01*
X77242857Y-77140952D01*
X77147619Y-77093333D01*
X77100000Y-77045714D01*
X77052380Y-76950476D01*
X77052380Y-76712380D01*
X77100000Y-76569523D01*
X77052380Y-76236190D02*
X77052380Y-75617142D01*
X77433333Y-75950476D01*
X77433333Y-75807619D01*
X77480952Y-75712380D01*
X77528571Y-75664761D01*
X77623809Y-75617142D01*
X77861904Y-75617142D01*
X77957142Y-75664761D01*
X78004761Y-75712380D01*
X78052380Y-75807619D01*
X78052380Y-76093333D01*
X78004761Y-76188571D01*
X77957142Y-76236190D01*
X77052380Y-74998095D02*
X77052380Y-74902857D01*
X77100000Y-74807619D01*
X77147619Y-74760000D01*
X77242857Y-74712380D01*
X77433333Y-74664761D01*
X77671428Y-74664761D01*
X77861904Y-74712380D01*
X77957142Y-74760000D01*
X78004761Y-74807619D01*
X78052380Y-74902857D01*
X78052380Y-74998095D01*
X78004761Y-75093333D01*
X77957142Y-75140952D01*
X77861904Y-75188571D01*
X77671428Y-75236190D01*
X77433333Y-75236190D01*
X77242857Y-75188571D01*
X77147619Y-75140952D01*
X77100000Y-75093333D01*
X77052380Y-74998095D01*
%TO.C,74LS04*%
X53852380Y-127302857D02*
X53852380Y-126636190D01*
X54852380Y-127064761D01*
X54185714Y-125826666D02*
X54852380Y-125826666D01*
X53804761Y-126064761D02*
X54519047Y-126302857D01*
X54519047Y-125683809D01*
X54852380Y-124826666D02*
X54852380Y-125302857D01*
X53852380Y-125302857D01*
X54804761Y-124540952D02*
X54852380Y-124398095D01*
X54852380Y-124160000D01*
X54804761Y-124064761D01*
X54757142Y-124017142D01*
X54661904Y-123969523D01*
X54566666Y-123969523D01*
X54471428Y-124017142D01*
X54423809Y-124064761D01*
X54376190Y-124160000D01*
X54328571Y-124350476D01*
X54280952Y-124445714D01*
X54233333Y-124493333D01*
X54138095Y-124540952D01*
X54042857Y-124540952D01*
X53947619Y-124493333D01*
X53900000Y-124445714D01*
X53852380Y-124350476D01*
X53852380Y-124112380D01*
X53900000Y-123969523D01*
X53852380Y-123350476D02*
X53852380Y-123255238D01*
X53900000Y-123160000D01*
X53947619Y-123112380D01*
X54042857Y-123064761D01*
X54233333Y-123017142D01*
X54471428Y-123017142D01*
X54661904Y-123064761D01*
X54757142Y-123112380D01*
X54804761Y-123160000D01*
X54852380Y-123255238D01*
X54852380Y-123350476D01*
X54804761Y-123445714D01*
X54757142Y-123493333D01*
X54661904Y-123540952D01*
X54471428Y-123588571D01*
X54233333Y-123588571D01*
X54042857Y-123540952D01*
X53947619Y-123493333D01*
X53900000Y-123445714D01*
X53852380Y-123350476D01*
X54185714Y-122160000D02*
X54852380Y-122160000D01*
X53804761Y-122398095D02*
X54519047Y-122636190D01*
X54519047Y-122017142D01*
%TO.C,74LS161*%
X53762380Y-64079047D02*
X53762380Y-63412380D01*
X54762380Y-63840952D01*
X54095714Y-62602857D02*
X54762380Y-62602857D01*
X53714761Y-62840952D02*
X54429047Y-63079047D01*
X54429047Y-62460000D01*
X54762380Y-61602857D02*
X54762380Y-62079047D01*
X53762380Y-62079047D01*
X54714761Y-61317142D02*
X54762380Y-61174285D01*
X54762380Y-60936190D01*
X54714761Y-60840952D01*
X54667142Y-60793333D01*
X54571904Y-60745714D01*
X54476666Y-60745714D01*
X54381428Y-60793333D01*
X54333809Y-60840952D01*
X54286190Y-60936190D01*
X54238571Y-61126666D01*
X54190952Y-61221904D01*
X54143333Y-61269523D01*
X54048095Y-61317142D01*
X53952857Y-61317142D01*
X53857619Y-61269523D01*
X53810000Y-61221904D01*
X53762380Y-61126666D01*
X53762380Y-60888571D01*
X53810000Y-60745714D01*
X54762380Y-59793333D02*
X54762380Y-60364761D01*
X54762380Y-60079047D02*
X53762380Y-60079047D01*
X53905238Y-60174285D01*
X54000476Y-60269523D01*
X54048095Y-60364761D01*
X53762380Y-58936190D02*
X53762380Y-59126666D01*
X53810000Y-59221904D01*
X53857619Y-59269523D01*
X54000476Y-59364761D01*
X54190952Y-59412380D01*
X54571904Y-59412380D01*
X54667142Y-59364761D01*
X54714761Y-59317142D01*
X54762380Y-59221904D01*
X54762380Y-59031428D01*
X54714761Y-58936190D01*
X54667142Y-58888571D01*
X54571904Y-58840952D01*
X54333809Y-58840952D01*
X54238571Y-58888571D01*
X54190952Y-58936190D01*
X54143333Y-59031428D01*
X54143333Y-59221904D01*
X54190952Y-59317142D01*
X54238571Y-59364761D01*
X54333809Y-59412380D01*
X54762380Y-57888571D02*
X54762380Y-58460000D01*
X54762380Y-58174285D02*
X53762380Y-58174285D01*
X53905238Y-58269523D01*
X54000476Y-58364761D01*
X54048095Y-58460000D01*
%TO.C,74LS30*%
X118352380Y-120402857D02*
X118352380Y-119736190D01*
X119352380Y-120164761D01*
X118685714Y-118926666D02*
X119352380Y-118926666D01*
X118304761Y-119164761D02*
X119019047Y-119402857D01*
X119019047Y-118783809D01*
X119352380Y-117926666D02*
X119352380Y-118402857D01*
X118352380Y-118402857D01*
X119304761Y-117640952D02*
X119352380Y-117498095D01*
X119352380Y-117260000D01*
X119304761Y-117164761D01*
X119257142Y-117117142D01*
X119161904Y-117069523D01*
X119066666Y-117069523D01*
X118971428Y-117117142D01*
X118923809Y-117164761D01*
X118876190Y-117260000D01*
X118828571Y-117450476D01*
X118780952Y-117545714D01*
X118733333Y-117593333D01*
X118638095Y-117640952D01*
X118542857Y-117640952D01*
X118447619Y-117593333D01*
X118400000Y-117545714D01*
X118352380Y-117450476D01*
X118352380Y-117212380D01*
X118400000Y-117069523D01*
X118352380Y-116736190D02*
X118352380Y-116117142D01*
X118733333Y-116450476D01*
X118733333Y-116307619D01*
X118780952Y-116212380D01*
X118828571Y-116164761D01*
X118923809Y-116117142D01*
X119161904Y-116117142D01*
X119257142Y-116164761D01*
X119304761Y-116212380D01*
X119352380Y-116307619D01*
X119352380Y-116593333D01*
X119304761Y-116688571D01*
X119257142Y-116736190D01*
X118352380Y-115498095D02*
X118352380Y-115402857D01*
X118400000Y-115307619D01*
X118447619Y-115260000D01*
X118542857Y-115212380D01*
X118733333Y-115164761D01*
X118971428Y-115164761D01*
X119161904Y-115212380D01*
X119257142Y-115260000D01*
X119304761Y-115307619D01*
X119352380Y-115402857D01*
X119352380Y-115498095D01*
X119304761Y-115593333D01*
X119257142Y-115640952D01*
X119161904Y-115688571D01*
X118971428Y-115736190D01*
X118733333Y-115736190D01*
X118542857Y-115688571D01*
X118447619Y-115640952D01*
X118400000Y-115593333D01*
X118352380Y-115498095D01*
%TO.C,74LS04*%
X141852380Y-127172857D02*
X141852380Y-126506190D01*
X142852380Y-126934761D01*
X142185714Y-125696666D02*
X142852380Y-125696666D01*
X141804761Y-125934761D02*
X142519047Y-126172857D01*
X142519047Y-125553809D01*
X142852380Y-124696666D02*
X142852380Y-125172857D01*
X141852380Y-125172857D01*
X142804761Y-124410952D02*
X142852380Y-124268095D01*
X142852380Y-124030000D01*
X142804761Y-123934761D01*
X142757142Y-123887142D01*
X142661904Y-123839523D01*
X142566666Y-123839523D01*
X142471428Y-123887142D01*
X142423809Y-123934761D01*
X142376190Y-124030000D01*
X142328571Y-124220476D01*
X142280952Y-124315714D01*
X142233333Y-124363333D01*
X142138095Y-124410952D01*
X142042857Y-124410952D01*
X141947619Y-124363333D01*
X141900000Y-124315714D01*
X141852380Y-124220476D01*
X141852380Y-123982380D01*
X141900000Y-123839523D01*
X141852380Y-123220476D02*
X141852380Y-123125238D01*
X141900000Y-123030000D01*
X141947619Y-122982380D01*
X142042857Y-122934761D01*
X142233333Y-122887142D01*
X142471428Y-122887142D01*
X142661904Y-122934761D01*
X142757142Y-122982380D01*
X142804761Y-123030000D01*
X142852380Y-123125238D01*
X142852380Y-123220476D01*
X142804761Y-123315714D01*
X142757142Y-123363333D01*
X142661904Y-123410952D01*
X142471428Y-123458571D01*
X142233333Y-123458571D01*
X142042857Y-123410952D01*
X141947619Y-123363333D01*
X141900000Y-123315714D01*
X141852380Y-123220476D01*
X142185714Y-122030000D02*
X142852380Y-122030000D01*
X141804761Y-122268095D02*
X142519047Y-122506190D01*
X142519047Y-121887142D01*
%TO.C,74LS161*%
X141742380Y-86079047D02*
X141742380Y-85412380D01*
X142742380Y-85840952D01*
X142075714Y-84602857D02*
X142742380Y-84602857D01*
X141694761Y-84840952D02*
X142409047Y-85079047D01*
X142409047Y-84460000D01*
X142742380Y-83602857D02*
X142742380Y-84079047D01*
X141742380Y-84079047D01*
X142694761Y-83317142D02*
X142742380Y-83174285D01*
X142742380Y-82936190D01*
X142694761Y-82840952D01*
X142647142Y-82793333D01*
X142551904Y-82745714D01*
X142456666Y-82745714D01*
X142361428Y-82793333D01*
X142313809Y-82840952D01*
X142266190Y-82936190D01*
X142218571Y-83126666D01*
X142170952Y-83221904D01*
X142123333Y-83269523D01*
X142028095Y-83317142D01*
X141932857Y-83317142D01*
X141837619Y-83269523D01*
X141790000Y-83221904D01*
X141742380Y-83126666D01*
X141742380Y-82888571D01*
X141790000Y-82745714D01*
X142742380Y-81793333D02*
X142742380Y-82364761D01*
X142742380Y-82079047D02*
X141742380Y-82079047D01*
X141885238Y-82174285D01*
X141980476Y-82269523D01*
X142028095Y-82364761D01*
X141742380Y-80936190D02*
X141742380Y-81126666D01*
X141790000Y-81221904D01*
X141837619Y-81269523D01*
X141980476Y-81364761D01*
X142170952Y-81412380D01*
X142551904Y-81412380D01*
X142647142Y-81364761D01*
X142694761Y-81317142D01*
X142742380Y-81221904D01*
X142742380Y-81031428D01*
X142694761Y-80936190D01*
X142647142Y-80888571D01*
X142551904Y-80840952D01*
X142313809Y-80840952D01*
X142218571Y-80888571D01*
X142170952Y-80936190D01*
X142123333Y-81031428D01*
X142123333Y-81221904D01*
X142170952Y-81317142D01*
X142218571Y-81364761D01*
X142313809Y-81412380D01*
X142742380Y-79888571D02*
X142742380Y-80460000D01*
X142742380Y-80174285D02*
X141742380Y-80174285D01*
X141885238Y-80269523D01*
X141980476Y-80364761D01*
X142028095Y-80460000D01*
%TO.C,74LS30*%
X77052380Y-120402857D02*
X77052380Y-119736190D01*
X78052380Y-120164761D01*
X77385714Y-118926666D02*
X78052380Y-118926666D01*
X77004761Y-119164761D02*
X77719047Y-119402857D01*
X77719047Y-118783809D01*
X78052380Y-117926666D02*
X78052380Y-118402857D01*
X77052380Y-118402857D01*
X78004761Y-117640952D02*
X78052380Y-117498095D01*
X78052380Y-117260000D01*
X78004761Y-117164761D01*
X77957142Y-117117142D01*
X77861904Y-117069523D01*
X77766666Y-117069523D01*
X77671428Y-117117142D01*
X77623809Y-117164761D01*
X77576190Y-117260000D01*
X77528571Y-117450476D01*
X77480952Y-117545714D01*
X77433333Y-117593333D01*
X77338095Y-117640952D01*
X77242857Y-117640952D01*
X77147619Y-117593333D01*
X77100000Y-117545714D01*
X77052380Y-117450476D01*
X77052380Y-117212380D01*
X77100000Y-117069523D01*
X77052380Y-116736190D02*
X77052380Y-116117142D01*
X77433333Y-116450476D01*
X77433333Y-116307619D01*
X77480952Y-116212380D01*
X77528571Y-116164761D01*
X77623809Y-116117142D01*
X77861904Y-116117142D01*
X77957142Y-116164761D01*
X78004761Y-116212380D01*
X78052380Y-116307619D01*
X78052380Y-116593333D01*
X78004761Y-116688571D01*
X77957142Y-116736190D01*
X77052380Y-115498095D02*
X77052380Y-115402857D01*
X77100000Y-115307619D01*
X77147619Y-115260000D01*
X77242857Y-115212380D01*
X77433333Y-115164761D01*
X77671428Y-115164761D01*
X77861904Y-115212380D01*
X77957142Y-115260000D01*
X78004761Y-115307619D01*
X78052380Y-115402857D01*
X78052380Y-115498095D01*
X78004761Y-115593333D01*
X77957142Y-115640952D01*
X77861904Y-115688571D01*
X77671428Y-115736190D01*
X77433333Y-115736190D01*
X77242857Y-115688571D01*
X77147619Y-115640952D01*
X77100000Y-115593333D01*
X77052380Y-115498095D01*
%TO.C,74LS161*%
X53762380Y-85829047D02*
X53762380Y-85162380D01*
X54762380Y-85590952D01*
X54095714Y-84352857D02*
X54762380Y-84352857D01*
X53714761Y-84590952D02*
X54429047Y-84829047D01*
X54429047Y-84210000D01*
X54762380Y-83352857D02*
X54762380Y-83829047D01*
X53762380Y-83829047D01*
X54714761Y-83067142D02*
X54762380Y-82924285D01*
X54762380Y-82686190D01*
X54714761Y-82590952D01*
X54667142Y-82543333D01*
X54571904Y-82495714D01*
X54476666Y-82495714D01*
X54381428Y-82543333D01*
X54333809Y-82590952D01*
X54286190Y-82686190D01*
X54238571Y-82876666D01*
X54190952Y-82971904D01*
X54143333Y-83019523D01*
X54048095Y-83067142D01*
X53952857Y-83067142D01*
X53857619Y-83019523D01*
X53810000Y-82971904D01*
X53762380Y-82876666D01*
X53762380Y-82638571D01*
X53810000Y-82495714D01*
X54762380Y-81543333D02*
X54762380Y-82114761D01*
X54762380Y-81829047D02*
X53762380Y-81829047D01*
X53905238Y-81924285D01*
X54000476Y-82019523D01*
X54048095Y-82114761D01*
X53762380Y-80686190D02*
X53762380Y-80876666D01*
X53810000Y-80971904D01*
X53857619Y-81019523D01*
X54000476Y-81114761D01*
X54190952Y-81162380D01*
X54571904Y-81162380D01*
X54667142Y-81114761D01*
X54714761Y-81067142D01*
X54762380Y-80971904D01*
X54762380Y-80781428D01*
X54714761Y-80686190D01*
X54667142Y-80638571D01*
X54571904Y-80590952D01*
X54333809Y-80590952D01*
X54238571Y-80638571D01*
X54190952Y-80686190D01*
X54143333Y-80781428D01*
X54143333Y-80971904D01*
X54190952Y-81067142D01*
X54238571Y-81114761D01*
X54333809Y-81162380D01*
X54762380Y-79638571D02*
X54762380Y-80210000D01*
X54762380Y-79924285D02*
X53762380Y-79924285D01*
X53905238Y-80019523D01*
X54000476Y-80114761D01*
X54048095Y-80210000D01*
%TO.C,*%
%TO.C,74LS30*%
X118352380Y-59702857D02*
X118352380Y-59036190D01*
X119352380Y-59464761D01*
X118685714Y-58226666D02*
X119352380Y-58226666D01*
X118304761Y-58464761D02*
X119019047Y-58702857D01*
X119019047Y-58083809D01*
X119352380Y-57226666D02*
X119352380Y-57702857D01*
X118352380Y-57702857D01*
X119304761Y-56940952D02*
X119352380Y-56798095D01*
X119352380Y-56560000D01*
X119304761Y-56464761D01*
X119257142Y-56417142D01*
X119161904Y-56369523D01*
X119066666Y-56369523D01*
X118971428Y-56417142D01*
X118923809Y-56464761D01*
X118876190Y-56560000D01*
X118828571Y-56750476D01*
X118780952Y-56845714D01*
X118733333Y-56893333D01*
X118638095Y-56940952D01*
X118542857Y-56940952D01*
X118447619Y-56893333D01*
X118400000Y-56845714D01*
X118352380Y-56750476D01*
X118352380Y-56512380D01*
X118400000Y-56369523D01*
X118352380Y-56036190D02*
X118352380Y-55417142D01*
X118733333Y-55750476D01*
X118733333Y-55607619D01*
X118780952Y-55512380D01*
X118828571Y-55464761D01*
X118923809Y-55417142D01*
X119161904Y-55417142D01*
X119257142Y-55464761D01*
X119304761Y-55512380D01*
X119352380Y-55607619D01*
X119352380Y-55893333D01*
X119304761Y-55988571D01*
X119257142Y-56036190D01*
X118352380Y-54798095D02*
X118352380Y-54702857D01*
X118400000Y-54607619D01*
X118447619Y-54560000D01*
X118542857Y-54512380D01*
X118733333Y-54464761D01*
X118971428Y-54464761D01*
X119161904Y-54512380D01*
X119257142Y-54560000D01*
X119304761Y-54607619D01*
X119352380Y-54702857D01*
X119352380Y-54798095D01*
X119304761Y-54893333D01*
X119257142Y-54940952D01*
X119161904Y-54988571D01*
X118971428Y-55036190D01*
X118733333Y-55036190D01*
X118542857Y-54988571D01*
X118447619Y-54940952D01*
X118400000Y-54893333D01*
X118352380Y-54798095D01*
%TO.C,VGA PORT 1*%
X67805238Y-132302380D02*
X68138571Y-133302380D01*
X68471904Y-132302380D01*
X69329047Y-132350000D02*
X69233809Y-132302380D01*
X69090952Y-132302380D01*
X68948095Y-132350000D01*
X68852857Y-132445238D01*
X68805238Y-132540476D01*
X68757619Y-132730952D01*
X68757619Y-132873809D01*
X68805238Y-133064285D01*
X68852857Y-133159523D01*
X68948095Y-133254761D01*
X69090952Y-133302380D01*
X69186190Y-133302380D01*
X69329047Y-133254761D01*
X69376666Y-133207142D01*
X69376666Y-132873809D01*
X69186190Y-132873809D01*
X69757619Y-133016666D02*
X70233809Y-133016666D01*
X69662380Y-133302380D02*
X69995714Y-132302380D01*
X70329047Y-133302380D01*
X71424285Y-133302380D02*
X71424285Y-132302380D01*
X71805238Y-132302380D01*
X71900476Y-132350000D01*
X71948095Y-132397619D01*
X71995714Y-132492857D01*
X71995714Y-132635714D01*
X71948095Y-132730952D01*
X71900476Y-132778571D01*
X71805238Y-132826190D01*
X71424285Y-132826190D01*
X72614761Y-132302380D02*
X72805238Y-132302380D01*
X72900476Y-132350000D01*
X72995714Y-132445238D01*
X73043333Y-132635714D01*
X73043333Y-132969047D01*
X72995714Y-133159523D01*
X72900476Y-133254761D01*
X72805238Y-133302380D01*
X72614761Y-133302380D01*
X72519523Y-133254761D01*
X72424285Y-133159523D01*
X72376666Y-132969047D01*
X72376666Y-132635714D01*
X72424285Y-132445238D01*
X72519523Y-132350000D01*
X72614761Y-132302380D01*
X74043333Y-133302380D02*
X73710000Y-132826190D01*
X73471904Y-133302380D02*
X73471904Y-132302380D01*
X73852857Y-132302380D01*
X73948095Y-132350000D01*
X73995714Y-132397619D01*
X74043333Y-132492857D01*
X74043333Y-132635714D01*
X73995714Y-132730952D01*
X73948095Y-132778571D01*
X73852857Y-132826190D01*
X73471904Y-132826190D01*
X74329047Y-132302380D02*
X74900476Y-132302380D01*
X74614761Y-133302380D02*
X74614761Y-132302380D01*
X76519523Y-133302380D02*
X75948095Y-133302380D01*
X76233809Y-133302380D02*
X76233809Y-132302380D01*
X76138571Y-132445238D01*
X76043333Y-132540476D01*
X75948095Y-132588095D01*
%TO.C,74LS00*%
X107042380Y-105232857D02*
X107042380Y-104566190D01*
X108042380Y-104994761D01*
X107375714Y-103756666D02*
X108042380Y-103756666D01*
X106994761Y-103994761D02*
X107709047Y-104232857D01*
X107709047Y-103613809D01*
X108042380Y-102756666D02*
X108042380Y-103232857D01*
X107042380Y-103232857D01*
X107994761Y-102470952D02*
X108042380Y-102328095D01*
X108042380Y-102090000D01*
X107994761Y-101994761D01*
X107947142Y-101947142D01*
X107851904Y-101899523D01*
X107756666Y-101899523D01*
X107661428Y-101947142D01*
X107613809Y-101994761D01*
X107566190Y-102090000D01*
X107518571Y-102280476D01*
X107470952Y-102375714D01*
X107423333Y-102423333D01*
X107328095Y-102470952D01*
X107232857Y-102470952D01*
X107137619Y-102423333D01*
X107090000Y-102375714D01*
X107042380Y-102280476D01*
X107042380Y-102042380D01*
X107090000Y-101899523D01*
X107042380Y-101280476D02*
X107042380Y-101185238D01*
X107090000Y-101090000D01*
X107137619Y-101042380D01*
X107232857Y-100994761D01*
X107423333Y-100947142D01*
X107661428Y-100947142D01*
X107851904Y-100994761D01*
X107947142Y-101042380D01*
X107994761Y-101090000D01*
X108042380Y-101185238D01*
X108042380Y-101280476D01*
X107994761Y-101375714D01*
X107947142Y-101423333D01*
X107851904Y-101470952D01*
X107661428Y-101518571D01*
X107423333Y-101518571D01*
X107232857Y-101470952D01*
X107137619Y-101423333D01*
X107090000Y-101375714D01*
X107042380Y-101280476D01*
X107042380Y-100328095D02*
X107042380Y-100232857D01*
X107090000Y-100137619D01*
X107137619Y-100090000D01*
X107232857Y-100042380D01*
X107423333Y-99994761D01*
X107661428Y-99994761D01*
X107851904Y-100042380D01*
X107947142Y-100090000D01*
X107994761Y-100137619D01*
X108042380Y-100232857D01*
X108042380Y-100328095D01*
X107994761Y-100423333D01*
X107947142Y-100470952D01*
X107851904Y-100518571D01*
X107661428Y-100566190D01*
X107423333Y-100566190D01*
X107232857Y-100518571D01*
X107137619Y-100470952D01*
X107090000Y-100423333D01*
X107042380Y-100328095D01*
D13*
%TO.C,74LS30*%
X76510000Y-48130000D02*
X75260000Y-48130000D01*
X75260000Y-66030000D02*
X79760000Y-66030000D01*
X79760000Y-66030000D02*
X79760000Y-48130000D01*
X79760000Y-48130000D02*
X78510000Y-48130000D01*
X72260000Y-66090000D02*
X82760000Y-66090000D01*
X75260000Y-48130000D02*
X75260000Y-66030000D01*
X72260000Y-48070000D02*
X72260000Y-66090000D01*
X82760000Y-48070000D02*
X72260000Y-48070000D01*
X82760000Y-66090000D02*
X82760000Y-48070000D01*
X76510000Y-48130000D02*
G75*
G03*
X78510000Y-48130000I1000000J0D01*
G01*
%TO.C,2x17 Connector  *%
X95740000Y-44750000D02*
X95740000Y-43420000D01*
X95740000Y-86720000D02*
X100940000Y-86720000D01*
X95740000Y-46020000D02*
X95740000Y-86720000D01*
X98340000Y-46020000D02*
X98340000Y-43420000D01*
X95740000Y-46020000D02*
X98340000Y-46020000D01*
X100940000Y-43420000D02*
X100940000Y-86720000D01*
X95740000Y-43420000D02*
X97070000Y-43420000D01*
X98340000Y-43420000D02*
X100940000Y-43420000D01*
%TO.C,VGA PORT 2*%
X118305000Y-133308675D02*
X118055000Y-132875662D01*
X118055000Y-132875662D02*
X118555000Y-132875662D01*
X98505000Y-133770000D02*
X129475000Y-133770000D01*
X129475000Y-133770000D02*
X129475000Y-142370000D01*
X118555000Y-132875662D02*
X118305000Y-133308675D01*
X98505000Y-142370000D02*
X98505000Y-133770000D01*
%TO.C,74LS161*%
X49060000Y-114730000D02*
X59560000Y-114730000D01*
X59560000Y-114730000D02*
X59560000Y-94170000D01*
X53310000Y-94230000D02*
X52060000Y-94230000D01*
X52060000Y-114670000D02*
X56560000Y-114670000D01*
X52060000Y-94230000D02*
X52060000Y-114670000D01*
X56560000Y-114670000D02*
X56560000Y-94230000D01*
X49060000Y-94170000D02*
X49060000Y-114730000D01*
X56560000Y-94230000D02*
X55310000Y-94230000D01*
X59560000Y-94170000D02*
X49060000Y-94170000D01*
X53310000Y-94230000D02*
G75*
G03*
X55310000Y-94230000I1000000J0D01*
G01*
%TO.C,74LS30*%
X75260000Y-106430000D02*
X79760000Y-106430000D01*
X82760000Y-106490000D02*
X82760000Y-88470000D01*
X82760000Y-88470000D02*
X72260000Y-88470000D01*
X72260000Y-106490000D02*
X82760000Y-106490000D01*
X76510000Y-88530000D02*
X75260000Y-88530000D01*
X79760000Y-106430000D02*
X79760000Y-88530000D01*
X72260000Y-88470000D02*
X72260000Y-106490000D01*
X79760000Y-88530000D02*
X78510000Y-88530000D01*
X75260000Y-88530000D02*
X75260000Y-106430000D01*
X76510000Y-88530000D02*
G75*
G03*
X78510000Y-88530000I1000000J0D01*
G01*
X119990000Y-86290000D02*
X121240000Y-86290000D01*
X124240000Y-86350000D02*
X124240000Y-68330000D01*
X113740000Y-86350000D02*
X124240000Y-86350000D01*
X124240000Y-68330000D02*
X113740000Y-68330000D01*
X116740000Y-86290000D02*
X117990000Y-86290000D01*
X121240000Y-86290000D02*
X121240000Y-68390000D01*
X113740000Y-68330000D02*
X113740000Y-86350000D01*
X116740000Y-68390000D02*
X116740000Y-86290000D01*
X121240000Y-68390000D02*
X116740000Y-68390000D01*
X119990000Y-86290000D02*
G75*
G03*
X117990000Y-86290000I-1000000J0D01*
G01*
%TO.C,74LS161*%
X147540000Y-71500000D02*
X147540000Y-50940000D01*
X137040000Y-71500000D02*
X147540000Y-71500000D01*
X147540000Y-50940000D02*
X137040000Y-50940000D01*
X137040000Y-50940000D02*
X137040000Y-71500000D01*
X144540000Y-71440000D02*
X144540000Y-51000000D01*
X143290000Y-71440000D02*
X144540000Y-71440000D01*
X144540000Y-51000000D02*
X140040000Y-51000000D01*
X140040000Y-51000000D02*
X140040000Y-71440000D01*
X140040000Y-71440000D02*
X141290000Y-71440000D01*
X143290000Y-71440000D02*
G75*
G03*
X141290000Y-71440000I-1000000J0D01*
G01*
X137040000Y-114500000D02*
X147540000Y-114500000D01*
X143290000Y-114440000D02*
X144540000Y-114440000D01*
X144540000Y-94000000D02*
X140040000Y-94000000D01*
X140040000Y-114440000D02*
X141290000Y-114440000D01*
X147540000Y-114500000D02*
X147540000Y-93940000D01*
X140040000Y-94000000D02*
X140040000Y-114440000D01*
X137040000Y-93940000D02*
X137040000Y-114500000D01*
X147540000Y-93940000D02*
X137040000Y-93940000D01*
X144540000Y-114440000D02*
X144540000Y-94000000D01*
X143290000Y-114440000D02*
G75*
G03*
X141290000Y-114440000I-1000000J0D01*
G01*
%TO.C,74LS00*%
X86570000Y-93695000D02*
X86570000Y-111595000D01*
X91070000Y-93695000D02*
X89820000Y-93695000D01*
X83570000Y-93635000D02*
X83570000Y-111655000D01*
X94070000Y-93635000D02*
X83570000Y-93635000D01*
X94070000Y-111655000D02*
X94070000Y-93635000D01*
X91070000Y-111595000D02*
X91070000Y-93695000D01*
X86570000Y-111595000D02*
X91070000Y-111595000D01*
X87820000Y-93695000D02*
X86570000Y-93695000D01*
X83570000Y-111655000D02*
X94070000Y-111655000D01*
X87820000Y-93695000D02*
G75*
G03*
X89820000Y-93695000I1000000J0D01*
G01*
%TO.C,74LS30*%
X121240000Y-106490000D02*
X121240000Y-88590000D01*
X119990000Y-106490000D02*
X121240000Y-106490000D01*
X113740000Y-106550000D02*
X124240000Y-106550000D01*
X121240000Y-88590000D02*
X116740000Y-88590000D01*
X116740000Y-106490000D02*
X117990000Y-106490000D01*
X116740000Y-88590000D02*
X116740000Y-106490000D01*
X113740000Y-88530000D02*
X113740000Y-106550000D01*
X124240000Y-106550000D02*
X124240000Y-88530000D01*
X124240000Y-88530000D02*
X113740000Y-88530000D01*
X119990000Y-106490000D02*
G75*
G03*
X117990000Y-106490000I-1000000J0D01*
G01*
X82760000Y-68270000D02*
X72260000Y-68270000D01*
X76510000Y-68330000D02*
X75260000Y-68330000D01*
X79760000Y-86230000D02*
X79760000Y-68330000D01*
X82760000Y-86290000D02*
X82760000Y-68270000D01*
X72260000Y-86290000D02*
X82760000Y-86290000D01*
X75260000Y-68330000D02*
X75260000Y-86230000D01*
X72260000Y-68270000D02*
X72260000Y-86290000D01*
X79760000Y-68330000D02*
X78510000Y-68330000D01*
X75260000Y-86230000D02*
X79760000Y-86230000D01*
X76510000Y-68330000D02*
G75*
G03*
X78510000Y-68330000I1000000J0D01*
G01*
%TO.C,74LS04*%
X53310000Y-115730000D02*
X52060000Y-115730000D01*
X56560000Y-115730000D02*
X55310000Y-115730000D01*
X59560000Y-133690000D02*
X59560000Y-115670000D01*
X49060000Y-133690000D02*
X59560000Y-133690000D01*
X56560000Y-133630000D02*
X56560000Y-115730000D01*
X49060000Y-115670000D02*
X49060000Y-133690000D01*
X52060000Y-133630000D02*
X56560000Y-133630000D01*
X59560000Y-115670000D02*
X49060000Y-115670000D01*
X52060000Y-115730000D02*
X52060000Y-133630000D01*
X53310000Y-115730000D02*
G75*
G03*
X55310000Y-115730000I1000000J0D01*
G01*
%TO.C,74LS161*%
X56560000Y-71670000D02*
X56560000Y-51230000D01*
X59560000Y-51170000D02*
X49060000Y-51170000D01*
X52060000Y-71670000D02*
X56560000Y-71670000D01*
X56560000Y-51230000D02*
X55310000Y-51230000D01*
X52060000Y-51230000D02*
X52060000Y-71670000D01*
X59560000Y-71730000D02*
X59560000Y-51170000D01*
X53310000Y-51230000D02*
X52060000Y-51230000D01*
X49060000Y-51170000D02*
X49060000Y-71730000D01*
X49060000Y-71730000D02*
X59560000Y-71730000D01*
X53310000Y-51230000D02*
G75*
G03*
X55310000Y-51230000I1000000J0D01*
G01*
%TO.C,74LS30*%
X116740000Y-108790000D02*
X116740000Y-126690000D01*
X113740000Y-126750000D02*
X124240000Y-126750000D01*
X124240000Y-126750000D02*
X124240000Y-108730000D01*
X121240000Y-108790000D02*
X116740000Y-108790000D01*
X121240000Y-126690000D02*
X121240000Y-108790000D01*
X119990000Y-126690000D02*
X121240000Y-126690000D01*
X116740000Y-126690000D02*
X117990000Y-126690000D01*
X124240000Y-108730000D02*
X113740000Y-108730000D01*
X113740000Y-108730000D02*
X113740000Y-126750000D01*
X119990000Y-126690000D02*
G75*
G03*
X117990000Y-126690000I-1000000J0D01*
G01*
%TO.C,74LS04*%
X140060000Y-115600000D02*
X140060000Y-133500000D01*
X137060000Y-115540000D02*
X137060000Y-133560000D01*
X141310000Y-115600000D02*
X140060000Y-115600000D01*
X144560000Y-133500000D02*
X144560000Y-115600000D01*
X144560000Y-115600000D02*
X143310000Y-115600000D01*
X137060000Y-133560000D02*
X147560000Y-133560000D01*
X147560000Y-115540000D02*
X137060000Y-115540000D01*
X140060000Y-133500000D02*
X144560000Y-133500000D01*
X147560000Y-133560000D02*
X147560000Y-115540000D01*
X141310000Y-115600000D02*
G75*
G03*
X143310000Y-115600000I1000000J0D01*
G01*
%TO.C,74LS161*%
X147540000Y-93000000D02*
X147540000Y-72440000D01*
X143290000Y-92940000D02*
X144540000Y-92940000D01*
X140040000Y-92940000D02*
X141290000Y-92940000D01*
X144540000Y-92940000D02*
X144540000Y-72500000D01*
X137040000Y-93000000D02*
X147540000Y-93000000D01*
X140040000Y-72500000D02*
X140040000Y-92940000D01*
X147540000Y-72440000D02*
X137040000Y-72440000D01*
X137040000Y-72440000D02*
X137040000Y-93000000D01*
X144540000Y-72500000D02*
X140040000Y-72500000D01*
X143290000Y-92940000D02*
G75*
G03*
X141290000Y-92940000I-1000000J0D01*
G01*
%TO.C,74LS30*%
X79760000Y-126730000D02*
X79760000Y-108830000D01*
X76510000Y-108830000D02*
X75260000Y-108830000D01*
X72260000Y-126790000D02*
X82760000Y-126790000D01*
X82760000Y-126790000D02*
X82760000Y-108770000D01*
X79760000Y-108830000D02*
X78510000Y-108830000D01*
X75260000Y-126730000D02*
X79760000Y-126730000D01*
X72260000Y-108770000D02*
X72260000Y-126790000D01*
X82760000Y-108770000D02*
X72260000Y-108770000D01*
X75260000Y-108830000D02*
X75260000Y-126730000D01*
X76510000Y-108830000D02*
G75*
G03*
X78510000Y-108830000I1000000J0D01*
G01*
%TO.C,74LS161*%
X59560000Y-72670000D02*
X49060000Y-72670000D01*
X52060000Y-72730000D02*
X52060000Y-93170000D01*
X52060000Y-93170000D02*
X56560000Y-93170000D01*
X56560000Y-93170000D02*
X56560000Y-72730000D01*
X53310000Y-72730000D02*
X52060000Y-72730000D01*
X56560000Y-72730000D02*
X55310000Y-72730000D01*
X49060000Y-93230000D02*
X59560000Y-93230000D01*
X59560000Y-93230000D02*
X59560000Y-72670000D01*
X49060000Y-72670000D02*
X49060000Y-93230000D01*
X53310000Y-72730000D02*
G75*
G03*
X55310000Y-72730000I1000000J0D01*
G01*
%TO.C,74LS30*%
X121240000Y-65990000D02*
X121240000Y-48090000D01*
X116740000Y-65990000D02*
X117990000Y-65990000D01*
X124240000Y-66050000D02*
X124240000Y-48030000D01*
X119990000Y-65990000D02*
X121240000Y-65990000D01*
X113740000Y-66050000D02*
X124240000Y-66050000D01*
X124240000Y-48030000D02*
X113740000Y-48030000D01*
X121240000Y-48090000D02*
X116740000Y-48090000D01*
X113740000Y-48030000D02*
X113740000Y-66050000D01*
X116740000Y-48090000D02*
X116740000Y-65990000D01*
X119990000Y-65990000D02*
G75*
G03*
X117990000Y-65990000I-1000000J0D01*
G01*
%TO.C,VGA PORT 1*%
X67210000Y-133760000D02*
X98180000Y-133760000D01*
X87260000Y-132865662D02*
X87010000Y-133298675D01*
X87010000Y-133298675D02*
X86760000Y-132865662D01*
X86760000Y-132865662D02*
X87260000Y-132865662D01*
X98180000Y-133760000D02*
X98180000Y-142360000D01*
X67210000Y-142360000D02*
X67210000Y-133760000D01*
%TO.C,74LS00*%
X105250000Y-93660000D02*
X105250000Y-111560000D01*
X106500000Y-93660000D02*
X105250000Y-93660000D01*
X102250000Y-111620000D02*
X112750000Y-111620000D01*
X112750000Y-93600000D02*
X102250000Y-93600000D01*
X112750000Y-111620000D02*
X112750000Y-93600000D01*
X105250000Y-111560000D02*
X109750000Y-111560000D01*
X102250000Y-93600000D02*
X102250000Y-111620000D01*
X109750000Y-93660000D02*
X108500000Y-93660000D01*
X109750000Y-111560000D02*
X109750000Y-93660000D01*
X106500000Y-93660000D02*
G75*
G03*
X108500000Y-93660000I1000000J0D01*
G01*
%TD*%
M02*
