%TF.GenerationSoftware,KiCad,Pcbnew,(6.0.5)*%
%TF.CreationDate,2023-01-07T10:20:43+02:00*%
%TF.ProjectId,VIDEOCARD_SCREENSYNC2.0,56494445-4f43-4415-9244-5f5343524545,rev?*%
%TF.SameCoordinates,Original*%
%TF.FileFunction,Soldermask,Bot*%
%TF.FilePolarity,Negative*%
%FSLAX46Y46*%
G04 Gerber Fmt 4.6, Leading zero omitted, Abs format (unit mm)*
G04 Created by KiCad (PCBNEW (6.0.5)) date 2023-01-07 10:20:43*
%MOMM*%
%LPD*%
G01*
G04 APERTURE LIST*
%ADD10R,1.700000X1.700000*%
%ADD11O,1.700000X1.700000*%
%ADD12R,2.400000X1.600000*%
%ADD13O,2.400000X1.600000*%
%ADD14C,4.000000*%
%ADD15R,1.600000X1.600000*%
%ADD16C,1.600000*%
G04 APERTURE END LIST*
D10*
%TO.C,REF\u002A\u002A*%
X179725000Y-144600000D03*
D11*
X182265000Y-144600000D03*
%TD*%
D12*
%TO.C,74LS161*%
X191700000Y-77270000D03*
D13*
X191700000Y-74730000D03*
X191700000Y-72190000D03*
X191700000Y-69650000D03*
X191700000Y-67110000D03*
X191700000Y-64570000D03*
X191700000Y-62030000D03*
X191700000Y-59490000D03*
X184080000Y-59490000D03*
X184080000Y-62030000D03*
X184080000Y-64570000D03*
X184080000Y-67110000D03*
X184080000Y-69650000D03*
X184080000Y-72190000D03*
X184080000Y-74730000D03*
X184080000Y-77270000D03*
%TD*%
D12*
%TO.C,74LS161*%
X95300000Y-102600000D03*
D13*
X95300000Y-105140000D03*
X95300000Y-107680000D03*
X95300000Y-110220000D03*
X95300000Y-112760000D03*
X95300000Y-115300000D03*
X95300000Y-117840000D03*
X95300000Y-120380000D03*
X102920000Y-120380000D03*
X102920000Y-117840000D03*
X102920000Y-115300000D03*
X102920000Y-112760000D03*
X102920000Y-110220000D03*
X102920000Y-107680000D03*
X102920000Y-105140000D03*
X102920000Y-102600000D03*
%TD*%
D10*
%TO.C,REF\u002A\u002A*%
X129445000Y-52305000D03*
D11*
X131985000Y-52305000D03*
X134525000Y-52305000D03*
X137065000Y-52305000D03*
X139605000Y-52305000D03*
X142145000Y-52305000D03*
X144685000Y-52305000D03*
X147225000Y-52305000D03*
X149765000Y-52305000D03*
X152305000Y-52305000D03*
X154845000Y-52305000D03*
X157385000Y-52305000D03*
%TD*%
D12*
%TO.C,74LS30*%
X168400000Y-71820000D03*
D13*
X168400000Y-69280000D03*
X168400000Y-66740000D03*
X168400000Y-64200000D03*
X168400000Y-61660000D03*
X168400000Y-59120000D03*
X168400000Y-56580000D03*
X160780000Y-56580000D03*
X160780000Y-59120000D03*
X160780000Y-61660000D03*
X160780000Y-64200000D03*
X160780000Y-66740000D03*
X160780000Y-69280000D03*
X160780000Y-71820000D03*
%TD*%
D12*
%TO.C,74LS30*%
X168400000Y-132520000D03*
D13*
X168400000Y-129980000D03*
X168400000Y-127440000D03*
X168400000Y-124900000D03*
X168400000Y-122360000D03*
X168400000Y-119820000D03*
X168400000Y-117280000D03*
X160780000Y-117280000D03*
X160780000Y-119820000D03*
X160780000Y-122360000D03*
X160780000Y-124900000D03*
X160780000Y-127440000D03*
X160780000Y-129980000D03*
X160780000Y-132520000D03*
%TD*%
D10*
%TO.C,REF\u002A\u002A*%
X166945000Y-52305000D03*
D11*
X169485000Y-52305000D03*
X172025000Y-52305000D03*
X174565000Y-52305000D03*
X177105000Y-52305000D03*
X179645000Y-52305000D03*
X182185000Y-52305000D03*
X184725000Y-52305000D03*
%TD*%
D12*
%TO.C,74LS00*%
X148220000Y-79405000D03*
D13*
X148220000Y-81945000D03*
X148220000Y-84485000D03*
X148220000Y-87025000D03*
X148220000Y-89565000D03*
X148220000Y-92105000D03*
X148220000Y-94645000D03*
X155840000Y-94645000D03*
X155840000Y-92105000D03*
X155840000Y-89565000D03*
X155840000Y-87025000D03*
X155840000Y-84485000D03*
X155840000Y-81945000D03*
X155840000Y-79405000D03*
%TD*%
D12*
%TO.C,74LS30*%
X118500000Y-56500000D03*
D13*
X118500000Y-59040000D03*
X118500000Y-61580000D03*
X118500000Y-64120000D03*
X118500000Y-66660000D03*
X118500000Y-69200000D03*
X118500000Y-71740000D03*
X126120000Y-71740000D03*
X126120000Y-69200000D03*
X126120000Y-66660000D03*
X126120000Y-64120000D03*
X126120000Y-61580000D03*
X126120000Y-59040000D03*
X126120000Y-56500000D03*
%TD*%
D12*
%TO.C,74LS00*%
X130920000Y-79330000D03*
D13*
X130920000Y-81870000D03*
X130920000Y-84410000D03*
X130920000Y-86950000D03*
X130920000Y-89490000D03*
X130920000Y-92030000D03*
X130920000Y-94570000D03*
X138540000Y-94570000D03*
X138540000Y-92030000D03*
X138540000Y-89490000D03*
X138540000Y-86950000D03*
X138540000Y-84410000D03*
X138540000Y-81870000D03*
X138540000Y-79330000D03*
%TD*%
D12*
%TO.C,74LS161*%
X191700000Y-98770000D03*
D13*
X191700000Y-96230000D03*
X191700000Y-93690000D03*
X191700000Y-91150000D03*
X191700000Y-88610000D03*
X191700000Y-86070000D03*
X191700000Y-83530000D03*
X191700000Y-80990000D03*
X184080000Y-80990000D03*
X184080000Y-83530000D03*
X184080000Y-86070000D03*
X184080000Y-88610000D03*
X184080000Y-91150000D03*
X184080000Y-93690000D03*
X184080000Y-96230000D03*
X184080000Y-98770000D03*
%TD*%
D12*
%TO.C,74LS161*%
X191700000Y-120270000D03*
D13*
X191700000Y-117730000D03*
X191700000Y-115190000D03*
X191700000Y-112650000D03*
X191700000Y-110110000D03*
X191700000Y-107570000D03*
X191700000Y-105030000D03*
X191700000Y-102490000D03*
X184080000Y-102490000D03*
X184080000Y-105030000D03*
X184080000Y-107570000D03*
X184080000Y-110110000D03*
X184080000Y-112650000D03*
X184080000Y-115190000D03*
X184080000Y-117730000D03*
X184080000Y-120270000D03*
%TD*%
D12*
%TO.C,74LS04*%
X95300000Y-124100000D03*
D13*
X95300000Y-126640000D03*
X95300000Y-129180000D03*
X95300000Y-131720000D03*
X95300000Y-134260000D03*
X95300000Y-136800000D03*
X95300000Y-139340000D03*
X102920000Y-139340000D03*
X102920000Y-136800000D03*
X102920000Y-134260000D03*
X102920000Y-131720000D03*
X102920000Y-129180000D03*
X102920000Y-126640000D03*
X102920000Y-124100000D03*
%TD*%
D14*
%TO.C,VGA PORT 1*%
X115395000Y-143330000D03*
X140395000Y-143330000D03*
D15*
X132210000Y-141280000D03*
D16*
X129920000Y-141280000D03*
X127630000Y-141280000D03*
X125340000Y-141280000D03*
X123050000Y-141280000D03*
X133355000Y-143260000D03*
X131065000Y-143260000D03*
X128775000Y-143260000D03*
X126485000Y-143260000D03*
X124195000Y-143260000D03*
X132210000Y-145240000D03*
X129920000Y-145240000D03*
X127630000Y-145240000D03*
X125340000Y-145240000D03*
X123050000Y-145240000D03*
%TD*%
D12*
%TO.C,74LS30*%
X168400000Y-92120000D03*
D13*
X168400000Y-89580000D03*
X168400000Y-87040000D03*
X168400000Y-84500000D03*
X168400000Y-81960000D03*
X168400000Y-79420000D03*
X168400000Y-76880000D03*
X160780000Y-76880000D03*
X160780000Y-79420000D03*
X160780000Y-81960000D03*
X160780000Y-84500000D03*
X160780000Y-87040000D03*
X160780000Y-89580000D03*
X160780000Y-92120000D03*
%TD*%
D12*
%TO.C,74LS04*%
X184100000Y-124090000D03*
D13*
X184100000Y-126630000D03*
X184100000Y-129170000D03*
X184100000Y-131710000D03*
X184100000Y-134250000D03*
X184100000Y-136790000D03*
X184100000Y-139330000D03*
X191720000Y-139330000D03*
X191720000Y-136790000D03*
X191720000Y-134250000D03*
X191720000Y-131710000D03*
X191720000Y-129170000D03*
X191720000Y-126630000D03*
X191720000Y-124090000D03*
%TD*%
D10*
%TO.C,REF\u002A\u002A*%
X102220000Y-52330000D03*
D11*
X104760000Y-52330000D03*
X107300000Y-52330000D03*
X109840000Y-52330000D03*
X112380000Y-52330000D03*
X114920000Y-52330000D03*
X117460000Y-52330000D03*
X120000000Y-52330000D03*
%TD*%
D12*
%TO.C,74LS161*%
X95300000Y-59600000D03*
D13*
X95300000Y-62140000D03*
X95300000Y-64680000D03*
X95300000Y-67220000D03*
X95300000Y-69760000D03*
X95300000Y-72300000D03*
X95300000Y-74840000D03*
X95300000Y-77380000D03*
X102920000Y-77380000D03*
X102920000Y-74840000D03*
X102920000Y-72300000D03*
X102920000Y-69760000D03*
X102920000Y-67220000D03*
X102920000Y-64680000D03*
X102920000Y-62140000D03*
X102920000Y-59600000D03*
%TD*%
D14*
%TO.C,VGA PORT 2*%
X146690000Y-143320000D03*
X171690000Y-143320000D03*
D15*
X163505000Y-141270000D03*
D16*
X161215000Y-141270000D03*
X158925000Y-141270000D03*
X156635000Y-141270000D03*
X154345000Y-141270000D03*
X164650000Y-143250000D03*
X162360000Y-143250000D03*
X160070000Y-143250000D03*
X157780000Y-143250000D03*
X155490000Y-143250000D03*
X163505000Y-145230000D03*
X161215000Y-145230000D03*
X158925000Y-145230000D03*
X156635000Y-145230000D03*
X154345000Y-145230000D03*
%TD*%
D12*
%TO.C,74LS30*%
X118500000Y-96900000D03*
D13*
X118500000Y-99440000D03*
X118500000Y-101980000D03*
X118500000Y-104520000D03*
X118500000Y-107060000D03*
X118500000Y-109600000D03*
X118500000Y-112140000D03*
X126120000Y-112140000D03*
X126120000Y-109600000D03*
X126120000Y-107060000D03*
X126120000Y-104520000D03*
X126120000Y-101980000D03*
X126120000Y-99440000D03*
X126120000Y-96900000D03*
%TD*%
D12*
%TO.C,74LS30*%
X118500000Y-76700000D03*
D13*
X118500000Y-79240000D03*
X118500000Y-81780000D03*
X118500000Y-84320000D03*
X118500000Y-86860000D03*
X118500000Y-89400000D03*
X118500000Y-91940000D03*
X126120000Y-91940000D03*
X126120000Y-89400000D03*
X126120000Y-86860000D03*
X126120000Y-84320000D03*
X126120000Y-81780000D03*
X126120000Y-79240000D03*
X126120000Y-76700000D03*
%TD*%
D12*
%TO.C,74LS30*%
X168400000Y-112320000D03*
D13*
X168400000Y-109780000D03*
X168400000Y-107240000D03*
X168400000Y-104700000D03*
X168400000Y-102160000D03*
X168400000Y-99620000D03*
X168400000Y-97080000D03*
X160780000Y-97080000D03*
X160780000Y-99620000D03*
X160780000Y-102160000D03*
X160780000Y-104700000D03*
X160780000Y-107240000D03*
X160780000Y-109780000D03*
X160780000Y-112320000D03*
%TD*%
D12*
%TO.C,74LS30*%
X118500000Y-117200000D03*
D13*
X118500000Y-119740000D03*
X118500000Y-122280000D03*
X118500000Y-124820000D03*
X118500000Y-127360000D03*
X118500000Y-129900000D03*
X118500000Y-132440000D03*
X126120000Y-132440000D03*
X126120000Y-129900000D03*
X126120000Y-127360000D03*
X126120000Y-124820000D03*
X126120000Y-122280000D03*
X126120000Y-119740000D03*
X126120000Y-117200000D03*
%TD*%
D12*
%TO.C,74LS161*%
X95300000Y-81100000D03*
D13*
X95300000Y-83640000D03*
X95300000Y-86180000D03*
X95300000Y-88720000D03*
X95300000Y-91260000D03*
X95300000Y-93800000D03*
X95300000Y-96340000D03*
X95300000Y-98880000D03*
X102920000Y-98880000D03*
X102920000Y-96340000D03*
X102920000Y-93800000D03*
X102920000Y-91260000D03*
X102920000Y-88720000D03*
X102920000Y-86180000D03*
X102920000Y-83640000D03*
X102920000Y-81100000D03*
%TD*%
D16*
%TO.C,*%
X147120000Y-63130000D03*
%TD*%
%TO.C,*%
X147120000Y-70730000D03*
%TD*%
%TO.C,*%
X139520000Y-63130000D03*
%TD*%
%TO.C,*%
X139520000Y-70730000D03*
%TD*%
M02*
