%TF.GenerationSoftware,KiCad,Pcbnew,(6.0.5)*%
%TF.CreationDate,2023-01-07T10:16:58+02:00*%
%TF.ProjectId,VIDEOCARD_SCREENSYNC2.0,56494445-4f43-4415-9244-5f5343524545,rev?*%
%TF.SameCoordinates,Original*%
%TF.FileFunction,Copper,L2,Bot*%
%TF.FilePolarity,Positive*%
%FSLAX46Y46*%
G04 Gerber Fmt 4.6, Leading zero omitted, Abs format (unit mm)*
G04 Created by KiCad (PCBNEW (6.0.5)) date 2023-01-07 10:16:58*
%MOMM*%
%LPD*%
G01*
G04 APERTURE LIST*
%TA.AperFunction,ComponentPad*%
%ADD10R,1.700000X1.700000*%
%TD*%
%TA.AperFunction,ComponentPad*%
%ADD11O,1.700000X1.700000*%
%TD*%
%TA.AperFunction,ComponentPad*%
%ADD12R,2.400000X1.600000*%
%TD*%
%TA.AperFunction,ComponentPad*%
%ADD13O,2.400000X1.600000*%
%TD*%
%TA.AperFunction,ComponentPad*%
%ADD14C,4.000000*%
%TD*%
%TA.AperFunction,ComponentPad*%
%ADD15R,1.600000X1.600000*%
%TD*%
%TA.AperFunction,ComponentPad*%
%ADD16C,1.600000*%
%TD*%
%TA.AperFunction,ViaPad*%
%ADD17C,0.800000*%
%TD*%
%TA.AperFunction,Conductor*%
%ADD18C,0.400000*%
%TD*%
%TA.AperFunction,Conductor*%
%ADD19C,0.500000*%
%TD*%
G04 APERTURE END LIST*
D10*
%TO.P,REF\u002A\u002A,1*%
%TO.N,N/C*%
X179725000Y-144600000D03*
D11*
%TO.P,REF\u002A\u002A,2*%
X182265000Y-144600000D03*
%TD*%
D12*
%TO.P,74LS161,1*%
%TO.N,N/C*%
X191700000Y-77270000D03*
D13*
%TO.P,74LS161,2*%
X191700000Y-74730000D03*
%TO.P,74LS161,3*%
X191700000Y-72190000D03*
%TO.P,74LS161,4*%
X191700000Y-69650000D03*
%TO.P,74LS161,5*%
X191700000Y-67110000D03*
%TO.P,74LS161,6*%
X191700000Y-64570000D03*
%TO.P,74LS161,7*%
X191700000Y-62030000D03*
%TO.P,74LS161,8*%
X191700000Y-59490000D03*
%TO.P,74LS161,9*%
X184080000Y-59490000D03*
%TO.P,74LS161,10*%
X184080000Y-62030000D03*
%TO.P,74LS161,11*%
X184080000Y-64570000D03*
%TO.P,74LS161,12*%
X184080000Y-67110000D03*
%TO.P,74LS161,13*%
X184080000Y-69650000D03*
%TO.P,74LS161,14*%
X184080000Y-72190000D03*
%TO.P,74LS161,15*%
X184080000Y-74730000D03*
%TO.P,74LS161,16*%
X184080000Y-77270000D03*
%TD*%
D12*
%TO.P,74LS161,1*%
%TO.N,N/C*%
X95300000Y-102600000D03*
D13*
%TO.P,74LS161,2*%
X95300000Y-105140000D03*
%TO.P,74LS161,3*%
X95300000Y-107680000D03*
%TO.P,74LS161,4*%
X95300000Y-110220000D03*
%TO.P,74LS161,5*%
X95300000Y-112760000D03*
%TO.P,74LS161,6*%
X95300000Y-115300000D03*
%TO.P,74LS161,7*%
X95300000Y-117840000D03*
%TO.P,74LS161,8*%
X95300000Y-120380000D03*
%TO.P,74LS161,9*%
X102920000Y-120380000D03*
%TO.P,74LS161,10*%
X102920000Y-117840000D03*
%TO.P,74LS161,11*%
X102920000Y-115300000D03*
%TO.P,74LS161,12*%
X102920000Y-112760000D03*
%TO.P,74LS161,13*%
X102920000Y-110220000D03*
%TO.P,74LS161,14*%
X102920000Y-107680000D03*
%TO.P,74LS161,15*%
X102920000Y-105140000D03*
%TO.P,74LS161,16*%
X102920000Y-102600000D03*
%TD*%
D10*
%TO.P,REF\u002A\u002A,1*%
%TO.N,N/C*%
X129445000Y-52305000D03*
D11*
%TO.P,REF\u002A\u002A,2*%
X131985000Y-52305000D03*
%TO.P,REF\u002A\u002A,3*%
X134525000Y-52305000D03*
%TO.P,REF\u002A\u002A,4*%
X137065000Y-52305000D03*
%TO.P,REF\u002A\u002A,5*%
X139605000Y-52305000D03*
%TO.P,REF\u002A\u002A,6*%
X142145000Y-52305000D03*
%TO.P,REF\u002A\u002A,7*%
X144685000Y-52305000D03*
%TO.P,REF\u002A\u002A,8*%
X147225000Y-52305000D03*
%TO.P,REF\u002A\u002A,9*%
X149765000Y-52305000D03*
%TO.P,REF\u002A\u002A,10*%
X152305000Y-52305000D03*
%TO.P,REF\u002A\u002A,11*%
X154845000Y-52305000D03*
%TO.P,REF\u002A\u002A,12*%
X157385000Y-52305000D03*
%TD*%
D12*
%TO.P,74LS30,1*%
%TO.N,N/C*%
X168400000Y-71820000D03*
D13*
%TO.P,74LS30,2*%
X168400000Y-69280000D03*
%TO.P,74LS30,3*%
X168400000Y-66740000D03*
%TO.P,74LS30,4*%
X168400000Y-64200000D03*
%TO.P,74LS30,5*%
X168400000Y-61660000D03*
%TO.P,74LS30,6*%
X168400000Y-59120000D03*
%TO.P,74LS30,7*%
X168400000Y-56580000D03*
%TO.P,74LS30,8*%
X160780000Y-56580000D03*
%TO.P,74LS30,9*%
X160780000Y-59120000D03*
%TO.P,74LS30,10*%
X160780000Y-61660000D03*
%TO.P,74LS30,11*%
X160780000Y-64200000D03*
%TO.P,74LS30,12*%
X160780000Y-66740000D03*
%TO.P,74LS30,13*%
X160780000Y-69280000D03*
%TO.P,74LS30,14*%
X160780000Y-71820000D03*
%TD*%
D12*
%TO.P,74LS30,1*%
%TO.N,N/C*%
X168400000Y-132520000D03*
D13*
%TO.P,74LS30,2*%
X168400000Y-129980000D03*
%TO.P,74LS30,3*%
X168400000Y-127440000D03*
%TO.P,74LS30,4*%
X168400000Y-124900000D03*
%TO.P,74LS30,5*%
X168400000Y-122360000D03*
%TO.P,74LS30,6*%
X168400000Y-119820000D03*
%TO.P,74LS30,7*%
X168400000Y-117280000D03*
%TO.P,74LS30,8*%
X160780000Y-117280000D03*
%TO.P,74LS30,9*%
X160780000Y-119820000D03*
%TO.P,74LS30,10*%
X160780000Y-122360000D03*
%TO.P,74LS30,11*%
X160780000Y-124900000D03*
%TO.P,74LS30,12*%
X160780000Y-127440000D03*
%TO.P,74LS30,13*%
X160780000Y-129980000D03*
%TO.P,74LS30,14*%
X160780000Y-132520000D03*
%TD*%
D10*
%TO.P,REF\u002A\u002A,1*%
%TO.N,N/C*%
X166945000Y-52305000D03*
D11*
%TO.P,REF\u002A\u002A,2*%
X169485000Y-52305000D03*
%TO.P,REF\u002A\u002A,3*%
X172025000Y-52305000D03*
%TO.P,REF\u002A\u002A,4*%
X174565000Y-52305000D03*
%TO.P,REF\u002A\u002A,5*%
X177105000Y-52305000D03*
%TO.P,REF\u002A\u002A,6*%
X179645000Y-52305000D03*
%TO.P,REF\u002A\u002A,7*%
X182185000Y-52305000D03*
%TO.P,REF\u002A\u002A,8*%
X184725000Y-52305000D03*
%TD*%
D12*
%TO.P,74LS00,1*%
%TO.N,N/C*%
X148220000Y-79405000D03*
D13*
%TO.P,74LS00,2*%
X148220000Y-81945000D03*
%TO.P,74LS00,3*%
X148220000Y-84485000D03*
%TO.P,74LS00,4*%
X148220000Y-87025000D03*
%TO.P,74LS00,5*%
X148220000Y-89565000D03*
%TO.P,74LS00,6*%
X148220000Y-92105000D03*
%TO.P,74LS00,7*%
X148220000Y-94645000D03*
%TO.P,74LS00,8*%
X155840000Y-94645000D03*
%TO.P,74LS00,9*%
X155840000Y-92105000D03*
%TO.P,74LS00,10*%
X155840000Y-89565000D03*
%TO.P,74LS00,11*%
X155840000Y-87025000D03*
%TO.P,74LS00,12*%
X155840000Y-84485000D03*
%TO.P,74LS00,13*%
X155840000Y-81945000D03*
%TO.P,74LS00,14*%
X155840000Y-79405000D03*
%TD*%
D12*
%TO.P,74LS30,1*%
%TO.N,N/C*%
X118500000Y-56500000D03*
D13*
%TO.P,74LS30,2*%
X118500000Y-59040000D03*
%TO.P,74LS30,3*%
X118500000Y-61580000D03*
%TO.P,74LS30,4*%
X118500000Y-64120000D03*
%TO.P,74LS30,5*%
X118500000Y-66660000D03*
%TO.P,74LS30,6*%
X118500000Y-69200000D03*
%TO.P,74LS30,7*%
X118500000Y-71740000D03*
%TO.P,74LS30,8*%
X126120000Y-71740000D03*
%TO.P,74LS30,9*%
X126120000Y-69200000D03*
%TO.P,74LS30,10*%
X126120000Y-66660000D03*
%TO.P,74LS30,11*%
X126120000Y-64120000D03*
%TO.P,74LS30,12*%
X126120000Y-61580000D03*
%TO.P,74LS30,13*%
X126120000Y-59040000D03*
%TO.P,74LS30,14*%
X126120000Y-56500000D03*
%TD*%
D12*
%TO.P,74LS00,1*%
%TO.N,N/C*%
X130920000Y-79330000D03*
D13*
%TO.P,74LS00,2*%
X130920000Y-81870000D03*
%TO.P,74LS00,3*%
X130920000Y-84410000D03*
%TO.P,74LS00,4*%
X130920000Y-86950000D03*
%TO.P,74LS00,5*%
X130920000Y-89490000D03*
%TO.P,74LS00,6*%
X130920000Y-92030000D03*
%TO.P,74LS00,7*%
X130920000Y-94570000D03*
%TO.P,74LS00,8*%
X138540000Y-94570000D03*
%TO.P,74LS00,9*%
X138540000Y-92030000D03*
%TO.P,74LS00,10*%
X138540000Y-89490000D03*
%TO.P,74LS00,11*%
X138540000Y-86950000D03*
%TO.P,74LS00,12*%
X138540000Y-84410000D03*
%TO.P,74LS00,13*%
X138540000Y-81870000D03*
%TO.P,74LS00,14*%
X138540000Y-79330000D03*
%TD*%
D12*
%TO.P,74LS161,1*%
%TO.N,N/C*%
X191700000Y-98770000D03*
D13*
%TO.P,74LS161,2*%
X191700000Y-96230000D03*
%TO.P,74LS161,3*%
X191700000Y-93690000D03*
%TO.P,74LS161,4*%
X191700000Y-91150000D03*
%TO.P,74LS161,5*%
X191700000Y-88610000D03*
%TO.P,74LS161,6*%
X191700000Y-86070000D03*
%TO.P,74LS161,7*%
X191700000Y-83530000D03*
%TO.P,74LS161,8*%
X191700000Y-80990000D03*
%TO.P,74LS161,9*%
X184080000Y-80990000D03*
%TO.P,74LS161,10*%
X184080000Y-83530000D03*
%TO.P,74LS161,11*%
X184080000Y-86070000D03*
%TO.P,74LS161,12*%
X184080000Y-88610000D03*
%TO.P,74LS161,13*%
X184080000Y-91150000D03*
%TO.P,74LS161,14*%
X184080000Y-93690000D03*
%TO.P,74LS161,15*%
X184080000Y-96230000D03*
%TO.P,74LS161,16*%
X184080000Y-98770000D03*
%TD*%
D12*
%TO.P,74LS161,1*%
%TO.N,N/C*%
X191700000Y-120270000D03*
D13*
%TO.P,74LS161,2*%
X191700000Y-117730000D03*
%TO.P,74LS161,3*%
X191700000Y-115190000D03*
%TO.P,74LS161,4*%
X191700000Y-112650000D03*
%TO.P,74LS161,5*%
X191700000Y-110110000D03*
%TO.P,74LS161,6*%
X191700000Y-107570000D03*
%TO.P,74LS161,7*%
X191700000Y-105030000D03*
%TO.P,74LS161,8*%
X191700000Y-102490000D03*
%TO.P,74LS161,9*%
X184080000Y-102490000D03*
%TO.P,74LS161,10*%
X184080000Y-105030000D03*
%TO.P,74LS161,11*%
X184080000Y-107570000D03*
%TO.P,74LS161,12*%
X184080000Y-110110000D03*
%TO.P,74LS161,13*%
X184080000Y-112650000D03*
%TO.P,74LS161,14*%
X184080000Y-115190000D03*
%TO.P,74LS161,15*%
X184080000Y-117730000D03*
%TO.P,74LS161,16*%
X184080000Y-120270000D03*
%TD*%
D12*
%TO.P,74LS04,1*%
%TO.N,N/C*%
X95300000Y-124100000D03*
D13*
%TO.P,74LS04,2*%
X95300000Y-126640000D03*
%TO.P,74LS04,3*%
X95300000Y-129180000D03*
%TO.P,74LS04,4*%
X95300000Y-131720000D03*
%TO.P,74LS04,5*%
X95300000Y-134260000D03*
%TO.P,74LS04,6*%
X95300000Y-136800000D03*
%TO.P,74LS04,7*%
X95300000Y-139340000D03*
%TO.P,74LS04,8*%
X102920000Y-139340000D03*
%TO.P,74LS04,9*%
X102920000Y-136800000D03*
%TO.P,74LS04,10*%
X102920000Y-134260000D03*
%TO.P,74LS04,11*%
X102920000Y-131720000D03*
%TO.P,74LS04,12*%
X102920000Y-129180000D03*
%TO.P,74LS04,13*%
X102920000Y-126640000D03*
%TO.P,74LS04,14*%
X102920000Y-124100000D03*
%TD*%
D14*
%TO.P,VGA PORT 1,0*%
%TO.N,N/C*%
X115395000Y-143330000D03*
X140395000Y-143330000D03*
D15*
%TO.P,VGA PORT 1,1*%
X132210000Y-141280000D03*
D16*
%TO.P,VGA PORT 1,2*%
X129920000Y-141280000D03*
%TO.P,VGA PORT 1,3*%
X127630000Y-141280000D03*
%TO.P,VGA PORT 1,4*%
X125340000Y-141280000D03*
%TO.P,VGA PORT 1,5*%
X123050000Y-141280000D03*
%TO.P,VGA PORT 1,6*%
X133355000Y-143260000D03*
%TO.P,VGA PORT 1,7*%
X131065000Y-143260000D03*
%TO.P,VGA PORT 1,8*%
X128775000Y-143260000D03*
%TO.P,VGA PORT 1,9*%
X126485000Y-143260000D03*
%TO.P,VGA PORT 1,10*%
X124195000Y-143260000D03*
%TO.P,VGA PORT 1,11*%
X132210000Y-145240000D03*
%TO.P,VGA PORT 1,12*%
X129920000Y-145240000D03*
%TO.P,VGA PORT 1,13*%
X127630000Y-145240000D03*
%TO.P,VGA PORT 1,14*%
X125340000Y-145240000D03*
%TO.P,VGA PORT 1,15*%
X123050000Y-145240000D03*
%TD*%
D12*
%TO.P,74LS30,1*%
%TO.N,N/C*%
X168400000Y-92120000D03*
D13*
%TO.P,74LS30,2*%
X168400000Y-89580000D03*
%TO.P,74LS30,3*%
X168400000Y-87040000D03*
%TO.P,74LS30,4*%
X168400000Y-84500000D03*
%TO.P,74LS30,5*%
X168400000Y-81960000D03*
%TO.P,74LS30,6*%
X168400000Y-79420000D03*
%TO.P,74LS30,7*%
X168400000Y-76880000D03*
%TO.P,74LS30,8*%
X160780000Y-76880000D03*
%TO.P,74LS30,9*%
X160780000Y-79420000D03*
%TO.P,74LS30,10*%
X160780000Y-81960000D03*
%TO.P,74LS30,11*%
X160780000Y-84500000D03*
%TO.P,74LS30,12*%
X160780000Y-87040000D03*
%TO.P,74LS30,13*%
X160780000Y-89580000D03*
%TO.P,74LS30,14*%
X160780000Y-92120000D03*
%TD*%
D12*
%TO.P,74LS04,1*%
%TO.N,N/C*%
X184100000Y-124090000D03*
D13*
%TO.P,74LS04,2*%
X184100000Y-126630000D03*
%TO.P,74LS04,3*%
X184100000Y-129170000D03*
%TO.P,74LS04,4*%
X184100000Y-131710000D03*
%TO.P,74LS04,5*%
X184100000Y-134250000D03*
%TO.P,74LS04,6*%
X184100000Y-136790000D03*
%TO.P,74LS04,7*%
X184100000Y-139330000D03*
%TO.P,74LS04,8*%
X191720000Y-139330000D03*
%TO.P,74LS04,9*%
X191720000Y-136790000D03*
%TO.P,74LS04,10*%
X191720000Y-134250000D03*
%TO.P,74LS04,11*%
X191720000Y-131710000D03*
%TO.P,74LS04,12*%
X191720000Y-129170000D03*
%TO.P,74LS04,13*%
X191720000Y-126630000D03*
%TO.P,74LS04,14*%
X191720000Y-124090000D03*
%TD*%
D10*
%TO.P,REF\u002A\u002A,1*%
%TO.N,N/C*%
X102220000Y-52330000D03*
D11*
%TO.P,REF\u002A\u002A,2*%
X104760000Y-52330000D03*
%TO.P,REF\u002A\u002A,3*%
X107300000Y-52330000D03*
%TO.P,REF\u002A\u002A,4*%
X109840000Y-52330000D03*
%TO.P,REF\u002A\u002A,5*%
X112380000Y-52330000D03*
%TO.P,REF\u002A\u002A,6*%
X114920000Y-52330000D03*
%TO.P,REF\u002A\u002A,7*%
X117460000Y-52330000D03*
%TO.P,REF\u002A\u002A,8*%
X120000000Y-52330000D03*
%TD*%
D12*
%TO.P,74LS161,1*%
%TO.N,N/C*%
X95300000Y-59600000D03*
D13*
%TO.P,74LS161,2*%
X95300000Y-62140000D03*
%TO.P,74LS161,3*%
X95300000Y-64680000D03*
%TO.P,74LS161,4*%
X95300000Y-67220000D03*
%TO.P,74LS161,5*%
X95300000Y-69760000D03*
%TO.P,74LS161,6*%
X95300000Y-72300000D03*
%TO.P,74LS161,7*%
X95300000Y-74840000D03*
%TO.P,74LS161,8*%
X95300000Y-77380000D03*
%TO.P,74LS161,9*%
X102920000Y-77380000D03*
%TO.P,74LS161,10*%
X102920000Y-74840000D03*
%TO.P,74LS161,11*%
X102920000Y-72300000D03*
%TO.P,74LS161,12*%
X102920000Y-69760000D03*
%TO.P,74LS161,13*%
X102920000Y-67220000D03*
%TO.P,74LS161,14*%
X102920000Y-64680000D03*
%TO.P,74LS161,15*%
X102920000Y-62140000D03*
%TO.P,74LS161,16*%
X102920000Y-59600000D03*
%TD*%
D14*
%TO.P,VGA PORT 2,0*%
%TO.N,N/C*%
X146690000Y-143320000D03*
X171690000Y-143320000D03*
D15*
%TO.P,VGA PORT 2,1*%
X163505000Y-141270000D03*
D16*
%TO.P,VGA PORT 2,2*%
X161215000Y-141270000D03*
%TO.P,VGA PORT 2,3*%
X158925000Y-141270000D03*
%TO.P,VGA PORT 2,4*%
X156635000Y-141270000D03*
%TO.P,VGA PORT 2,5*%
X154345000Y-141270000D03*
%TO.P,VGA PORT 2,6*%
X164650000Y-143250000D03*
%TO.P,VGA PORT 2,7*%
X162360000Y-143250000D03*
%TO.P,VGA PORT 2,8*%
X160070000Y-143250000D03*
%TO.P,VGA PORT 2,9*%
X157780000Y-143250000D03*
%TO.P,VGA PORT 2,10*%
X155490000Y-143250000D03*
%TO.P,VGA PORT 2,11*%
X163505000Y-145230000D03*
%TO.P,VGA PORT 2,12*%
X161215000Y-145230000D03*
%TO.P,VGA PORT 2,13*%
X158925000Y-145230000D03*
%TO.P,VGA PORT 2,14*%
X156635000Y-145230000D03*
%TO.P,VGA PORT 2,15*%
X154345000Y-145230000D03*
%TD*%
D12*
%TO.P,74LS30,1*%
%TO.N,N/C*%
X118500000Y-96900000D03*
D13*
%TO.P,74LS30,2*%
X118500000Y-99440000D03*
%TO.P,74LS30,3*%
X118500000Y-101980000D03*
%TO.P,74LS30,4*%
X118500000Y-104520000D03*
%TO.P,74LS30,5*%
X118500000Y-107060000D03*
%TO.P,74LS30,6*%
X118500000Y-109600000D03*
%TO.P,74LS30,7*%
X118500000Y-112140000D03*
%TO.P,74LS30,8*%
X126120000Y-112140000D03*
%TO.P,74LS30,9*%
X126120000Y-109600000D03*
%TO.P,74LS30,10*%
X126120000Y-107060000D03*
%TO.P,74LS30,11*%
X126120000Y-104520000D03*
%TO.P,74LS30,12*%
X126120000Y-101980000D03*
%TO.P,74LS30,13*%
X126120000Y-99440000D03*
%TO.P,74LS30,14*%
X126120000Y-96900000D03*
%TD*%
D12*
%TO.P,74LS30,1*%
%TO.N,N/C*%
X118500000Y-76700000D03*
D13*
%TO.P,74LS30,2*%
X118500000Y-79240000D03*
%TO.P,74LS30,3*%
X118500000Y-81780000D03*
%TO.P,74LS30,4*%
X118500000Y-84320000D03*
%TO.P,74LS30,5*%
X118500000Y-86860000D03*
%TO.P,74LS30,6*%
X118500000Y-89400000D03*
%TO.P,74LS30,7*%
X118500000Y-91940000D03*
%TO.P,74LS30,8*%
X126120000Y-91940000D03*
%TO.P,74LS30,9*%
X126120000Y-89400000D03*
%TO.P,74LS30,10*%
X126120000Y-86860000D03*
%TO.P,74LS30,11*%
X126120000Y-84320000D03*
%TO.P,74LS30,12*%
X126120000Y-81780000D03*
%TO.P,74LS30,13*%
X126120000Y-79240000D03*
%TO.P,74LS30,14*%
X126120000Y-76700000D03*
%TD*%
D12*
%TO.P,74LS30,1*%
%TO.N,N/C*%
X168400000Y-112320000D03*
D13*
%TO.P,74LS30,2*%
X168400000Y-109780000D03*
%TO.P,74LS30,3*%
X168400000Y-107240000D03*
%TO.P,74LS30,4*%
X168400000Y-104700000D03*
%TO.P,74LS30,5*%
X168400000Y-102160000D03*
%TO.P,74LS30,6*%
X168400000Y-99620000D03*
%TO.P,74LS30,7*%
X168400000Y-97080000D03*
%TO.P,74LS30,8*%
X160780000Y-97080000D03*
%TO.P,74LS30,9*%
X160780000Y-99620000D03*
%TO.P,74LS30,10*%
X160780000Y-102160000D03*
%TO.P,74LS30,11*%
X160780000Y-104700000D03*
%TO.P,74LS30,12*%
X160780000Y-107240000D03*
%TO.P,74LS30,13*%
X160780000Y-109780000D03*
%TO.P,74LS30,14*%
X160780000Y-112320000D03*
%TD*%
D12*
%TO.P,74LS30,1*%
%TO.N,N/C*%
X118500000Y-117200000D03*
D13*
%TO.P,74LS30,2*%
X118500000Y-119740000D03*
%TO.P,74LS30,3*%
X118500000Y-122280000D03*
%TO.P,74LS30,4*%
X118500000Y-124820000D03*
%TO.P,74LS30,5*%
X118500000Y-127360000D03*
%TO.P,74LS30,6*%
X118500000Y-129900000D03*
%TO.P,74LS30,7*%
X118500000Y-132440000D03*
%TO.P,74LS30,8*%
X126120000Y-132440000D03*
%TO.P,74LS30,9*%
X126120000Y-129900000D03*
%TO.P,74LS30,10*%
X126120000Y-127360000D03*
%TO.P,74LS30,11*%
X126120000Y-124820000D03*
%TO.P,74LS30,12*%
X126120000Y-122280000D03*
%TO.P,74LS30,13*%
X126120000Y-119740000D03*
%TO.P,74LS30,14*%
X126120000Y-117200000D03*
%TD*%
D12*
%TO.P,74LS161,1*%
%TO.N,N/C*%
X95300000Y-81100000D03*
D13*
%TO.P,74LS161,2*%
X95300000Y-83640000D03*
%TO.P,74LS161,3*%
X95300000Y-86180000D03*
%TO.P,74LS161,4*%
X95300000Y-88720000D03*
%TO.P,74LS161,5*%
X95300000Y-91260000D03*
%TO.P,74LS161,6*%
X95300000Y-93800000D03*
%TO.P,74LS161,7*%
X95300000Y-96340000D03*
%TO.P,74LS161,8*%
X95300000Y-98880000D03*
%TO.P,74LS161,9*%
X102920000Y-98880000D03*
%TO.P,74LS161,10*%
X102920000Y-96340000D03*
%TO.P,74LS161,11*%
X102920000Y-93800000D03*
%TO.P,74LS161,12*%
X102920000Y-91260000D03*
%TO.P,74LS161,13*%
X102920000Y-88720000D03*
%TO.P,74LS161,14*%
X102920000Y-86180000D03*
%TO.P,74LS161,15*%
X102920000Y-83640000D03*
%TO.P,74LS161,16*%
X102920000Y-81100000D03*
%TD*%
D16*
%TO.P,,3*%
%TO.N,N/C*%
X147120000Y-63130000D03*
%TD*%
%TO.P,,4*%
%TO.N,N/C*%
X147120000Y-70730000D03*
%TD*%
%TO.P,,2*%
%TO.N,N/C*%
X139520000Y-63130000D03*
%TD*%
%TO.P,,1*%
%TO.N,N/C*%
X139520000Y-70730000D03*
%TD*%
D17*
%TO.N,*%
X158900000Y-54500000D03*
X188700000Y-56900000D03*
X154500000Y-72000000D03*
X130200000Y-98800000D03*
X154500000Y-70600000D03*
X150300000Y-77800000D03*
X136800000Y-96700000D03*
X149900000Y-70600000D03*
X150800000Y-72100000D03*
X121800000Y-49900000D03*
X121800000Y-53100000D03*
X177900000Y-104650000D03*
X187000000Y-102470000D03*
X97300000Y-102600000D03*
X111500000Y-119700000D03*
X144400000Y-147500000D03*
X112300000Y-122300000D03*
X173900000Y-114250000D03*
X173900000Y-92050000D03*
X177900000Y-93690000D03*
X170700000Y-74820000D03*
X113100000Y-66700000D03*
X99020000Y-131700000D03*
X181100000Y-72190000D03*
X109900000Y-91200000D03*
X108300000Y-99500000D03*
X109900000Y-59000000D03*
X98200000Y-62100000D03*
X171500000Y-95050000D03*
X108300000Y-79300000D03*
X181900000Y-79420000D03*
X179500000Y-88590000D03*
X142600000Y-146600000D03*
X110700000Y-93800000D03*
X179500000Y-81920000D03*
X100000000Y-74800000D03*
X181600000Y-122600000D03*
X186700000Y-120200000D03*
X114700000Y-95000000D03*
X172220000Y-71830000D03*
X187900000Y-80970000D03*
X174700000Y-89620000D03*
X170620000Y-132530000D03*
X105900000Y-76700000D03*
X187000000Y-83570000D03*
X112300000Y-129200000D03*
X171520000Y-73930000D03*
X171520000Y-133230000D03*
X113900000Y-131000000D03*
X100000000Y-117800000D03*
X112300000Y-64200000D03*
X106700000Y-69800000D03*
X109900000Y-81800000D03*
X187000000Y-98770000D03*
X112300000Y-86900000D03*
X177900000Y-61710000D03*
X187900000Y-102470000D03*
X130100000Y-97300000D03*
X98200000Y-105100000D03*
X105100000Y-64700000D03*
X116300000Y-74600000D03*
X174700000Y-115190000D03*
X108300000Y-86200000D03*
X109900000Y-104500000D03*
X189700000Y-120270000D03*
X177100000Y-59110000D03*
X99320000Y-126630000D03*
X110700000Y-61600000D03*
X173620000Y-131800000D03*
X181900000Y-99510000D03*
X99100000Y-98900000D03*
X188800000Y-74770000D03*
X98520000Y-136730000D03*
X181900000Y-66740000D03*
X177100000Y-87020000D03*
X105900000Y-67300000D03*
X180300000Y-86090000D03*
X179500000Y-102150000D03*
X180180000Y-124090000D03*
X173920000Y-126530000D03*
X113900000Y-114200000D03*
X113100000Y-124800000D03*
X114700000Y-131900000D03*
X176300000Y-110090000D03*
X113100000Y-130100000D03*
X181900000Y-69690000D03*
X187000000Y-105070000D03*
X172520000Y-132630000D03*
X172300000Y-94050000D03*
X110700000Y-106800000D03*
X189700000Y-77270000D03*
X97300000Y-81100000D03*
X189700000Y-98770000D03*
X105900000Y-96900000D03*
X107500000Y-56500000D03*
X122520000Y-94530000D03*
X175500000Y-112690000D03*
X188800000Y-117770000D03*
X99100000Y-120400000D03*
X115500000Y-132800000D03*
X112300000Y-109600000D03*
X109100000Y-102000000D03*
X100000000Y-120400000D03*
X113900000Y-94000000D03*
X179500000Y-64150000D03*
X177920000Y-127430000D03*
X171500000Y-112310000D03*
X115500000Y-129900000D03*
X113900000Y-127400000D03*
X115500000Y-73800000D03*
X188800000Y-96270000D03*
X173900000Y-69320000D03*
X113900000Y-69200000D03*
X187000000Y-62070000D03*
X107500000Y-117200000D03*
X187900000Y-59470000D03*
X114700000Y-115200000D03*
X177100000Y-107420000D03*
X177900000Y-84510000D03*
X178700000Y-91190000D03*
X109100000Y-88700000D03*
X100000000Y-81100000D03*
X179500000Y-119830000D03*
X100000000Y-77400000D03*
X186720000Y-122230000D03*
X116300000Y-89500000D03*
X99100000Y-77400000D03*
X116300000Y-133700000D03*
X176300000Y-129950000D03*
X98200000Y-83600000D03*
X107500000Y-72300000D03*
X100000000Y-96300000D03*
X110700000Y-84300000D03*
X111500000Y-107700000D03*
%TD*%
D18*
%TO.N,*%
X150300000Y-77800000D02*
X150300000Y-89565000D01*
X150300000Y-89565000D02*
X148220000Y-89565000D01*
X156900000Y-70600000D02*
X158120000Y-71820000D01*
X158120000Y-71820000D02*
X160780000Y-71820000D01*
X154500000Y-70600000D02*
X156900000Y-70600000D01*
X130200000Y-98800000D02*
X130300000Y-98800000D01*
X158100000Y-83700000D02*
X157315000Y-84485000D01*
X154500000Y-72000000D02*
X156600000Y-72000000D01*
X156600000Y-72000000D02*
X158100000Y-73500000D01*
X132050000Y-86950000D02*
X130920000Y-86950000D01*
X132900000Y-87800000D02*
X132050000Y-86950000D01*
X132900000Y-96200000D02*
X132900000Y-87800000D01*
X130300000Y-98800000D02*
X132900000Y-96200000D01*
X158100000Y-73500000D02*
X158100000Y-83700000D01*
X157315000Y-84485000D02*
X155840000Y-84485000D01*
X147225000Y-54125000D02*
X147225000Y-52305000D01*
X151800000Y-58700000D02*
X147225000Y-54125000D01*
X156600000Y-141180000D02*
X156600000Y-102200000D01*
X156600000Y-102200000D02*
X151800000Y-97400000D01*
X151800000Y-97400000D02*
X151800000Y-58700000D01*
X153600000Y-55700000D02*
X152305000Y-54405000D01*
X139500000Y-71800000D02*
X139500000Y-70750000D01*
X147300000Y-73200000D02*
X140900000Y-73200000D01*
X158300000Y-138300000D02*
X158300000Y-100800000D01*
X153600000Y-96100000D02*
X153600000Y-55700000D01*
X149900000Y-70600000D02*
X147300000Y-73200000D01*
X152305000Y-54405000D02*
X152305000Y-52305000D01*
X159600000Y-139600000D02*
X158300000Y-138300000D01*
X158300000Y-100800000D02*
X153600000Y-96100000D01*
X160600000Y-139600000D02*
X159600000Y-139600000D01*
X161215000Y-140215000D02*
X160600000Y-139600000D01*
X140900000Y-73200000D02*
X139500000Y-71800000D01*
X161215000Y-141270000D02*
X161215000Y-140215000D01*
X139500000Y-70750000D02*
X139520000Y-70730000D01*
X186700000Y-120200000D02*
X187000000Y-119900000D01*
X187000000Y-119900000D02*
X187000000Y-105070000D01*
X134800000Y-140600000D02*
X134800000Y-146500000D01*
X132300000Y-138100000D02*
X134800000Y-140600000D01*
X138540000Y-94570000D02*
X138540000Y-96360000D01*
X134800000Y-146500000D02*
X134670000Y-146630000D01*
X138540000Y-96360000D02*
X132300000Y-102600000D01*
X132300000Y-102600000D02*
X132300000Y-138100000D01*
X181600000Y-122600000D02*
X181900000Y-122300000D01*
X181900000Y-122300000D02*
X181900000Y-99510000D01*
X180300000Y-58050000D02*
X184725000Y-53625000D01*
X184725000Y-53625000D02*
X184725000Y-52305000D01*
X180300000Y-86090000D02*
X180300000Y-58050000D01*
X162910000Y-71830000D02*
X162900000Y-71820000D01*
X130030000Y-97230000D02*
X128520000Y-97230000D01*
X130100000Y-97300000D02*
X130030000Y-97230000D01*
X150800000Y-59700000D02*
X144685000Y-53585000D01*
X144685000Y-53585000D02*
X144685000Y-52305000D01*
X152670000Y-146630000D02*
X153630000Y-146630000D01*
X150800000Y-72100000D02*
X150800000Y-59700000D01*
X143970000Y-146630000D02*
X152670000Y-146630000D01*
X187000000Y-142900000D02*
X183100000Y-142900000D01*
X190570000Y-139330000D02*
X187000000Y-142900000D01*
X182265000Y-143735000D02*
X182265000Y-144600000D01*
X183100000Y-142900000D02*
X182265000Y-143735000D01*
X191720000Y-139330000D02*
X190570000Y-139330000D01*
X150300000Y-92100000D02*
X150295000Y-92105000D01*
X152700000Y-140700000D02*
X155700000Y-137700000D01*
X152670000Y-146630000D02*
X152700000Y-146600000D01*
X152700000Y-146600000D02*
X152700000Y-140700000D01*
X150300000Y-97500000D02*
X150300000Y-92100000D01*
X150295000Y-92105000D02*
X148220000Y-92105000D01*
X155700000Y-102900000D02*
X150300000Y-97500000D01*
X155700000Y-137700000D02*
X155700000Y-102900000D01*
X152700000Y-57400000D02*
X149765000Y-54465000D01*
X158890000Y-140110000D02*
X157480000Y-138700000D01*
X157480000Y-101480000D02*
X152700000Y-96700000D01*
X158890000Y-141180000D02*
X158890000Y-140110000D01*
X157480000Y-138700000D02*
X157480000Y-101480000D01*
X149765000Y-54465000D02*
X149765000Y-52305000D01*
X152700000Y-96700000D02*
X152700000Y-57400000D01*
X173620000Y-131800000D02*
X173620000Y-133030000D01*
X166020000Y-135230000D02*
X164820000Y-134030000D01*
X164030000Y-127440000D02*
X160780000Y-127440000D01*
X173620000Y-131800000D02*
X173620000Y-127480000D01*
X164820000Y-128230000D02*
X164030000Y-127440000D01*
X164820000Y-134030000D02*
X164820000Y-128230000D01*
X173100000Y-126960000D02*
X173100000Y-71820000D01*
X173620000Y-133030000D02*
X171420000Y-135230000D01*
X173620000Y-127480000D02*
X173100000Y-126960000D01*
X171420000Y-135230000D02*
X166020000Y-135230000D01*
D19*
X123050000Y-142115000D02*
X124195000Y-143260000D01*
D18*
X110700000Y-129100000D02*
X110700000Y-106800000D01*
X99310000Y-126640000D02*
X95300000Y-126640000D01*
X168020000Y-53830000D02*
X169220000Y-53830000D01*
X171500000Y-74520000D02*
X171500000Y-73950000D01*
X188120000Y-138630000D02*
X188120000Y-128230000D01*
X102720000Y-102600000D02*
X102820000Y-102500000D01*
X170700000Y-132450000D02*
X170700000Y-74820000D01*
D19*
X128775000Y-143260000D02*
X131065000Y-143260000D01*
D18*
X107500000Y-72300000D02*
X107500000Y-56500000D01*
X104760000Y-56270000D02*
X104760000Y-52330000D01*
X188800000Y-96270000D02*
X188800000Y-117770000D01*
X171500000Y-73950000D02*
X171520000Y-73930000D01*
X108300000Y-79300000D02*
X108300000Y-99500000D01*
X177100000Y-87020000D02*
X177100000Y-64220000D01*
X113100000Y-124800000D02*
X113100000Y-69100000D01*
X110700000Y-60950000D02*
X117720000Y-53930000D01*
X177120000Y-128430000D02*
X177860000Y-129170000D01*
X177920000Y-127430000D02*
X177900000Y-127410000D01*
X127510000Y-132440000D02*
X126120000Y-132440000D01*
X177100000Y-127510000D02*
X177100000Y-107420000D01*
X173900000Y-92050000D02*
X173900000Y-69320000D01*
X109100000Y-102000000D02*
X109100000Y-58450000D01*
X123900000Y-96900000D02*
X126120000Y-96900000D01*
X108300000Y-56950000D02*
X112380000Y-52870000D01*
X189520000Y-138830000D02*
X189520000Y-132330000D01*
X102220000Y-55330000D02*
X102220000Y-52330000D01*
X120600000Y-117290000D02*
X120600000Y-112140000D01*
X174700000Y-115190000D02*
X174700000Y-138710000D01*
X162900000Y-92120000D02*
X162900000Y-71820000D01*
X171500000Y-133210000D02*
X171500000Y-112310000D01*
X114700000Y-73000000D02*
X114700000Y-95000000D01*
X171500000Y-112310000D02*
X171500000Y-95050000D01*
X107500000Y-137600000D02*
X104100000Y-141000000D01*
X181900000Y-69690000D02*
X181900000Y-79420000D01*
X171500000Y-95050000D02*
X171500000Y-74520000D01*
X109840000Y-54160000D02*
X109840000Y-52330000D01*
X166720000Y-134230000D02*
X166020000Y-133530000D01*
X166200000Y-97080000D02*
X168400000Y-97080000D01*
X174700000Y-89620000D02*
X174700000Y-109820000D01*
X177100000Y-56710000D02*
X174565000Y-54175000D01*
X123910000Y-117210000D02*
X123900000Y-117200000D01*
X101000000Y-142200000D02*
X99320000Y-140520000D01*
X178700000Y-122410000D02*
X178700000Y-113920000D01*
X178220000Y-141030000D02*
X185720000Y-141030000D01*
X187900000Y-121050000D02*
X187900000Y-102470000D01*
X179500000Y-59120000D02*
X179500000Y-64150000D01*
X186720000Y-122230000D02*
X186720000Y-138130000D01*
X166200000Y-76880000D02*
X168400000Y-76880000D01*
X100000000Y-98900000D02*
X102900000Y-98900000D01*
X112300000Y-129200000D02*
X112300000Y-122300000D01*
X100000000Y-77400000D02*
X100000000Y-81100000D01*
X100000000Y-59600000D02*
X102920000Y-59600000D01*
X176300000Y-129950000D02*
X176300000Y-132810000D01*
X104100000Y-136800000D02*
X102920000Y-136800000D01*
X185520000Y-139330000D02*
X184100000Y-139330000D01*
X108300000Y-79300000D02*
X108300000Y-56950000D01*
X188800000Y-96270000D02*
X188800000Y-74770000D01*
X162900000Y-112320000D02*
X162900000Y-92120000D01*
D19*
X123050000Y-141280000D02*
X123050000Y-142115000D01*
D18*
X99100000Y-98900000D02*
X99100000Y-120400000D01*
X126120000Y-56500000D02*
X123900000Y-56500000D01*
X109900000Y-59000000D02*
X110650000Y-59000000D01*
X105100000Y-64700000D02*
X105100000Y-58210000D01*
X162900000Y-92120000D02*
X160780000Y-92120000D01*
X172220000Y-71830000D02*
X172300000Y-71910000D01*
X166945000Y-52305000D02*
X166945000Y-52755000D01*
X113100000Y-69100000D02*
X113100000Y-66700000D01*
X187900000Y-80970000D02*
X187900000Y-102470000D01*
X120600000Y-94410000D02*
X120600000Y-91940000D01*
X110700000Y-86900000D02*
X110700000Y-84300000D01*
X179500000Y-81920000D02*
X179500000Y-88590000D01*
X187000000Y-77370000D02*
X186900000Y-77270000D01*
X187000000Y-102470000D02*
X187000000Y-98770000D01*
X176300000Y-110090000D02*
X176300000Y-57510000D01*
X110700000Y-84300000D02*
X110700000Y-61600000D01*
X99300000Y-124100000D02*
X95300000Y-124100000D01*
X98780000Y-129180000D02*
X95300000Y-129180000D01*
X184070000Y-124120000D02*
X184100000Y-124090000D01*
X105100000Y-64700000D02*
X105100000Y-125700000D01*
X118820000Y-53930000D02*
X120000000Y-52750000D01*
X179500000Y-56750000D02*
X182185000Y-54065000D01*
X185720000Y-141030000D02*
X188120000Y-138630000D01*
X177100000Y-59110000D02*
X177100000Y-56710000D01*
X100100000Y-102600000D02*
X102720000Y-102600000D01*
X170820000Y-53630000D02*
X170320000Y-53630000D01*
X120600000Y-117290000D02*
X120600000Y-132440000D01*
X106700000Y-55950000D02*
X107300000Y-55350000D01*
X162900000Y-112320000D02*
X160780000Y-112320000D01*
X115500000Y-73800000D02*
X115500000Y-129900000D01*
X100020000Y-130420000D02*
X98780000Y-129180000D01*
X111500000Y-119700000D02*
X111500000Y-107700000D01*
X166200000Y-117280000D02*
X168400000Y-117280000D01*
X177920000Y-141930000D02*
X186420000Y-141930000D01*
X105900000Y-96900000D02*
X105900000Y-130000000D01*
X179500000Y-59120000D02*
X179500000Y-56750000D01*
X115720000Y-53930000D02*
X116220000Y-53930000D01*
X187000000Y-83570000D02*
X187000000Y-80970000D01*
X184080000Y-117730000D02*
X186200000Y-117730000D01*
X120600000Y-91940000D02*
X120600000Y-71740000D01*
X112300000Y-89400000D02*
X112300000Y-86900000D01*
X187000000Y-59470000D02*
X187000000Y-62070000D01*
X188120000Y-128230000D02*
X189720000Y-126630000D01*
X186200000Y-117730000D02*
X186200000Y-83530000D01*
X101600000Y-141000000D02*
X100720000Y-140120000D01*
X111500000Y-62850000D02*
X111500000Y-107700000D01*
X187000000Y-80970000D02*
X187000000Y-77370000D01*
X177920000Y-124930000D02*
X177920000Y-127430000D01*
X120600000Y-112140000D02*
X120600000Y-94410000D01*
X104160000Y-126640000D02*
X102920000Y-126640000D01*
X172520000Y-132630000D02*
X172300000Y-132410000D01*
X100720000Y-140120000D02*
X100720000Y-125520000D01*
X112380000Y-52870000D02*
X112380000Y-52330000D01*
X109100000Y-137800000D02*
X104700000Y-142200000D01*
X186900000Y-77270000D02*
X184280000Y-77270000D01*
X99320000Y-126630000D02*
X99310000Y-126640000D01*
X128520000Y-131430000D02*
X127510000Y-132440000D01*
X120600000Y-71740000D02*
X118500000Y-71740000D01*
X179500000Y-64150000D02*
X179500000Y-81920000D01*
X120600000Y-138830000D02*
X123050000Y-141280000D01*
X100000000Y-96300000D02*
X100000000Y-98900000D01*
X100000000Y-102500000D02*
X100100000Y-102600000D01*
X106700000Y-134200000D02*
X104100000Y-136800000D01*
X105900000Y-57410000D02*
X104760000Y-56270000D01*
X114920000Y-52630000D02*
X114920000Y-52330000D01*
X104700000Y-142200000D02*
X101000000Y-142200000D01*
X177105000Y-55215000D02*
X177105000Y-52305000D01*
X166020000Y-126130000D02*
X164790000Y-124900000D01*
X100000000Y-120400000D02*
X100000000Y-117800000D01*
X178700000Y-55950000D02*
X179645000Y-55005000D01*
X171520000Y-133230000D02*
X170520000Y-134230000D01*
X179500000Y-88590000D02*
X179500000Y-102150000D01*
X112300000Y-109600000D02*
X112300000Y-89400000D01*
X100000000Y-74800000D02*
X100000000Y-59600000D01*
X177860000Y-129170000D02*
X184100000Y-129170000D01*
X177120000Y-127530000D02*
X177100000Y-127510000D01*
X174700000Y-138710000D02*
X177920000Y-141930000D01*
X175500000Y-138310000D02*
X178220000Y-141030000D01*
X187000000Y-98770000D02*
X187000000Y-83570000D01*
X169220000Y-53830000D02*
X174700000Y-59310000D01*
X166945000Y-52755000D02*
X168020000Y-53830000D01*
X187000000Y-80970000D02*
X184100000Y-80970000D01*
X113900000Y-114200000D02*
X113900000Y-127400000D01*
D19*
X164650000Y-143250000D02*
X162360000Y-143250000D01*
D18*
X181900000Y-79420000D02*
X181900000Y-99510000D01*
X186720000Y-138130000D02*
X185520000Y-139330000D01*
X177740000Y-134250000D02*
X184100000Y-134250000D01*
X177900000Y-93690000D02*
X177900000Y-84510000D01*
X187000000Y-105070000D02*
X187000000Y-102470000D01*
X189520000Y-132330000D02*
X190140000Y-131710000D01*
X181100000Y-72190000D02*
X181100000Y-120630000D01*
X120600000Y-91940000D02*
X118500000Y-91940000D01*
X99000000Y-131720000D02*
X95300000Y-131720000D01*
X169485000Y-52795000D02*
X169485000Y-52305000D01*
X177900000Y-61710000D02*
X177900000Y-56010000D01*
X166200000Y-56580000D02*
X166200000Y-76880000D01*
X100000000Y-98900000D02*
X100000000Y-102500000D01*
X117460000Y-52690000D02*
X117460000Y-52330000D01*
X120600000Y-132440000D02*
X120600000Y-138830000D01*
X106700000Y-69800000D02*
X106700000Y-55950000D01*
X174700000Y-59310000D02*
X174700000Y-66720000D01*
X100720000Y-125520000D02*
X99300000Y-124100000D01*
X99320000Y-135520000D02*
X98060000Y-134260000D01*
X120600000Y-112140000D02*
X118500000Y-112140000D01*
X105100000Y-58210000D02*
X102220000Y-55330000D01*
X178700000Y-91190000D02*
X178700000Y-84520000D01*
D19*
X131065000Y-143260000D02*
X133355000Y-143260000D01*
D18*
X189700000Y-120270000D02*
X189700000Y-98770000D01*
X99020000Y-131700000D02*
X99000000Y-131720000D01*
X184280000Y-77270000D02*
X184180000Y-77370000D01*
X120720000Y-94530000D02*
X120600000Y-94410000D01*
X171520000Y-133230000D02*
X171500000Y-133210000D01*
X166200000Y-97080000D02*
X166200000Y-117280000D01*
X174700000Y-66720000D02*
X174700000Y-89620000D01*
X176300000Y-132810000D02*
X177740000Y-134250000D01*
X177120000Y-127530000D02*
X177120000Y-128430000D01*
X105900000Y-67300000D02*
X105900000Y-57410000D01*
X97300000Y-59600000D02*
X97300000Y-81100000D01*
X186420000Y-141930000D02*
X189520000Y-138830000D01*
D19*
X154345000Y-142105000D02*
X155490000Y-143250000D01*
D18*
X106700000Y-69800000D02*
X106700000Y-134200000D01*
X115500000Y-129900000D02*
X115500000Y-132800000D01*
X109900000Y-81800000D02*
X109900000Y-59000000D01*
D19*
X154345000Y-141270000D02*
X154345000Y-142105000D01*
D18*
X107500000Y-56500000D02*
X109840000Y-54160000D01*
X173900000Y-114250000D02*
X173900000Y-92050000D01*
X162900000Y-71820000D02*
X160780000Y-71820000D01*
X116300000Y-74600000D02*
X116300000Y-89500000D01*
X186200000Y-83530000D02*
X184080000Y-83530000D01*
X164790000Y-124900000D02*
X160780000Y-124900000D01*
X172300000Y-71910000D02*
X172300000Y-94050000D01*
X104400000Y-141600000D02*
X101300000Y-141600000D01*
X120600000Y-132440000D02*
X118500000Y-132440000D01*
X177900000Y-127410000D02*
X177900000Y-104650000D01*
X117720000Y-53930000D02*
X118820000Y-53930000D01*
X173920000Y-126530000D02*
X173900000Y-126510000D01*
X170620000Y-132530000D02*
X170700000Y-132450000D01*
X97300000Y-59600000D02*
X95300000Y-59600000D01*
X123900000Y-76700000D02*
X126120000Y-76700000D01*
X179500000Y-102150000D02*
X179500000Y-119830000D01*
X107300000Y-55350000D02*
X107300000Y-52330000D01*
X172300000Y-132410000D02*
X172300000Y-94050000D01*
X173900000Y-126510000D02*
X173900000Y-114250000D01*
X176300000Y-110090000D02*
X176300000Y-129950000D01*
D19*
X160070000Y-143250000D02*
X162360000Y-143250000D01*
D18*
X100000000Y-81100000D02*
X100000000Y-96300000D01*
X123900000Y-117200000D02*
X126120000Y-117200000D01*
X100800000Y-62140000D02*
X100800000Y-96340000D01*
X105900000Y-76700000D02*
X105900000Y-96900000D01*
X101300000Y-141600000D02*
X100020000Y-140320000D01*
X98450000Y-136800000D02*
X95300000Y-136800000D01*
X120000000Y-52750000D02*
X120000000Y-52330000D01*
X112300000Y-122300000D02*
X112300000Y-109600000D01*
X110700000Y-61600000D02*
X110700000Y-60950000D01*
X113900000Y-69200000D02*
X113900000Y-94000000D01*
X98200000Y-83600000D02*
X98200000Y-62100000D01*
X178700000Y-122610000D02*
X178700000Y-122410000D01*
X100020000Y-140320000D02*
X100020000Y-130420000D01*
X100000000Y-74800000D02*
X100000000Y-77400000D01*
X177100000Y-107420000D02*
X177100000Y-87020000D01*
X100800000Y-96340000D02*
X102920000Y-96340000D01*
X110700000Y-106800000D02*
X110700000Y-86900000D01*
X177900000Y-56010000D02*
X177105000Y-55215000D01*
X166020000Y-133530000D02*
X166020000Y-126130000D01*
X105100000Y-125700000D02*
X104160000Y-126640000D01*
X108300000Y-99500000D02*
X108300000Y-137700000D01*
X170520000Y-134230000D02*
X166720000Y-134230000D01*
X166200000Y-76880000D02*
X166200000Y-97080000D01*
X177100000Y-64220000D02*
X177100000Y-59110000D01*
X99320000Y-140520000D02*
X99320000Y-135520000D01*
X123890000Y-56490000D02*
X123900000Y-56500000D01*
X180300000Y-86090000D02*
X180300000Y-120430000D01*
X177900000Y-84510000D02*
X177900000Y-61710000D01*
X189720000Y-126630000D02*
X191720000Y-126630000D01*
X178700000Y-84520000D02*
X178700000Y-61620000D01*
X112300000Y-86900000D02*
X112300000Y-64200000D01*
X178700000Y-91190000D02*
X178700000Y-113920000D01*
X100000000Y-102500000D02*
X100000000Y-117800000D01*
X98520000Y-136730000D02*
X98450000Y-136800000D01*
X187000000Y-77370000D02*
X187000000Y-62070000D01*
X122520000Y-94530000D02*
X120720000Y-94530000D01*
X113100000Y-130100000D02*
X113100000Y-124800000D01*
X123900000Y-76700000D02*
X123900000Y-96900000D01*
X128520000Y-97230000D02*
X128520000Y-131430000D01*
X109900000Y-129100000D02*
X109900000Y-104500000D01*
X168400000Y-56580000D02*
X166200000Y-56580000D01*
X187900000Y-80970000D02*
X187900000Y-59470000D01*
X180180000Y-124090000D02*
X178700000Y-122610000D01*
X105900000Y-67300000D02*
X105900000Y-76700000D01*
X172025000Y-53235000D02*
X172025000Y-52305000D01*
X109100000Y-58450000D02*
X114920000Y-52630000D01*
X175500000Y-58310000D02*
X170820000Y-53630000D01*
X104180000Y-131720000D02*
X102920000Y-131720000D01*
X113900000Y-127400000D02*
X113900000Y-131000000D01*
X108300000Y-137700000D02*
X104400000Y-141600000D01*
X107500000Y-117200000D02*
X107500000Y-137600000D01*
X182185000Y-54065000D02*
X182185000Y-52305000D01*
X186980000Y-59490000D02*
X184080000Y-59490000D01*
X177900000Y-104650000D02*
X177900000Y-93690000D01*
X116300000Y-89500000D02*
X116300000Y-133700000D01*
X174565000Y-54175000D02*
X174565000Y-52305000D01*
X175500000Y-112690000D02*
X175500000Y-58310000D01*
X190140000Y-131710000D02*
X191720000Y-131710000D01*
X123900000Y-56500000D02*
X123900000Y-76700000D01*
X99100000Y-98900000D02*
X99100000Y-77400000D01*
X178700000Y-61620000D02*
X178700000Y-55950000D01*
X189700000Y-77270000D02*
X189700000Y-98770000D01*
X123900000Y-96900000D02*
X123900000Y-117200000D01*
X105900000Y-130000000D02*
X104180000Y-131720000D01*
X107500000Y-72300000D02*
X107500000Y-117200000D01*
X176300000Y-57510000D02*
X172025000Y-53235000D01*
X179645000Y-55005000D02*
X179645000Y-52305000D01*
X116220000Y-53930000D02*
X117460000Y-52690000D01*
X111500000Y-129100000D02*
X111500000Y-119700000D01*
X109100000Y-102000000D02*
X109100000Y-137800000D01*
X175500000Y-112690000D02*
X175500000Y-138310000D01*
X107500000Y-56500000D02*
X107550000Y-56500000D01*
X97300000Y-102600000D02*
X97300000Y-81100000D01*
X109900000Y-84300000D02*
X109900000Y-81800000D01*
X110650000Y-59000000D02*
X115720000Y-53930000D01*
X187000000Y-59470000D02*
X186980000Y-59490000D01*
X114700000Y-95000000D02*
X114700000Y-115200000D01*
X174700000Y-109820000D02*
X174700000Y-115190000D01*
X170320000Y-53630000D02*
X169485000Y-52795000D01*
X114700000Y-115200000D02*
X114700000Y-131900000D01*
X155235000Y-146630000D02*
X156635000Y-145230000D01*
X186720000Y-122230000D02*
X187900000Y-121050000D01*
X113900000Y-94000000D02*
X113900000Y-114200000D01*
X98200000Y-83600000D02*
X98200000Y-105100000D01*
X104100000Y-141000000D02*
X101600000Y-141000000D01*
X184100000Y-124090000D02*
X180180000Y-124090000D01*
X109900000Y-104500000D02*
X109900000Y-84300000D01*
X102920000Y-62140000D02*
X100800000Y-62140000D01*
X98060000Y-134260000D02*
X95300000Y-134260000D01*
X181900000Y-66740000D02*
X181900000Y-69690000D01*
X100800000Y-48900000D02*
X130300000Y-48900000D01*
X132210000Y-141280000D02*
X132210000Y-139610000D01*
X99200000Y-50500000D02*
X100800000Y-48900000D01*
X131300000Y-138700000D02*
X131300000Y-102000000D01*
X135600000Y-56400000D02*
X139605000Y-52395000D01*
X135600000Y-97700000D02*
X135600000Y-56400000D01*
X139605000Y-52395000D02*
X139605000Y-52305000D01*
X132210000Y-139610000D02*
X131300000Y-138700000D01*
X131985000Y-50615000D02*
X131985000Y-52305000D01*
X131300000Y-102000000D02*
X135600000Y-97700000D01*
X132000000Y-50600000D02*
X131985000Y-50615000D01*
X130300000Y-48900000D02*
X132000000Y-50600000D01*
X98200000Y-59150000D02*
X99200000Y-58150000D01*
X99200000Y-58150000D02*
X99200000Y-50500000D01*
X134525000Y-54275000D02*
X134525000Y-52305000D01*
X127630000Y-139970000D02*
X129500000Y-138100000D01*
X127630000Y-141280000D02*
X127630000Y-139970000D01*
X133800000Y-96800000D02*
X133800000Y-55000000D01*
X129500000Y-101100000D02*
X133800000Y-96800000D01*
X129500000Y-138100000D02*
X129500000Y-101100000D01*
X133800000Y-55000000D02*
X134525000Y-54275000D01*
X99100000Y-77400000D02*
X99100000Y-59550000D01*
X121800000Y-51400000D02*
X121800000Y-53100000D01*
X101020000Y-50030000D02*
X120430000Y-50030000D01*
X120430000Y-50030000D02*
X121800000Y-51400000D01*
X100220000Y-50830000D02*
X101020000Y-50030000D01*
X100220000Y-58430000D02*
X100220000Y-50830000D01*
X120600000Y-54300000D02*
X120600000Y-71740000D01*
X99100000Y-59550000D02*
X100220000Y-58430000D01*
X142145000Y-52355000D02*
X142145000Y-52305000D01*
X139900000Y-54000000D02*
X140500000Y-54000000D01*
X136500000Y-57400000D02*
X139900000Y-54000000D01*
X140500000Y-54000000D02*
X142145000Y-52355000D01*
X136500000Y-96400000D02*
X136500000Y-57400000D01*
X136800000Y-96700000D02*
X136500000Y-96400000D01*
X98200000Y-62100000D02*
X98200000Y-59150000D01*
X137065000Y-53135000D02*
X137065000Y-52305000D01*
X129920000Y-139580000D02*
X130400000Y-139100000D01*
X129920000Y-141280000D02*
X129920000Y-139580000D01*
X130400000Y-139100000D02*
X130400000Y-101500000D01*
X134700000Y-97200000D02*
X134700000Y-55500000D01*
X134700000Y-55500000D02*
X137065000Y-53135000D01*
X130400000Y-101500000D02*
X134700000Y-97200000D01*
X123100000Y-50300000D02*
X123100000Y-53300000D01*
X127300000Y-54400000D02*
X128520000Y-55620000D01*
X124200000Y-54400000D02*
X127300000Y-54400000D01*
X128520000Y-55620000D02*
X128520000Y-97230000D01*
X123100000Y-53300000D02*
X124200000Y-54400000D01*
X122700000Y-49900000D02*
X123100000Y-50300000D01*
X121800000Y-49900000D02*
X122700000Y-49900000D01*
X121800000Y-53100000D02*
X121800000Y-53000000D01*
X158900000Y-54100000D02*
X164100000Y-48900000D01*
X144400000Y-147500000D02*
X144470000Y-147430000D01*
X144470000Y-147430000D02*
X156725000Y-147430000D01*
X129020000Y-146630000D02*
X127630000Y-145240000D01*
X156725000Y-147430000D02*
X158925000Y-145230000D01*
X142600000Y-146600000D02*
X142570000Y-146630000D01*
X187000000Y-59470000D02*
X187000000Y-51800000D01*
X164300000Y-50000000D02*
X162900000Y-51400000D01*
X188800000Y-57000000D02*
X188800000Y-74770000D01*
X162900000Y-51400000D02*
X162900000Y-71820000D01*
X185200000Y-50000000D02*
X164300000Y-50000000D01*
X187000000Y-51800000D02*
X185200000Y-50000000D01*
X143170000Y-147430000D02*
X143970000Y-146630000D01*
X127530000Y-147430000D02*
X143170000Y-147430000D01*
X125340000Y-145240000D02*
X127530000Y-147430000D01*
X153630000Y-146630000D02*
X155235000Y-146630000D01*
X142570000Y-146630000D02*
X134670000Y-146630000D01*
X134670000Y-146630000D02*
X129020000Y-146630000D01*
X185400000Y-48900000D02*
X187700000Y-51200000D01*
X164100000Y-48900000D02*
X185400000Y-48900000D01*
X189700000Y-56300000D02*
X189700000Y-77270000D01*
X187700000Y-51200000D02*
X187700000Y-54300000D01*
X158900000Y-54500000D02*
X158900000Y-54100000D01*
X187700000Y-54300000D02*
X189700000Y-56300000D01*
X188700000Y-56900000D02*
X188800000Y-57000000D01*
X121800000Y-53100000D02*
X121200000Y-53700000D01*
X121200000Y-53700000D02*
X120600000Y-54300000D01*
X139520000Y-63130000D02*
X139820000Y-62830000D01*
%TD*%
M02*
