%TF.GenerationSoftware,KiCad,Pcbnew,(6.0.5)*%
%TF.CreationDate,2023-01-07T10:16:58+02:00*%
%TF.ProjectId,VIDEOCARD_SCREENSYNC2.0,56494445-4f43-4415-9244-5f5343524545,rev?*%
%TF.SameCoordinates,Original*%
%TF.FileFunction,Copper,L1,Top*%
%TF.FilePolarity,Positive*%
%FSLAX46Y46*%
G04 Gerber Fmt 4.6, Leading zero omitted, Abs format (unit mm)*
G04 Created by KiCad (PCBNEW (6.0.5)) date 2023-01-07 10:16:58*
%MOMM*%
%LPD*%
G01*
G04 APERTURE LIST*
%TA.AperFunction,ComponentPad*%
%ADD10R,1.700000X1.700000*%
%TD*%
%TA.AperFunction,ComponentPad*%
%ADD11O,1.700000X1.700000*%
%TD*%
%TA.AperFunction,ComponentPad*%
%ADD12R,2.400000X1.600000*%
%TD*%
%TA.AperFunction,ComponentPad*%
%ADD13O,2.400000X1.600000*%
%TD*%
%TA.AperFunction,ComponentPad*%
%ADD14C,4.000000*%
%TD*%
%TA.AperFunction,ComponentPad*%
%ADD15R,1.600000X1.600000*%
%TD*%
%TA.AperFunction,ComponentPad*%
%ADD16C,1.600000*%
%TD*%
%TA.AperFunction,ViaPad*%
%ADD17C,0.800000*%
%TD*%
%TA.AperFunction,Conductor*%
%ADD18C,0.400000*%
%TD*%
%TA.AperFunction,Conductor*%
%ADD19C,0.500000*%
%TD*%
%TA.AperFunction,Conductor*%
%ADD20C,0.150000*%
%TD*%
%TA.AperFunction,Conductor*%
%ADD21C,0.300000*%
%TD*%
G04 APERTURE END LIST*
D10*
%TO.P,REF\u002A\u002A,1*%
%TO.N,N/C*%
X179725000Y-144600000D03*
D11*
%TO.P,REF\u002A\u002A,2*%
X182265000Y-144600000D03*
%TD*%
D12*
%TO.P,74LS161,1*%
%TO.N,N/C*%
X191700000Y-77270000D03*
D13*
%TO.P,74LS161,2*%
X191700000Y-74730000D03*
%TO.P,74LS161,3*%
X191700000Y-72190000D03*
%TO.P,74LS161,4*%
X191700000Y-69650000D03*
%TO.P,74LS161,5*%
X191700000Y-67110000D03*
%TO.P,74LS161,6*%
X191700000Y-64570000D03*
%TO.P,74LS161,7*%
X191700000Y-62030000D03*
%TO.P,74LS161,8*%
X191700000Y-59490000D03*
%TO.P,74LS161,9*%
X184080000Y-59490000D03*
%TO.P,74LS161,10*%
X184080000Y-62030000D03*
%TO.P,74LS161,11*%
X184080000Y-64570000D03*
%TO.P,74LS161,12*%
X184080000Y-67110000D03*
%TO.P,74LS161,13*%
X184080000Y-69650000D03*
%TO.P,74LS161,14*%
X184080000Y-72190000D03*
%TO.P,74LS161,15*%
X184080000Y-74730000D03*
%TO.P,74LS161,16*%
X184080000Y-77270000D03*
%TD*%
D12*
%TO.P,74LS161,1*%
%TO.N,N/C*%
X95300000Y-102600000D03*
D13*
%TO.P,74LS161,2*%
X95300000Y-105140000D03*
%TO.P,74LS161,3*%
X95300000Y-107680000D03*
%TO.P,74LS161,4*%
X95300000Y-110220000D03*
%TO.P,74LS161,5*%
X95300000Y-112760000D03*
%TO.P,74LS161,6*%
X95300000Y-115300000D03*
%TO.P,74LS161,7*%
X95300000Y-117840000D03*
%TO.P,74LS161,8*%
X95300000Y-120380000D03*
%TO.P,74LS161,9*%
X102920000Y-120380000D03*
%TO.P,74LS161,10*%
X102920000Y-117840000D03*
%TO.P,74LS161,11*%
X102920000Y-115300000D03*
%TO.P,74LS161,12*%
X102920000Y-112760000D03*
%TO.P,74LS161,13*%
X102920000Y-110220000D03*
%TO.P,74LS161,14*%
X102920000Y-107680000D03*
%TO.P,74LS161,15*%
X102920000Y-105140000D03*
%TO.P,74LS161,16*%
X102920000Y-102600000D03*
%TD*%
D10*
%TO.P,REF\u002A\u002A,1*%
%TO.N,N/C*%
X129445000Y-52305000D03*
D11*
%TO.P,REF\u002A\u002A,2*%
X131985000Y-52305000D03*
%TO.P,REF\u002A\u002A,3*%
X134525000Y-52305000D03*
%TO.P,REF\u002A\u002A,4*%
X137065000Y-52305000D03*
%TO.P,REF\u002A\u002A,5*%
X139605000Y-52305000D03*
%TO.P,REF\u002A\u002A,6*%
X142145000Y-52305000D03*
%TO.P,REF\u002A\u002A,7*%
X144685000Y-52305000D03*
%TO.P,REF\u002A\u002A,8*%
X147225000Y-52305000D03*
%TO.P,REF\u002A\u002A,9*%
X149765000Y-52305000D03*
%TO.P,REF\u002A\u002A,10*%
X152305000Y-52305000D03*
%TO.P,REF\u002A\u002A,11*%
X154845000Y-52305000D03*
%TO.P,REF\u002A\u002A,12*%
X157385000Y-52305000D03*
%TD*%
D12*
%TO.P,74LS30,1*%
%TO.N,N/C*%
X168400000Y-71820000D03*
D13*
%TO.P,74LS30,2*%
X168400000Y-69280000D03*
%TO.P,74LS30,3*%
X168400000Y-66740000D03*
%TO.P,74LS30,4*%
X168400000Y-64200000D03*
%TO.P,74LS30,5*%
X168400000Y-61660000D03*
%TO.P,74LS30,6*%
X168400000Y-59120000D03*
%TO.P,74LS30,7*%
X168400000Y-56580000D03*
%TO.P,74LS30,8*%
X160780000Y-56580000D03*
%TO.P,74LS30,9*%
X160780000Y-59120000D03*
%TO.P,74LS30,10*%
X160780000Y-61660000D03*
%TO.P,74LS30,11*%
X160780000Y-64200000D03*
%TO.P,74LS30,12*%
X160780000Y-66740000D03*
%TO.P,74LS30,13*%
X160780000Y-69280000D03*
%TO.P,74LS30,14*%
X160780000Y-71820000D03*
%TD*%
D12*
%TO.P,74LS30,1*%
%TO.N,N/C*%
X168400000Y-132520000D03*
D13*
%TO.P,74LS30,2*%
X168400000Y-129980000D03*
%TO.P,74LS30,3*%
X168400000Y-127440000D03*
%TO.P,74LS30,4*%
X168400000Y-124900000D03*
%TO.P,74LS30,5*%
X168400000Y-122360000D03*
%TO.P,74LS30,6*%
X168400000Y-119820000D03*
%TO.P,74LS30,7*%
X168400000Y-117280000D03*
%TO.P,74LS30,8*%
X160780000Y-117280000D03*
%TO.P,74LS30,9*%
X160780000Y-119820000D03*
%TO.P,74LS30,10*%
X160780000Y-122360000D03*
%TO.P,74LS30,11*%
X160780000Y-124900000D03*
%TO.P,74LS30,12*%
X160780000Y-127440000D03*
%TO.P,74LS30,13*%
X160780000Y-129980000D03*
%TO.P,74LS30,14*%
X160780000Y-132520000D03*
%TD*%
D10*
%TO.P,REF\u002A\u002A,1*%
%TO.N,N/C*%
X166945000Y-52305000D03*
D11*
%TO.P,REF\u002A\u002A,2*%
X169485000Y-52305000D03*
%TO.P,REF\u002A\u002A,3*%
X172025000Y-52305000D03*
%TO.P,REF\u002A\u002A,4*%
X174565000Y-52305000D03*
%TO.P,REF\u002A\u002A,5*%
X177105000Y-52305000D03*
%TO.P,REF\u002A\u002A,6*%
X179645000Y-52305000D03*
%TO.P,REF\u002A\u002A,7*%
X182185000Y-52305000D03*
%TO.P,REF\u002A\u002A,8*%
X184725000Y-52305000D03*
%TD*%
D12*
%TO.P,74LS00,1*%
%TO.N,N/C*%
X148220000Y-79405000D03*
D13*
%TO.P,74LS00,2*%
X148220000Y-81945000D03*
%TO.P,74LS00,3*%
X148220000Y-84485000D03*
%TO.P,74LS00,4*%
X148220000Y-87025000D03*
%TO.P,74LS00,5*%
X148220000Y-89565000D03*
%TO.P,74LS00,6*%
X148220000Y-92105000D03*
%TO.P,74LS00,7*%
X148220000Y-94645000D03*
%TO.P,74LS00,8*%
X155840000Y-94645000D03*
%TO.P,74LS00,9*%
X155840000Y-92105000D03*
%TO.P,74LS00,10*%
X155840000Y-89565000D03*
%TO.P,74LS00,11*%
X155840000Y-87025000D03*
%TO.P,74LS00,12*%
X155840000Y-84485000D03*
%TO.P,74LS00,13*%
X155840000Y-81945000D03*
%TO.P,74LS00,14*%
X155840000Y-79405000D03*
%TD*%
D12*
%TO.P,74LS30,1*%
%TO.N,N/C*%
X118500000Y-56500000D03*
D13*
%TO.P,74LS30,2*%
X118500000Y-59040000D03*
%TO.P,74LS30,3*%
X118500000Y-61580000D03*
%TO.P,74LS30,4*%
X118500000Y-64120000D03*
%TO.P,74LS30,5*%
X118500000Y-66660000D03*
%TO.P,74LS30,6*%
X118500000Y-69200000D03*
%TO.P,74LS30,7*%
X118500000Y-71740000D03*
%TO.P,74LS30,8*%
X126120000Y-71740000D03*
%TO.P,74LS30,9*%
X126120000Y-69200000D03*
%TO.P,74LS30,10*%
X126120000Y-66660000D03*
%TO.P,74LS30,11*%
X126120000Y-64120000D03*
%TO.P,74LS30,12*%
X126120000Y-61580000D03*
%TO.P,74LS30,13*%
X126120000Y-59040000D03*
%TO.P,74LS30,14*%
X126120000Y-56500000D03*
%TD*%
D12*
%TO.P,74LS00,1*%
%TO.N,N/C*%
X130920000Y-79330000D03*
D13*
%TO.P,74LS00,2*%
X130920000Y-81870000D03*
%TO.P,74LS00,3*%
X130920000Y-84410000D03*
%TO.P,74LS00,4*%
X130920000Y-86950000D03*
%TO.P,74LS00,5*%
X130920000Y-89490000D03*
%TO.P,74LS00,6*%
X130920000Y-92030000D03*
%TO.P,74LS00,7*%
X130920000Y-94570000D03*
%TO.P,74LS00,8*%
X138540000Y-94570000D03*
%TO.P,74LS00,9*%
X138540000Y-92030000D03*
%TO.P,74LS00,10*%
X138540000Y-89490000D03*
%TO.P,74LS00,11*%
X138540000Y-86950000D03*
%TO.P,74LS00,12*%
X138540000Y-84410000D03*
%TO.P,74LS00,13*%
X138540000Y-81870000D03*
%TO.P,74LS00,14*%
X138540000Y-79330000D03*
%TD*%
D12*
%TO.P,74LS161,1*%
%TO.N,N/C*%
X191700000Y-98770000D03*
D13*
%TO.P,74LS161,2*%
X191700000Y-96230000D03*
%TO.P,74LS161,3*%
X191700000Y-93690000D03*
%TO.P,74LS161,4*%
X191700000Y-91150000D03*
%TO.P,74LS161,5*%
X191700000Y-88610000D03*
%TO.P,74LS161,6*%
X191700000Y-86070000D03*
%TO.P,74LS161,7*%
X191700000Y-83530000D03*
%TO.P,74LS161,8*%
X191700000Y-80990000D03*
%TO.P,74LS161,9*%
X184080000Y-80990000D03*
%TO.P,74LS161,10*%
X184080000Y-83530000D03*
%TO.P,74LS161,11*%
X184080000Y-86070000D03*
%TO.P,74LS161,12*%
X184080000Y-88610000D03*
%TO.P,74LS161,13*%
X184080000Y-91150000D03*
%TO.P,74LS161,14*%
X184080000Y-93690000D03*
%TO.P,74LS161,15*%
X184080000Y-96230000D03*
%TO.P,74LS161,16*%
X184080000Y-98770000D03*
%TD*%
D12*
%TO.P,74LS161,1*%
%TO.N,N/C*%
X191700000Y-120270000D03*
D13*
%TO.P,74LS161,2*%
X191700000Y-117730000D03*
%TO.P,74LS161,3*%
X191700000Y-115190000D03*
%TO.P,74LS161,4*%
X191700000Y-112650000D03*
%TO.P,74LS161,5*%
X191700000Y-110110000D03*
%TO.P,74LS161,6*%
X191700000Y-107570000D03*
%TO.P,74LS161,7*%
X191700000Y-105030000D03*
%TO.P,74LS161,8*%
X191700000Y-102490000D03*
%TO.P,74LS161,9*%
X184080000Y-102490000D03*
%TO.P,74LS161,10*%
X184080000Y-105030000D03*
%TO.P,74LS161,11*%
X184080000Y-107570000D03*
%TO.P,74LS161,12*%
X184080000Y-110110000D03*
%TO.P,74LS161,13*%
X184080000Y-112650000D03*
%TO.P,74LS161,14*%
X184080000Y-115190000D03*
%TO.P,74LS161,15*%
X184080000Y-117730000D03*
%TO.P,74LS161,16*%
X184080000Y-120270000D03*
%TD*%
D12*
%TO.P,74LS04,1*%
%TO.N,N/C*%
X95300000Y-124100000D03*
D13*
%TO.P,74LS04,2*%
X95300000Y-126640000D03*
%TO.P,74LS04,3*%
X95300000Y-129180000D03*
%TO.P,74LS04,4*%
X95300000Y-131720000D03*
%TO.P,74LS04,5*%
X95300000Y-134260000D03*
%TO.P,74LS04,6*%
X95300000Y-136800000D03*
%TO.P,74LS04,7*%
X95300000Y-139340000D03*
%TO.P,74LS04,8*%
X102920000Y-139340000D03*
%TO.P,74LS04,9*%
X102920000Y-136800000D03*
%TO.P,74LS04,10*%
X102920000Y-134260000D03*
%TO.P,74LS04,11*%
X102920000Y-131720000D03*
%TO.P,74LS04,12*%
X102920000Y-129180000D03*
%TO.P,74LS04,13*%
X102920000Y-126640000D03*
%TO.P,74LS04,14*%
X102920000Y-124100000D03*
%TD*%
D14*
%TO.P,VGA PORT 1,0*%
%TO.N,N/C*%
X115395000Y-143330000D03*
X140395000Y-143330000D03*
D15*
%TO.P,VGA PORT 1,1*%
X132210000Y-141280000D03*
D16*
%TO.P,VGA PORT 1,2*%
X129920000Y-141280000D03*
%TO.P,VGA PORT 1,3*%
X127630000Y-141280000D03*
%TO.P,VGA PORT 1,4*%
X125340000Y-141280000D03*
%TO.P,VGA PORT 1,5*%
X123050000Y-141280000D03*
%TO.P,VGA PORT 1,6*%
X133355000Y-143260000D03*
%TO.P,VGA PORT 1,7*%
X131065000Y-143260000D03*
%TO.P,VGA PORT 1,8*%
X128775000Y-143260000D03*
%TO.P,VGA PORT 1,9*%
X126485000Y-143260000D03*
%TO.P,VGA PORT 1,10*%
X124195000Y-143260000D03*
%TO.P,VGA PORT 1,11*%
X132210000Y-145240000D03*
%TO.P,VGA PORT 1,12*%
X129920000Y-145240000D03*
%TO.P,VGA PORT 1,13*%
X127630000Y-145240000D03*
%TO.P,VGA PORT 1,14*%
X125340000Y-145240000D03*
%TO.P,VGA PORT 1,15*%
X123050000Y-145240000D03*
%TD*%
D12*
%TO.P,74LS30,1*%
%TO.N,N/C*%
X168400000Y-92120000D03*
D13*
%TO.P,74LS30,2*%
X168400000Y-89580000D03*
%TO.P,74LS30,3*%
X168400000Y-87040000D03*
%TO.P,74LS30,4*%
X168400000Y-84500000D03*
%TO.P,74LS30,5*%
X168400000Y-81960000D03*
%TO.P,74LS30,6*%
X168400000Y-79420000D03*
%TO.P,74LS30,7*%
X168400000Y-76880000D03*
%TO.P,74LS30,8*%
X160780000Y-76880000D03*
%TO.P,74LS30,9*%
X160780000Y-79420000D03*
%TO.P,74LS30,10*%
X160780000Y-81960000D03*
%TO.P,74LS30,11*%
X160780000Y-84500000D03*
%TO.P,74LS30,12*%
X160780000Y-87040000D03*
%TO.P,74LS30,13*%
X160780000Y-89580000D03*
%TO.P,74LS30,14*%
X160780000Y-92120000D03*
%TD*%
D12*
%TO.P,74LS04,1*%
%TO.N,N/C*%
X184100000Y-124090000D03*
D13*
%TO.P,74LS04,2*%
X184100000Y-126630000D03*
%TO.P,74LS04,3*%
X184100000Y-129170000D03*
%TO.P,74LS04,4*%
X184100000Y-131710000D03*
%TO.P,74LS04,5*%
X184100000Y-134250000D03*
%TO.P,74LS04,6*%
X184100000Y-136790000D03*
%TO.P,74LS04,7*%
X184100000Y-139330000D03*
%TO.P,74LS04,8*%
X191720000Y-139330000D03*
%TO.P,74LS04,9*%
X191720000Y-136790000D03*
%TO.P,74LS04,10*%
X191720000Y-134250000D03*
%TO.P,74LS04,11*%
X191720000Y-131710000D03*
%TO.P,74LS04,12*%
X191720000Y-129170000D03*
%TO.P,74LS04,13*%
X191720000Y-126630000D03*
%TO.P,74LS04,14*%
X191720000Y-124090000D03*
%TD*%
D10*
%TO.P,REF\u002A\u002A,1*%
%TO.N,N/C*%
X102220000Y-52330000D03*
D11*
%TO.P,REF\u002A\u002A,2*%
X104760000Y-52330000D03*
%TO.P,REF\u002A\u002A,3*%
X107300000Y-52330000D03*
%TO.P,REF\u002A\u002A,4*%
X109840000Y-52330000D03*
%TO.P,REF\u002A\u002A,5*%
X112380000Y-52330000D03*
%TO.P,REF\u002A\u002A,6*%
X114920000Y-52330000D03*
%TO.P,REF\u002A\u002A,7*%
X117460000Y-52330000D03*
%TO.P,REF\u002A\u002A,8*%
X120000000Y-52330000D03*
%TD*%
D12*
%TO.P,74LS161,1*%
%TO.N,N/C*%
X95300000Y-59600000D03*
D13*
%TO.P,74LS161,2*%
X95300000Y-62140000D03*
%TO.P,74LS161,3*%
X95300000Y-64680000D03*
%TO.P,74LS161,4*%
X95300000Y-67220000D03*
%TO.P,74LS161,5*%
X95300000Y-69760000D03*
%TO.P,74LS161,6*%
X95300000Y-72300000D03*
%TO.P,74LS161,7*%
X95300000Y-74840000D03*
%TO.P,74LS161,8*%
X95300000Y-77380000D03*
%TO.P,74LS161,9*%
X102920000Y-77380000D03*
%TO.P,74LS161,10*%
X102920000Y-74840000D03*
%TO.P,74LS161,11*%
X102920000Y-72300000D03*
%TO.P,74LS161,12*%
X102920000Y-69760000D03*
%TO.P,74LS161,13*%
X102920000Y-67220000D03*
%TO.P,74LS161,14*%
X102920000Y-64680000D03*
%TO.P,74LS161,15*%
X102920000Y-62140000D03*
%TO.P,74LS161,16*%
X102920000Y-59600000D03*
%TD*%
D14*
%TO.P,VGA PORT 2,0*%
%TO.N,N/C*%
X146690000Y-143320000D03*
X171690000Y-143320000D03*
D15*
%TO.P,VGA PORT 2,1*%
X163505000Y-141270000D03*
D16*
%TO.P,VGA PORT 2,2*%
X161215000Y-141270000D03*
%TO.P,VGA PORT 2,3*%
X158925000Y-141270000D03*
%TO.P,VGA PORT 2,4*%
X156635000Y-141270000D03*
%TO.P,VGA PORT 2,5*%
X154345000Y-141270000D03*
%TO.P,VGA PORT 2,6*%
X164650000Y-143250000D03*
%TO.P,VGA PORT 2,7*%
X162360000Y-143250000D03*
%TO.P,VGA PORT 2,8*%
X160070000Y-143250000D03*
%TO.P,VGA PORT 2,9*%
X157780000Y-143250000D03*
%TO.P,VGA PORT 2,10*%
X155490000Y-143250000D03*
%TO.P,VGA PORT 2,11*%
X163505000Y-145230000D03*
%TO.P,VGA PORT 2,12*%
X161215000Y-145230000D03*
%TO.P,VGA PORT 2,13*%
X158925000Y-145230000D03*
%TO.P,VGA PORT 2,14*%
X156635000Y-145230000D03*
%TO.P,VGA PORT 2,15*%
X154345000Y-145230000D03*
%TD*%
D12*
%TO.P,74LS30,1*%
%TO.N,N/C*%
X118500000Y-96900000D03*
D13*
%TO.P,74LS30,2*%
X118500000Y-99440000D03*
%TO.P,74LS30,3*%
X118500000Y-101980000D03*
%TO.P,74LS30,4*%
X118500000Y-104520000D03*
%TO.P,74LS30,5*%
X118500000Y-107060000D03*
%TO.P,74LS30,6*%
X118500000Y-109600000D03*
%TO.P,74LS30,7*%
X118500000Y-112140000D03*
%TO.P,74LS30,8*%
X126120000Y-112140000D03*
%TO.P,74LS30,9*%
X126120000Y-109600000D03*
%TO.P,74LS30,10*%
X126120000Y-107060000D03*
%TO.P,74LS30,11*%
X126120000Y-104520000D03*
%TO.P,74LS30,12*%
X126120000Y-101980000D03*
%TO.P,74LS30,13*%
X126120000Y-99440000D03*
%TO.P,74LS30,14*%
X126120000Y-96900000D03*
%TD*%
D12*
%TO.P,74LS30,1*%
%TO.N,N/C*%
X118500000Y-76700000D03*
D13*
%TO.P,74LS30,2*%
X118500000Y-79240000D03*
%TO.P,74LS30,3*%
X118500000Y-81780000D03*
%TO.P,74LS30,4*%
X118500000Y-84320000D03*
%TO.P,74LS30,5*%
X118500000Y-86860000D03*
%TO.P,74LS30,6*%
X118500000Y-89400000D03*
%TO.P,74LS30,7*%
X118500000Y-91940000D03*
%TO.P,74LS30,8*%
X126120000Y-91940000D03*
%TO.P,74LS30,9*%
X126120000Y-89400000D03*
%TO.P,74LS30,10*%
X126120000Y-86860000D03*
%TO.P,74LS30,11*%
X126120000Y-84320000D03*
%TO.P,74LS30,12*%
X126120000Y-81780000D03*
%TO.P,74LS30,13*%
X126120000Y-79240000D03*
%TO.P,74LS30,14*%
X126120000Y-76700000D03*
%TD*%
D12*
%TO.P,74LS30,1*%
%TO.N,N/C*%
X168400000Y-112320000D03*
D13*
%TO.P,74LS30,2*%
X168400000Y-109780000D03*
%TO.P,74LS30,3*%
X168400000Y-107240000D03*
%TO.P,74LS30,4*%
X168400000Y-104700000D03*
%TO.P,74LS30,5*%
X168400000Y-102160000D03*
%TO.P,74LS30,6*%
X168400000Y-99620000D03*
%TO.P,74LS30,7*%
X168400000Y-97080000D03*
%TO.P,74LS30,8*%
X160780000Y-97080000D03*
%TO.P,74LS30,9*%
X160780000Y-99620000D03*
%TO.P,74LS30,10*%
X160780000Y-102160000D03*
%TO.P,74LS30,11*%
X160780000Y-104700000D03*
%TO.P,74LS30,12*%
X160780000Y-107240000D03*
%TO.P,74LS30,13*%
X160780000Y-109780000D03*
%TO.P,74LS30,14*%
X160780000Y-112320000D03*
%TD*%
D12*
%TO.P,74LS30,1*%
%TO.N,N/C*%
X118500000Y-117200000D03*
D13*
%TO.P,74LS30,2*%
X118500000Y-119740000D03*
%TO.P,74LS30,3*%
X118500000Y-122280000D03*
%TO.P,74LS30,4*%
X118500000Y-124820000D03*
%TO.P,74LS30,5*%
X118500000Y-127360000D03*
%TO.P,74LS30,6*%
X118500000Y-129900000D03*
%TO.P,74LS30,7*%
X118500000Y-132440000D03*
%TO.P,74LS30,8*%
X126120000Y-132440000D03*
%TO.P,74LS30,9*%
X126120000Y-129900000D03*
%TO.P,74LS30,10*%
X126120000Y-127360000D03*
%TO.P,74LS30,11*%
X126120000Y-124820000D03*
%TO.P,74LS30,12*%
X126120000Y-122280000D03*
%TO.P,74LS30,13*%
X126120000Y-119740000D03*
%TO.P,74LS30,14*%
X126120000Y-117200000D03*
%TD*%
D12*
%TO.P,74LS161,1*%
%TO.N,N/C*%
X95300000Y-81100000D03*
D13*
%TO.P,74LS161,2*%
X95300000Y-83640000D03*
%TO.P,74LS161,3*%
X95300000Y-86180000D03*
%TO.P,74LS161,4*%
X95300000Y-88720000D03*
%TO.P,74LS161,5*%
X95300000Y-91260000D03*
%TO.P,74LS161,6*%
X95300000Y-93800000D03*
%TO.P,74LS161,7*%
X95300000Y-96340000D03*
%TO.P,74LS161,8*%
X95300000Y-98880000D03*
%TO.P,74LS161,9*%
X102920000Y-98880000D03*
%TO.P,74LS161,10*%
X102920000Y-96340000D03*
%TO.P,74LS161,11*%
X102920000Y-93800000D03*
%TO.P,74LS161,12*%
X102920000Y-91260000D03*
%TO.P,74LS161,13*%
X102920000Y-88720000D03*
%TO.P,74LS161,14*%
X102920000Y-86180000D03*
%TO.P,74LS161,15*%
X102920000Y-83640000D03*
%TO.P,74LS161,16*%
X102920000Y-81100000D03*
%TD*%
D16*
%TO.P,,3*%
%TO.N,N/C*%
X147120000Y-63130000D03*
%TD*%
%TO.P,,4*%
%TO.N,N/C*%
X147120000Y-70730000D03*
%TD*%
%TO.P,,2*%
%TO.N,N/C*%
X139520000Y-63130000D03*
%TD*%
%TO.P,,1*%
%TO.N,N/C*%
X139520000Y-70730000D03*
%TD*%
D17*
%TO.N,*%
X158900000Y-54500000D03*
X188700000Y-56900000D03*
X154500000Y-72000000D03*
X130200000Y-98800000D03*
X154500000Y-70600000D03*
X150300000Y-77800000D03*
X136800000Y-96700000D03*
X149900000Y-70600000D03*
X150800000Y-72100000D03*
X121800000Y-49900000D03*
X121800000Y-53100000D03*
X177900000Y-104650000D03*
X187000000Y-102470000D03*
X97300000Y-102600000D03*
X111500000Y-119700000D03*
X144400000Y-147500000D03*
X112300000Y-122300000D03*
X173900000Y-114250000D03*
X173900000Y-92050000D03*
X177900000Y-93690000D03*
X170700000Y-74820000D03*
X113100000Y-66700000D03*
X99020000Y-131700000D03*
X181100000Y-72190000D03*
X109900000Y-91200000D03*
X108300000Y-99500000D03*
X109900000Y-59000000D03*
X98200000Y-62100000D03*
X171500000Y-95050000D03*
X108300000Y-79300000D03*
X181900000Y-79420000D03*
X179500000Y-88590000D03*
X142600000Y-146600000D03*
X110700000Y-93800000D03*
X179500000Y-81920000D03*
X100000000Y-74800000D03*
X181600000Y-122600000D03*
X186700000Y-120200000D03*
X114700000Y-95000000D03*
X172220000Y-71830000D03*
X187900000Y-80970000D03*
X174700000Y-89620000D03*
X170620000Y-132530000D03*
X105900000Y-76700000D03*
X187000000Y-83570000D03*
X112300000Y-129200000D03*
X171520000Y-73930000D03*
X171520000Y-133230000D03*
X113900000Y-131000000D03*
X100000000Y-117800000D03*
X112300000Y-64200000D03*
X106700000Y-69800000D03*
X109900000Y-81800000D03*
X187000000Y-98770000D03*
X112300000Y-86900000D03*
X177900000Y-61710000D03*
X187900000Y-102470000D03*
X130100000Y-97300000D03*
X98200000Y-105100000D03*
X105100000Y-64700000D03*
X116300000Y-74600000D03*
X174700000Y-115190000D03*
X108300000Y-86200000D03*
X109900000Y-104500000D03*
X189700000Y-120270000D03*
X177100000Y-59110000D03*
X99320000Y-126630000D03*
X110700000Y-61600000D03*
X173620000Y-131800000D03*
X181900000Y-99510000D03*
X99100000Y-98900000D03*
X188800000Y-74770000D03*
X98520000Y-136730000D03*
X181900000Y-66740000D03*
X177100000Y-87020000D03*
X105900000Y-67300000D03*
X180300000Y-86090000D03*
X179500000Y-102150000D03*
X180180000Y-124090000D03*
X173920000Y-126530000D03*
X113900000Y-114200000D03*
X113100000Y-124800000D03*
X114700000Y-131900000D03*
X176300000Y-110090000D03*
X113100000Y-130100000D03*
X181900000Y-69690000D03*
X187000000Y-105070000D03*
X172520000Y-132630000D03*
X172300000Y-94050000D03*
X110700000Y-106800000D03*
X189700000Y-77270000D03*
X97300000Y-81100000D03*
X189700000Y-98770000D03*
X105900000Y-96900000D03*
X107500000Y-56500000D03*
X122520000Y-94530000D03*
X175500000Y-112690000D03*
X188800000Y-117770000D03*
X99100000Y-120400000D03*
X115500000Y-132800000D03*
X112300000Y-109600000D03*
X109100000Y-102000000D03*
X100000000Y-120400000D03*
X113900000Y-94000000D03*
X179500000Y-64150000D03*
X177920000Y-127430000D03*
X171500000Y-112310000D03*
X115500000Y-129900000D03*
X113900000Y-127400000D03*
X115500000Y-73800000D03*
X188800000Y-96270000D03*
X173900000Y-69320000D03*
X113900000Y-69200000D03*
X187000000Y-62070000D03*
X107500000Y-117200000D03*
X187900000Y-59470000D03*
X114700000Y-115200000D03*
X177100000Y-107420000D03*
X177900000Y-84510000D03*
X178700000Y-91190000D03*
X109100000Y-88700000D03*
X100000000Y-81100000D03*
X179500000Y-119830000D03*
X100000000Y-77400000D03*
X186720000Y-122230000D03*
X116300000Y-89500000D03*
X99100000Y-77400000D03*
X116300000Y-133700000D03*
X176300000Y-129950000D03*
X98200000Y-83600000D03*
X107500000Y-72300000D03*
X100000000Y-96300000D03*
X110700000Y-84300000D03*
X111500000Y-107700000D03*
%TD*%
D18*
%TO.N,*%
X166200000Y-117300000D02*
X166200000Y-138350000D01*
X166200000Y-138350000D02*
X164920000Y-139630000D01*
X168400000Y-117280000D02*
X166220000Y-117280000D01*
X166220000Y-117280000D02*
X166200000Y-117300000D01*
X154800000Y-49900000D02*
X154845000Y-49945000D01*
X123400000Y-49900000D02*
X154800000Y-49900000D01*
X154845000Y-49945000D02*
X154845000Y-52305000D01*
X121800000Y-51500000D02*
X123400000Y-49900000D01*
X121800000Y-53100000D02*
X121800000Y-51500000D01*
X154800000Y-49900000D02*
X163000000Y-49900000D01*
X139910000Y-84410000D02*
X138540000Y-84410000D01*
X160780000Y-117280000D02*
X158280000Y-117280000D01*
X131985000Y-53885000D02*
X131985000Y-52305000D01*
X139520000Y-63130000D02*
X139520000Y-61420000D01*
X139520000Y-61420000D02*
X131985000Y-53885000D01*
X154570000Y-97080000D02*
X153600000Y-96110000D01*
X154395000Y-92105000D02*
X155840000Y-92105000D01*
X153600000Y-92900000D02*
X154395000Y-92105000D01*
X153600000Y-96110000D02*
X153600000Y-92900000D01*
X160780000Y-97080000D02*
X154570000Y-97080000D01*
X147120000Y-70730000D02*
X147120000Y-65830000D01*
X146905000Y-92105000D02*
X146200000Y-91400000D01*
X147120000Y-63130000D02*
X147120000Y-61480000D01*
X157385000Y-53615000D02*
X157385000Y-52305000D01*
X147120000Y-65830000D02*
X149000000Y-63950000D01*
X149000000Y-62000000D02*
X157385000Y-53615000D01*
X159370000Y-56580000D02*
X158420000Y-57530000D01*
X160780000Y-56580000D02*
X159370000Y-56580000D01*
X150295000Y-79405000D02*
X148220000Y-79405000D01*
X158420000Y-57530000D02*
X158420000Y-71280000D01*
X149000000Y-63950000D02*
X149000000Y-62000000D01*
X158420000Y-71280000D02*
X150295000Y-79405000D01*
X154845000Y-53755000D02*
X154845000Y-52305000D01*
X146200000Y-82600000D02*
X146855000Y-81945000D01*
X147120000Y-61480000D02*
X154845000Y-53755000D01*
X146200000Y-91400000D02*
X146200000Y-82600000D01*
X146855000Y-81945000D02*
X148220000Y-81945000D01*
X148220000Y-92105000D02*
X146905000Y-92105000D01*
X136600000Y-96700000D02*
X136800000Y-96700000D01*
X130300000Y-98700000D02*
X134600000Y-98700000D01*
X134600000Y-98700000D02*
X136600000Y-96700000D01*
X130200000Y-98800000D02*
X130300000Y-98700000D01*
X150800000Y-72100000D02*
X154400000Y-72100000D01*
X165880000Y-56580000D02*
X168400000Y-56580000D01*
X164700000Y-51600000D02*
X164700000Y-55400000D01*
X163000000Y-49900000D02*
X164700000Y-51600000D01*
X154400000Y-72100000D02*
X154500000Y-72000000D01*
X164700000Y-55400000D02*
X165880000Y-56580000D01*
X140500000Y-94100000D02*
X140500000Y-85000000D01*
X140500000Y-85000000D02*
X139910000Y-84410000D01*
X140030000Y-94570000D02*
X140500000Y-94100000D01*
X138540000Y-94570000D02*
X140030000Y-94570000D01*
X157500000Y-101500000D02*
X152700000Y-96700000D01*
X152700000Y-96700000D02*
X152700000Y-91100000D01*
X157500000Y-116500000D02*
X157500000Y-101500000D01*
X158280000Y-117280000D02*
X157500000Y-116500000D01*
X151165000Y-89565000D02*
X148220000Y-89565000D01*
X152700000Y-91100000D02*
X151165000Y-89565000D01*
X170620000Y-134730000D02*
X177820000Y-141930000D01*
X170620000Y-132530000D02*
X170620000Y-134730000D01*
X186420000Y-141930000D02*
X188100000Y-140250000D01*
X188100000Y-136250000D02*
X190100000Y-134250000D01*
X177820000Y-141930000D02*
X186420000Y-141930000D01*
X188100000Y-140250000D02*
X188100000Y-136250000D01*
X190100000Y-134250000D02*
X191720000Y-134250000D01*
X133820000Y-80555000D02*
X133820000Y-94630000D01*
X186630000Y-120270000D02*
X186700000Y-120200000D01*
X184080000Y-120270000D02*
X186630000Y-120270000D01*
X179980000Y-117280000D02*
X168400000Y-117280000D01*
X181910000Y-121210000D02*
X181910000Y-119210000D01*
X172520000Y-134020000D02*
X175290000Y-136790000D01*
X172520000Y-132630000D02*
X172520000Y-134020000D01*
X186700000Y-132050000D02*
X189580000Y-129170000D01*
X185720000Y-141030000D02*
X186700000Y-140050000D01*
X178220000Y-141030000D02*
X185720000Y-141030000D01*
X171520000Y-133230000D02*
X171520000Y-134330000D01*
X189580000Y-129170000D02*
X191720000Y-129170000D01*
X181600000Y-122600000D02*
X181360000Y-122360000D01*
X182930000Y-122230000D02*
X181910000Y-121210000D01*
X181360000Y-122360000D02*
X168400000Y-122360000D01*
X187000000Y-121020000D02*
X187000000Y-120500000D01*
X181910000Y-119210000D02*
X179980000Y-117280000D01*
X175290000Y-136790000D02*
X184100000Y-136790000D01*
X186700000Y-140050000D02*
X186700000Y-132050000D01*
X171520000Y-134330000D02*
X178220000Y-141030000D01*
X190070000Y-124090000D02*
X187000000Y-121020000D01*
X187000000Y-120500000D02*
X186700000Y-120200000D01*
X186720000Y-122230000D02*
X182930000Y-122230000D01*
X188700000Y-56900000D02*
X188500000Y-56900000D01*
X187700000Y-56100000D02*
X187700000Y-51200000D01*
X187900000Y-59470000D02*
X187900000Y-57800000D01*
X186680000Y-56580000D02*
X168400000Y-56580000D01*
X187900000Y-57800000D02*
X186680000Y-56580000D01*
X191720000Y-136790000D02*
X190110000Y-136790000D01*
X189500000Y-137400000D02*
X189500000Y-140400000D01*
X189500000Y-140400000D02*
X187000000Y-142900000D01*
X179725000Y-143675000D02*
X179725000Y-144600000D01*
X187000000Y-142900000D02*
X180500000Y-142900000D01*
X180500000Y-142900000D02*
X179725000Y-143675000D01*
X190110000Y-136790000D02*
X189500000Y-137400000D01*
X137570000Y-92030000D02*
X138540000Y-92030000D01*
X134670000Y-97230000D02*
X136500000Y-95400000D01*
X136500000Y-95400000D02*
X136500000Y-93100000D01*
X130100000Y-97300000D02*
X130170000Y-97230000D01*
X130170000Y-97230000D02*
X134670000Y-97230000D01*
X136500000Y-93100000D02*
X137570000Y-92030000D01*
X132250000Y-96200000D02*
X129650000Y-96200000D01*
X128500000Y-111050000D02*
X127410000Y-112140000D01*
X128500000Y-97350000D02*
X128500000Y-111050000D01*
X132595000Y-79330000D02*
X133820000Y-80555000D01*
X130920000Y-79330000D02*
X132595000Y-79330000D01*
X127410000Y-112140000D02*
X126120000Y-112140000D01*
X133820000Y-94630000D02*
X132250000Y-96200000D01*
X129650000Y-96200000D02*
X128500000Y-97350000D01*
X188500000Y-56900000D02*
X187700000Y-56100000D01*
X185400000Y-48900000D02*
X120400000Y-48900000D01*
X187700000Y-51200000D02*
X185400000Y-48900000D01*
X173620000Y-131800000D02*
X173710000Y-131710000D01*
X173710000Y-131710000D02*
X184100000Y-131710000D01*
X166200000Y-73920000D02*
X166200000Y-66520000D01*
X102920000Y-129180000D02*
X112280000Y-129180000D01*
X181790000Y-99620000D02*
X181900000Y-99510000D01*
X189700000Y-77270000D02*
X191700000Y-77270000D01*
X129440000Y-56500000D02*
X129445000Y-56505000D01*
X123320000Y-61580000D02*
X126120000Y-61580000D01*
X120600000Y-104200000D02*
X122820000Y-101980000D01*
X99320000Y-140520000D02*
X101000000Y-142200000D01*
X102920000Y-59600000D02*
X102920000Y-56830000D01*
X187900000Y-59470000D02*
X188800000Y-59470000D01*
D19*
X99100000Y-122650000D02*
X97420000Y-124330000D01*
D18*
X188840000Y-74730000D02*
X188800000Y-74770000D01*
X109900000Y-91200000D02*
X109840000Y-91260000D01*
X163980000Y-104700000D02*
X160880000Y-104700000D01*
X99100000Y-120400000D02*
X98200000Y-120400000D01*
X166200000Y-66520000D02*
X163880000Y-64200000D01*
X184080000Y-96230000D02*
X186140000Y-96230000D01*
X126120000Y-91940000D02*
X127410000Y-91940000D01*
X100000000Y-122610000D02*
X100000000Y-120400000D01*
X102940000Y-131700000D02*
X102920000Y-131720000D01*
X107500000Y-56500000D02*
X118500000Y-56500000D01*
X178740000Y-91150000D02*
X178700000Y-91190000D01*
X121300000Y-115000000D02*
X114700000Y-115000000D01*
X108320000Y-133280000D02*
X108800000Y-132800000D01*
X190070000Y-124090000D02*
X189990000Y-124010000D01*
D19*
X100720000Y-143030000D02*
X97420000Y-139730000D01*
D18*
X174660000Y-89580000D02*
X174700000Y-89620000D01*
X118500000Y-104520000D02*
X109900000Y-104520000D01*
X98620000Y-136730000D02*
X99320000Y-137430000D01*
X146355000Y-94605000D02*
X146355000Y-94645000D01*
X145200000Y-93450000D02*
X146355000Y-94605000D01*
X99200000Y-58150000D02*
X97750000Y-59600000D01*
X145200000Y-65050000D02*
X145200000Y-93450000D01*
X100850000Y-48900000D02*
X99200000Y-50550000D01*
X120800000Y-48900000D02*
X100850000Y-48900000D01*
X146355000Y-94645000D02*
X148220000Y-94645000D01*
X121800000Y-49900000D02*
X120800000Y-48900000D01*
X99200000Y-50550000D02*
X99200000Y-58150000D01*
X97750000Y-59600000D02*
X95300000Y-59600000D01*
X147120000Y-63130000D02*
X145200000Y-65050000D01*
X139520000Y-70730000D02*
X139520000Y-78350000D01*
X126120000Y-71740000D02*
X127940000Y-71740000D01*
X128500000Y-76800000D02*
X129000000Y-77300000D01*
X137070000Y-81870000D02*
X138540000Y-81870000D01*
X136500000Y-81300000D02*
X137070000Y-81870000D01*
X136000000Y-77300000D02*
X136500000Y-77800000D01*
X127940000Y-71740000D02*
X128500000Y-72300000D01*
X139520000Y-78350000D02*
X138540000Y-79330000D01*
X128500000Y-72300000D02*
X128500000Y-76800000D01*
X136500000Y-77800000D02*
X136500000Y-81300000D01*
X129000000Y-77300000D02*
X136000000Y-77300000D01*
X149900000Y-70600000D02*
X154500000Y-70600000D01*
X151800000Y-95300000D02*
X151800000Y-97400000D01*
D19*
X156470000Y-139630000D02*
X164920000Y-139630000D01*
D18*
X156600000Y-139500000D02*
X156470000Y-139630000D01*
X156600000Y-102200000D02*
X156600000Y-139500000D01*
X148220000Y-94645000D02*
X151145000Y-94645000D01*
X151800000Y-97400000D02*
X156600000Y-102200000D01*
D19*
X155420000Y-139630000D02*
X156470000Y-139630000D01*
D18*
X151145000Y-94645000D02*
X151800000Y-95300000D01*
X139520000Y-66520000D02*
X139520000Y-70730000D01*
X129505000Y-56505000D02*
X139520000Y-66520000D01*
X129445000Y-56505000D02*
X129505000Y-56505000D01*
X116800000Y-134200000D02*
X116300000Y-133700000D01*
X120100000Y-134200000D02*
X116800000Y-134200000D01*
X120600000Y-133700000D02*
X120100000Y-134200000D01*
X122880000Y-124820000D02*
X120600000Y-127100000D01*
X143000000Y-146600000D02*
X143900000Y-147500000D01*
X126120000Y-124820000D02*
X122880000Y-124820000D01*
X143900000Y-147500000D02*
X144400000Y-147500000D01*
X142600000Y-146600000D02*
X143000000Y-146600000D01*
X120600000Y-127100000D02*
X120600000Y-133700000D01*
X157400000Y-70800000D02*
X150400000Y-77800000D01*
X157400000Y-56000000D02*
X157400000Y-70800000D01*
X150400000Y-77800000D02*
X150300000Y-77800000D01*
X158900000Y-54500000D02*
X157400000Y-56000000D01*
X118500000Y-127360000D02*
X113900000Y-127360000D01*
X102920000Y-83640000D02*
X100860000Y-83640000D01*
X95300000Y-77380000D02*
X99080000Y-77380000D01*
X116200000Y-133600000D02*
X116300000Y-133700000D01*
X105080000Y-64680000D02*
X105100000Y-64700000D01*
X166200000Y-106920000D02*
X163980000Y-104700000D01*
X166200000Y-114320000D02*
X166200000Y-106920000D01*
X120600000Y-84000000D02*
X122820000Y-81780000D01*
X102960000Y-69800000D02*
X102920000Y-69760000D01*
X100720000Y-127920000D02*
X100720000Y-140120000D01*
X168400000Y-124900000D02*
X179370000Y-124900000D01*
X129445000Y-52305000D02*
X129445000Y-56505000D01*
X118500000Y-64200000D02*
X118500000Y-64120000D01*
X184000000Y-112570000D02*
X184080000Y-112650000D01*
X98520000Y-136730000D02*
X98620000Y-136730000D01*
X118500000Y-84320000D02*
X110700000Y-84320000D01*
X170610000Y-132520000D02*
X168400000Y-132520000D01*
X168400000Y-112320000D02*
X171490000Y-112320000D01*
X98160000Y-83640000D02*
X98200000Y-83600000D01*
D19*
X108440000Y-139610000D02*
X105020000Y-143030000D01*
D18*
X111480000Y-107680000D02*
X111500000Y-107700000D01*
X102920000Y-64680000D02*
X105080000Y-64680000D01*
X99020000Y-131700000D02*
X99100000Y-131700000D01*
X113140000Y-66660000D02*
X113100000Y-66700000D01*
X184120000Y-105070000D02*
X184080000Y-105030000D01*
X160780000Y-84500000D02*
X163880000Y-84500000D01*
X132020000Y-52270000D02*
X131985000Y-52305000D01*
X170700000Y-74820000D02*
X165120000Y-74820000D01*
X102820000Y-102500000D02*
X102920000Y-102600000D01*
X177100000Y-107420000D02*
X176920000Y-107240000D01*
D19*
X155400000Y-139610000D02*
X155420000Y-139630000D01*
D18*
X114900000Y-94800000D02*
X121300000Y-94800000D01*
X103000000Y-67300000D02*
X102920000Y-67220000D01*
X99080000Y-98880000D02*
X95300000Y-98880000D01*
X188840000Y-96230000D02*
X188800000Y-96270000D01*
X104100000Y-141000000D02*
X107520000Y-137580000D01*
X114000000Y-114300000D02*
X120600000Y-114300000D01*
X129860000Y-89490000D02*
X130920000Y-89490000D01*
X132920000Y-91355000D02*
X132920000Y-82855000D01*
X155840000Y-79405000D02*
X155840000Y-75210000D01*
X155840000Y-87025000D02*
X155840000Y-89565000D01*
X184080000Y-93690000D02*
X177900000Y-93690000D01*
D19*
X154320000Y-141245000D02*
X154320000Y-139630000D01*
D18*
X100000000Y-81100000D02*
X102920000Y-81100000D01*
X114000000Y-94100000D02*
X120600000Y-94100000D01*
X173830000Y-114320000D02*
X173900000Y-114250000D01*
X176270000Y-129980000D02*
X176300000Y-129950000D01*
D19*
X105020000Y-143030000D02*
X100720000Y-143030000D01*
D18*
X158120000Y-93730000D02*
X158120000Y-85130000D01*
X102900000Y-77400000D02*
X102920000Y-77380000D01*
X168400000Y-81960000D02*
X179460000Y-81960000D01*
X102920000Y-93800000D02*
X110700000Y-93800000D01*
D19*
X124190000Y-139610000D02*
X108440000Y-139610000D01*
D18*
X113900000Y-127360000D02*
X113900000Y-127400000D01*
X157505000Y-81945000D02*
X158420000Y-81030000D01*
X163880000Y-64200000D02*
X160780000Y-64200000D01*
X177850000Y-104700000D02*
X177900000Y-104650000D01*
X175990000Y-109780000D02*
X176300000Y-110090000D01*
X100000000Y-96300000D02*
X99960000Y-96340000D01*
X118500000Y-117200000D02*
X107500000Y-117200000D01*
X191700000Y-102490000D02*
X187920000Y-102490000D01*
X174700000Y-115190000D02*
X184080000Y-115190000D01*
X184080000Y-88610000D02*
X179520000Y-88610000D01*
X165400000Y-88520000D02*
X165400000Y-94920000D01*
X187000000Y-98770000D02*
X184080000Y-98770000D01*
X168400000Y-129980000D02*
X176270000Y-129980000D01*
X104700000Y-142200000D02*
X109120000Y-137780000D01*
X168400000Y-99620000D02*
X181790000Y-99620000D01*
X107500000Y-72300000D02*
X102920000Y-72300000D01*
X108300000Y-86200000D02*
X108280000Y-86180000D01*
X130920000Y-84410000D02*
X130920000Y-86950000D01*
X187900000Y-80970000D02*
X187920000Y-80990000D01*
D19*
X97420000Y-139330000D02*
X97410000Y-139340000D01*
D18*
X162900000Y-112320000D02*
X160780000Y-112320000D01*
X172220000Y-71830000D02*
X172210000Y-71820000D01*
X165120000Y-74820000D02*
X165120000Y-67940000D01*
X138540000Y-86950000D02*
X138540000Y-89490000D01*
X191660000Y-117770000D02*
X191700000Y-117730000D01*
X106720000Y-136480000D02*
X103860000Y-139340000D01*
X126060000Y-71800000D02*
X126120000Y-71740000D01*
D19*
X133690000Y-139610000D02*
X155400000Y-139610000D01*
D18*
X99100000Y-98900000D02*
X99080000Y-98880000D01*
X118500000Y-124820000D02*
X113100000Y-124820000D01*
X102880000Y-74800000D02*
X102920000Y-74840000D01*
X108300000Y-79240000D02*
X108300000Y-79300000D01*
X118500000Y-99440000D02*
X108300000Y-99440000D01*
X113100000Y-130100000D02*
X108100000Y-130100000D01*
X100000000Y-74800000D02*
X99960000Y-74840000D01*
D19*
X154320000Y-139630000D02*
X155420000Y-139630000D01*
D18*
X99320000Y-137430000D02*
X99320000Y-140520000D01*
X187000000Y-102470000D02*
X184100000Y-102470000D01*
X118500000Y-81780000D02*
X109900000Y-81780000D01*
X184100000Y-80970000D02*
X184080000Y-80990000D01*
X172130000Y-94220000D02*
X172300000Y-94050000D01*
X100800000Y-117800000D02*
X100840000Y-117840000D01*
X168400000Y-92120000D02*
X173830000Y-92120000D01*
X102920000Y-107680000D02*
X111480000Y-107680000D01*
X160850000Y-97010000D02*
X160780000Y-97080000D01*
X184100000Y-59470000D02*
X184080000Y-59490000D01*
X102920000Y-56830000D02*
X105120000Y-54630000D01*
X189700000Y-98770000D02*
X191700000Y-98770000D01*
X109900000Y-104520000D02*
X109900000Y-104500000D01*
X179460000Y-81960000D02*
X179500000Y-81920000D01*
X184080000Y-112650000D02*
X175540000Y-112650000D01*
X176920000Y-107240000D02*
X168400000Y-107240000D01*
X177100000Y-107420000D02*
X177250000Y-107570000D01*
X187040000Y-62030000D02*
X191700000Y-62030000D01*
X168400000Y-109780000D02*
X175990000Y-109780000D01*
X191700000Y-96230000D02*
X188840000Y-96230000D01*
D19*
X124190000Y-139610000D02*
X133690000Y-139610000D01*
X165720000Y-142830000D02*
X165300000Y-143250000D01*
D18*
X108300000Y-131000000D02*
X106720000Y-132580000D01*
X112300000Y-64200000D02*
X118500000Y-64200000D01*
X177080000Y-87040000D02*
X177100000Y-87020000D01*
X132920000Y-82855000D02*
X131935000Y-81870000D01*
X118500000Y-101980000D02*
X109100000Y-101980000D01*
X100800000Y-83700000D02*
X100800000Y-117800000D01*
X99320000Y-126630000D02*
X99430000Y-126630000D01*
X187000000Y-105070000D02*
X187040000Y-105030000D01*
X171370000Y-94920000D02*
X171500000Y-95050000D01*
X103940000Y-134260000D02*
X102920000Y-134260000D01*
X97300000Y-102600000D02*
X95300000Y-102600000D01*
X165400000Y-108620000D02*
X164020000Y-107240000D01*
X186200000Y-62070000D02*
X186160000Y-62030000D01*
X186140000Y-96230000D02*
X186200000Y-96170000D01*
X179370000Y-124900000D02*
X180180000Y-124090000D01*
X158420000Y-77530000D02*
X159070000Y-76880000D01*
X168400000Y-127440000D02*
X177910000Y-127440000D01*
X99960000Y-96340000D02*
X95300000Y-96340000D01*
X118500000Y-119740000D02*
X111500000Y-119740000D01*
X131935000Y-81870000D02*
X130920000Y-81870000D01*
X108500000Y-131900000D02*
X114700000Y-131900000D01*
X126760000Y-132440000D02*
X126120000Y-132440000D01*
X127410000Y-91940000D02*
X129860000Y-89490000D01*
X155840000Y-81945000D02*
X157505000Y-81945000D01*
X120600000Y-94100000D02*
X120600000Y-84000000D01*
X120420000Y-54630000D02*
X122290000Y-56500000D01*
X171520000Y-73930000D02*
X166210000Y-73930000D01*
X122010000Y-74600000D02*
X122010000Y-65290000D01*
X114700000Y-115000000D02*
X114700000Y-115200000D01*
X108300000Y-99440000D02*
X108300000Y-99500000D01*
X159230000Y-71820000D02*
X160780000Y-71820000D01*
X99960000Y-74840000D02*
X95300000Y-74840000D01*
X177910000Y-127440000D02*
X177920000Y-127430000D01*
X115500000Y-73800000D02*
X121310000Y-73800000D01*
X188800000Y-59470000D02*
X189700000Y-59470000D01*
X118500000Y-107060000D02*
X118500000Y-106800000D01*
X118500000Y-69200000D02*
X113900000Y-69200000D01*
X118500000Y-109600000D02*
X112300000Y-109600000D01*
X107520000Y-137580000D02*
X107520000Y-132880000D01*
X100720000Y-140120000D02*
X101600000Y-141000000D01*
X187040000Y-105030000D02*
X191700000Y-105030000D01*
X106720000Y-132580000D02*
X106720000Y-136480000D01*
X155840000Y-75210000D02*
X159230000Y-71820000D01*
X122560000Y-94570000D02*
X130920000Y-94570000D01*
X155840000Y-94645000D02*
X157205000Y-94645000D01*
D19*
X134070000Y-143230000D02*
X133420000Y-143230000D01*
D18*
X158420000Y-81030000D02*
X158420000Y-77530000D01*
X118500000Y-89400000D02*
X116400000Y-89400000D01*
X120600000Y-114300000D02*
X120600000Y-104200000D01*
X110700000Y-84320000D02*
X110700000Y-84300000D01*
X132245000Y-92030000D02*
X132920000Y-91355000D01*
X121310000Y-73800000D02*
X121310000Y-63590000D01*
X184080000Y-91150000D02*
X178740000Y-91150000D01*
X174670000Y-115220000D02*
X174700000Y-115190000D01*
X189700000Y-59470000D02*
X191680000Y-59470000D01*
X103860000Y-139340000D02*
X102920000Y-139340000D01*
X123180000Y-64120000D02*
X126120000Y-64120000D01*
X118500000Y-59040000D02*
X109900000Y-59040000D01*
X122820000Y-101980000D02*
X126120000Y-101980000D01*
X110700000Y-61600000D02*
X118500000Y-61600000D01*
X109840000Y-91260000D02*
X102920000Y-91260000D01*
X163920000Y-66740000D02*
X160780000Y-66740000D01*
X102900000Y-120400000D02*
X102920000Y-120380000D01*
X184040000Y-110070000D02*
X184080000Y-110110000D01*
X168400000Y-64200000D02*
X179450000Y-64200000D01*
X187000000Y-83570000D02*
X187040000Y-83530000D01*
X107520000Y-132880000D02*
X108500000Y-131900000D01*
X173920000Y-126530000D02*
X174020000Y-126630000D01*
X114700000Y-95000000D02*
X114900000Y-94800000D01*
D19*
X97420000Y-139730000D02*
X97420000Y-139330000D01*
D18*
X157205000Y-94645000D02*
X158120000Y-93730000D01*
X160780000Y-87040000D02*
X163920000Y-87040000D01*
X99960000Y-117840000D02*
X95300000Y-117840000D01*
X102920000Y-88720000D02*
X109080000Y-88720000D01*
X165400000Y-94920000D02*
X171370000Y-94920000D01*
X95300000Y-105140000D02*
X98160000Y-105140000D01*
X179490000Y-102160000D02*
X179500000Y-102150000D01*
X177090000Y-59120000D02*
X177100000Y-59110000D01*
D19*
X99100000Y-120400000D02*
X99100000Y-122650000D01*
D18*
X100000000Y-120400000D02*
X102900000Y-120400000D01*
X109120000Y-133680000D02*
X109200000Y-133600000D01*
X191720000Y-124090000D02*
X190070000Y-124090000D01*
X113900000Y-94000000D02*
X114000000Y-94100000D01*
X168400000Y-87040000D02*
X177080000Y-87040000D01*
X122520000Y-94530000D02*
X122560000Y-94570000D01*
X100000000Y-117800000D02*
X99960000Y-117840000D01*
X100020000Y-140320000D02*
X101300000Y-141600000D01*
X176320000Y-110110000D02*
X176300000Y-110090000D01*
X187000000Y-105070000D02*
X184120000Y-105070000D01*
X175540000Y-112650000D02*
X175500000Y-112690000D01*
X109200000Y-133600000D02*
X116200000Y-133600000D01*
X172210000Y-71820000D02*
X168400000Y-71820000D01*
X118500000Y-86860000D02*
X112300000Y-86860000D01*
X184080000Y-110110000D02*
X176320000Y-110110000D01*
X168400000Y-84500000D02*
X177890000Y-84500000D01*
D19*
X97410000Y-139340000D02*
X95300000Y-139340000D01*
D18*
X166210000Y-73930000D02*
X166200000Y-73920000D01*
X101600000Y-141000000D02*
X104100000Y-141000000D01*
X100000000Y-77400000D02*
X102900000Y-77400000D01*
X112300000Y-122280000D02*
X112300000Y-122300000D01*
X157475000Y-84485000D02*
X155840000Y-84485000D01*
X171490000Y-112320000D02*
X171500000Y-112310000D01*
X118500000Y-96900000D02*
X105900000Y-96900000D01*
X168400000Y-104700000D02*
X177850000Y-104700000D01*
X188800000Y-117770000D02*
X191660000Y-117770000D01*
X168400000Y-66740000D02*
X181900000Y-66740000D01*
X166200000Y-114320000D02*
X173830000Y-114320000D01*
X173860000Y-69280000D02*
X173900000Y-69320000D01*
X95300000Y-83640000D02*
X98160000Y-83640000D01*
X118500000Y-66660000D02*
X113140000Y-66660000D01*
X187920000Y-80990000D02*
X191700000Y-80990000D01*
X97300000Y-120400000D02*
X95320000Y-120400000D01*
X102960000Y-126600000D02*
X102920000Y-126640000D01*
X179450000Y-64200000D02*
X179500000Y-64150000D01*
D19*
X134490000Y-142810000D02*
X134070000Y-143230000D01*
D18*
X168400000Y-69280000D02*
X173860000Y-69280000D01*
X102900000Y-98900000D02*
X102920000Y-98880000D01*
X111500000Y-119740000D02*
X111500000Y-119700000D01*
X113900000Y-131000000D02*
X108300000Y-131000000D01*
X165400000Y-115220000D02*
X165400000Y-108620000D01*
X118500000Y-106800000D02*
X110700000Y-106800000D01*
X118500000Y-61600000D02*
X118500000Y-61580000D01*
X164020000Y-107240000D02*
X160880000Y-107240000D01*
X102920000Y-124100000D02*
X101490000Y-124100000D01*
X166200000Y-94220000D02*
X172130000Y-94220000D01*
X121300000Y-94800000D02*
X121300000Y-85900000D01*
D19*
X154345000Y-141270000D02*
X154320000Y-141245000D01*
D18*
X168400000Y-89580000D02*
X174660000Y-89580000D01*
D19*
X165720000Y-140430000D02*
X165720000Y-142830000D01*
D18*
X100860000Y-83640000D02*
X100800000Y-83700000D01*
X168400000Y-61660000D02*
X177850000Y-61660000D01*
X179500000Y-119830000D02*
X179490000Y-119820000D01*
X116400000Y-89400000D02*
X116300000Y-89500000D01*
X101000000Y-142200000D02*
X104700000Y-142200000D01*
X168400000Y-79420000D02*
X181900000Y-79420000D01*
X99430000Y-126630000D02*
X100720000Y-127920000D01*
X187040000Y-83530000D02*
X191700000Y-83530000D01*
X105120000Y-54630000D02*
X120420000Y-54630000D01*
X104400000Y-141600000D02*
X108320000Y-137680000D01*
X122880000Y-104520000D02*
X121300000Y-106100000D01*
X122880000Y-84320000D02*
X126120000Y-84320000D01*
X160780000Y-132520000D02*
X162900000Y-132520000D01*
X159070000Y-76880000D02*
X160780000Y-76880000D01*
D20*
X187920000Y-102490000D02*
X187900000Y-102470000D01*
D18*
X165400000Y-115220000D02*
X174670000Y-115220000D01*
X184100000Y-102470000D02*
X184080000Y-102490000D01*
X126120000Y-124820000D02*
X126120000Y-122280000D01*
X179490000Y-119820000D02*
X168400000Y-119820000D01*
X109080000Y-88720000D02*
X109100000Y-88700000D01*
X122820000Y-81780000D02*
X126120000Y-81780000D01*
X130920000Y-92030000D02*
X132245000Y-92030000D01*
X184080000Y-72190000D02*
X181100000Y-72190000D01*
X184080000Y-69650000D02*
X181940000Y-69650000D01*
D19*
X133690000Y-139610000D02*
X134490000Y-139610000D01*
D18*
X100020000Y-132620000D02*
X100020000Y-140320000D01*
D21*
X102920000Y-124100000D02*
X102520000Y-123700000D01*
D18*
X99100000Y-131700000D02*
X100020000Y-132620000D01*
X106700000Y-69800000D02*
X102960000Y-69800000D01*
X113900000Y-114200000D02*
X114000000Y-114300000D01*
D19*
X123050000Y-141280000D02*
X123050000Y-139610000D01*
D18*
X101490000Y-124100000D02*
X100000000Y-122610000D01*
X180320000Y-86070000D02*
X180300000Y-86090000D01*
X184180000Y-77370000D02*
X184080000Y-77270000D01*
X162900000Y-132520000D02*
X162900000Y-112320000D01*
X118500000Y-129900000D02*
X115500000Y-129900000D01*
X191700000Y-120270000D02*
X189700000Y-120270000D01*
X170620000Y-132530000D02*
X170610000Y-132520000D01*
D19*
X165300000Y-143250000D02*
X164650000Y-143250000D01*
D18*
X191700000Y-74730000D02*
X188840000Y-74730000D01*
X179520000Y-88610000D02*
X179500000Y-88590000D01*
X97300000Y-81100000D02*
X95300000Y-81100000D01*
X118500000Y-122280000D02*
X112300000Y-122280000D01*
X105900000Y-67300000D02*
X103000000Y-67300000D01*
X95340000Y-62100000D02*
X95300000Y-62140000D01*
X177890000Y-84500000D02*
X177900000Y-84510000D01*
X100840000Y-117840000D02*
X102920000Y-117840000D01*
X100000000Y-74800000D02*
X102880000Y-74800000D01*
X108800000Y-132800000D02*
X115500000Y-132800000D01*
X109100000Y-101980000D02*
X109100000Y-102000000D01*
X118500000Y-79240000D02*
X108300000Y-79240000D01*
X98200000Y-120400000D02*
X97300000Y-120400000D01*
X98200000Y-62100000D02*
X95340000Y-62100000D01*
X112300000Y-86860000D02*
X112300000Y-86900000D01*
X191680000Y-59470000D02*
X191700000Y-59490000D01*
X116300000Y-74600000D02*
X122010000Y-74600000D01*
X186160000Y-62030000D02*
X184080000Y-62030000D01*
X187000000Y-62070000D02*
X187040000Y-62030000D01*
X126120000Y-56500000D02*
X129440000Y-56500000D01*
X168400000Y-102160000D02*
X179490000Y-102160000D01*
X163920000Y-87040000D02*
X165400000Y-88520000D01*
X95320000Y-120400000D02*
X95300000Y-120380000D01*
X98160000Y-105140000D02*
X98200000Y-105100000D01*
D19*
X123050000Y-139610000D02*
X124190000Y-139610000D01*
D18*
X173830000Y-92120000D02*
X173900000Y-92050000D01*
X163880000Y-84500000D02*
X166200000Y-86820000D01*
D19*
X164920000Y-139630000D02*
X165720000Y-140430000D01*
D20*
X99080000Y-77380000D02*
X99100000Y-77400000D01*
D18*
X165120000Y-67940000D02*
X163920000Y-66740000D01*
X118500000Y-76700000D02*
X105900000Y-76700000D01*
X126120000Y-104520000D02*
X122880000Y-104520000D01*
X109900000Y-81780000D02*
X109900000Y-81800000D01*
X166200000Y-86820000D02*
X166200000Y-94220000D01*
X148220000Y-84485000D02*
X148220000Y-87025000D01*
X158120000Y-85130000D02*
X157475000Y-84485000D01*
X108320000Y-137680000D02*
X108320000Y-133280000D01*
X122010000Y-65290000D02*
X123180000Y-64120000D01*
X108100000Y-130100000D02*
X103940000Y-134260000D01*
X101300000Y-141600000D02*
X104400000Y-141600000D01*
X177250000Y-107570000D02*
X184080000Y-107570000D01*
X113100000Y-124820000D02*
X113100000Y-124800000D01*
X121300000Y-106100000D02*
X121300000Y-115000000D01*
X109900000Y-59040000D02*
X109900000Y-59000000D01*
X112280000Y-129180000D02*
X112300000Y-129200000D01*
X174020000Y-126630000D02*
X184100000Y-126630000D01*
X186200000Y-96170000D02*
X186200000Y-62070000D01*
X121300000Y-85900000D02*
X122880000Y-84320000D01*
X168400000Y-59120000D02*
X177090000Y-59120000D01*
X184080000Y-86070000D02*
X180320000Y-86070000D01*
X108280000Y-86180000D02*
X102920000Y-86180000D01*
X121310000Y-63590000D02*
X123320000Y-61580000D01*
X177850000Y-61660000D02*
X177900000Y-61710000D01*
X109120000Y-137780000D02*
X109120000Y-133680000D01*
X122290000Y-56500000D02*
X126120000Y-56500000D01*
D19*
X134490000Y-139610000D02*
X134490000Y-142810000D01*
D18*
X181940000Y-69650000D02*
X181900000Y-69690000D01*
D19*
X97420000Y-124330000D02*
X97420000Y-139330000D01*
%TD*%
M02*
