%TF.GenerationSoftware,KiCad,Pcbnew,(6.0.5)*%
%TF.CreationDate,2023-02-18T09:08:39+02:00*%
%TF.ProjectId,VIDEOCARD_SCREENSYNC2.0,56494445-4f43-4415-9244-5f5343524545,rev?*%
%TF.SameCoordinates,Original*%
%TF.FileFunction,Plated,1,2,PTH,Drill*%
%TF.FilePolarity,Positive*%
%FSLAX46Y46*%
G04 Gerber Fmt 4.6, Leading zero omitted, Abs format (unit mm)*
G04 Created by KiCad (PCBNEW (6.0.5)) date 2023-02-18 09:08:39*
%MOMM*%
%LPD*%
G01*
G04 APERTURE LIST*
%TA.AperFunction,ViaDrill*%
%ADD10C,0.400000*%
%TD*%
%TA.AperFunction,ComponentDrill*%
%ADD11C,0.800000*%
%TD*%
%TA.AperFunction,ComponentDrill*%
%ADD12C,1.000000*%
%TD*%
%TA.AperFunction,ComponentDrill*%
%ADD13C,3.200000*%
%TD*%
G04 APERTURE END LIST*
D10*
X99880000Y-76070000D03*
X99880000Y-97570000D03*
X100780000Y-57070000D03*
X100780000Y-78570000D03*
X100780000Y-100070000D03*
X101050000Y-131750000D03*
X101630000Y-126670000D03*
X101680000Y-93870000D03*
X101680000Y-115370000D03*
X101700000Y-72700000D03*
X101900000Y-121600000D03*
X102580000Y-69770000D03*
X102580000Y-76070000D03*
X102580000Y-91270000D03*
X102580000Y-112770000D03*
X102580500Y-72000000D03*
X102680000Y-115370000D03*
X107650000Y-59650000D03*
X108480000Y-62270000D03*
X108480000Y-71670000D03*
X108480000Y-91870000D03*
X109280000Y-64770000D03*
X110080000Y-51470000D03*
X110080000Y-67270000D03*
X110080000Y-112170000D03*
X110880000Y-74270000D03*
X110880000Y-81170000D03*
X110880000Y-94470000D03*
X111680000Y-83670000D03*
X111680000Y-96970000D03*
X112480000Y-53970000D03*
X112480000Y-76770000D03*
X112480000Y-86170000D03*
X112480000Y-99470000D03*
X113280000Y-56570000D03*
X113280000Y-79270000D03*
X113280000Y-88770000D03*
X113280000Y-101770000D03*
X114080000Y-102670000D03*
X114080000Y-114670000D03*
X114880000Y-59170000D03*
X114880000Y-81870000D03*
X114880000Y-104570000D03*
X114880000Y-117270000D03*
X114880000Y-124170000D03*
X115680000Y-61670000D03*
X115680000Y-119770000D03*
X115680000Y-125070000D03*
X116480000Y-64170000D03*
X116480000Y-88970000D03*
X116480000Y-109170000D03*
X116480000Y-122370000D03*
X116480000Y-125970000D03*
X117280000Y-89970000D03*
X117280000Y-110170000D03*
X117280000Y-126870000D03*
X118080000Y-68770000D03*
X118080000Y-124870000D03*
X118080000Y-127770000D03*
X118880000Y-69570000D03*
X118880000Y-84470000D03*
X118880000Y-128670000D03*
X124380000Y-44870000D03*
X124380000Y-48070000D03*
X125100000Y-89500000D03*
X132680000Y-92270000D03*
X132780000Y-93770000D03*
X134880000Y-97570000D03*
X145180000Y-141570000D03*
X146980000Y-142470000D03*
X152480000Y-65570000D03*
X152550000Y-66850000D03*
X153200000Y-72550000D03*
X157050000Y-66750000D03*
X157080000Y-65570000D03*
X161480000Y-49470000D03*
X173200000Y-127500000D03*
X173280000Y-69790000D03*
X174080000Y-90020000D03*
X174080000Y-107280000D03*
X174100000Y-68900000D03*
X174100000Y-128200000D03*
X174800000Y-66800000D03*
X174880000Y-89020000D03*
X175100000Y-127600000D03*
X176200000Y-126770000D03*
X176480000Y-64290000D03*
X176480000Y-87020000D03*
X176480000Y-109220000D03*
X176500000Y-121500000D03*
X177280000Y-84590000D03*
X177280000Y-110160000D03*
X178080000Y-107660000D03*
X178880000Y-105060000D03*
X178880000Y-124920000D03*
X179680000Y-54080000D03*
X179680000Y-81990000D03*
X179680000Y-102390000D03*
X180480000Y-56680000D03*
X180480000Y-79480000D03*
X180480000Y-88660000D03*
X180480000Y-99620000D03*
X180500000Y-122400000D03*
X181280000Y-86160000D03*
X182080000Y-59120000D03*
X182080000Y-76890000D03*
X182080000Y-83560000D03*
X182080000Y-97120000D03*
X182080000Y-114800000D03*
X182760000Y-119060000D03*
X182880000Y-81060000D03*
X183680000Y-67160000D03*
X184180000Y-117570000D03*
X184480000Y-61710000D03*
X184480000Y-64660000D03*
X184480000Y-74390000D03*
X184480000Y-94480000D03*
X189250000Y-115200000D03*
X189300000Y-117200000D03*
X189580000Y-56970000D03*
X189580000Y-78540000D03*
X189580000Y-93740000D03*
X189580000Y-97100000D03*
X189580000Y-100040000D03*
X190480000Y-54440000D03*
X190480000Y-75940000D03*
X190500000Y-97950000D03*
X191280000Y-51870000D03*
X191380000Y-69740000D03*
X191380000Y-91240000D03*
X191380000Y-112740000D03*
X192280000Y-72240000D03*
X192280000Y-93740000D03*
X192280000Y-115240000D03*
D11*
%TO.C,74LS161*%
X97880000Y-54570000D03*
X97880000Y-57110000D03*
X97880000Y-59650000D03*
X97880000Y-62190000D03*
X97880000Y-64730000D03*
X97880000Y-67270000D03*
X97880000Y-69810000D03*
X97880000Y-72350000D03*
X97880000Y-76070000D03*
X97880000Y-78610000D03*
X97880000Y-81150000D03*
X97880000Y-83690000D03*
X97880000Y-86230000D03*
X97880000Y-88770000D03*
X97880000Y-91310000D03*
X97880000Y-93850000D03*
X97880000Y-97570000D03*
X97880000Y-100110000D03*
X97880000Y-102650000D03*
X97880000Y-105190000D03*
X97880000Y-107730000D03*
X97880000Y-110270000D03*
X97880000Y-112810000D03*
X97880000Y-115350000D03*
%TO.C,74LS04*%
X97880000Y-119070000D03*
X97880000Y-121610000D03*
X97880000Y-124150000D03*
X97880000Y-126690000D03*
X97880000Y-129230000D03*
X97880000Y-131770000D03*
X97880000Y-134310000D03*
%TO.C,74LS161*%
X105500000Y-54570000D03*
X105500000Y-57110000D03*
X105500000Y-59650000D03*
X105500000Y-62190000D03*
X105500000Y-64730000D03*
X105500000Y-67270000D03*
X105500000Y-69810000D03*
X105500000Y-72350000D03*
X105500000Y-76070000D03*
X105500000Y-78610000D03*
X105500000Y-81150000D03*
X105500000Y-83690000D03*
X105500000Y-86230000D03*
X105500000Y-88770000D03*
X105500000Y-91310000D03*
X105500000Y-93850000D03*
X105500000Y-97570000D03*
X105500000Y-100110000D03*
X105500000Y-102650000D03*
X105500000Y-105190000D03*
X105500000Y-107730000D03*
X105500000Y-110270000D03*
X105500000Y-112810000D03*
X105500000Y-115350000D03*
%TO.C,74LS04*%
X105500000Y-119070000D03*
X105500000Y-121610000D03*
X105500000Y-124150000D03*
X105500000Y-126690000D03*
X105500000Y-129230000D03*
X105500000Y-131770000D03*
X105500000Y-134310000D03*
%TO.C,74LS30*%
X121080000Y-51470000D03*
X121080000Y-54010000D03*
X121080000Y-56550000D03*
X121080000Y-59090000D03*
X121080000Y-61630000D03*
X121080000Y-64170000D03*
X121080000Y-66710000D03*
X121080000Y-71670000D03*
X121080000Y-74210000D03*
X121080000Y-76750000D03*
X121080000Y-79290000D03*
X121080000Y-81830000D03*
X121080000Y-84370000D03*
X121080000Y-86910000D03*
X121080000Y-91870000D03*
X121080000Y-94410000D03*
X121080000Y-96950000D03*
X121080000Y-99490000D03*
X121080000Y-102030000D03*
X121080000Y-104570000D03*
X121080000Y-107110000D03*
X121080000Y-112170000D03*
X121080000Y-114710000D03*
X121080000Y-117250000D03*
X121080000Y-119790000D03*
X121080000Y-122330000D03*
X121080000Y-124870000D03*
X121080000Y-127410000D03*
X128700000Y-51470000D03*
X128700000Y-54010000D03*
X128700000Y-56550000D03*
X128700000Y-59090000D03*
X128700000Y-61630000D03*
X128700000Y-64170000D03*
X128700000Y-66710000D03*
X128700000Y-71670000D03*
X128700000Y-74210000D03*
X128700000Y-76750000D03*
X128700000Y-79290000D03*
X128700000Y-81830000D03*
X128700000Y-84370000D03*
X128700000Y-86910000D03*
X128700000Y-91870000D03*
X128700000Y-94410000D03*
X128700000Y-96950000D03*
X128700000Y-99490000D03*
X128700000Y-102030000D03*
X128700000Y-104570000D03*
X128700000Y-107110000D03*
X128700000Y-112170000D03*
X128700000Y-114710000D03*
X128700000Y-117250000D03*
X128700000Y-119790000D03*
X128700000Y-122330000D03*
X128700000Y-124870000D03*
X128700000Y-127410000D03*
%TO.C,74LS00*%
X133500000Y-74300000D03*
X133500000Y-76840000D03*
X133500000Y-79380000D03*
X133500000Y-81920000D03*
X133500000Y-84460000D03*
X133500000Y-87000000D03*
X133500000Y-89540000D03*
X141120000Y-74300000D03*
X141120000Y-76840000D03*
X141120000Y-79380000D03*
X141120000Y-81920000D03*
X141120000Y-84460000D03*
X141120000Y-87000000D03*
X141120000Y-89540000D03*
%TO.C,*%
X142100000Y-58100000D03*
X142100000Y-65700000D03*
X149700000Y-58100000D03*
X149700000Y-65700000D03*
%TO.C,74LS00*%
X150800000Y-74375000D03*
X150800000Y-76915000D03*
X150800000Y-79455000D03*
X150800000Y-81995000D03*
X150800000Y-84535000D03*
X150800000Y-87075000D03*
X150800000Y-89615000D03*
X158420000Y-74375000D03*
X158420000Y-76915000D03*
X158420000Y-79455000D03*
X158420000Y-81995000D03*
X158420000Y-84535000D03*
X158420000Y-87075000D03*
X158420000Y-89615000D03*
%TO.C,74LS30*%
X163360000Y-51550000D03*
X163360000Y-54090000D03*
X163360000Y-56630000D03*
X163360000Y-59170000D03*
X163360000Y-61710000D03*
X163360000Y-64250000D03*
X163360000Y-66790000D03*
X163360000Y-71850000D03*
X163360000Y-74390000D03*
X163360000Y-76930000D03*
X163360000Y-79470000D03*
X163360000Y-82010000D03*
X163360000Y-84550000D03*
X163360000Y-87090000D03*
X163360000Y-92050000D03*
X163360000Y-94590000D03*
X163360000Y-97130000D03*
X163360000Y-99670000D03*
X163360000Y-102210000D03*
X163360000Y-104750000D03*
X163360000Y-107290000D03*
X163360000Y-112250000D03*
X163360000Y-114790000D03*
X163360000Y-117330000D03*
X163360000Y-119870000D03*
X163360000Y-122410000D03*
X163360000Y-124950000D03*
X163360000Y-127490000D03*
X170980000Y-51550000D03*
X170980000Y-54090000D03*
X170980000Y-56630000D03*
X170980000Y-59170000D03*
X170980000Y-61710000D03*
X170980000Y-64250000D03*
X170980000Y-66790000D03*
X170980000Y-71850000D03*
X170980000Y-74390000D03*
X170980000Y-76930000D03*
X170980000Y-79470000D03*
X170980000Y-82010000D03*
X170980000Y-84550000D03*
X170980000Y-87090000D03*
X170980000Y-92050000D03*
X170980000Y-94590000D03*
X170980000Y-97130000D03*
X170980000Y-99670000D03*
X170980000Y-102210000D03*
X170980000Y-104750000D03*
X170980000Y-107290000D03*
X170980000Y-112250000D03*
X170980000Y-114790000D03*
X170980000Y-117330000D03*
X170980000Y-119870000D03*
X170980000Y-122410000D03*
X170980000Y-124950000D03*
X170980000Y-127490000D03*
%TO.C,74LS161*%
X186660000Y-54460000D03*
X186660000Y-57000000D03*
X186660000Y-59540000D03*
X186660000Y-62080000D03*
X186660000Y-64620000D03*
X186660000Y-67160000D03*
X186660000Y-69700000D03*
X186660000Y-72240000D03*
X186660000Y-75960000D03*
X186660000Y-78500000D03*
X186660000Y-81040000D03*
X186660000Y-83580000D03*
X186660000Y-86120000D03*
X186660000Y-88660000D03*
X186660000Y-91200000D03*
X186660000Y-93740000D03*
X186660000Y-97460000D03*
X186660000Y-100000000D03*
X186660000Y-102540000D03*
X186660000Y-105080000D03*
X186660000Y-107620000D03*
X186660000Y-110160000D03*
X186660000Y-112700000D03*
X186660000Y-115240000D03*
%TO.C,74LS04*%
X186680000Y-119060000D03*
X186680000Y-121600000D03*
X186680000Y-124140000D03*
X186680000Y-126680000D03*
X186680000Y-129220000D03*
X186680000Y-131760000D03*
X186680000Y-134300000D03*
%TO.C,74LS161*%
X194280000Y-54460000D03*
X194280000Y-57000000D03*
X194280000Y-59540000D03*
X194280000Y-62080000D03*
X194280000Y-64620000D03*
X194280000Y-67160000D03*
X194280000Y-69700000D03*
X194280000Y-72240000D03*
X194280000Y-75960000D03*
X194280000Y-78500000D03*
X194280000Y-81040000D03*
X194280000Y-83580000D03*
X194280000Y-86120000D03*
X194280000Y-88660000D03*
X194280000Y-91200000D03*
X194280000Y-93740000D03*
X194280000Y-97460000D03*
X194280000Y-100000000D03*
X194280000Y-102540000D03*
X194280000Y-105080000D03*
X194280000Y-107620000D03*
X194280000Y-110160000D03*
X194280000Y-112700000D03*
X194280000Y-115240000D03*
%TO.C,74LS04*%
X194300000Y-119060000D03*
X194300000Y-121600000D03*
X194300000Y-124140000D03*
X194300000Y-126680000D03*
X194300000Y-129220000D03*
X194300000Y-131760000D03*
X194300000Y-134300000D03*
D12*
%TO.C,REF\u002A\u002A*%
X104800000Y-47300000D03*
X107340000Y-47300000D03*
X109880000Y-47300000D03*
X112420000Y-47300000D03*
X114960000Y-47300000D03*
X117500000Y-47300000D03*
X120040000Y-47300000D03*
X122580000Y-47300000D03*
%TO.C,VGA PORT 1*%
X125630000Y-136250000D03*
X125630000Y-140210000D03*
X126775000Y-138230000D03*
X127920000Y-136250000D03*
X127920000Y-140210000D03*
X129065000Y-138230000D03*
X130210000Y-136250000D03*
X130210000Y-140210000D03*
X131355000Y-138230000D03*
%TO.C,REF\u002A\u002A*%
X132025000Y-47275000D03*
%TO.C,VGA PORT 1*%
X132500000Y-136250000D03*
X132500000Y-140210000D03*
X133645000Y-138230000D03*
%TO.C,REF\u002A\u002A*%
X134565000Y-47275000D03*
%TO.C,VGA PORT 1*%
X134790000Y-136250000D03*
X134790000Y-140210000D03*
X135935000Y-138230000D03*
%TO.C,REF\u002A\u002A*%
X137105000Y-47275000D03*
X139645000Y-47275000D03*
X142185000Y-47275000D03*
X144725000Y-47275000D03*
X147265000Y-47275000D03*
X149805000Y-47275000D03*
X152345000Y-47275000D03*
X154885000Y-47275000D03*
%TO.C,VGA PORT 2*%
X156925000Y-136240000D03*
X156925000Y-140200000D03*
%TO.C,REF\u002A\u002A*%
X157425000Y-47275000D03*
%TO.C,VGA PORT 2*%
X158070000Y-138220000D03*
X159215000Y-136240000D03*
X159215000Y-140200000D03*
%TO.C,REF\u002A\u002A*%
X159965000Y-47275000D03*
%TO.C,VGA PORT 2*%
X160360000Y-138220000D03*
X161505000Y-136240000D03*
X161505000Y-140200000D03*
X162650000Y-138220000D03*
X163795000Y-136240000D03*
X163795000Y-140200000D03*
X164940000Y-138220000D03*
X166085000Y-136240000D03*
X166085000Y-140200000D03*
X167230000Y-138220000D03*
%TO.C,REF\u002A\u002A*%
X169525000Y-47275000D03*
X172065000Y-47275000D03*
X174605000Y-47275000D03*
X177145000Y-47275000D03*
X179685000Y-47275000D03*
X182225000Y-47275000D03*
X182305000Y-139570000D03*
X184765000Y-47275000D03*
X184845000Y-139570000D03*
X187305000Y-47275000D03*
D13*
%TO.C,VGA PORT 1*%
X117975000Y-138300000D03*
X142975000Y-138300000D03*
%TO.C,VGA PORT 2*%
X149270000Y-138290000D03*
X174270000Y-138290000D03*
M02*
