%TF.GenerationSoftware,KiCad,Pcbnew,(6.0.5)*%
%TF.CreationDate,2023-02-18T09:08:36+02:00*%
%TF.ProjectId,VIDEOCARD_SCREENSYNC2.0,56494445-4f43-4415-9244-5f5343524545,rev?*%
%TF.SameCoordinates,Original*%
%TF.FileFunction,Soldermask,Bot*%
%TF.FilePolarity,Negative*%
%FSLAX46Y46*%
G04 Gerber Fmt 4.6, Leading zero omitted, Abs format (unit mm)*
G04 Created by KiCad (PCBNEW (6.0.5)) date 2023-02-18 09:08:36*
%MOMM*%
%LPD*%
G01*
G04 APERTURE LIST*
%ADD10C,4.000000*%
%ADD11R,1.600000X1.600000*%
%ADD12C,1.600000*%
%ADD13R,2.400000X1.600000*%
%ADD14O,2.400000X1.600000*%
%ADD15R,1.700000X1.700000*%
%ADD16O,1.700000X1.700000*%
G04 APERTURE END LIST*
D10*
%TO.C,VGA PORT 2*%
X149270000Y-138290000D03*
X174270000Y-138290000D03*
D11*
X166085000Y-136240000D03*
D12*
X163795000Y-136240000D03*
X161505000Y-136240000D03*
X159215000Y-136240000D03*
X156925000Y-136240000D03*
X167230000Y-138220000D03*
X164940000Y-138220000D03*
X162650000Y-138220000D03*
X160360000Y-138220000D03*
X158070000Y-138220000D03*
X166085000Y-140200000D03*
X163795000Y-140200000D03*
X161505000Y-140200000D03*
X159215000Y-140200000D03*
X156925000Y-140200000D03*
%TD*%
D13*
%TO.C,74LS161*%
X97880000Y-97570000D03*
D14*
X97880000Y-100110000D03*
X97880000Y-102650000D03*
X97880000Y-105190000D03*
X97880000Y-107730000D03*
X97880000Y-110270000D03*
X97880000Y-112810000D03*
X97880000Y-115350000D03*
X105500000Y-115350000D03*
X105500000Y-112810000D03*
X105500000Y-110270000D03*
X105500000Y-107730000D03*
X105500000Y-105190000D03*
X105500000Y-102650000D03*
X105500000Y-100110000D03*
X105500000Y-97570000D03*
%TD*%
D12*
%TO.C,*%
X142100000Y-65700000D03*
%TD*%
D13*
%TO.C,74LS30*%
X121080000Y-91870000D03*
D14*
X121080000Y-94410000D03*
X121080000Y-96950000D03*
X121080000Y-99490000D03*
X121080000Y-102030000D03*
X121080000Y-104570000D03*
X121080000Y-107110000D03*
X128700000Y-107110000D03*
X128700000Y-104570000D03*
X128700000Y-102030000D03*
X128700000Y-99490000D03*
X128700000Y-96950000D03*
X128700000Y-94410000D03*
X128700000Y-91870000D03*
%TD*%
D13*
%TO.C,74LS30*%
X121080000Y-112170000D03*
D14*
X121080000Y-114710000D03*
X121080000Y-117250000D03*
X121080000Y-119790000D03*
X121080000Y-122330000D03*
X121080000Y-124870000D03*
X121080000Y-127410000D03*
X128700000Y-127410000D03*
X128700000Y-124870000D03*
X128700000Y-122330000D03*
X128700000Y-119790000D03*
X128700000Y-117250000D03*
X128700000Y-114710000D03*
X128700000Y-112170000D03*
%TD*%
D13*
%TO.C,74LS30*%
X170980000Y-66790000D03*
D14*
X170980000Y-64250000D03*
X170980000Y-61710000D03*
X170980000Y-59170000D03*
X170980000Y-56630000D03*
X170980000Y-54090000D03*
X170980000Y-51550000D03*
X163360000Y-51550000D03*
X163360000Y-54090000D03*
X163360000Y-56630000D03*
X163360000Y-59170000D03*
X163360000Y-61710000D03*
X163360000Y-64250000D03*
X163360000Y-66790000D03*
%TD*%
D13*
%TO.C,74LS04*%
X186680000Y-119060000D03*
D14*
X186680000Y-121600000D03*
X186680000Y-124140000D03*
X186680000Y-126680000D03*
X186680000Y-129220000D03*
X186680000Y-131760000D03*
X186680000Y-134300000D03*
X194300000Y-134300000D03*
X194300000Y-131760000D03*
X194300000Y-129220000D03*
X194300000Y-126680000D03*
X194300000Y-124140000D03*
X194300000Y-121600000D03*
X194300000Y-119060000D03*
%TD*%
D13*
%TO.C,74LS161*%
X194280000Y-115240000D03*
D14*
X194280000Y-112700000D03*
X194280000Y-110160000D03*
X194280000Y-107620000D03*
X194280000Y-105080000D03*
X194280000Y-102540000D03*
X194280000Y-100000000D03*
X194280000Y-97460000D03*
X186660000Y-97460000D03*
X186660000Y-100000000D03*
X186660000Y-102540000D03*
X186660000Y-105080000D03*
X186660000Y-107620000D03*
X186660000Y-110160000D03*
X186660000Y-112700000D03*
X186660000Y-115240000D03*
%TD*%
%TO.C,74LS00*%
X158420000Y-74375000D03*
X158420000Y-76915000D03*
X158420000Y-79455000D03*
X158420000Y-81995000D03*
X158420000Y-84535000D03*
X158420000Y-87075000D03*
X158420000Y-89615000D03*
X150800000Y-89615000D03*
X150800000Y-87075000D03*
X150800000Y-84535000D03*
X150800000Y-81995000D03*
X150800000Y-79455000D03*
X150800000Y-76915000D03*
D13*
X150800000Y-74375000D03*
%TD*%
%TO.C,74LS30*%
X121080000Y-51470000D03*
D14*
X121080000Y-54010000D03*
X121080000Y-56550000D03*
X121080000Y-59090000D03*
X121080000Y-61630000D03*
X121080000Y-64170000D03*
X121080000Y-66710000D03*
X128700000Y-66710000D03*
X128700000Y-64170000D03*
X128700000Y-61630000D03*
X128700000Y-59090000D03*
X128700000Y-56550000D03*
X128700000Y-54010000D03*
X128700000Y-51470000D03*
%TD*%
D15*
%TO.C,REF\u002A\u002A*%
X169525000Y-47275000D03*
D16*
X172065000Y-47275000D03*
X174605000Y-47275000D03*
X177145000Y-47275000D03*
X179685000Y-47275000D03*
X182225000Y-47275000D03*
X184765000Y-47275000D03*
X187305000Y-47275000D03*
%TD*%
D13*
%TO.C,74LS161*%
X97880000Y-54570000D03*
D14*
X97880000Y-57110000D03*
X97880000Y-59650000D03*
X97880000Y-62190000D03*
X97880000Y-64730000D03*
X97880000Y-67270000D03*
X97880000Y-69810000D03*
X97880000Y-72350000D03*
X105500000Y-72350000D03*
X105500000Y-69810000D03*
X105500000Y-67270000D03*
X105500000Y-64730000D03*
X105500000Y-62190000D03*
X105500000Y-59650000D03*
X105500000Y-57110000D03*
X105500000Y-54570000D03*
%TD*%
D10*
%TO.C,VGA PORT 1*%
X117975000Y-138300000D03*
X142975000Y-138300000D03*
D11*
X134790000Y-136250000D03*
D12*
X132500000Y-136250000D03*
X130210000Y-136250000D03*
X127920000Y-136250000D03*
X125630000Y-136250000D03*
X135935000Y-138230000D03*
X133645000Y-138230000D03*
X131355000Y-138230000D03*
X129065000Y-138230000D03*
X126775000Y-138230000D03*
X134790000Y-140210000D03*
X132500000Y-140210000D03*
X130210000Y-140210000D03*
X127920000Y-140210000D03*
X125630000Y-140210000D03*
%TD*%
D13*
%TO.C,74LS161*%
X97880000Y-76070000D03*
D14*
X97880000Y-78610000D03*
X97880000Y-81150000D03*
X97880000Y-83690000D03*
X97880000Y-86230000D03*
X97880000Y-88770000D03*
X97880000Y-91310000D03*
X97880000Y-93850000D03*
X105500000Y-93850000D03*
X105500000Y-91310000D03*
X105500000Y-88770000D03*
X105500000Y-86230000D03*
X105500000Y-83690000D03*
X105500000Y-81150000D03*
X105500000Y-78610000D03*
X105500000Y-76070000D03*
%TD*%
D12*
%TO.C,*%
X142100000Y-58100000D03*
%TD*%
D15*
%TO.C,REF\u002A\u002A*%
X104800000Y-47300000D03*
D16*
X107340000Y-47300000D03*
X109880000Y-47300000D03*
X112420000Y-47300000D03*
X114960000Y-47300000D03*
X117500000Y-47300000D03*
X120040000Y-47300000D03*
X122580000Y-47300000D03*
%TD*%
D13*
%TO.C,74LS30*%
X170980000Y-87090000D03*
D14*
X170980000Y-84550000D03*
X170980000Y-82010000D03*
X170980000Y-79470000D03*
X170980000Y-76930000D03*
X170980000Y-74390000D03*
X170980000Y-71850000D03*
X163360000Y-71850000D03*
X163360000Y-74390000D03*
X163360000Y-76930000D03*
X163360000Y-79470000D03*
X163360000Y-82010000D03*
X163360000Y-84550000D03*
X163360000Y-87090000D03*
%TD*%
D13*
%TO.C,74LS161*%
X194280000Y-72240000D03*
D14*
X194280000Y-69700000D03*
X194280000Y-67160000D03*
X194280000Y-64620000D03*
X194280000Y-62080000D03*
X194280000Y-59540000D03*
X194280000Y-57000000D03*
X194280000Y-54460000D03*
X186660000Y-54460000D03*
X186660000Y-57000000D03*
X186660000Y-59540000D03*
X186660000Y-62080000D03*
X186660000Y-64620000D03*
X186660000Y-67160000D03*
X186660000Y-69700000D03*
X186660000Y-72240000D03*
%TD*%
D13*
%TO.C,74LS30*%
X121080000Y-71670000D03*
D14*
X121080000Y-74210000D03*
X121080000Y-76750000D03*
X121080000Y-79290000D03*
X121080000Y-81830000D03*
X121080000Y-84370000D03*
X121080000Y-86910000D03*
X128700000Y-86910000D03*
X128700000Y-84370000D03*
X128700000Y-81830000D03*
X128700000Y-79290000D03*
X128700000Y-76750000D03*
X128700000Y-74210000D03*
X128700000Y-71670000D03*
%TD*%
D15*
%TO.C,REF\u002A\u002A*%
X182305000Y-139570000D03*
D16*
X184845000Y-139570000D03*
%TD*%
D12*
%TO.C,*%
X149700000Y-58100000D03*
%TD*%
D13*
%TO.C,74LS161*%
X194280000Y-93740000D03*
D14*
X194280000Y-91200000D03*
X194280000Y-88660000D03*
X194280000Y-86120000D03*
X194280000Y-83580000D03*
X194280000Y-81040000D03*
X194280000Y-78500000D03*
X194280000Y-75960000D03*
X186660000Y-75960000D03*
X186660000Y-78500000D03*
X186660000Y-81040000D03*
X186660000Y-83580000D03*
X186660000Y-86120000D03*
X186660000Y-88660000D03*
X186660000Y-91200000D03*
X186660000Y-93740000D03*
%TD*%
D13*
%TO.C,74LS04*%
X97880000Y-119070000D03*
D14*
X97880000Y-121610000D03*
X97880000Y-124150000D03*
X97880000Y-126690000D03*
X97880000Y-129230000D03*
X97880000Y-131770000D03*
X97880000Y-134310000D03*
X105500000Y-134310000D03*
X105500000Y-131770000D03*
X105500000Y-129230000D03*
X105500000Y-126690000D03*
X105500000Y-124150000D03*
X105500000Y-121610000D03*
X105500000Y-119070000D03*
%TD*%
D13*
%TO.C,74LS00*%
X133500000Y-74300000D03*
D14*
X133500000Y-76840000D03*
X133500000Y-79380000D03*
X133500000Y-81920000D03*
X133500000Y-84460000D03*
X133500000Y-87000000D03*
X133500000Y-89540000D03*
X141120000Y-89540000D03*
X141120000Y-87000000D03*
X141120000Y-84460000D03*
X141120000Y-81920000D03*
X141120000Y-79380000D03*
X141120000Y-76840000D03*
X141120000Y-74300000D03*
%TD*%
D13*
%TO.C,74LS30*%
X170980000Y-107290000D03*
D14*
X170980000Y-104750000D03*
X170980000Y-102210000D03*
X170980000Y-99670000D03*
X170980000Y-97130000D03*
X170980000Y-94590000D03*
X170980000Y-92050000D03*
X163360000Y-92050000D03*
X163360000Y-94590000D03*
X163360000Y-97130000D03*
X163360000Y-99670000D03*
X163360000Y-102210000D03*
X163360000Y-104750000D03*
X163360000Y-107290000D03*
%TD*%
D15*
%TO.C,REF\u002A\u002A*%
X132025000Y-47275000D03*
D16*
X134565000Y-47275000D03*
X137105000Y-47275000D03*
X139645000Y-47275000D03*
X142185000Y-47275000D03*
X144725000Y-47275000D03*
X147265000Y-47275000D03*
X149805000Y-47275000D03*
X152345000Y-47275000D03*
X154885000Y-47275000D03*
X157425000Y-47275000D03*
X159965000Y-47275000D03*
%TD*%
D12*
%TO.C,*%
X149700000Y-65700000D03*
%TD*%
D13*
%TO.C,74LS30*%
X170980000Y-127490000D03*
D14*
X170980000Y-124950000D03*
X170980000Y-122410000D03*
X170980000Y-119870000D03*
X170980000Y-117330000D03*
X170980000Y-114790000D03*
X170980000Y-112250000D03*
X163360000Y-112250000D03*
X163360000Y-114790000D03*
X163360000Y-117330000D03*
X163360000Y-119870000D03*
X163360000Y-122410000D03*
X163360000Y-124950000D03*
X163360000Y-127490000D03*
%TD*%
M02*
