%TF.GenerationSoftware,KiCad,Pcbnew,(6.0.5)*%
%TF.CreationDate,2023-02-18T09:08:36+02:00*%
%TF.ProjectId,VIDEOCARD_SCREENSYNC2.0,56494445-4f43-4415-9244-5f5343524545,rev?*%
%TF.SameCoordinates,Original*%
%TF.FileFunction,Copper,L1,Top*%
%TF.FilePolarity,Positive*%
%FSLAX46Y46*%
G04 Gerber Fmt 4.6, Leading zero omitted, Abs format (unit mm)*
G04 Created by KiCad (PCBNEW (6.0.5)) date 2023-02-18 09:08:36*
%MOMM*%
%LPD*%
G01*
G04 APERTURE LIST*
%TA.AperFunction,ComponentPad*%
%ADD10C,4.000000*%
%TD*%
%TA.AperFunction,ComponentPad*%
%ADD11R,1.600000X1.600000*%
%TD*%
%TA.AperFunction,ComponentPad*%
%ADD12C,1.600000*%
%TD*%
%TA.AperFunction,ComponentPad*%
%ADD13R,2.400000X1.600000*%
%TD*%
%TA.AperFunction,ComponentPad*%
%ADD14O,2.400000X1.600000*%
%TD*%
%TA.AperFunction,ComponentPad*%
%ADD15R,1.700000X1.700000*%
%TD*%
%TA.AperFunction,ComponentPad*%
%ADD16O,1.700000X1.700000*%
%TD*%
%TA.AperFunction,ViaPad*%
%ADD17C,0.800000*%
%TD*%
%TA.AperFunction,Conductor*%
%ADD18C,0.400000*%
%TD*%
%TA.AperFunction,Conductor*%
%ADD19C,0.500000*%
%TD*%
%TA.AperFunction,Conductor*%
%ADD20C,0.150000*%
%TD*%
%TA.AperFunction,Conductor*%
%ADD21C,0.300000*%
%TD*%
G04 APERTURE END LIST*
D10*
%TO.P,VGA PORT 2,0*%
%TO.N,N/C*%
X149270000Y-138290000D03*
X174270000Y-138290000D03*
D11*
%TO.P,VGA PORT 2,1*%
X166085000Y-136240000D03*
D12*
%TO.P,VGA PORT 2,2*%
%TO.N,RED2*%
X163795000Y-136240000D03*
%TO.P,VGA PORT 2,3*%
%TO.N,GREEN2*%
X161505000Y-136240000D03*
%TO.P,VGA PORT 2,4*%
%TO.N,BLUE2*%
X159215000Y-136240000D03*
%TO.P,VGA PORT 2,5*%
%TO.N,GND*%
X156925000Y-136240000D03*
%TO.P,VGA PORT 2,6*%
X167230000Y-138220000D03*
%TO.P,VGA PORT 2,7*%
X164940000Y-138220000D03*
%TO.P,VGA PORT 2,8*%
X162650000Y-138220000D03*
%TO.P,VGA PORT 2,9*%
%TO.N,N/C*%
X160360000Y-138220000D03*
%TO.P,VGA PORT 2,10*%
%TO.N,GND*%
X158070000Y-138220000D03*
%TO.P,VGA PORT 2,11*%
%TO.N,N/C*%
X166085000Y-140200000D03*
%TO.P,VGA PORT 2,12*%
X163795000Y-140200000D03*
%TO.P,VGA PORT 2,13*%
%TO.N,H_SYNC*%
X161505000Y-140200000D03*
%TO.P,VGA PORT 2,14*%
%TO.N,V_SYNC*%
X159215000Y-140200000D03*
%TO.P,VGA PORT 2,15*%
%TO.N,N/C*%
X156925000Y-140200000D03*
%TD*%
D13*
%TO.P,74LS161,1*%
%TO.N,RESET1*%
X97880000Y-97570000D03*
D14*
%TO.P,74LS161,2*%
%TO.N,CLK*%
X97880000Y-100110000D03*
%TO.P,74LS161,3*%
%TO.N,N/C*%
X97880000Y-102650000D03*
%TO.P,74LS161,4*%
X97880000Y-105190000D03*
%TO.P,74LS161,5*%
X97880000Y-107730000D03*
%TO.P,74LS161,6*%
X97880000Y-110270000D03*
%TO.P,74LS161,7*%
%TO.N,VCC*%
X97880000Y-112810000D03*
%TO.P,74LS161,8*%
%TO.N,GND*%
X97880000Y-115350000D03*
%TO.P,74LS161,9*%
%TO.N,VCC*%
X105500000Y-115350000D03*
%TO.P,74LS161,10*%
%TO.N,N/C*%
X105500000Y-112810000D03*
%TO.P,74LS161,11*%
X105500000Y-110270000D03*
%TO.P,74LS161,12*%
X105500000Y-107730000D03*
%TO.P,74LS161,13*%
X105500000Y-105190000D03*
%TO.P,74LS161,14*%
%TO.N,H8*%
X105500000Y-102650000D03*
%TO.P,74LS161,15*%
%TO.N,N/C*%
X105500000Y-100110000D03*
%TO.P,74LS161,16*%
%TO.N,VCC*%
X105500000Y-97570000D03*
%TD*%
D12*
%TO.P,,1*%
%TO.N,VCC*%
X142100000Y-65700000D03*
%TD*%
D13*
%TO.P,74LS30,1*%
%TO.N,H1*%
X121080000Y-91870000D03*
D14*
%TO.P,74LS30,2*%
%TO.N,H4*%
X121080000Y-94410000D03*
%TO.P,74LS30,3*%
%TO.N,H5*%
X121080000Y-96950000D03*
%TO.P,74LS30,4*%
%TO.N,H6*%
X121080000Y-99490000D03*
%TO.P,74LS30,5*%
%TO.N,H7*%
X121080000Y-102030000D03*
%TO.P,74LS30,6*%
%TO.N,H_0*%
X121080000Y-104570000D03*
%TO.P,74LS30,7*%
%TO.N,GND*%
X121080000Y-107110000D03*
%TO.P,74LS30,8*%
%TO.N,242*%
X128700000Y-107110000D03*
%TO.P,74LS30,9*%
%TO.N,N/C*%
X128700000Y-104570000D03*
%TO.P,74LS30,10*%
X128700000Y-102030000D03*
%TO.P,74LS30,11*%
%TO.N,H_3*%
X128700000Y-99490000D03*
%TO.P,74LS30,12*%
%TO.N,H_2*%
X128700000Y-96950000D03*
%TO.P,74LS30,13*%
%TO.N,N/C*%
X128700000Y-94410000D03*
%TO.P,74LS30,14*%
%TO.N,VCC*%
X128700000Y-91870000D03*
%TD*%
D13*
%TO.P,74LS30,1*%
%TO.N,H3*%
X121080000Y-112170000D03*
D14*
%TO.P,74LS30,2*%
%TO.N,H8*%
X121080000Y-114710000D03*
%TO.P,74LS30,3*%
%TO.N,H_0*%
X121080000Y-117250000D03*
%TO.P,74LS30,4*%
%TO.N,H_1*%
X121080000Y-119790000D03*
%TO.P,74LS30,5*%
%TO.N,H_2*%
X121080000Y-122330000D03*
%TO.P,74LS30,6*%
%TO.N,H_4*%
X121080000Y-124870000D03*
%TO.P,74LS30,7*%
%TO.N,GND*%
X121080000Y-127410000D03*
%TO.P,74LS30,8*%
%TO.N,RESET1*%
X128700000Y-127410000D03*
%TO.P,74LS30,9*%
%TO.N,N/C*%
X128700000Y-124870000D03*
%TO.P,74LS30,10*%
X128700000Y-122330000D03*
%TO.P,74LS30,11*%
%TO.N,H_5*%
X128700000Y-119790000D03*
%TO.P,74LS30,12*%
X128700000Y-117250000D03*
%TO.P,74LS30,13*%
%TO.N,N/C*%
X128700000Y-114710000D03*
%TO.P,74LS30,14*%
%TO.N,VCC*%
X128700000Y-112170000D03*
%TD*%
D13*
%TO.P,74LS30,1*%
%TO.N,V_2*%
X170980000Y-66790000D03*
D14*
%TO.P,74LS30,2*%
%TO.N,V_5*%
X170980000Y-64250000D03*
%TO.P,74LS30,3*%
%TO.N,V9*%
X170980000Y-61710000D03*
%TO.P,74LS30,4*%
%TO.N,V6*%
X170980000Y-59170000D03*
%TO.P,74LS30,5*%
%TO.N,V4*%
X170980000Y-56630000D03*
%TO.P,74LS30,6*%
%TO.N,V3*%
X170980000Y-54090000D03*
%TO.P,74LS30,7*%
%TO.N,GND*%
X170980000Y-51550000D03*
%TO.P,74LS30,8*%
%TO.N,600*%
X163360000Y-51550000D03*
%TO.P,74LS30,9*%
%TO.N,N/C*%
X163360000Y-54090000D03*
%TO.P,74LS30,10*%
X163360000Y-56630000D03*
%TO.P,74LS30,11*%
%TO.N,V_1*%
X163360000Y-59170000D03*
%TO.P,74LS30,12*%
%TO.N,V_0*%
X163360000Y-61710000D03*
%TO.P,74LS30,13*%
%TO.N,N/C*%
X163360000Y-64250000D03*
%TO.P,74LS30,14*%
%TO.N,VCC*%
X163360000Y-66790000D03*
%TD*%
D13*
%TO.P,74LS04,1*%
%TO.N,V5*%
X186680000Y-119060000D03*
D14*
%TO.P,74LS04,2*%
%TO.N,V_5*%
X186680000Y-121600000D03*
%TO.P,74LS04,3*%
%TO.N,V3*%
X186680000Y-124140000D03*
%TO.P,74LS04,4*%
%TO.N,V_3*%
X186680000Y-126680000D03*
%TO.P,74LS04,5*%
%TO.N,V2*%
X186680000Y-129220000D03*
%TO.P,74LS04,6*%
%TO.N,V_2*%
X186680000Y-131760000D03*
%TO.P,74LS04,7*%
%TO.N,GND*%
X186680000Y-134300000D03*
%TO.P,74LS04,8*%
%TO.N,N/C*%
X194300000Y-134300000D03*
%TO.P,74LS04,9*%
X194300000Y-131760000D03*
%TO.P,74LS04,10*%
%TO.N,V_0*%
X194300000Y-129220000D03*
%TO.P,74LS04,11*%
%TO.N,V0*%
X194300000Y-126680000D03*
%TO.P,74LS04,12*%
%TO.N,V_1*%
X194300000Y-124140000D03*
%TO.P,74LS04,13*%
%TO.N,V1*%
X194300000Y-121600000D03*
%TO.P,74LS04,14*%
%TO.N,VCC*%
X194300000Y-119060000D03*
%TD*%
D13*
%TO.P,74LS161,1*%
%TO.N,RESET2*%
X194280000Y-115240000D03*
D14*
%TO.P,74LS161,2*%
%TO.N,RESET1*%
X194280000Y-112700000D03*
%TO.P,74LS161,3*%
%TO.N,N/C*%
X194280000Y-110160000D03*
%TO.P,74LS161,4*%
X194280000Y-107620000D03*
%TO.P,74LS161,5*%
X194280000Y-105080000D03*
%TO.P,74LS161,6*%
X194280000Y-102540000D03*
%TO.P,74LS161,7*%
%TO.N,VCC*%
X194280000Y-100000000D03*
%TO.P,74LS161,8*%
%TO.N,GND*%
X194280000Y-97460000D03*
%TO.P,74LS161,9*%
%TO.N,VCC*%
X186660000Y-97460000D03*
%TO.P,74LS161,10*%
X186660000Y-100000000D03*
%TO.P,74LS161,11*%
%TO.N,V3*%
X186660000Y-102540000D03*
%TO.P,74LS161,12*%
%TO.N,V2*%
X186660000Y-105080000D03*
%TO.P,74LS161,13*%
%TO.N,V1*%
X186660000Y-107620000D03*
%TO.P,74LS161,14*%
%TO.N,V0*%
X186660000Y-110160000D03*
%TO.P,74LS161,15*%
%TO.N,N/C*%
X186660000Y-112700000D03*
%TO.P,74LS161,16*%
%TO.N,VCC*%
X186660000Y-115240000D03*
%TD*%
%TO.P,74LS00,14*%
%TO.N,VCC*%
X158420000Y-74375000D03*
%TO.P,74LS00,13*%
%TO.N,601*%
X158420000Y-76915000D03*
%TO.P,74LS00,12*%
%TO.N,V_SYNC*%
X158420000Y-79455000D03*
%TO.P,74LS00,11*%
%TO.N,N/C*%
X158420000Y-81995000D03*
%TO.P,74LS00,10*%
X158420000Y-84535000D03*
%TO.P,74LS00,9*%
%TO.N,605*%
X158420000Y-87075000D03*
%TO.P,74LS00,8*%
%TO.N,V_SYNC*%
X158420000Y-89615000D03*
%TO.P,74LS00,7*%
%TO.N,GND*%
X150800000Y-89615000D03*
%TO.P,74LS00,6*%
%TO.N,V_BLANK*%
X150800000Y-87075000D03*
%TO.P,74LS00,5*%
%TO.N,RESET2*%
X150800000Y-84535000D03*
%TO.P,74LS00,4*%
%TO.N,N/C*%
X150800000Y-81995000D03*
%TO.P,74LS00,3*%
X150800000Y-79455000D03*
%TO.P,74LS00,2*%
%TO.N,V_BLANK*%
X150800000Y-76915000D03*
D13*
%TO.P,74LS00,1*%
%TO.N,600*%
X150800000Y-74375000D03*
%TD*%
%TO.P,74LS30,1*%
%TO.N,H3*%
X121080000Y-51470000D03*
D14*
%TO.P,74LS30,2*%
%TO.N,H6*%
X121080000Y-54010000D03*
%TO.P,74LS30,3*%
%TO.N,H7*%
X121080000Y-56550000D03*
%TO.P,74LS30,4*%
%TO.N,H_0*%
X121080000Y-59090000D03*
%TO.P,74LS30,5*%
%TO.N,H_1*%
X121080000Y-61630000D03*
%TO.P,74LS30,6*%
%TO.N,H_2*%
X121080000Y-64170000D03*
%TO.P,74LS30,7*%
%TO.N,GND*%
X121080000Y-66710000D03*
%TO.P,74LS30,8*%
%TO.N,200*%
X128700000Y-66710000D03*
%TO.P,74LS30,9*%
%TO.N,N/C*%
X128700000Y-64170000D03*
%TO.P,74LS30,10*%
X128700000Y-61630000D03*
%TO.P,74LS30,11*%
%TO.N,H_5*%
X128700000Y-59090000D03*
%TO.P,74LS30,12*%
%TO.N,H_4*%
X128700000Y-56550000D03*
%TO.P,74LS30,13*%
%TO.N,N/C*%
X128700000Y-54010000D03*
%TO.P,74LS30,14*%
%TO.N,VCC*%
X128700000Y-51470000D03*
%TD*%
D15*
%TO.P,REF\u002A\u002A,1*%
%TO.N,V0*%
X169525000Y-47275000D03*
D16*
%TO.P,REF\u002A\u002A,2*%
%TO.N,V1*%
X172065000Y-47275000D03*
%TO.P,REF\u002A\u002A,3*%
%TO.N,V2*%
X174605000Y-47275000D03*
%TO.P,REF\u002A\u002A,4*%
%TO.N,V3*%
X177145000Y-47275000D03*
%TO.P,REF\u002A\u002A,5*%
%TO.N,V4*%
X179685000Y-47275000D03*
%TO.P,REF\u002A\u002A,6*%
%TO.N,V5*%
X182225000Y-47275000D03*
%TO.P,REF\u002A\u002A,7*%
%TO.N,V6*%
X184765000Y-47275000D03*
%TO.P,REF\u002A\u002A,8*%
%TO.N,V7*%
X187305000Y-47275000D03*
%TD*%
D13*
%TO.P,74LS161,1*%
%TO.N,RESET1*%
X97880000Y-54570000D03*
D14*
%TO.P,74LS161,2*%
%TO.N,CLK*%
X97880000Y-57110000D03*
%TO.P,74LS161,3*%
%TO.N,N/C*%
X97880000Y-59650000D03*
%TO.P,74LS161,4*%
X97880000Y-62190000D03*
%TO.P,74LS161,5*%
X97880000Y-64730000D03*
%TO.P,74LS161,6*%
X97880000Y-67270000D03*
%TO.P,74LS161,7*%
%TO.N,VCC*%
X97880000Y-69810000D03*
%TO.P,74LS161,8*%
%TO.N,GND*%
X97880000Y-72350000D03*
%TO.P,74LS161,9*%
%TO.N,VCC*%
X105500000Y-72350000D03*
%TO.P,74LS161,10*%
X105500000Y-69810000D03*
%TO.P,74LS161,11*%
%TO.N,H3*%
X105500000Y-67270000D03*
%TO.P,74LS161,12*%
%TO.N,H2*%
X105500000Y-64730000D03*
%TO.P,74LS161,13*%
%TO.N,H1*%
X105500000Y-62190000D03*
%TO.P,74LS161,14*%
%TO.N,H0*%
X105500000Y-59650000D03*
%TO.P,74LS161,15*%
%TO.N,N/C*%
X105500000Y-57110000D03*
%TO.P,74LS161,16*%
%TO.N,VCC*%
X105500000Y-54570000D03*
%TD*%
D10*
%TO.P,VGA PORT 1,0*%
%TO.N,N/C*%
X117975000Y-138300000D03*
X142975000Y-138300000D03*
D11*
%TO.P,VGA PORT 1,1*%
%TO.N,RED1*%
X134790000Y-136250000D03*
D12*
%TO.P,VGA PORT 1,2*%
%TO.N,GREEN1*%
X132500000Y-136250000D03*
%TO.P,VGA PORT 1,3*%
%TO.N,BLUE1*%
X130210000Y-136250000D03*
%TO.P,VGA PORT 1,4*%
%TO.N,N/C*%
X127920000Y-136250000D03*
%TO.P,VGA PORT 1,5*%
%TO.N,GND*%
X125630000Y-136250000D03*
%TO.P,VGA PORT 1,6*%
X135935000Y-138230000D03*
%TO.P,VGA PORT 1,7*%
X133645000Y-138230000D03*
%TO.P,VGA PORT 1,8*%
X131355000Y-138230000D03*
%TO.P,VGA PORT 1,9*%
%TO.N,N/C*%
X129065000Y-138230000D03*
%TO.P,VGA PORT 1,10*%
%TO.N,GND*%
X126775000Y-138230000D03*
%TO.P,VGA PORT 1,11*%
%TO.N,N/C*%
X134790000Y-140210000D03*
%TO.P,VGA PORT 1,12*%
X132500000Y-140210000D03*
%TO.P,VGA PORT 1,13*%
%TO.N,H_SYNC*%
X130210000Y-140210000D03*
%TO.P,VGA PORT 1,14*%
%TO.N,V_SYNC*%
X127920000Y-140210000D03*
%TO.P,VGA PORT 1,15*%
%TO.N,N/C*%
X125630000Y-140210000D03*
%TD*%
D13*
%TO.P,74LS161,1*%
%TO.N,RESET1*%
X97880000Y-76070000D03*
D14*
%TO.P,74LS161,2*%
%TO.N,CLK*%
X97880000Y-78610000D03*
%TO.P,74LS161,3*%
%TO.N,N/C*%
X97880000Y-81150000D03*
%TO.P,74LS161,4*%
X97880000Y-83690000D03*
%TO.P,74LS161,5*%
X97880000Y-86230000D03*
%TO.P,74LS161,6*%
X97880000Y-88770000D03*
%TO.P,74LS161,7*%
%TO.N,VCC*%
X97880000Y-91310000D03*
%TO.P,74LS161,8*%
%TO.N,GND*%
X97880000Y-93850000D03*
%TO.P,74LS161,9*%
%TO.N,VCC*%
X105500000Y-93850000D03*
%TO.P,74LS161,10*%
%TO.N,N/C*%
X105500000Y-91310000D03*
%TO.P,74LS161,11*%
%TO.N,H7*%
X105500000Y-88770000D03*
%TO.P,74LS161,12*%
%TO.N,H6*%
X105500000Y-86230000D03*
%TO.P,74LS161,13*%
%TO.N,H5*%
X105500000Y-83690000D03*
%TO.P,74LS161,14*%
%TO.N,H4*%
X105500000Y-81150000D03*
%TO.P,74LS161,15*%
%TO.N,N/C*%
X105500000Y-78610000D03*
%TO.P,74LS161,16*%
%TO.N,VCC*%
X105500000Y-76070000D03*
%TD*%
D12*
%TO.P,,2*%
%TO.N,CLK*%
X142100000Y-58100000D03*
%TD*%
D15*
%TO.P,REF\u002A\u002A,1*%
%TO.N,H0*%
X104800000Y-47300000D03*
D16*
%TO.P,REF\u002A\u002A,2*%
%TO.N,H1*%
X107340000Y-47300000D03*
%TO.P,REF\u002A\u002A,3*%
%TO.N,H2*%
X109880000Y-47300000D03*
%TO.P,REF\u002A\u002A,4*%
%TO.N,H3*%
X112420000Y-47300000D03*
%TO.P,REF\u002A\u002A,5*%
%TO.N,H4*%
X114960000Y-47300000D03*
%TO.P,REF\u002A\u002A,6*%
%TO.N,H5*%
X117500000Y-47300000D03*
%TO.P,REF\u002A\u002A,7*%
%TO.N,H6*%
X120040000Y-47300000D03*
%TO.P,REF\u002A\u002A,8*%
%TO.N,H7*%
X122580000Y-47300000D03*
%TD*%
D13*
%TO.P,74LS30,1*%
%TO.N,V_5*%
X170980000Y-87090000D03*
D14*
%TO.P,74LS30,2*%
%TO.N,V0*%
X170980000Y-84550000D03*
%TO.P,74LS30,3*%
%TO.N,V3*%
X170980000Y-82010000D03*
%TO.P,74LS30,4*%
%TO.N,V4*%
X170980000Y-79470000D03*
%TO.P,74LS30,5*%
%TO.N,V6*%
X170980000Y-76930000D03*
%TO.P,74LS30,6*%
%TO.N,V9*%
X170980000Y-74390000D03*
%TO.P,74LS30,7*%
%TO.N,GND*%
X170980000Y-71850000D03*
%TO.P,74LS30,8*%
%TO.N,601*%
X163360000Y-71850000D03*
%TO.P,74LS30,9*%
%TO.N,N/C*%
X163360000Y-74390000D03*
%TO.P,74LS30,10*%
X163360000Y-76930000D03*
%TO.P,74LS30,11*%
%TO.N,V_2*%
X163360000Y-79470000D03*
%TO.P,74LS30,12*%
%TO.N,V_1*%
X163360000Y-82010000D03*
%TO.P,74LS30,13*%
%TO.N,N/C*%
X163360000Y-84550000D03*
%TO.P,74LS30,14*%
%TO.N,VCC*%
X163360000Y-87090000D03*
%TD*%
D13*
%TO.P,74LS161,1*%
%TO.N,RESET2*%
X194280000Y-72240000D03*
D14*
%TO.P,74LS161,2*%
%TO.N,RESET1*%
X194280000Y-69700000D03*
%TO.P,74LS161,3*%
%TO.N,N/C*%
X194280000Y-67160000D03*
%TO.P,74LS161,4*%
X194280000Y-64620000D03*
%TO.P,74LS161,5*%
X194280000Y-62080000D03*
%TO.P,74LS161,6*%
X194280000Y-59540000D03*
%TO.P,74LS161,7*%
%TO.N,VCC*%
X194280000Y-57000000D03*
%TO.P,74LS161,8*%
%TO.N,GND*%
X194280000Y-54460000D03*
%TO.P,74LS161,9*%
%TO.N,VCC*%
X186660000Y-54460000D03*
%TO.P,74LS161,10*%
%TO.N,N/C*%
X186660000Y-57000000D03*
%TO.P,74LS161,11*%
X186660000Y-59540000D03*
%TO.P,74LS161,12*%
X186660000Y-62080000D03*
%TO.P,74LS161,13*%
%TO.N,V9*%
X186660000Y-64620000D03*
%TO.P,74LS161,14*%
%TO.N,V8*%
X186660000Y-67160000D03*
%TO.P,74LS161,15*%
%TO.N,N/C*%
X186660000Y-69700000D03*
%TO.P,74LS161,16*%
%TO.N,VCC*%
X186660000Y-72240000D03*
%TD*%
D13*
%TO.P,74LS30,1*%
%TO.N,H1*%
X121080000Y-71670000D03*
D14*
%TO.P,74LS30,2*%
%TO.N,H4*%
X121080000Y-74210000D03*
%TO.P,74LS30,3*%
%TO.N,H6*%
X121080000Y-76750000D03*
%TO.P,74LS30,4*%
%TO.N,H7*%
X121080000Y-79290000D03*
%TO.P,74LS30,5*%
%TO.N,H_0*%
X121080000Y-81830000D03*
%TO.P,74LS30,6*%
%TO.N,H_5*%
X121080000Y-84370000D03*
%TO.P,74LS30,7*%
%TO.N,GND*%
X121080000Y-86910000D03*
%TO.P,74LS30,8*%
%TO.N,210*%
X128700000Y-86910000D03*
%TO.P,74LS30,9*%
%TO.N,N/C*%
X128700000Y-84370000D03*
%TO.P,74LS30,10*%
X128700000Y-81830000D03*
%TO.P,74LS30,11*%
%TO.N,H_3*%
X128700000Y-79290000D03*
%TO.P,74LS30,12*%
%TO.N,H_2*%
X128700000Y-76750000D03*
%TO.P,74LS30,13*%
%TO.N,N/C*%
X128700000Y-74210000D03*
%TO.P,74LS30,14*%
%TO.N,VCC*%
X128700000Y-71670000D03*
%TD*%
D15*
%TO.P,REF\u002A\u002A,1*%
%TO.N,N/C*%
X182305000Y-139570000D03*
D16*
%TO.P,REF\u002A\u002A,2*%
X184845000Y-139570000D03*
%TD*%
D12*
%TO.P,,3*%
%TO.N,GND*%
X149700000Y-58100000D03*
%TD*%
D13*
%TO.P,74LS161,1*%
%TO.N,RESET2*%
X194280000Y-93740000D03*
D14*
%TO.P,74LS161,2*%
%TO.N,RESET1*%
X194280000Y-91200000D03*
%TO.P,74LS161,3*%
%TO.N,N/C*%
X194280000Y-88660000D03*
%TO.P,74LS161,4*%
X194280000Y-86120000D03*
%TO.P,74LS161,5*%
X194280000Y-83580000D03*
%TO.P,74LS161,6*%
X194280000Y-81040000D03*
%TO.P,74LS161,7*%
%TO.N,VCC*%
X194280000Y-78500000D03*
%TO.P,74LS161,8*%
%TO.N,GND*%
X194280000Y-75960000D03*
%TO.P,74LS161,9*%
%TO.N,VCC*%
X186660000Y-75960000D03*
%TO.P,74LS161,10*%
%TO.N,N/C*%
X186660000Y-78500000D03*
%TO.P,74LS161,11*%
%TO.N,V7*%
X186660000Y-81040000D03*
%TO.P,74LS161,12*%
%TO.N,V6*%
X186660000Y-83580000D03*
%TO.P,74LS161,13*%
%TO.N,V5*%
X186660000Y-86120000D03*
%TO.P,74LS161,14*%
%TO.N,V4*%
X186660000Y-88660000D03*
%TO.P,74LS161,15*%
%TO.N,N/C*%
X186660000Y-91200000D03*
%TO.P,74LS161,16*%
%TO.N,VCC*%
X186660000Y-93740000D03*
%TD*%
D13*
%TO.P,74LS04,1*%
%TO.N,H3*%
X97880000Y-119070000D03*
D14*
%TO.P,74LS04,2*%
%TO.N,H_3*%
X97880000Y-121610000D03*
%TO.P,74LS04,3*%
%TO.N,H4*%
X97880000Y-124150000D03*
%TO.P,74LS04,4*%
%TO.N,H_4*%
X97880000Y-126690000D03*
%TO.P,74LS04,5*%
%TO.N,H5*%
X97880000Y-129230000D03*
%TO.P,74LS04,6*%
%TO.N,H_5*%
X97880000Y-131770000D03*
%TO.P,74LS04,7*%
%TO.N,GND*%
X97880000Y-134310000D03*
%TO.P,74LS04,8*%
%TO.N,H_2*%
X105500000Y-134310000D03*
%TO.P,74LS04,9*%
%TO.N,H2*%
X105500000Y-131770000D03*
%TO.P,74LS04,10*%
%TO.N,H_1*%
X105500000Y-129230000D03*
%TO.P,74LS04,11*%
%TO.N,H1*%
X105500000Y-126690000D03*
%TO.P,74LS04,12*%
%TO.N,H_0*%
X105500000Y-124150000D03*
%TO.P,74LS04,13*%
%TO.N,H0*%
X105500000Y-121610000D03*
%TO.P,74LS04,14*%
%TO.N,VCC*%
X105500000Y-119070000D03*
%TD*%
D13*
%TO.P,74LS00,1*%
%TO.N,242*%
X133500000Y-74300000D03*
D14*
%TO.P,74LS00,2*%
%TO.N,N/C*%
X133500000Y-76840000D03*
%TO.P,74LS00,3*%
%TO.N,H_SYNC*%
X133500000Y-79380000D03*
%TO.P,74LS00,4*%
X133500000Y-81920000D03*
%TO.P,74LS00,5*%
%TO.N,210*%
X133500000Y-84460000D03*
%TO.P,74LS00,6*%
%TO.N,N/C*%
X133500000Y-87000000D03*
%TO.P,74LS00,7*%
%TO.N,GND*%
X133500000Y-89540000D03*
%TO.P,74LS00,8*%
%TO.N,H_BLANK*%
X141120000Y-89540000D03*
%TO.P,74LS00,9*%
%TO.N,RESET1*%
X141120000Y-87000000D03*
%TO.P,74LS00,10*%
%TO.N,N/C*%
X141120000Y-84460000D03*
%TO.P,74LS00,11*%
X141120000Y-81920000D03*
%TO.P,74LS00,12*%
%TO.N,H_BLANK*%
X141120000Y-79380000D03*
%TO.P,74LS00,13*%
%TO.N,200*%
X141120000Y-76840000D03*
%TO.P,74LS00,14*%
%TO.N,VCC*%
X141120000Y-74300000D03*
%TD*%
D13*
%TO.P,74LS30,1*%
%TO.N,V_1*%
X170980000Y-107290000D03*
D14*
%TO.P,74LS30,2*%
%TO.N,V2*%
X170980000Y-104750000D03*
%TO.P,74LS30,3*%
%TO.N,V3*%
X170980000Y-102210000D03*
%TO.P,74LS30,4*%
%TO.N,V4*%
X170980000Y-99670000D03*
%TO.P,74LS30,5*%
%TO.N,V6*%
X170980000Y-97130000D03*
%TO.P,74LS30,6*%
%TO.N,V9*%
X170980000Y-94590000D03*
%TO.P,74LS30,7*%
%TO.N,GND*%
X170980000Y-92050000D03*
%TO.P,74LS30,8*%
%TO.N,605*%
X163360000Y-92050000D03*
%TO.P,74LS30,9*%
%TO.N,N/C*%
X163360000Y-94590000D03*
%TO.P,74LS30,10*%
X163360000Y-97130000D03*
%TO.P,74LS30,11*%
%TO.N,V_5*%
X163360000Y-99670000D03*
%TO.P,74LS30,12*%
%TO.N,V0*%
X163360000Y-102210000D03*
%TO.P,74LS30,13*%
%TO.N,N/C*%
X163360000Y-104750000D03*
%TO.P,74LS30,14*%
%TO.N,VCC*%
X163360000Y-107290000D03*
%TD*%
D15*
%TO.P,REF\u002A\u002A,1*%
%TO.N,VCC*%
X132025000Y-47275000D03*
D16*
%TO.P,REF\u002A\u002A,2*%
%TO.N,CLK*%
X134565000Y-47275000D03*
%TO.P,REF\u002A\u002A,3*%
%TO.N,BLUE1*%
X137105000Y-47275000D03*
%TO.P,REF\u002A\u002A,4*%
%TO.N,GREEN1*%
X139645000Y-47275000D03*
%TO.P,REF\u002A\u002A,5*%
%TO.N,RED1*%
X142185000Y-47275000D03*
%TO.P,REF\u002A\u002A,6*%
%TO.N,H_BLANK*%
X144725000Y-47275000D03*
%TO.P,REF\u002A\u002A,7*%
%TO.N,V_BLANK*%
X147265000Y-47275000D03*
%TO.P,REF\u002A\u002A,8*%
%TO.N,BLUE2*%
X149805000Y-47275000D03*
%TO.P,REF\u002A\u002A,9*%
%TO.N,GREEN2*%
X152345000Y-47275000D03*
%TO.P,REF\u002A\u002A,10*%
%TO.N,RED2*%
X154885000Y-47275000D03*
%TO.P,REF\u002A\u002A,11*%
%TO.N,GND*%
X157425000Y-47275000D03*
%TO.P,REF\u002A\u002A,12*%
%TO.N,N/C*%
X159965000Y-47275000D03*
%TD*%
D12*
%TO.P,,4*%
%TO.N,N/C*%
X149700000Y-65700000D03*
%TD*%
D13*
%TO.P,74LS30,1*%
%TO.N,V_0*%
X170980000Y-127490000D03*
D14*
%TO.P,74LS30,2*%
%TO.N,V2*%
X170980000Y-124950000D03*
%TO.P,74LS30,3*%
%TO.N,V4*%
X170980000Y-122410000D03*
%TO.P,74LS30,4*%
%TO.N,V5*%
X170980000Y-119870000D03*
%TO.P,74LS30,5*%
%TO.N,V9*%
X170980000Y-117330000D03*
%TO.P,74LS30,6*%
%TO.N,V6*%
X170980000Y-114790000D03*
%TO.P,74LS30,7*%
%TO.N,GND*%
X170980000Y-112250000D03*
%TO.P,74LS30,8*%
%TO.N,RESET2*%
X163360000Y-112250000D03*
%TO.P,74LS30,9*%
%TO.N,N/C*%
X163360000Y-114790000D03*
%TO.P,74LS30,10*%
X163360000Y-117330000D03*
%TO.P,74LS30,11*%
%TO.N,V_1*%
X163360000Y-119870000D03*
%TO.P,74LS30,12*%
%TO.N,V_3*%
X163360000Y-122410000D03*
%TO.P,74LS30,13*%
%TO.N,N/C*%
X163360000Y-124950000D03*
%TO.P,74LS30,14*%
%TO.N,VCC*%
X163360000Y-127490000D03*
%TD*%
D17*
%TO.N,V_SYNC*%
X152550000Y-66850000D03*
X157050000Y-66750000D03*
%TO.N,RESET2*%
X153200000Y-72550000D03*
%TO.N,H_SYNC*%
X134880000Y-97570000D03*
%TO.N,*%
X132680000Y-92270000D03*
X152480000Y-65570000D03*
X157080000Y-65570000D03*
%TO.N,H_SYNC*%
X132780000Y-93770000D03*
%TO.N,*%
X113280000Y-88770000D03*
X110880000Y-81170000D03*
X111680000Y-83670000D03*
X161480000Y-49470000D03*
X112480000Y-86170000D03*
%TO.N,GND*%
X189300000Y-117200000D03*
X190500000Y-97950000D03*
X125100000Y-89500000D03*
X101680000Y-115370000D03*
X101700000Y-72700000D03*
X190480000Y-75940000D03*
X124380000Y-48070000D03*
X190480000Y-54440000D03*
X101680000Y-93870000D03*
%TO.N,VCC*%
X189580000Y-93740000D03*
X102580000Y-112770000D03*
X189580000Y-97100000D03*
X102580000Y-91270000D03*
X102580000Y-69770000D03*
X189580000Y-56970000D03*
X102580000Y-76070000D03*
X102680000Y-115370000D03*
X102580500Y-72000000D03*
X189580000Y-78540000D03*
X189580000Y-100040000D03*
X189250000Y-115200000D03*
%TO.N,CLK*%
X100780000Y-57070000D03*
X100780000Y-100070000D03*
X100780000Y-78570000D03*
%TO.N,H1*%
X108480000Y-91870000D03*
X108480000Y-71670000D03*
X108480000Y-62270000D03*
%TO.N,H2*%
X109280000Y-64770000D03*
%TO.N,H3*%
X110080000Y-112170000D03*
X110080000Y-51470000D03*
X110080000Y-67270000D03*
%TO.N,H4*%
X110880000Y-94470000D03*
X110880000Y-74270000D03*
%TO.N,H5*%
X111680000Y-96970000D03*
%TO.N,H6*%
X112480000Y-53970000D03*
X112480000Y-76770000D03*
X112480000Y-99470000D03*
%TO.N,H7*%
X113280000Y-79270000D03*
X113280000Y-56570000D03*
X113280000Y-101770000D03*
%TO.N,H0*%
X107650000Y-59650000D03*
%TO.N,V0*%
X177280000Y-110160000D03*
X177280000Y-84590000D03*
%TO.N,V1*%
X178080000Y-107660000D03*
%TO.N,V2*%
X178880000Y-124920000D03*
X178880000Y-105060000D03*
%TO.N,V3*%
X179680000Y-54080000D03*
X179680000Y-81990000D03*
X179680000Y-102390000D03*
%TO.N,V4*%
X180500000Y-122400000D03*
X180480000Y-79480000D03*
X180480000Y-56680000D03*
X180480000Y-99620000D03*
X180480000Y-88660000D03*
%TO.N,V5*%
X182760000Y-119060000D03*
X181280000Y-86160000D03*
%TO.N,V6*%
X182080000Y-83560000D03*
X182080000Y-76890000D03*
X182080000Y-114800000D03*
X182080000Y-97120000D03*
X182080000Y-59120000D03*
%TO.N,V7*%
X182880000Y-81060000D03*
%TO.N,H_1*%
X115680000Y-61670000D03*
X115680000Y-125070000D03*
X115680000Y-119770000D03*
%TO.N,H_2*%
X116480000Y-125970000D03*
X116480000Y-64170000D03*
X116480000Y-109170000D03*
X116480000Y-122370000D03*
X116480000Y-88970000D03*
%TO.N,H_3*%
X117280000Y-126870000D03*
X101900000Y-121600000D03*
X117280000Y-89970000D03*
X117280000Y-110170000D03*
%TO.N,H_4*%
X101630000Y-126670000D03*
X118080000Y-127770000D03*
X118080000Y-124870000D03*
X118080000Y-68770000D03*
%TO.N,H_5*%
X101050000Y-131750000D03*
X118880000Y-69570000D03*
X118880000Y-128670000D03*
X118880000Y-84470000D03*
%TO.N,H_0*%
X114880000Y-104570000D03*
X114880000Y-81870000D03*
X114880000Y-117270000D03*
X114880000Y-124170000D03*
X114880000Y-59170000D03*
%TO.N,V_0*%
X173200000Y-127500000D03*
X173280000Y-69790000D03*
%TO.N,V_1*%
X174080000Y-107280000D03*
X174100000Y-68900000D03*
X174080000Y-90020000D03*
X174100000Y-128200000D03*
%TO.N,V_2*%
X174800000Y-66800000D03*
X174880000Y-89020000D03*
X175100000Y-127600000D03*
%TO.N,V_3*%
X176200000Y-126770000D03*
%TO.N,V_5*%
X176500000Y-121500000D03*
X176480000Y-109220000D03*
X176480000Y-87020000D03*
X176480000Y-64290000D03*
%TO.N,H_SYNC*%
X146980000Y-142470000D03*
X145180000Y-141570000D03*
%TO.N,RESET1*%
X99880000Y-76070000D03*
X191380000Y-91240000D03*
X191380000Y-69740000D03*
X124380000Y-44870000D03*
X191280000Y-51870000D03*
X191380000Y-112740000D03*
X99880000Y-97570000D03*
%TO.N,RESET2*%
X192280000Y-93740000D03*
X192280000Y-72240000D03*
X192280000Y-115240000D03*
%TO.N,V8*%
X183680000Y-67160000D03*
%TO.N,V9*%
X184180000Y-117570000D03*
X184480000Y-64660000D03*
X184480000Y-61710000D03*
X184480000Y-94480000D03*
X184480000Y-74390000D03*
%TO.N,H8*%
X114080000Y-102670000D03*
X114080000Y-114670000D03*
%TD*%
D18*
%TO.N,V_SYNC*%
X152650000Y-66750000D02*
X152550000Y-66850000D01*
X157050000Y-66750000D02*
X152650000Y-66750000D01*
%TO.N,RESET2*%
X159980000Y-65770000D02*
X153250000Y-72500000D01*
X159980000Y-50970000D02*
X159980000Y-65770000D01*
X161480000Y-49470000D02*
X159980000Y-50970000D01*
%TO.N,H_SYNC*%
X134850000Y-97600000D02*
X132780000Y-95530000D01*
X132780000Y-95530000D02*
X132780000Y-93770000D01*
%TO.N,RESET1*%
X132680000Y-92270000D02*
X132750000Y-92200000D01*
%TO.N,V_SYNC*%
X160055000Y-79455000D02*
X158420000Y-79455000D01*
%TO.N,242*%
X135175000Y-74300000D02*
X136400000Y-75525000D01*
X133500000Y-74300000D02*
X135175000Y-74300000D01*
X136400000Y-75525000D02*
X136400000Y-89600000D01*
X136400000Y-89600000D02*
X134830000Y-91170000D01*
X134830000Y-91170000D02*
X132230000Y-91170000D01*
X132230000Y-91170000D02*
X131080000Y-92320000D01*
%TO.N,*%
X134515000Y-76840000D02*
X133500000Y-76840000D01*
X158420000Y-81995000D02*
X158420000Y-84535000D01*
X188740000Y-57000000D02*
X186660000Y-57000000D01*
X186660000Y-91200000D02*
X188720000Y-91200000D01*
X134825000Y-87000000D02*
X135500000Y-86325000D01*
X103420000Y-112810000D02*
X105500000Y-112810000D01*
X103380000Y-78670000D02*
X103380000Y-112770000D01*
X149700000Y-60800000D02*
X151580000Y-58920000D01*
X103380000Y-112770000D02*
X103420000Y-112810000D01*
X188780000Y-91140000D02*
X188780000Y-57040000D01*
X135500000Y-86325000D02*
X135500000Y-77825000D01*
X103440000Y-78610000D02*
X103380000Y-78670000D01*
X192080000Y-132370000D02*
X192080000Y-135370000D01*
X151580000Y-58920000D02*
X151580000Y-56970000D01*
X159965000Y-48585000D02*
X159965000Y-47275000D01*
X135500000Y-77825000D02*
X134515000Y-76840000D01*
X105500000Y-78610000D02*
X103440000Y-78610000D01*
X194300000Y-131760000D02*
X192690000Y-131760000D01*
X133500000Y-87000000D02*
X134825000Y-87000000D01*
X192080000Y-135370000D02*
X189580000Y-137870000D01*
X150800000Y-79455000D02*
X150800000Y-81995000D01*
X151580000Y-56970000D02*
X159965000Y-48585000D01*
X149700000Y-65700000D02*
X149700000Y-60800000D01*
X182305000Y-138645000D02*
X182305000Y-139570000D01*
X189580000Y-137870000D02*
X183080000Y-137870000D01*
X192690000Y-131760000D02*
X192080000Y-132370000D01*
X183080000Y-137870000D02*
X182305000Y-138645000D01*
X188780000Y-57040000D02*
X188740000Y-57000000D01*
X188720000Y-91200000D02*
X188780000Y-91140000D01*
X141120000Y-81920000D02*
X141120000Y-84460000D01*
D19*
%TO.N,GND*%
X125630000Y-134580000D02*
X126770000Y-134580000D01*
D18*
X149700000Y-58100000D02*
X149700000Y-56450000D01*
X191380000Y-54440000D02*
X192280000Y-54440000D01*
X124380000Y-46470000D02*
X125980000Y-44870000D01*
X168780000Y-133320000D02*
X167500000Y-134600000D01*
X192280000Y-54440000D02*
X194260000Y-54440000D01*
X101400000Y-72350000D02*
X101700000Y-72650000D01*
X97900000Y-115370000D02*
X97880000Y-115350000D01*
X189260000Y-51550000D02*
X170980000Y-51550000D01*
X185510000Y-117200000D02*
X184490000Y-116180000D01*
X100780000Y-115370000D02*
X99880000Y-115370000D01*
D19*
X101680000Y-115370000D02*
X101680000Y-117620000D01*
X157980000Y-134580000D02*
X158000000Y-134600000D01*
D18*
X159180000Y-134470000D02*
X159050000Y-134600000D01*
X157425000Y-48725000D02*
X157425000Y-47275000D01*
D19*
X159050000Y-134600000D02*
X167500000Y-134600000D01*
D18*
X101680000Y-93870000D02*
X101660000Y-93850000D01*
X154380000Y-92370000D02*
X159180000Y-97170000D01*
X147780000Y-88420000D02*
X148935000Y-89575000D01*
X168800000Y-112250000D02*
X168780000Y-112270000D01*
X184490000Y-116180000D02*
X184490000Y-114180000D01*
X147780000Y-60020000D02*
X147780000Y-88420000D01*
D19*
X103300000Y-138000000D02*
X100000000Y-134700000D01*
D18*
X149700000Y-58100000D02*
X147780000Y-60020000D01*
X170980000Y-112250000D02*
X168800000Y-112250000D01*
D19*
X156900000Y-134600000D02*
X158000000Y-134600000D01*
D18*
X165580000Y-44870000D02*
X167280000Y-46570000D01*
X148935000Y-89575000D02*
X148935000Y-89615000D01*
D19*
X167880000Y-138220000D02*
X167230000Y-138220000D01*
X167500000Y-134600000D02*
X168300000Y-135400000D01*
X136650000Y-138200000D02*
X136000000Y-138200000D01*
D18*
X153725000Y-89615000D02*
X154380000Y-90270000D01*
D19*
X125630000Y-136250000D02*
X125630000Y-134580000D01*
D18*
X194260000Y-54440000D02*
X194280000Y-54460000D01*
X148935000Y-89615000D02*
X150800000Y-89615000D01*
X190480000Y-75940000D02*
X190500000Y-75960000D01*
D19*
X126770000Y-134580000D02*
X111020000Y-134580000D01*
X126770000Y-134580000D02*
X136270000Y-134580000D01*
X99990000Y-134310000D02*
X97880000Y-134310000D01*
D18*
X167280000Y-46570000D02*
X167280000Y-50370000D01*
D19*
X156925000Y-136240000D02*
X156900000Y-136215000D01*
D18*
X125980000Y-44870000D02*
X157380000Y-44870000D01*
X168460000Y-51550000D02*
X170980000Y-51550000D01*
D19*
X158000000Y-134600000D02*
X159050000Y-134600000D01*
D18*
X189300000Y-117200000D02*
X185510000Y-117200000D01*
X125140000Y-89540000D02*
X133500000Y-89540000D01*
D19*
X111020000Y-134580000D02*
X107600000Y-138000000D01*
X168300000Y-137800000D02*
X167880000Y-138220000D01*
D18*
X190480000Y-52770000D02*
X189260000Y-51550000D01*
X190990000Y-97460000D02*
X190500000Y-97950000D01*
X157380000Y-44870000D02*
X165580000Y-44870000D01*
X150800000Y-89615000D02*
X153725000Y-89615000D01*
X194280000Y-97460000D02*
X190990000Y-97460000D01*
X157425000Y-44915000D02*
X157425000Y-47275000D01*
D19*
X136270000Y-134580000D02*
X157980000Y-134580000D01*
D18*
X125100000Y-89500000D02*
X125140000Y-89540000D01*
D19*
X156900000Y-136215000D02*
X156900000Y-134600000D01*
D18*
X190480000Y-54440000D02*
X191380000Y-54440000D01*
X97880000Y-72350000D02*
X101400000Y-72350000D01*
D19*
X137070000Y-137780000D02*
X136650000Y-138200000D01*
X100000000Y-119300000D02*
X100000000Y-134300000D01*
D18*
X159180000Y-97170000D02*
X159180000Y-134470000D01*
X182560000Y-112250000D02*
X170980000Y-112250000D01*
D19*
X100000000Y-134300000D02*
X99990000Y-134310000D01*
D18*
X149700000Y-56450000D02*
X157425000Y-48725000D01*
X154380000Y-90270000D02*
X154380000Y-92370000D01*
X157380000Y-44870000D02*
X157425000Y-44915000D01*
X184490000Y-114180000D02*
X182560000Y-112250000D01*
X190480000Y-54440000D02*
X190480000Y-52770000D01*
D19*
X101680000Y-117620000D02*
X100000000Y-119300000D01*
D18*
X99880000Y-115370000D02*
X97900000Y-115370000D01*
D19*
X100000000Y-134700000D02*
X100000000Y-134300000D01*
X137070000Y-134580000D02*
X137070000Y-137780000D01*
D18*
X190500000Y-75960000D02*
X194280000Y-75960000D01*
D20*
X101700000Y-72650000D02*
X101700000Y-72700000D01*
D19*
X168300000Y-135400000D02*
X168300000Y-137800000D01*
X136270000Y-134580000D02*
X137070000Y-134580000D01*
D18*
X167280000Y-50370000D02*
X168460000Y-51550000D01*
X124380000Y-48070000D02*
X124380000Y-46470000D01*
D19*
X107600000Y-138000000D02*
X103300000Y-138000000D01*
D18*
X168780000Y-112270000D02*
X168780000Y-133320000D01*
X101680000Y-115370000D02*
X100780000Y-115370000D01*
X101660000Y-93850000D02*
X97880000Y-93850000D01*
%TO.N,VCC*%
X107700000Y-49600000D02*
X123000000Y-49600000D01*
D21*
X105500000Y-119070000D02*
X105100000Y-118670000D01*
D18*
X186680000Y-54440000D02*
X186660000Y-54460000D01*
X192650000Y-119060000D02*
X189580000Y-115990000D01*
X186700000Y-97500000D02*
X186660000Y-97460000D01*
X189580000Y-93740000D02*
X186660000Y-93740000D01*
X128700000Y-51470000D02*
X132020000Y-51470000D01*
X189580000Y-115990000D02*
X189580000Y-115470000D01*
X123000000Y-49600000D02*
X124870000Y-51470000D01*
X124870000Y-51470000D02*
X128700000Y-51470000D01*
X192650000Y-119060000D02*
X192570000Y-118980000D01*
X161810000Y-66790000D02*
X163360000Y-66790000D01*
X142100000Y-73320000D02*
X141120000Y-74300000D01*
X152480000Y-65570000D02*
X157080000Y-65570000D01*
X102580000Y-69770000D02*
X105460000Y-69770000D01*
X132085000Y-51475000D02*
X142100000Y-61490000D01*
X158420000Y-70180000D02*
X161810000Y-66790000D01*
X186700000Y-100040000D02*
X186660000Y-100000000D01*
X189580000Y-78540000D02*
X189620000Y-78500000D01*
X189580000Y-57040000D02*
X189620000Y-57000000D01*
X189620000Y-78500000D02*
X194280000Y-78500000D01*
X102580500Y-72000000D02*
X102930500Y-72350000D01*
X104070000Y-119070000D02*
X102650000Y-117650000D01*
X102930500Y-72350000D02*
X105500000Y-72350000D01*
X189580000Y-100040000D02*
X189620000Y-100000000D01*
X165480000Y-107290000D02*
X163360000Y-107290000D01*
X102580000Y-69770000D02*
X102540000Y-69810000D01*
X105500000Y-119070000D02*
X104070000Y-119070000D01*
X158420000Y-74375000D02*
X158420000Y-70180000D01*
X194300000Y-119060000D02*
X192650000Y-119060000D01*
X105400000Y-97470000D02*
X105500000Y-97570000D01*
X165480000Y-127490000D02*
X165480000Y-107290000D01*
X102680000Y-115370000D02*
X105480000Y-115370000D01*
X102580000Y-76070000D02*
X105500000Y-76070000D01*
X189620000Y-57000000D02*
X194280000Y-57000000D01*
X132020000Y-51470000D02*
X132025000Y-51475000D01*
X102580000Y-112770000D02*
X102540000Y-112810000D01*
X189210000Y-115240000D02*
X189250000Y-115200000D01*
X163360000Y-127490000D02*
X165480000Y-127490000D01*
X105480000Y-115370000D02*
X105500000Y-115350000D01*
X102540000Y-112810000D02*
X97880000Y-112810000D01*
X102540000Y-91310000D02*
X97880000Y-91310000D01*
X189580000Y-115470000D02*
X189280000Y-115170000D01*
X102580000Y-91270000D02*
X102540000Y-91310000D01*
X186660000Y-115240000D02*
X189210000Y-115240000D01*
X186680000Y-75940000D02*
X186660000Y-75960000D01*
X186760000Y-72340000D02*
X186660000Y-72240000D01*
X102650000Y-117650000D02*
X102650000Y-115400000D01*
X142100000Y-61490000D02*
X142100000Y-65700000D01*
X105460000Y-69770000D02*
X105500000Y-69810000D01*
X189620000Y-100000000D02*
X194280000Y-100000000D01*
X105500000Y-54570000D02*
X105500000Y-51800000D01*
X189250000Y-115200000D02*
X189280000Y-115170000D01*
X132025000Y-51475000D02*
X132085000Y-51475000D01*
X102540000Y-69810000D02*
X97880000Y-69810000D01*
X105500000Y-51800000D02*
X107700000Y-49600000D01*
X102650000Y-115400000D02*
X102680000Y-115370000D01*
X189580000Y-100040000D02*
X186700000Y-100040000D01*
X105480000Y-93870000D02*
X105500000Y-93850000D01*
X189580000Y-97100000D02*
X189180000Y-97500000D01*
X142100000Y-65700000D02*
X142100000Y-73320000D01*
X189180000Y-97500000D02*
X186700000Y-97500000D01*
X132025000Y-47275000D02*
X132025000Y-51475000D01*
%TO.N,CLK*%
X134565000Y-48855000D02*
X134565000Y-47275000D01*
X97880000Y-78610000D02*
X100740000Y-78610000D01*
X97880000Y-100110000D02*
X100740000Y-100110000D01*
X100740000Y-100110000D02*
X100780000Y-100070000D01*
X134600000Y-47240000D02*
X134565000Y-47275000D01*
X97920000Y-57070000D02*
X97880000Y-57110000D01*
X100740000Y-78610000D02*
X100780000Y-78570000D01*
X142100000Y-58100000D02*
X142100000Y-56390000D01*
X100780000Y-57070000D02*
X97920000Y-57070000D01*
X142100000Y-56390000D02*
X134565000Y-48855000D01*
%TO.N,H1*%
X121080000Y-91870000D02*
X108480000Y-91870000D01*
X121080000Y-71670000D02*
X108480000Y-71670000D01*
X105520000Y-126670000D02*
X105500000Y-126690000D01*
X105580000Y-62270000D02*
X105500000Y-62190000D01*
X108480000Y-62270000D02*
X105580000Y-62270000D01*
%TO.N,H2*%
X109280000Y-64770000D02*
X105540000Y-64770000D01*
X105540000Y-64770000D02*
X105500000Y-64730000D01*
%TO.N,H3*%
X121080000Y-112170000D02*
X110080000Y-112170000D01*
X110080000Y-67270000D02*
X105500000Y-67270000D01*
X110080000Y-51470000D02*
X121080000Y-51470000D01*
%TO.N,H4*%
X110860000Y-81150000D02*
X105500000Y-81150000D01*
X121080000Y-94410000D02*
X110880000Y-94410000D01*
X110880000Y-74210000D02*
X110880000Y-74270000D01*
X110880000Y-81170000D02*
X110860000Y-81150000D01*
X121080000Y-74210000D02*
X110880000Y-74210000D01*
X110880000Y-94410000D02*
X110880000Y-94470000D01*
%TO.N,H5*%
X111680000Y-96950000D02*
X111680000Y-96970000D01*
X121080000Y-96950000D02*
X111680000Y-96950000D01*
X111660000Y-83690000D02*
X111680000Y-83670000D01*
X105500000Y-83690000D02*
X111660000Y-83690000D01*
%TO.N,H6*%
X112480000Y-99490000D02*
X112480000Y-99470000D01*
X121080000Y-54010000D02*
X112480000Y-54010000D01*
X112420000Y-86230000D02*
X105500000Y-86230000D01*
X112480000Y-54010000D02*
X112480000Y-53970000D01*
X121080000Y-76750000D02*
X112480000Y-76750000D01*
X112480000Y-76750000D02*
X112480000Y-76770000D01*
X121080000Y-99490000D02*
X112480000Y-99490000D01*
X112480000Y-86170000D02*
X112420000Y-86230000D01*
%TO.N,H7*%
X121080000Y-79290000D02*
X113280000Y-79290000D01*
X121080000Y-56570000D02*
X121080000Y-56550000D01*
X121080000Y-102030000D02*
X121080000Y-101770000D01*
X113280000Y-79290000D02*
X113280000Y-79270000D01*
X105500000Y-88770000D02*
X113280000Y-88770000D01*
X113280000Y-56570000D02*
X121080000Y-56570000D01*
X121080000Y-101770000D02*
X113280000Y-101770000D01*
%TO.N,H0*%
X105540000Y-121570000D02*
X105500000Y-121610000D01*
X107650000Y-59650000D02*
X107660000Y-59650000D01*
X107660000Y-59650000D02*
X107680000Y-59670000D01*
X105500000Y-59650000D02*
X107650000Y-59650000D01*
%TO.N,V0*%
X177250000Y-110190000D02*
X177280000Y-110160000D01*
X177280000Y-110160000D02*
X186660000Y-110160000D01*
X166600000Y-102210000D02*
X163460000Y-102210000D01*
X167980000Y-110190000D02*
X177250000Y-110190000D01*
X167980000Y-110190000D02*
X167980000Y-103590000D01*
X177240000Y-84550000D02*
X177280000Y-84590000D01*
X170980000Y-84550000D02*
X177240000Y-84550000D01*
X167980000Y-103590000D02*
X166600000Y-102210000D01*
%TO.N,V1*%
X178120000Y-107620000D02*
X178080000Y-107660000D01*
X186660000Y-107620000D02*
X178120000Y-107620000D01*
X186580000Y-107540000D02*
X186660000Y-107620000D01*
%TO.N,V2*%
X186660000Y-105080000D02*
X178900000Y-105080000D01*
X178570000Y-104750000D02*
X178880000Y-105060000D01*
X170980000Y-104750000D02*
X178570000Y-104750000D01*
X186620000Y-105040000D02*
X186660000Y-105080000D01*
X178850000Y-124950000D02*
X178880000Y-124920000D01*
X170980000Y-124950000D02*
X178850000Y-124950000D01*
X178900000Y-105080000D02*
X178880000Y-105060000D01*
%TO.N,V3*%
X170980000Y-82010000D02*
X179660000Y-82010000D01*
X170980000Y-54090000D02*
X179670000Y-54090000D01*
X179670000Y-54090000D02*
X179680000Y-54080000D01*
X179830000Y-102540000D02*
X186660000Y-102540000D01*
X179680000Y-102390000D02*
X179830000Y-102540000D01*
X179680000Y-102390000D02*
X179500000Y-102210000D01*
X179500000Y-102210000D02*
X170980000Y-102210000D01*
X179660000Y-82010000D02*
X179680000Y-81990000D01*
%TO.N,V4*%
X180470000Y-79470000D02*
X180480000Y-79480000D01*
X170980000Y-56630000D02*
X180430000Y-56630000D01*
X170980000Y-122410000D02*
X180490000Y-122410000D01*
X170980000Y-79470000D02*
X180470000Y-79470000D01*
X186660000Y-88660000D02*
X180480000Y-88660000D01*
X180430000Y-56630000D02*
X180480000Y-56680000D01*
X180490000Y-122410000D02*
X180500000Y-122400000D01*
X180430000Y-99670000D02*
X180480000Y-99620000D01*
X170980000Y-99670000D02*
X180430000Y-99670000D01*
%TO.N,V5*%
X181950000Y-119870000D02*
X182760000Y-119060000D01*
X186660000Y-86120000D02*
X181320000Y-86120000D01*
X181320000Y-86120000D02*
X181280000Y-86160000D01*
X170980000Y-119870000D02*
X181950000Y-119870000D01*
%TO.N,V6*%
X170980000Y-76930000D02*
X182040000Y-76930000D01*
X182080000Y-114800000D02*
X182070000Y-114790000D01*
X170980000Y-97130000D02*
X182070000Y-97130000D01*
X170980000Y-59170000D02*
X182030000Y-59170000D01*
X182040000Y-76930000D02*
X182080000Y-76890000D01*
X186660000Y-83580000D02*
X182100000Y-83580000D01*
X182070000Y-114790000D02*
X170980000Y-114790000D01*
X182030000Y-59170000D02*
X182080000Y-59120000D01*
X182070000Y-97130000D02*
X182080000Y-97120000D01*
X182100000Y-83580000D02*
X182080000Y-83560000D01*
%TO.N,V7*%
X186660000Y-81040000D02*
X182900000Y-81040000D01*
X182900000Y-81040000D02*
X182880000Y-81060000D01*
%TO.N,H_SYNC*%
X133500000Y-79380000D02*
X133500000Y-81920000D01*
%TO.N,V_SYNC*%
X160700000Y-88700000D02*
X160700000Y-80100000D01*
X159785000Y-89615000D02*
X160700000Y-88700000D01*
X158420000Y-89615000D02*
X159785000Y-89615000D01*
X160700000Y-80100000D02*
X160055000Y-79455000D01*
%TO.N,H_1*%
X115720000Y-61630000D02*
X115680000Y-61670000D01*
X115680000Y-119790000D02*
X115680000Y-119770000D01*
X121080000Y-119790000D02*
X115680000Y-119790000D01*
X121080000Y-61630000D02*
X115720000Y-61630000D01*
X115680000Y-125070000D02*
X110680000Y-125070000D01*
X106520000Y-129230000D02*
X105500000Y-129230000D01*
X110680000Y-125070000D02*
X106520000Y-129230000D01*
%TO.N,H_2*%
X116580000Y-89070000D02*
X123180000Y-89070000D01*
X121080000Y-122330000D02*
X116480000Y-122330000D01*
X106440000Y-134310000D02*
X105500000Y-134310000D01*
X123180000Y-78970000D02*
X125400000Y-76750000D01*
X109300000Y-127550000D02*
X109300000Y-131450000D01*
X116480000Y-122330000D02*
X116480000Y-122370000D01*
X125400000Y-96950000D02*
X128700000Y-96950000D01*
X123180000Y-89070000D02*
X123180000Y-78970000D01*
X123180000Y-109270000D02*
X123180000Y-99170000D01*
X123180000Y-99170000D02*
X125400000Y-96950000D01*
X125400000Y-76750000D02*
X128700000Y-76750000D01*
X109300000Y-131450000D02*
X106440000Y-134310000D01*
X116480000Y-125970000D02*
X110880000Y-125970000D01*
X116480000Y-88970000D02*
X116580000Y-89070000D01*
X116580000Y-109270000D02*
X123180000Y-109270000D01*
X121080000Y-64170000D02*
X116480000Y-64170000D01*
X116480000Y-109170000D02*
X116580000Y-109270000D01*
X110880000Y-125970000D02*
X109300000Y-127550000D01*
%TO.N,H_3*%
X110100000Y-132550000D02*
X110100000Y-127850000D01*
X110100000Y-127850000D02*
X111080000Y-126870000D01*
X111080000Y-126870000D02*
X117280000Y-126870000D01*
X128700000Y-99490000D02*
X125460000Y-99490000D01*
X101900000Y-121600000D02*
X102010000Y-121600000D01*
X117280000Y-89970000D02*
X117480000Y-89770000D01*
X102010000Y-121600000D02*
X103300000Y-122890000D01*
X123880000Y-80870000D02*
X125460000Y-79290000D01*
X103300000Y-122890000D02*
X103300000Y-135090000D01*
X123880000Y-89770000D02*
X123880000Y-80870000D01*
X106680000Y-135970000D02*
X110100000Y-132550000D01*
X123880000Y-109970000D02*
X117280000Y-109970000D01*
X103300000Y-135090000D02*
X104180000Y-135970000D01*
X123880000Y-101070000D02*
X123880000Y-109970000D01*
X117480000Y-89770000D02*
X123880000Y-89770000D01*
X125460000Y-79290000D02*
X128700000Y-79290000D01*
X117280000Y-109970000D02*
X117280000Y-110170000D01*
X125460000Y-99490000D02*
X123880000Y-101070000D01*
X104180000Y-135970000D02*
X106680000Y-135970000D01*
%TO.N,H_4*%
X125900000Y-56550000D02*
X128700000Y-56550000D01*
X123890000Y-58560000D02*
X125900000Y-56550000D01*
X106980000Y-136570000D02*
X110900000Y-132650000D01*
X123890000Y-68770000D02*
X123890000Y-58560000D01*
X111380000Y-127770000D02*
X118080000Y-127770000D01*
X118080000Y-68770000D02*
X123890000Y-68770000D01*
X101600000Y-126670000D02*
X101630000Y-126670000D01*
X102600000Y-127590000D02*
X102600000Y-135290000D01*
X101680000Y-126670000D02*
X102600000Y-127590000D01*
X102600000Y-135290000D02*
X103880000Y-136570000D01*
X121080000Y-124870000D02*
X118080000Y-124870000D01*
X101630000Y-126670000D02*
X101680000Y-126670000D01*
X110900000Y-128250000D02*
X111380000Y-127770000D01*
X110900000Y-132650000D02*
X110900000Y-128250000D01*
X103880000Y-136570000D02*
X106980000Y-136570000D01*
%TO.N,H_5*%
X101900000Y-135490000D02*
X103580000Y-137170000D01*
X107280000Y-137170000D02*
X111700000Y-132750000D01*
X123180000Y-122070000D02*
X123180000Y-128670000D01*
X122680000Y-129170000D02*
X119380000Y-129170000D01*
X118880000Y-69570000D02*
X124590000Y-69570000D01*
X118780000Y-128570000D02*
X118880000Y-128670000D01*
X128700000Y-119790000D02*
X128700000Y-117250000D01*
X125760000Y-59090000D02*
X128700000Y-59090000D01*
X101250000Y-131750000D02*
X101900000Y-132400000D01*
X119380000Y-129170000D02*
X118880000Y-128670000D01*
X118980000Y-84370000D02*
X118880000Y-84470000D01*
X124590000Y-60260000D02*
X125760000Y-59090000D01*
X125460000Y-119790000D02*
X123180000Y-122070000D01*
X124590000Y-69570000D02*
X124590000Y-60260000D01*
X123180000Y-128670000D02*
X122680000Y-129170000D01*
X111700000Y-132750000D02*
X111700000Y-128650000D01*
X101900000Y-132400000D02*
X101900000Y-135490000D01*
X128700000Y-119790000D02*
X125460000Y-119790000D01*
X101050000Y-131750000D02*
X101250000Y-131750000D01*
X121080000Y-84370000D02*
X118980000Y-84370000D01*
X111780000Y-128570000D02*
X118780000Y-128570000D01*
X111700000Y-128650000D02*
X111780000Y-128570000D01*
X103580000Y-137170000D02*
X107280000Y-137170000D01*
%TO.N,H_0*%
X121080000Y-59170000D02*
X121080000Y-59090000D01*
X114880000Y-81830000D02*
X114880000Y-81870000D01*
X121080000Y-104570000D02*
X114880000Y-104570000D01*
X121080000Y-117250000D02*
X114880000Y-117250000D01*
X114880000Y-117250000D02*
X114880000Y-117270000D01*
X121080000Y-81830000D02*
X114880000Y-81830000D01*
X105500000Y-124150000D02*
X114860000Y-124150000D01*
X114880000Y-59170000D02*
X121080000Y-59170000D01*
X114860000Y-124150000D02*
X114880000Y-124170000D01*
%TO.N,V_0*%
X180400000Y-136900000D02*
X189000000Y-136900000D01*
X167700000Y-62910000D02*
X166500000Y-61710000D01*
X190680000Y-135220000D02*
X190680000Y-131220000D01*
X173280000Y-69790000D02*
X167700000Y-69790000D01*
X173200000Y-127500000D02*
X173190000Y-127490000D01*
X192680000Y-129220000D02*
X194300000Y-129220000D01*
X173200000Y-127500000D02*
X173200000Y-129700000D01*
X173190000Y-127490000D02*
X170980000Y-127490000D01*
X189000000Y-136900000D02*
X190680000Y-135220000D01*
X167700000Y-69790000D02*
X167700000Y-62910000D01*
X166500000Y-61710000D02*
X163360000Y-61710000D01*
X190680000Y-131220000D02*
X192680000Y-129220000D01*
X173200000Y-129700000D02*
X180400000Y-136900000D01*
%TO.N,V_1*%
X166500000Y-82010000D02*
X167980000Y-83490000D01*
X163360000Y-82010000D02*
X166500000Y-82010000D01*
X168780000Y-61490000D02*
X166460000Y-59170000D01*
X170980000Y-107290000D02*
X174070000Y-107290000D01*
X174100000Y-68900000D02*
X168790000Y-68900000D01*
X180800000Y-136000000D02*
X188300000Y-136000000D01*
X174100000Y-128200000D02*
X174100000Y-129300000D01*
X167980000Y-83490000D02*
X167980000Y-89890000D01*
X189280000Y-127020000D02*
X192160000Y-124140000D01*
X168790000Y-68900000D02*
X168780000Y-68890000D01*
X166460000Y-59170000D02*
X163360000Y-59170000D01*
X167980000Y-89890000D02*
X173950000Y-89890000D01*
X173950000Y-89890000D02*
X174080000Y-90020000D01*
X168780000Y-68890000D02*
X168780000Y-61490000D01*
X188300000Y-136000000D02*
X189280000Y-135020000D01*
X174070000Y-107290000D02*
X174080000Y-107280000D01*
X174100000Y-129300000D02*
X180800000Y-136000000D01*
X192160000Y-124140000D02*
X194300000Y-124140000D01*
X189280000Y-135020000D02*
X189280000Y-127020000D01*
%TO.N,V_2*%
X168780000Y-81790000D02*
X168780000Y-89190000D01*
X166460000Y-79470000D02*
X168780000Y-81790000D01*
X175100000Y-127600000D02*
X175100000Y-128990000D01*
X177870000Y-131760000D02*
X186680000Y-131760000D01*
X175100000Y-128990000D02*
X177870000Y-131760000D01*
X163360000Y-79470000D02*
X166460000Y-79470000D01*
X174800000Y-66800000D02*
X174790000Y-66790000D01*
X174710000Y-89190000D02*
X174880000Y-89020000D01*
X174790000Y-66790000D02*
X170980000Y-66790000D01*
X168780000Y-89190000D02*
X174710000Y-89190000D01*
%TO.N,V_3*%
X176290000Y-126680000D02*
X186680000Y-126680000D01*
X176200000Y-126770000D02*
X176290000Y-126680000D01*
%TO.N,V_5*%
X168780000Y-101890000D02*
X166560000Y-99670000D01*
X168780000Y-109290000D02*
X168780000Y-101890000D01*
X176410000Y-109290000D02*
X176480000Y-109220000D01*
X166560000Y-99670000D02*
X163460000Y-99670000D01*
X170980000Y-87090000D02*
X176410000Y-87090000D01*
X176440000Y-64250000D02*
X176480000Y-64290000D01*
X176410000Y-87090000D02*
X176480000Y-87020000D01*
X176600000Y-121600000D02*
X186680000Y-121600000D01*
X170980000Y-64250000D02*
X176440000Y-64250000D01*
X176500000Y-121500000D02*
X176600000Y-121600000D01*
X168780000Y-109290000D02*
X176410000Y-109290000D01*
%TO.N,V_BLANK*%
X148780000Y-77570000D02*
X149435000Y-76915000D01*
X150800000Y-87075000D02*
X149485000Y-87075000D01*
X148780000Y-86370000D02*
X148780000Y-77570000D01*
X149485000Y-87075000D02*
X148780000Y-86370000D01*
X149435000Y-76915000D02*
X150800000Y-76915000D01*
%TO.N,H_BLANK*%
X143080000Y-79970000D02*
X142490000Y-79380000D01*
X142490000Y-79380000D02*
X141120000Y-79380000D01*
X142610000Y-89540000D02*
X143080000Y-89070000D01*
%TO.N,H_SYNC*%
X145580000Y-141570000D02*
X146480000Y-142470000D01*
X145180000Y-141570000D02*
X145580000Y-141570000D01*
%TO.N,H_BLANK*%
X141120000Y-89540000D02*
X142610000Y-89540000D01*
X143080000Y-89070000D02*
X143080000Y-79970000D01*
%TO.N,H_SYNC*%
X146480000Y-142470000D02*
X146980000Y-142470000D01*
%TO.N,RESET1*%
X187980000Y-43870000D02*
X122980000Y-43870000D01*
X191380000Y-112740000D02*
X194240000Y-112740000D01*
X191080000Y-51870000D02*
X190280000Y-51070000D01*
X99880000Y-76070000D02*
X97880000Y-76070000D01*
X101780000Y-45520000D02*
X101780000Y-53120000D01*
X191280000Y-51870000D02*
X191080000Y-51870000D01*
X140150000Y-87000000D02*
X141120000Y-87000000D01*
X194280000Y-69700000D02*
X191420000Y-69700000D01*
X137250000Y-92200000D02*
X139080000Y-90370000D01*
X191420000Y-69700000D02*
X191380000Y-69740000D01*
X129340000Y-127410000D02*
X128700000Y-127410000D01*
X191420000Y-91200000D02*
X191380000Y-91240000D01*
X123380000Y-43870000D02*
X103430000Y-43870000D01*
X194240000Y-112740000D02*
X194280000Y-112700000D01*
X139080000Y-88070000D02*
X140150000Y-87000000D01*
X101780000Y-53120000D02*
X100330000Y-54570000D01*
X103430000Y-43870000D02*
X101780000Y-45520000D01*
X100330000Y-54570000D02*
X97880000Y-54570000D01*
X132750000Y-92200000D02*
X137250000Y-92200000D01*
X194280000Y-91200000D02*
X191420000Y-91200000D01*
X124380000Y-44870000D02*
X123380000Y-43870000D01*
X190280000Y-46170000D02*
X187980000Y-43870000D01*
X99880000Y-97570000D02*
X97880000Y-97570000D01*
X190280000Y-51070000D02*
X190280000Y-46170000D01*
X139080000Y-90370000D02*
X139080000Y-88070000D01*
%TO.N,RESET2*%
X160080000Y-96470000D02*
X155280000Y-91670000D01*
X155280000Y-86070000D02*
X153745000Y-84535000D01*
X155280000Y-91670000D02*
X155280000Y-86070000D01*
X160080000Y-111470000D02*
X160080000Y-96470000D01*
X192280000Y-93740000D02*
X194280000Y-93740000D01*
X192280000Y-72240000D02*
X194280000Y-72240000D01*
X160860000Y-112250000D02*
X160080000Y-111470000D01*
X153745000Y-84535000D02*
X150800000Y-84535000D01*
X194280000Y-115240000D02*
X192280000Y-115240000D01*
X163360000Y-112250000D02*
X160860000Y-112250000D01*
%TO.N,V8*%
X186660000Y-67160000D02*
X183680000Y-67160000D01*
%TO.N,V9*%
X183940000Y-117330000D02*
X170980000Y-117330000D01*
X170980000Y-61710000D02*
X184480000Y-61710000D01*
X186660000Y-64620000D02*
X184520000Y-64620000D01*
X184520000Y-64620000D02*
X184480000Y-64660000D01*
X170980000Y-94590000D02*
X184370000Y-94590000D01*
X170980000Y-74390000D02*
X184480000Y-74390000D01*
X184180000Y-117570000D02*
X183940000Y-117330000D01*
X184370000Y-94590000D02*
X184480000Y-94480000D01*
%TO.N,H8*%
X105500000Y-102650000D02*
X114060000Y-102650000D01*
X121080000Y-114710000D02*
X114080000Y-114710000D01*
X114080000Y-114710000D02*
X114080000Y-114670000D01*
X114060000Y-102650000D02*
X114080000Y-102670000D01*
%TO.N,200*%
X138580000Y-72270000D02*
X139080000Y-72770000D01*
X130520000Y-66710000D02*
X131080000Y-67270000D01*
X139080000Y-72770000D02*
X139080000Y-76270000D01*
X139080000Y-76270000D02*
X139650000Y-76840000D01*
X131080000Y-67270000D02*
X131080000Y-71770000D01*
X128640000Y-66770000D02*
X128700000Y-66710000D01*
X131580000Y-72270000D02*
X138580000Y-72270000D01*
X131080000Y-71770000D02*
X131580000Y-72270000D01*
X139650000Y-76840000D02*
X141120000Y-76840000D01*
X128700000Y-66710000D02*
X130520000Y-66710000D01*
%TO.N,210*%
X132440000Y-84460000D02*
X133500000Y-84460000D01*
X128700000Y-86910000D02*
X129990000Y-86910000D01*
X129990000Y-86910000D02*
X132440000Y-84460000D01*
%TO.N,242*%
X131080000Y-92320000D02*
X131080000Y-106020000D01*
X131080000Y-106020000D02*
X129990000Y-107110000D01*
X129990000Y-107110000D02*
X128700000Y-107110000D01*
%TO.N,600*%
X161000000Y-52500000D02*
X161000000Y-66250000D01*
X161950000Y-51550000D02*
X161000000Y-52500000D01*
X163360000Y-51550000D02*
X161950000Y-51550000D01*
X152875000Y-74375000D02*
X150800000Y-74375000D01*
X161000000Y-66250000D02*
X152875000Y-74375000D01*
%TO.N,601*%
X161000000Y-76000000D02*
X161000000Y-72500000D01*
X161000000Y-72500000D02*
X161650000Y-71850000D01*
X161650000Y-71850000D02*
X163360000Y-71850000D01*
X158420000Y-76915000D02*
X160085000Y-76915000D01*
X160085000Y-76915000D02*
X161000000Y-76000000D01*
%TO.N,605*%
X157150000Y-92050000D02*
X156180000Y-91080000D01*
X163360000Y-92050000D02*
X157150000Y-92050000D01*
X156180000Y-91080000D02*
X156180000Y-87870000D01*
X156180000Y-87870000D02*
X156975000Y-87075000D01*
X156975000Y-87075000D02*
X158420000Y-87075000D01*
X163430000Y-91980000D02*
X163360000Y-92050000D01*
%TD*%
M02*
