%TF.GenerationSoftware,KiCad,Pcbnew,(6.0.5)*%
%TF.CreationDate,2023-02-18T09:08:36+02:00*%
%TF.ProjectId,VIDEOCARD_SCREENSYNC2.0,56494445-4f43-4415-9244-5f5343524545,rev?*%
%TF.SameCoordinates,Original*%
%TF.FileFunction,Copper,L2,Bot*%
%TF.FilePolarity,Positive*%
%FSLAX46Y46*%
G04 Gerber Fmt 4.6, Leading zero omitted, Abs format (unit mm)*
G04 Created by KiCad (PCBNEW (6.0.5)) date 2023-02-18 09:08:36*
%MOMM*%
%LPD*%
G01*
G04 APERTURE LIST*
%TA.AperFunction,ComponentPad*%
%ADD10C,4.000000*%
%TD*%
%TA.AperFunction,ComponentPad*%
%ADD11R,1.600000X1.600000*%
%TD*%
%TA.AperFunction,ComponentPad*%
%ADD12C,1.600000*%
%TD*%
%TA.AperFunction,ComponentPad*%
%ADD13R,2.400000X1.600000*%
%TD*%
%TA.AperFunction,ComponentPad*%
%ADD14O,2.400000X1.600000*%
%TD*%
%TA.AperFunction,ComponentPad*%
%ADD15R,1.700000X1.700000*%
%TD*%
%TA.AperFunction,ComponentPad*%
%ADD16O,1.700000X1.700000*%
%TD*%
%TA.AperFunction,ViaPad*%
%ADD17C,0.800000*%
%TD*%
%TA.AperFunction,Conductor*%
%ADD18C,0.400000*%
%TD*%
%TA.AperFunction,Conductor*%
%ADD19C,0.500000*%
%TD*%
G04 APERTURE END LIST*
D10*
%TO.P,VGA PORT 2,0*%
%TO.N,N/C*%
X149270000Y-138290000D03*
X174270000Y-138290000D03*
D11*
%TO.P,VGA PORT 2,1*%
X166085000Y-136240000D03*
D12*
%TO.P,VGA PORT 2,2*%
%TO.N,RED2*%
X163795000Y-136240000D03*
%TO.P,VGA PORT 2,3*%
%TO.N,GREEN2*%
X161505000Y-136240000D03*
%TO.P,VGA PORT 2,4*%
%TO.N,BLUE2*%
X159215000Y-136240000D03*
%TO.P,VGA PORT 2,5*%
%TO.N,GND*%
X156925000Y-136240000D03*
%TO.P,VGA PORT 2,6*%
X167230000Y-138220000D03*
%TO.P,VGA PORT 2,7*%
X164940000Y-138220000D03*
%TO.P,VGA PORT 2,8*%
X162650000Y-138220000D03*
%TO.P,VGA PORT 2,9*%
%TO.N,N/C*%
X160360000Y-138220000D03*
%TO.P,VGA PORT 2,10*%
%TO.N,GND*%
X158070000Y-138220000D03*
%TO.P,VGA PORT 2,11*%
%TO.N,N/C*%
X166085000Y-140200000D03*
%TO.P,VGA PORT 2,12*%
X163795000Y-140200000D03*
%TO.P,VGA PORT 2,13*%
%TO.N,H_SYNC*%
X161505000Y-140200000D03*
%TO.P,VGA PORT 2,14*%
%TO.N,V_SYNC*%
X159215000Y-140200000D03*
%TO.P,VGA PORT 2,15*%
%TO.N,N/C*%
X156925000Y-140200000D03*
%TD*%
D13*
%TO.P,74LS161,1*%
%TO.N,RESET1*%
X97880000Y-97570000D03*
D14*
%TO.P,74LS161,2*%
%TO.N,CLK*%
X97880000Y-100110000D03*
%TO.P,74LS161,3*%
%TO.N,N/C*%
X97880000Y-102650000D03*
%TO.P,74LS161,4*%
X97880000Y-105190000D03*
%TO.P,74LS161,5*%
X97880000Y-107730000D03*
%TO.P,74LS161,6*%
X97880000Y-110270000D03*
%TO.P,74LS161,7*%
%TO.N,VCC*%
X97880000Y-112810000D03*
%TO.P,74LS161,8*%
%TO.N,GND*%
X97880000Y-115350000D03*
%TO.P,74LS161,9*%
%TO.N,VCC*%
X105500000Y-115350000D03*
%TO.P,74LS161,10*%
%TO.N,N/C*%
X105500000Y-112810000D03*
%TO.P,74LS161,11*%
X105500000Y-110270000D03*
%TO.P,74LS161,12*%
X105500000Y-107730000D03*
%TO.P,74LS161,13*%
X105500000Y-105190000D03*
%TO.P,74LS161,14*%
%TO.N,H8*%
X105500000Y-102650000D03*
%TO.P,74LS161,15*%
%TO.N,N/C*%
X105500000Y-100110000D03*
%TO.P,74LS161,16*%
%TO.N,VCC*%
X105500000Y-97570000D03*
%TD*%
D12*
%TO.P,,1*%
%TO.N,VCC*%
X142100000Y-65700000D03*
%TD*%
D13*
%TO.P,74LS30,1*%
%TO.N,H1*%
X121080000Y-91870000D03*
D14*
%TO.P,74LS30,2*%
%TO.N,H4*%
X121080000Y-94410000D03*
%TO.P,74LS30,3*%
%TO.N,H5*%
X121080000Y-96950000D03*
%TO.P,74LS30,4*%
%TO.N,H6*%
X121080000Y-99490000D03*
%TO.P,74LS30,5*%
%TO.N,H7*%
X121080000Y-102030000D03*
%TO.P,74LS30,6*%
%TO.N,H_0*%
X121080000Y-104570000D03*
%TO.P,74LS30,7*%
%TO.N,GND*%
X121080000Y-107110000D03*
%TO.P,74LS30,8*%
%TO.N,242*%
X128700000Y-107110000D03*
%TO.P,74LS30,9*%
%TO.N,N/C*%
X128700000Y-104570000D03*
%TO.P,74LS30,10*%
X128700000Y-102030000D03*
%TO.P,74LS30,11*%
%TO.N,H_3*%
X128700000Y-99490000D03*
%TO.P,74LS30,12*%
%TO.N,H_2*%
X128700000Y-96950000D03*
%TO.P,74LS30,13*%
%TO.N,N/C*%
X128700000Y-94410000D03*
%TO.P,74LS30,14*%
%TO.N,VCC*%
X128700000Y-91870000D03*
%TD*%
D13*
%TO.P,74LS30,1*%
%TO.N,H3*%
X121080000Y-112170000D03*
D14*
%TO.P,74LS30,2*%
%TO.N,H8*%
X121080000Y-114710000D03*
%TO.P,74LS30,3*%
%TO.N,H_0*%
X121080000Y-117250000D03*
%TO.P,74LS30,4*%
%TO.N,H_1*%
X121080000Y-119790000D03*
%TO.P,74LS30,5*%
%TO.N,H_2*%
X121080000Y-122330000D03*
%TO.P,74LS30,6*%
%TO.N,H_4*%
X121080000Y-124870000D03*
%TO.P,74LS30,7*%
%TO.N,GND*%
X121080000Y-127410000D03*
%TO.P,74LS30,8*%
%TO.N,RESET1*%
X128700000Y-127410000D03*
%TO.P,74LS30,9*%
%TO.N,N/C*%
X128700000Y-124870000D03*
%TO.P,74LS30,10*%
X128700000Y-122330000D03*
%TO.P,74LS30,11*%
%TO.N,H_5*%
X128700000Y-119790000D03*
%TO.P,74LS30,12*%
X128700000Y-117250000D03*
%TO.P,74LS30,13*%
%TO.N,N/C*%
X128700000Y-114710000D03*
%TO.P,74LS30,14*%
%TO.N,VCC*%
X128700000Y-112170000D03*
%TD*%
D13*
%TO.P,74LS30,1*%
%TO.N,V_2*%
X170980000Y-66790000D03*
D14*
%TO.P,74LS30,2*%
%TO.N,V_5*%
X170980000Y-64250000D03*
%TO.P,74LS30,3*%
%TO.N,V9*%
X170980000Y-61710000D03*
%TO.P,74LS30,4*%
%TO.N,V6*%
X170980000Y-59170000D03*
%TO.P,74LS30,5*%
%TO.N,V4*%
X170980000Y-56630000D03*
%TO.P,74LS30,6*%
%TO.N,V3*%
X170980000Y-54090000D03*
%TO.P,74LS30,7*%
%TO.N,GND*%
X170980000Y-51550000D03*
%TO.P,74LS30,8*%
%TO.N,600*%
X163360000Y-51550000D03*
%TO.P,74LS30,9*%
%TO.N,N/C*%
X163360000Y-54090000D03*
%TO.P,74LS30,10*%
X163360000Y-56630000D03*
%TO.P,74LS30,11*%
%TO.N,V_1*%
X163360000Y-59170000D03*
%TO.P,74LS30,12*%
%TO.N,V_0*%
X163360000Y-61710000D03*
%TO.P,74LS30,13*%
%TO.N,N/C*%
X163360000Y-64250000D03*
%TO.P,74LS30,14*%
%TO.N,VCC*%
X163360000Y-66790000D03*
%TD*%
D13*
%TO.P,74LS04,1*%
%TO.N,V5*%
X186680000Y-119060000D03*
D14*
%TO.P,74LS04,2*%
%TO.N,V_5*%
X186680000Y-121600000D03*
%TO.P,74LS04,3*%
%TO.N,V3*%
X186680000Y-124140000D03*
%TO.P,74LS04,4*%
%TO.N,V_3*%
X186680000Y-126680000D03*
%TO.P,74LS04,5*%
%TO.N,V2*%
X186680000Y-129220000D03*
%TO.P,74LS04,6*%
%TO.N,V_2*%
X186680000Y-131760000D03*
%TO.P,74LS04,7*%
%TO.N,GND*%
X186680000Y-134300000D03*
%TO.P,74LS04,8*%
%TO.N,N/C*%
X194300000Y-134300000D03*
%TO.P,74LS04,9*%
X194300000Y-131760000D03*
%TO.P,74LS04,10*%
%TO.N,V_0*%
X194300000Y-129220000D03*
%TO.P,74LS04,11*%
%TO.N,V0*%
X194300000Y-126680000D03*
%TO.P,74LS04,12*%
%TO.N,V_1*%
X194300000Y-124140000D03*
%TO.P,74LS04,13*%
%TO.N,V1*%
X194300000Y-121600000D03*
%TO.P,74LS04,14*%
%TO.N,VCC*%
X194300000Y-119060000D03*
%TD*%
D13*
%TO.P,74LS161,1*%
%TO.N,RESET2*%
X194280000Y-115240000D03*
D14*
%TO.P,74LS161,2*%
%TO.N,RESET1*%
X194280000Y-112700000D03*
%TO.P,74LS161,3*%
%TO.N,N/C*%
X194280000Y-110160000D03*
%TO.P,74LS161,4*%
X194280000Y-107620000D03*
%TO.P,74LS161,5*%
X194280000Y-105080000D03*
%TO.P,74LS161,6*%
X194280000Y-102540000D03*
%TO.P,74LS161,7*%
%TO.N,VCC*%
X194280000Y-100000000D03*
%TO.P,74LS161,8*%
%TO.N,GND*%
X194280000Y-97460000D03*
%TO.P,74LS161,9*%
%TO.N,VCC*%
X186660000Y-97460000D03*
%TO.P,74LS161,10*%
X186660000Y-100000000D03*
%TO.P,74LS161,11*%
%TO.N,V3*%
X186660000Y-102540000D03*
%TO.P,74LS161,12*%
%TO.N,V2*%
X186660000Y-105080000D03*
%TO.P,74LS161,13*%
%TO.N,V1*%
X186660000Y-107620000D03*
%TO.P,74LS161,14*%
%TO.N,V0*%
X186660000Y-110160000D03*
%TO.P,74LS161,15*%
%TO.N,N/C*%
X186660000Y-112700000D03*
%TO.P,74LS161,16*%
%TO.N,VCC*%
X186660000Y-115240000D03*
%TD*%
%TO.P,74LS00,14*%
%TO.N,VCC*%
X158420000Y-74375000D03*
%TO.P,74LS00,13*%
%TO.N,601*%
X158420000Y-76915000D03*
%TO.P,74LS00,12*%
%TO.N,V_SYNC*%
X158420000Y-79455000D03*
%TO.P,74LS00,11*%
%TO.N,N/C*%
X158420000Y-81995000D03*
%TO.P,74LS00,10*%
X158420000Y-84535000D03*
%TO.P,74LS00,9*%
%TO.N,605*%
X158420000Y-87075000D03*
%TO.P,74LS00,8*%
%TO.N,V_SYNC*%
X158420000Y-89615000D03*
%TO.P,74LS00,7*%
%TO.N,GND*%
X150800000Y-89615000D03*
%TO.P,74LS00,6*%
%TO.N,V_BLANK*%
X150800000Y-87075000D03*
%TO.P,74LS00,5*%
%TO.N,RESET2*%
X150800000Y-84535000D03*
%TO.P,74LS00,4*%
%TO.N,N/C*%
X150800000Y-81995000D03*
%TO.P,74LS00,3*%
X150800000Y-79455000D03*
%TO.P,74LS00,2*%
%TO.N,V_BLANK*%
X150800000Y-76915000D03*
D13*
%TO.P,74LS00,1*%
%TO.N,600*%
X150800000Y-74375000D03*
%TD*%
%TO.P,74LS30,1*%
%TO.N,H3*%
X121080000Y-51470000D03*
D14*
%TO.P,74LS30,2*%
%TO.N,H6*%
X121080000Y-54010000D03*
%TO.P,74LS30,3*%
%TO.N,H7*%
X121080000Y-56550000D03*
%TO.P,74LS30,4*%
%TO.N,H_0*%
X121080000Y-59090000D03*
%TO.P,74LS30,5*%
%TO.N,H_1*%
X121080000Y-61630000D03*
%TO.P,74LS30,6*%
%TO.N,H_2*%
X121080000Y-64170000D03*
%TO.P,74LS30,7*%
%TO.N,GND*%
X121080000Y-66710000D03*
%TO.P,74LS30,8*%
%TO.N,200*%
X128700000Y-66710000D03*
%TO.P,74LS30,9*%
%TO.N,N/C*%
X128700000Y-64170000D03*
%TO.P,74LS30,10*%
X128700000Y-61630000D03*
%TO.P,74LS30,11*%
%TO.N,H_5*%
X128700000Y-59090000D03*
%TO.P,74LS30,12*%
%TO.N,H_4*%
X128700000Y-56550000D03*
%TO.P,74LS30,13*%
%TO.N,N/C*%
X128700000Y-54010000D03*
%TO.P,74LS30,14*%
%TO.N,VCC*%
X128700000Y-51470000D03*
%TD*%
D15*
%TO.P,REF\u002A\u002A,1*%
%TO.N,V0*%
X169525000Y-47275000D03*
D16*
%TO.P,REF\u002A\u002A,2*%
%TO.N,V1*%
X172065000Y-47275000D03*
%TO.P,REF\u002A\u002A,3*%
%TO.N,V2*%
X174605000Y-47275000D03*
%TO.P,REF\u002A\u002A,4*%
%TO.N,V3*%
X177145000Y-47275000D03*
%TO.P,REF\u002A\u002A,5*%
%TO.N,V4*%
X179685000Y-47275000D03*
%TO.P,REF\u002A\u002A,6*%
%TO.N,V5*%
X182225000Y-47275000D03*
%TO.P,REF\u002A\u002A,7*%
%TO.N,V6*%
X184765000Y-47275000D03*
%TO.P,REF\u002A\u002A,8*%
%TO.N,V7*%
X187305000Y-47275000D03*
%TD*%
D13*
%TO.P,74LS161,1*%
%TO.N,RESET1*%
X97880000Y-54570000D03*
D14*
%TO.P,74LS161,2*%
%TO.N,CLK*%
X97880000Y-57110000D03*
%TO.P,74LS161,3*%
%TO.N,N/C*%
X97880000Y-59650000D03*
%TO.P,74LS161,4*%
X97880000Y-62190000D03*
%TO.P,74LS161,5*%
X97880000Y-64730000D03*
%TO.P,74LS161,6*%
X97880000Y-67270000D03*
%TO.P,74LS161,7*%
%TO.N,VCC*%
X97880000Y-69810000D03*
%TO.P,74LS161,8*%
%TO.N,GND*%
X97880000Y-72350000D03*
%TO.P,74LS161,9*%
%TO.N,VCC*%
X105500000Y-72350000D03*
%TO.P,74LS161,10*%
X105500000Y-69810000D03*
%TO.P,74LS161,11*%
%TO.N,H3*%
X105500000Y-67270000D03*
%TO.P,74LS161,12*%
%TO.N,H2*%
X105500000Y-64730000D03*
%TO.P,74LS161,13*%
%TO.N,H1*%
X105500000Y-62190000D03*
%TO.P,74LS161,14*%
%TO.N,H0*%
X105500000Y-59650000D03*
%TO.P,74LS161,15*%
%TO.N,N/C*%
X105500000Y-57110000D03*
%TO.P,74LS161,16*%
%TO.N,VCC*%
X105500000Y-54570000D03*
%TD*%
D10*
%TO.P,VGA PORT 1,0*%
%TO.N,N/C*%
X117975000Y-138300000D03*
X142975000Y-138300000D03*
D11*
%TO.P,VGA PORT 1,1*%
%TO.N,RED1*%
X134790000Y-136250000D03*
D12*
%TO.P,VGA PORT 1,2*%
%TO.N,GREEN1*%
X132500000Y-136250000D03*
%TO.P,VGA PORT 1,3*%
%TO.N,BLUE1*%
X130210000Y-136250000D03*
%TO.P,VGA PORT 1,4*%
%TO.N,N/C*%
X127920000Y-136250000D03*
%TO.P,VGA PORT 1,5*%
%TO.N,GND*%
X125630000Y-136250000D03*
%TO.P,VGA PORT 1,6*%
X135935000Y-138230000D03*
%TO.P,VGA PORT 1,7*%
X133645000Y-138230000D03*
%TO.P,VGA PORT 1,8*%
X131355000Y-138230000D03*
%TO.P,VGA PORT 1,9*%
%TO.N,N/C*%
X129065000Y-138230000D03*
%TO.P,VGA PORT 1,10*%
%TO.N,GND*%
X126775000Y-138230000D03*
%TO.P,VGA PORT 1,11*%
%TO.N,N/C*%
X134790000Y-140210000D03*
%TO.P,VGA PORT 1,12*%
X132500000Y-140210000D03*
%TO.P,VGA PORT 1,13*%
%TO.N,H_SYNC*%
X130210000Y-140210000D03*
%TO.P,VGA PORT 1,14*%
%TO.N,V_SYNC*%
X127920000Y-140210000D03*
%TO.P,VGA PORT 1,15*%
%TO.N,N/C*%
X125630000Y-140210000D03*
%TD*%
D13*
%TO.P,74LS161,1*%
%TO.N,RESET1*%
X97880000Y-76070000D03*
D14*
%TO.P,74LS161,2*%
%TO.N,CLK*%
X97880000Y-78610000D03*
%TO.P,74LS161,3*%
%TO.N,N/C*%
X97880000Y-81150000D03*
%TO.P,74LS161,4*%
X97880000Y-83690000D03*
%TO.P,74LS161,5*%
X97880000Y-86230000D03*
%TO.P,74LS161,6*%
X97880000Y-88770000D03*
%TO.P,74LS161,7*%
%TO.N,VCC*%
X97880000Y-91310000D03*
%TO.P,74LS161,8*%
%TO.N,GND*%
X97880000Y-93850000D03*
%TO.P,74LS161,9*%
%TO.N,VCC*%
X105500000Y-93850000D03*
%TO.P,74LS161,10*%
%TO.N,N/C*%
X105500000Y-91310000D03*
%TO.P,74LS161,11*%
%TO.N,H7*%
X105500000Y-88770000D03*
%TO.P,74LS161,12*%
%TO.N,H6*%
X105500000Y-86230000D03*
%TO.P,74LS161,13*%
%TO.N,H5*%
X105500000Y-83690000D03*
%TO.P,74LS161,14*%
%TO.N,H4*%
X105500000Y-81150000D03*
%TO.P,74LS161,15*%
%TO.N,N/C*%
X105500000Y-78610000D03*
%TO.P,74LS161,16*%
%TO.N,VCC*%
X105500000Y-76070000D03*
%TD*%
D12*
%TO.P,,2*%
%TO.N,CLK*%
X142100000Y-58100000D03*
%TD*%
D15*
%TO.P,REF\u002A\u002A,1*%
%TO.N,H0*%
X104800000Y-47300000D03*
D16*
%TO.P,REF\u002A\u002A,2*%
%TO.N,H1*%
X107340000Y-47300000D03*
%TO.P,REF\u002A\u002A,3*%
%TO.N,H2*%
X109880000Y-47300000D03*
%TO.P,REF\u002A\u002A,4*%
%TO.N,H3*%
X112420000Y-47300000D03*
%TO.P,REF\u002A\u002A,5*%
%TO.N,H4*%
X114960000Y-47300000D03*
%TO.P,REF\u002A\u002A,6*%
%TO.N,H5*%
X117500000Y-47300000D03*
%TO.P,REF\u002A\u002A,7*%
%TO.N,H6*%
X120040000Y-47300000D03*
%TO.P,REF\u002A\u002A,8*%
%TO.N,H7*%
X122580000Y-47300000D03*
%TD*%
D13*
%TO.P,74LS30,1*%
%TO.N,V_5*%
X170980000Y-87090000D03*
D14*
%TO.P,74LS30,2*%
%TO.N,V0*%
X170980000Y-84550000D03*
%TO.P,74LS30,3*%
%TO.N,V3*%
X170980000Y-82010000D03*
%TO.P,74LS30,4*%
%TO.N,V4*%
X170980000Y-79470000D03*
%TO.P,74LS30,5*%
%TO.N,V6*%
X170980000Y-76930000D03*
%TO.P,74LS30,6*%
%TO.N,V9*%
X170980000Y-74390000D03*
%TO.P,74LS30,7*%
%TO.N,GND*%
X170980000Y-71850000D03*
%TO.P,74LS30,8*%
%TO.N,601*%
X163360000Y-71850000D03*
%TO.P,74LS30,9*%
%TO.N,N/C*%
X163360000Y-74390000D03*
%TO.P,74LS30,10*%
X163360000Y-76930000D03*
%TO.P,74LS30,11*%
%TO.N,V_2*%
X163360000Y-79470000D03*
%TO.P,74LS30,12*%
%TO.N,V_1*%
X163360000Y-82010000D03*
%TO.P,74LS30,13*%
%TO.N,N/C*%
X163360000Y-84550000D03*
%TO.P,74LS30,14*%
%TO.N,VCC*%
X163360000Y-87090000D03*
%TD*%
D13*
%TO.P,74LS161,1*%
%TO.N,RESET2*%
X194280000Y-72240000D03*
D14*
%TO.P,74LS161,2*%
%TO.N,RESET1*%
X194280000Y-69700000D03*
%TO.P,74LS161,3*%
%TO.N,N/C*%
X194280000Y-67160000D03*
%TO.P,74LS161,4*%
X194280000Y-64620000D03*
%TO.P,74LS161,5*%
X194280000Y-62080000D03*
%TO.P,74LS161,6*%
X194280000Y-59540000D03*
%TO.P,74LS161,7*%
%TO.N,VCC*%
X194280000Y-57000000D03*
%TO.P,74LS161,8*%
%TO.N,GND*%
X194280000Y-54460000D03*
%TO.P,74LS161,9*%
%TO.N,VCC*%
X186660000Y-54460000D03*
%TO.P,74LS161,10*%
%TO.N,N/C*%
X186660000Y-57000000D03*
%TO.P,74LS161,11*%
X186660000Y-59540000D03*
%TO.P,74LS161,12*%
X186660000Y-62080000D03*
%TO.P,74LS161,13*%
%TO.N,V9*%
X186660000Y-64620000D03*
%TO.P,74LS161,14*%
%TO.N,V8*%
X186660000Y-67160000D03*
%TO.P,74LS161,15*%
%TO.N,N/C*%
X186660000Y-69700000D03*
%TO.P,74LS161,16*%
%TO.N,VCC*%
X186660000Y-72240000D03*
%TD*%
D13*
%TO.P,74LS30,1*%
%TO.N,H1*%
X121080000Y-71670000D03*
D14*
%TO.P,74LS30,2*%
%TO.N,H4*%
X121080000Y-74210000D03*
%TO.P,74LS30,3*%
%TO.N,H6*%
X121080000Y-76750000D03*
%TO.P,74LS30,4*%
%TO.N,H7*%
X121080000Y-79290000D03*
%TO.P,74LS30,5*%
%TO.N,H_0*%
X121080000Y-81830000D03*
%TO.P,74LS30,6*%
%TO.N,H_5*%
X121080000Y-84370000D03*
%TO.P,74LS30,7*%
%TO.N,GND*%
X121080000Y-86910000D03*
%TO.P,74LS30,8*%
%TO.N,210*%
X128700000Y-86910000D03*
%TO.P,74LS30,9*%
%TO.N,N/C*%
X128700000Y-84370000D03*
%TO.P,74LS30,10*%
X128700000Y-81830000D03*
%TO.P,74LS30,11*%
%TO.N,H_3*%
X128700000Y-79290000D03*
%TO.P,74LS30,12*%
%TO.N,H_2*%
X128700000Y-76750000D03*
%TO.P,74LS30,13*%
%TO.N,N/C*%
X128700000Y-74210000D03*
%TO.P,74LS30,14*%
%TO.N,VCC*%
X128700000Y-71670000D03*
%TD*%
D15*
%TO.P,REF\u002A\u002A,1*%
%TO.N,N/C*%
X182305000Y-139570000D03*
D16*
%TO.P,REF\u002A\u002A,2*%
X184845000Y-139570000D03*
%TD*%
D12*
%TO.P,,3*%
%TO.N,GND*%
X149700000Y-58100000D03*
%TD*%
D13*
%TO.P,74LS161,1*%
%TO.N,RESET2*%
X194280000Y-93740000D03*
D14*
%TO.P,74LS161,2*%
%TO.N,RESET1*%
X194280000Y-91200000D03*
%TO.P,74LS161,3*%
%TO.N,N/C*%
X194280000Y-88660000D03*
%TO.P,74LS161,4*%
X194280000Y-86120000D03*
%TO.P,74LS161,5*%
X194280000Y-83580000D03*
%TO.P,74LS161,6*%
X194280000Y-81040000D03*
%TO.P,74LS161,7*%
%TO.N,VCC*%
X194280000Y-78500000D03*
%TO.P,74LS161,8*%
%TO.N,GND*%
X194280000Y-75960000D03*
%TO.P,74LS161,9*%
%TO.N,VCC*%
X186660000Y-75960000D03*
%TO.P,74LS161,10*%
%TO.N,N/C*%
X186660000Y-78500000D03*
%TO.P,74LS161,11*%
%TO.N,V7*%
X186660000Y-81040000D03*
%TO.P,74LS161,12*%
%TO.N,V6*%
X186660000Y-83580000D03*
%TO.P,74LS161,13*%
%TO.N,V5*%
X186660000Y-86120000D03*
%TO.P,74LS161,14*%
%TO.N,V4*%
X186660000Y-88660000D03*
%TO.P,74LS161,15*%
%TO.N,N/C*%
X186660000Y-91200000D03*
%TO.P,74LS161,16*%
%TO.N,VCC*%
X186660000Y-93740000D03*
%TD*%
D13*
%TO.P,74LS04,1*%
%TO.N,H3*%
X97880000Y-119070000D03*
D14*
%TO.P,74LS04,2*%
%TO.N,H_3*%
X97880000Y-121610000D03*
%TO.P,74LS04,3*%
%TO.N,H4*%
X97880000Y-124150000D03*
%TO.P,74LS04,4*%
%TO.N,H_4*%
X97880000Y-126690000D03*
%TO.P,74LS04,5*%
%TO.N,H5*%
X97880000Y-129230000D03*
%TO.P,74LS04,6*%
%TO.N,H_5*%
X97880000Y-131770000D03*
%TO.P,74LS04,7*%
%TO.N,GND*%
X97880000Y-134310000D03*
%TO.P,74LS04,8*%
%TO.N,H_2*%
X105500000Y-134310000D03*
%TO.P,74LS04,9*%
%TO.N,H2*%
X105500000Y-131770000D03*
%TO.P,74LS04,10*%
%TO.N,H_1*%
X105500000Y-129230000D03*
%TO.P,74LS04,11*%
%TO.N,H1*%
X105500000Y-126690000D03*
%TO.P,74LS04,12*%
%TO.N,H_0*%
X105500000Y-124150000D03*
%TO.P,74LS04,13*%
%TO.N,H0*%
X105500000Y-121610000D03*
%TO.P,74LS04,14*%
%TO.N,VCC*%
X105500000Y-119070000D03*
%TD*%
D13*
%TO.P,74LS00,1*%
%TO.N,242*%
X133500000Y-74300000D03*
D14*
%TO.P,74LS00,2*%
%TO.N,N/C*%
X133500000Y-76840000D03*
%TO.P,74LS00,3*%
%TO.N,H_SYNC*%
X133500000Y-79380000D03*
%TO.P,74LS00,4*%
X133500000Y-81920000D03*
%TO.P,74LS00,5*%
%TO.N,210*%
X133500000Y-84460000D03*
%TO.P,74LS00,6*%
%TO.N,N/C*%
X133500000Y-87000000D03*
%TO.P,74LS00,7*%
%TO.N,GND*%
X133500000Y-89540000D03*
%TO.P,74LS00,8*%
%TO.N,H_BLANK*%
X141120000Y-89540000D03*
%TO.P,74LS00,9*%
%TO.N,RESET1*%
X141120000Y-87000000D03*
%TO.P,74LS00,10*%
%TO.N,N/C*%
X141120000Y-84460000D03*
%TO.P,74LS00,11*%
X141120000Y-81920000D03*
%TO.P,74LS00,12*%
%TO.N,H_BLANK*%
X141120000Y-79380000D03*
%TO.P,74LS00,13*%
%TO.N,200*%
X141120000Y-76840000D03*
%TO.P,74LS00,14*%
%TO.N,VCC*%
X141120000Y-74300000D03*
%TD*%
D13*
%TO.P,74LS30,1*%
%TO.N,V_1*%
X170980000Y-107290000D03*
D14*
%TO.P,74LS30,2*%
%TO.N,V2*%
X170980000Y-104750000D03*
%TO.P,74LS30,3*%
%TO.N,V3*%
X170980000Y-102210000D03*
%TO.P,74LS30,4*%
%TO.N,V4*%
X170980000Y-99670000D03*
%TO.P,74LS30,5*%
%TO.N,V6*%
X170980000Y-97130000D03*
%TO.P,74LS30,6*%
%TO.N,V9*%
X170980000Y-94590000D03*
%TO.P,74LS30,7*%
%TO.N,GND*%
X170980000Y-92050000D03*
%TO.P,74LS30,8*%
%TO.N,605*%
X163360000Y-92050000D03*
%TO.P,74LS30,9*%
%TO.N,N/C*%
X163360000Y-94590000D03*
%TO.P,74LS30,10*%
X163360000Y-97130000D03*
%TO.P,74LS30,11*%
%TO.N,V_5*%
X163360000Y-99670000D03*
%TO.P,74LS30,12*%
%TO.N,V0*%
X163360000Y-102210000D03*
%TO.P,74LS30,13*%
%TO.N,N/C*%
X163360000Y-104750000D03*
%TO.P,74LS30,14*%
%TO.N,VCC*%
X163360000Y-107290000D03*
%TD*%
D15*
%TO.P,REF\u002A\u002A,1*%
%TO.N,VCC*%
X132025000Y-47275000D03*
D16*
%TO.P,REF\u002A\u002A,2*%
%TO.N,CLK*%
X134565000Y-47275000D03*
%TO.P,REF\u002A\u002A,3*%
%TO.N,BLUE1*%
X137105000Y-47275000D03*
%TO.P,REF\u002A\u002A,4*%
%TO.N,GREEN1*%
X139645000Y-47275000D03*
%TO.P,REF\u002A\u002A,5*%
%TO.N,RED1*%
X142185000Y-47275000D03*
%TO.P,REF\u002A\u002A,6*%
%TO.N,H_BLANK*%
X144725000Y-47275000D03*
%TO.P,REF\u002A\u002A,7*%
%TO.N,V_BLANK*%
X147265000Y-47275000D03*
%TO.P,REF\u002A\u002A,8*%
%TO.N,BLUE2*%
X149805000Y-47275000D03*
%TO.P,REF\u002A\u002A,9*%
%TO.N,GREEN2*%
X152345000Y-47275000D03*
%TO.P,REF\u002A\u002A,10*%
%TO.N,RED2*%
X154885000Y-47275000D03*
%TO.P,REF\u002A\u002A,11*%
%TO.N,GND*%
X157425000Y-47275000D03*
%TO.P,REF\u002A\u002A,12*%
%TO.N,N/C*%
X159965000Y-47275000D03*
%TD*%
D12*
%TO.P,,4*%
%TO.N,N/C*%
X149700000Y-65700000D03*
%TD*%
D13*
%TO.P,74LS30,1*%
%TO.N,V_0*%
X170980000Y-127490000D03*
D14*
%TO.P,74LS30,2*%
%TO.N,V2*%
X170980000Y-124950000D03*
%TO.P,74LS30,3*%
%TO.N,V4*%
X170980000Y-122410000D03*
%TO.P,74LS30,4*%
%TO.N,V5*%
X170980000Y-119870000D03*
%TO.P,74LS30,5*%
%TO.N,V9*%
X170980000Y-117330000D03*
%TO.P,74LS30,6*%
%TO.N,V6*%
X170980000Y-114790000D03*
%TO.P,74LS30,7*%
%TO.N,GND*%
X170980000Y-112250000D03*
%TO.P,74LS30,8*%
%TO.N,RESET2*%
X163360000Y-112250000D03*
%TO.P,74LS30,9*%
%TO.N,N/C*%
X163360000Y-114790000D03*
%TO.P,74LS30,10*%
X163360000Y-117330000D03*
%TO.P,74LS30,11*%
%TO.N,V_1*%
X163360000Y-119870000D03*
%TO.P,74LS30,12*%
%TO.N,V_3*%
X163360000Y-122410000D03*
%TO.P,74LS30,13*%
%TO.N,N/C*%
X163360000Y-124950000D03*
%TO.P,74LS30,14*%
%TO.N,VCC*%
X163360000Y-127490000D03*
%TD*%
D17*
%TO.N,V_SYNC*%
X152550000Y-66850000D03*
X157050000Y-66750000D03*
%TO.N,RESET2*%
X153200000Y-72550000D03*
%TO.N,H_SYNC*%
X134880000Y-97570000D03*
%TO.N,*%
X132680000Y-92270000D03*
X152480000Y-65570000D03*
X157080000Y-65570000D03*
%TO.N,H_SYNC*%
X132780000Y-93770000D03*
%TO.N,*%
X113280000Y-88770000D03*
X110880000Y-81170000D03*
X111680000Y-83670000D03*
X161480000Y-49470000D03*
X112480000Y-86170000D03*
%TO.N,GND*%
X189300000Y-117200000D03*
X190500000Y-97950000D03*
X125100000Y-89500000D03*
X101680000Y-115370000D03*
X101700000Y-72700000D03*
X190480000Y-75940000D03*
X124380000Y-48070000D03*
X190480000Y-54440000D03*
X101680000Y-93870000D03*
%TO.N,VCC*%
X189580000Y-93740000D03*
X102580000Y-112770000D03*
X189580000Y-97100000D03*
X102580000Y-91270000D03*
X102580000Y-69770000D03*
X189580000Y-56970000D03*
X102580000Y-76070000D03*
X102680000Y-115370000D03*
X102580500Y-72000000D03*
X189580000Y-78540000D03*
X189580000Y-100040000D03*
X189250000Y-115200000D03*
%TO.N,CLK*%
X100780000Y-57070000D03*
X100780000Y-100070000D03*
X100780000Y-78570000D03*
%TO.N,H1*%
X108480000Y-91870000D03*
X108480000Y-71670000D03*
X108480000Y-62270000D03*
%TO.N,H2*%
X109280000Y-64770000D03*
%TO.N,H3*%
X110080000Y-112170000D03*
X110080000Y-51470000D03*
X110080000Y-67270000D03*
%TO.N,H4*%
X110880000Y-94470000D03*
X110880000Y-74270000D03*
%TO.N,H5*%
X111680000Y-96970000D03*
%TO.N,H6*%
X112480000Y-53970000D03*
X112480000Y-76770000D03*
X112480000Y-99470000D03*
%TO.N,H7*%
X113280000Y-79270000D03*
X113280000Y-56570000D03*
X113280000Y-101770000D03*
%TO.N,H0*%
X107650000Y-59650000D03*
%TO.N,V0*%
X177280000Y-110160000D03*
X177280000Y-84590000D03*
%TO.N,V1*%
X178080000Y-107660000D03*
%TO.N,V2*%
X178880000Y-124920000D03*
X178880000Y-105060000D03*
%TO.N,V3*%
X179680000Y-54080000D03*
X179680000Y-81990000D03*
X179680000Y-102390000D03*
%TO.N,V4*%
X180500000Y-122400000D03*
X180480000Y-79480000D03*
X180480000Y-56680000D03*
X180480000Y-99620000D03*
X180480000Y-88660000D03*
%TO.N,V5*%
X182760000Y-119060000D03*
X181280000Y-86160000D03*
%TO.N,V6*%
X182080000Y-83560000D03*
X182080000Y-76890000D03*
X182080000Y-114800000D03*
X182080000Y-97120000D03*
X182080000Y-59120000D03*
%TO.N,V7*%
X182880000Y-81060000D03*
%TO.N,H_1*%
X115680000Y-61670000D03*
X115680000Y-125070000D03*
X115680000Y-119770000D03*
%TO.N,H_2*%
X116480000Y-125970000D03*
X116480000Y-64170000D03*
X116480000Y-109170000D03*
X116480000Y-122370000D03*
X116480000Y-88970000D03*
%TO.N,H_3*%
X117280000Y-126870000D03*
X101900000Y-121600000D03*
X117280000Y-89970000D03*
X117280000Y-110170000D03*
%TO.N,H_4*%
X101630000Y-126670000D03*
X118080000Y-127770000D03*
X118080000Y-124870000D03*
X118080000Y-68770000D03*
%TO.N,H_5*%
X101050000Y-131750000D03*
X118880000Y-69570000D03*
X118880000Y-128670000D03*
X118880000Y-84470000D03*
%TO.N,H_0*%
X114880000Y-104570000D03*
X114880000Y-81870000D03*
X114880000Y-117270000D03*
X114880000Y-124170000D03*
X114880000Y-59170000D03*
%TO.N,V_0*%
X173200000Y-127500000D03*
X173280000Y-69790000D03*
%TO.N,V_1*%
X174080000Y-107280000D03*
X174100000Y-68900000D03*
X174080000Y-90020000D03*
X174100000Y-128200000D03*
%TO.N,V_2*%
X174800000Y-66800000D03*
X174880000Y-89020000D03*
X175100000Y-127600000D03*
%TO.N,V_3*%
X176200000Y-126770000D03*
%TO.N,V_5*%
X176500000Y-121500000D03*
X176480000Y-109220000D03*
X176480000Y-87020000D03*
X176480000Y-64290000D03*
%TO.N,H_SYNC*%
X146980000Y-142470000D03*
X145180000Y-141570000D03*
%TO.N,RESET1*%
X99880000Y-76070000D03*
X191380000Y-91240000D03*
X191380000Y-69740000D03*
X124380000Y-44870000D03*
X191280000Y-51870000D03*
X191380000Y-112740000D03*
X99880000Y-97570000D03*
%TO.N,RESET2*%
X192280000Y-93740000D03*
X192280000Y-72240000D03*
X192280000Y-115240000D03*
%TO.N,V8*%
X183680000Y-67160000D03*
%TO.N,V9*%
X184180000Y-117570000D03*
X184480000Y-64660000D03*
X184480000Y-61710000D03*
X184480000Y-94480000D03*
X184480000Y-74390000D03*
%TO.N,H8*%
X114080000Y-102670000D03*
X114080000Y-114670000D03*
%TD*%
D18*
%TO.N,V_SYNC*%
X155280000Y-141570000D02*
X155250000Y-141600000D01*
X158280000Y-97580000D02*
X158280000Y-132670000D01*
X149400000Y-92150000D02*
X152850000Y-92150000D01*
X147800000Y-71600000D02*
X147800000Y-90550000D01*
X147800000Y-90550000D02*
X149400000Y-92150000D01*
X158280000Y-132670000D02*
X155280000Y-135670000D01*
X152550000Y-66850000D02*
X147800000Y-71600000D01*
X152850000Y-92150000D02*
X158280000Y-97580000D01*
X155280000Y-135670000D02*
X155280000Y-141570000D01*
X160700000Y-69200000D02*
X158250000Y-66750000D01*
X158250000Y-66750000D02*
X157050000Y-66750000D01*
X160700000Y-78150000D02*
X160700000Y-69200000D01*
X159395000Y-79455000D02*
X160700000Y-78150000D01*
X158420000Y-79455000D02*
X159395000Y-79455000D01*
%TO.N,V_BLANK*%
X153380000Y-67470000D02*
X153380000Y-54670000D01*
X148850000Y-76200000D02*
X148850000Y-72000000D01*
X148850000Y-72000000D02*
X153380000Y-67470000D01*
X149565000Y-76915000D02*
X148850000Y-76200000D01*
X147265000Y-48555000D02*
X147265000Y-47275000D01*
X150800000Y-76915000D02*
X149565000Y-76915000D01*
X153380000Y-54670000D02*
X147265000Y-48555000D01*
%TO.N,RESET2*%
X152880000Y-72870000D02*
X152880000Y-84535000D01*
X153200000Y-72550000D02*
X152880000Y-72870000D01*
X152880000Y-84535000D02*
X150800000Y-84535000D01*
%TO.N,H_BLANK*%
X139730000Y-79380000D02*
X141120000Y-79380000D01*
X139050000Y-52400000D02*
X139050000Y-78700000D01*
X142480000Y-48970000D02*
X139050000Y-52400000D01*
X144725000Y-47325000D02*
X143080000Y-48970000D01*
X143080000Y-48970000D02*
X142480000Y-48970000D01*
X144725000Y-47275000D02*
X144725000Y-47325000D01*
X139050000Y-78700000D02*
X139730000Y-79380000D01*
%TO.N,H_SYNC*%
X134880000Y-97570000D02*
X134880000Y-133070000D01*
%TO.N,RESET1*%
X132680000Y-92270000D02*
X132610000Y-92200000D01*
%TO.N,H_SYNC*%
X137380000Y-135570000D02*
X137380000Y-141470000D01*
X137380000Y-141470000D02*
X137250000Y-141600000D01*
X134880000Y-133070000D02*
X137380000Y-135570000D01*
X132880000Y-93770000D02*
X135480000Y-91170000D01*
X132780000Y-93770000D02*
X132880000Y-93770000D01*
X135480000Y-91170000D02*
X135480000Y-82770000D01*
X135480000Y-82770000D02*
X134630000Y-81920000D01*
X134630000Y-81920000D02*
X133500000Y-81920000D01*
%TO.N,VCC*%
X152480000Y-65570000D02*
X149880000Y-68170000D01*
X149880000Y-68170000D02*
X143480000Y-68170000D01*
X143480000Y-68170000D02*
X142080000Y-66770000D01*
X142080000Y-65720000D02*
X142100000Y-65700000D01*
X142080000Y-66770000D02*
X142080000Y-65720000D01*
%TO.N,*%
X184845000Y-138705000D02*
X184845000Y-139570000D01*
X188780000Y-78500000D02*
X186660000Y-78500000D01*
X188780000Y-112700000D02*
X188780000Y-78500000D01*
X103380000Y-57110000D02*
X103380000Y-91310000D01*
X185680000Y-137870000D02*
X184845000Y-138705000D01*
X186660000Y-112700000D02*
X188780000Y-112700000D01*
X194300000Y-134300000D02*
X193150000Y-134300000D01*
X193150000Y-134300000D02*
X189580000Y-137870000D01*
X105500000Y-57110000D02*
X103380000Y-57110000D01*
X189580000Y-137870000D02*
X185680000Y-137870000D01*
X103380000Y-91310000D02*
X105500000Y-91310000D01*
%TO.N,GND*%
X190480000Y-75940000D02*
X190480000Y-54440000D01*
X123180000Y-89380000D02*
X123180000Y-86910000D01*
X123180000Y-107110000D02*
X123180000Y-89380000D01*
X123180000Y-112260000D02*
X123180000Y-127410000D01*
X101680000Y-72680000D02*
X101680000Y-54520000D01*
X190480000Y-116020000D02*
X190480000Y-97440000D01*
X124380000Y-48070000D02*
X123780000Y-48670000D01*
X123010000Y-45000000D02*
X124380000Y-46370000D01*
X124380000Y-48070000D02*
X124380000Y-47970000D01*
X125100000Y-89500000D02*
X123300000Y-89500000D01*
X123180000Y-66710000D02*
X121080000Y-66710000D01*
X189300000Y-117200000D02*
X189300000Y-133100000D01*
X170980000Y-51550000D02*
X168780000Y-51550000D01*
X168780000Y-92050000D02*
X168780000Y-112250000D01*
X101680000Y-72720000D02*
X101700000Y-72700000D01*
D19*
X133645000Y-138230000D02*
X135935000Y-138230000D01*
D18*
X168780000Y-71850000D02*
X168780000Y-92050000D01*
X189300000Y-117200000D02*
X190480000Y-116020000D01*
X123180000Y-112260000D02*
X123180000Y-107110000D01*
X168780000Y-71850000D02*
X170980000Y-71850000D01*
X123180000Y-86910000D02*
X121080000Y-86910000D01*
X190480000Y-75940000D02*
X190480000Y-97440000D01*
X168780000Y-112250000D02*
X170980000Y-112250000D01*
X123180000Y-107110000D02*
X121080000Y-107110000D01*
X102800000Y-45800000D02*
X103600000Y-45000000D01*
X188100000Y-134300000D02*
X186680000Y-134300000D01*
X124380000Y-46370000D02*
X124380000Y-48070000D01*
X123180000Y-86910000D02*
X123180000Y-66710000D01*
X189300000Y-133100000D02*
X188100000Y-134300000D01*
X123180000Y-127410000D02*
X123180000Y-133800000D01*
X123180000Y-49270000D02*
X123180000Y-66710000D01*
D19*
X156925000Y-137075000D02*
X158070000Y-138220000D01*
D18*
X123180000Y-133800000D02*
X125630000Y-136250000D01*
D19*
X162650000Y-138220000D02*
X164940000Y-138220000D01*
D18*
X168780000Y-51550000D02*
X168780000Y-71850000D01*
X101680000Y-93870000D02*
X101680000Y-115370000D01*
D19*
X167230000Y-138220000D02*
X164940000Y-138220000D01*
X125630000Y-136250000D02*
X125630000Y-137085000D01*
D18*
X102800000Y-53400000D02*
X102800000Y-45800000D01*
X101680000Y-93870000D02*
X101680000Y-72720000D01*
X123780000Y-48670000D02*
X123180000Y-49270000D01*
X168780000Y-92050000D02*
X170980000Y-92050000D01*
X101700000Y-72700000D02*
X101680000Y-72680000D01*
X103600000Y-45000000D02*
X123010000Y-45000000D01*
X101680000Y-54520000D02*
X102800000Y-53400000D01*
D19*
X131355000Y-138230000D02*
X133645000Y-138230000D01*
X125630000Y-137085000D02*
X126775000Y-138230000D01*
D18*
X123300000Y-89500000D02*
X123180000Y-89380000D01*
X123180000Y-127410000D02*
X121080000Y-127410000D01*
D19*
X156925000Y-136240000D02*
X156925000Y-137075000D01*
D18*
%TO.N,VCC*%
X186860000Y-72240000D02*
X186760000Y-72340000D01*
X105300000Y-97570000D02*
X105400000Y-97470000D01*
X102580000Y-76070000D02*
X102580000Y-91270000D01*
X102580000Y-97470000D02*
X102580000Y-112770000D01*
X189580000Y-114870000D02*
X189580000Y-100040000D01*
X187780000Y-44970000D02*
X166880000Y-44970000D01*
X165480000Y-66790000D02*
X163360000Y-66790000D01*
X165480000Y-87090000D02*
X165480000Y-66790000D01*
X189580000Y-72340000D02*
X189580000Y-57040000D01*
X126480000Y-112170000D02*
X128700000Y-112170000D01*
X165480000Y-107290000D02*
X163360000Y-107290000D01*
X157080000Y-65570000D02*
X159480000Y-65570000D01*
X102580000Y-69770000D02*
X102580000Y-54570000D01*
X189580000Y-78540000D02*
X189580000Y-75940000D01*
X165480000Y-107290000D02*
X165480000Y-87090000D01*
X102580500Y-72000000D02*
X102580000Y-71999500D01*
X189480000Y-72240000D02*
X186860000Y-72240000D01*
X102580000Y-72000500D02*
X102580000Y-76070000D01*
X126490000Y-112180000D02*
X126480000Y-112170000D01*
X160700000Y-66790000D02*
X163360000Y-66790000D01*
X159480000Y-65570000D02*
X160700000Y-66790000D01*
X102580000Y-93870000D02*
X102580000Y-97470000D01*
X102580000Y-97470000D02*
X102680000Y-97570000D01*
X189580000Y-97100000D02*
X189580000Y-93740000D01*
X189580000Y-54440000D02*
X189580000Y-56970000D01*
X126480000Y-91870000D02*
X128700000Y-91870000D01*
X126470000Y-51460000D02*
X126480000Y-51470000D01*
X189580000Y-75940000D02*
X186680000Y-75940000D01*
X102580000Y-91270000D02*
X102580000Y-93870000D01*
X189580000Y-93740000D02*
X189580000Y-78540000D01*
X126480000Y-51470000D02*
X126480000Y-71670000D01*
X126480000Y-91870000D02*
X126480000Y-112170000D01*
X102580500Y-72000000D02*
X102580000Y-72000500D01*
X189580000Y-46770000D02*
X187780000Y-44970000D01*
X102580000Y-54570000D02*
X105500000Y-54570000D01*
X102680000Y-115370000D02*
X102580000Y-115270000D01*
X126480000Y-71670000D02*
X128700000Y-71670000D01*
X189580000Y-56970000D02*
X189580000Y-57040000D01*
X165480000Y-46370000D02*
X165480000Y-66790000D01*
X189580000Y-54440000D02*
X189580000Y-46770000D01*
X102580000Y-115270000D02*
X102580000Y-112770000D01*
X126480000Y-71670000D02*
X126480000Y-91870000D01*
X102580000Y-71999500D02*
X102580000Y-69770000D01*
X165480000Y-87090000D02*
X163360000Y-87090000D01*
X102580000Y-93870000D02*
X105480000Y-93870000D01*
X166880000Y-44970000D02*
X165480000Y-46370000D01*
X189580000Y-100040000D02*
X189580000Y-97100000D01*
X189580000Y-54440000D02*
X189560000Y-54460000D01*
X102680000Y-97570000D02*
X105300000Y-97570000D01*
X189560000Y-54460000D02*
X186660000Y-54460000D01*
X189280000Y-115170000D02*
X189580000Y-114870000D01*
X128700000Y-51470000D02*
X126480000Y-51470000D01*
X165490000Y-66800000D02*
X165480000Y-66790000D01*
X189580000Y-72340000D02*
X189480000Y-72240000D01*
X189580000Y-75940000D02*
X189580000Y-72340000D01*
%TO.N,CLK*%
X101780000Y-45470000D02*
X103380000Y-43870000D01*
X100780000Y-54120000D02*
X101780000Y-53120000D01*
X100780000Y-78570000D02*
X100780000Y-100070000D01*
X132880000Y-43870000D02*
X134580000Y-45570000D01*
X103380000Y-43870000D02*
X132880000Y-43870000D01*
X100780000Y-78570000D02*
X100780000Y-57070000D01*
X142100000Y-58100000D02*
X142400000Y-57800000D01*
X134565000Y-45585000D02*
X134565000Y-47275000D01*
X100780000Y-57070000D02*
X100780000Y-54120000D01*
X134580000Y-45570000D02*
X134565000Y-45585000D01*
X101780000Y-53120000D02*
X101780000Y-45470000D01*
%TO.N,RED1*%
X138180000Y-51370000D02*
X142185000Y-47365000D01*
X133880000Y-96970000D02*
X138180000Y-92670000D01*
X133880000Y-133670000D02*
X133880000Y-96970000D01*
X142185000Y-47365000D02*
X142185000Y-47275000D01*
X134790000Y-136250000D02*
X134790000Y-134580000D01*
X134790000Y-134580000D02*
X133880000Y-133670000D01*
X138180000Y-92670000D02*
X138180000Y-51370000D01*
%TO.N,RED2*%
X154885000Y-49375000D02*
X154885000Y-47275000D01*
X163180000Y-134570000D02*
X162180000Y-134570000D01*
X162180000Y-134570000D02*
X160880000Y-133270000D01*
X156180000Y-91070000D02*
X156180000Y-50670000D01*
X163795000Y-136240000D02*
X163795000Y-135185000D01*
X160880000Y-95770000D02*
X156180000Y-91070000D01*
X160880000Y-133270000D02*
X160880000Y-95770000D01*
X163795000Y-135185000D02*
X163180000Y-134570000D01*
X156180000Y-50670000D02*
X154885000Y-49375000D01*
%TO.N,GREEN1*%
X137280000Y-50470000D02*
X139645000Y-48105000D01*
X132500000Y-134550000D02*
X132980000Y-134070000D01*
X132980000Y-134070000D02*
X132980000Y-96470000D01*
X132980000Y-96470000D02*
X137280000Y-92170000D01*
X132500000Y-136250000D02*
X132500000Y-134550000D01*
X139645000Y-48105000D02*
X139645000Y-47275000D01*
X137280000Y-92170000D02*
X137280000Y-50470000D01*
%TO.N,GREEN2*%
X155280000Y-91670000D02*
X155280000Y-52370000D01*
X161470000Y-135080000D02*
X160060000Y-133670000D01*
X152345000Y-49435000D02*
X152345000Y-47275000D01*
X161470000Y-136150000D02*
X161470000Y-135080000D01*
X155280000Y-52370000D02*
X152345000Y-49435000D01*
X160060000Y-96450000D02*
X155280000Y-91670000D01*
X160060000Y-133670000D02*
X160060000Y-96450000D01*
%TO.N,BLUE1*%
X130210000Y-136250000D02*
X130210000Y-134940000D01*
X130210000Y-134940000D02*
X132080000Y-133070000D01*
X137105000Y-49245000D02*
X137105000Y-47275000D01*
X136380000Y-49970000D02*
X137105000Y-49245000D01*
X132080000Y-133070000D02*
X132080000Y-96070000D01*
X132080000Y-96070000D02*
X136380000Y-91770000D01*
X136380000Y-91770000D02*
X136380000Y-49970000D01*
%TO.N,BLUE2*%
X154380000Y-92370000D02*
X154380000Y-53670000D01*
X154380000Y-53670000D02*
X149805000Y-49095000D01*
X149805000Y-49095000D02*
X149805000Y-47275000D01*
X159180000Y-97170000D02*
X154380000Y-92370000D01*
X159180000Y-136150000D02*
X159180000Y-97170000D01*
%TO.N,H1*%
X108480000Y-124970000D02*
X106760000Y-126690000D01*
X108480000Y-52380000D02*
X107340000Y-51240000D01*
X108480000Y-62270000D02*
X108480000Y-71670000D01*
X108480000Y-91870000D02*
X108480000Y-124970000D01*
X108480000Y-71670000D02*
X108480000Y-91870000D01*
X108480000Y-62270000D02*
X108480000Y-52380000D01*
X107340000Y-51240000D02*
X107340000Y-47300000D01*
X106760000Y-126690000D02*
X105500000Y-126690000D01*
%TO.N,H2*%
X109280000Y-64770000D02*
X109280000Y-129170000D01*
X109280000Y-129170000D02*
X106680000Y-131770000D01*
X109280000Y-64770000D02*
X109280000Y-50920000D01*
X109280000Y-50920000D02*
X109880000Y-50320000D01*
X109880000Y-50320000D02*
X109880000Y-47300000D01*
X106680000Y-131770000D02*
X105500000Y-131770000D01*
%TO.N,H3*%
X110080000Y-51470000D02*
X110130000Y-51470000D01*
X103300000Y-120490000D02*
X101880000Y-119070000D01*
X110080000Y-132570000D02*
X106680000Y-135970000D01*
X104180000Y-135970000D02*
X103300000Y-135090000D01*
X101880000Y-119070000D02*
X97880000Y-119070000D01*
X110080000Y-67270000D02*
X110080000Y-51470000D01*
X112420000Y-49130000D02*
X112420000Y-47300000D01*
X103300000Y-135090000D02*
X103300000Y-120490000D01*
X110080000Y-112170000D02*
X110080000Y-132570000D01*
X106680000Y-135970000D02*
X104180000Y-135970000D01*
X110080000Y-51470000D02*
X112420000Y-49130000D01*
X110080000Y-67270000D02*
X110080000Y-112170000D01*
%TO.N,H4*%
X110880000Y-94470000D02*
X110880000Y-132670000D01*
X103880000Y-136570000D02*
X102600000Y-135290000D01*
X114960000Y-47840000D02*
X114960000Y-47300000D01*
X102600000Y-125390000D02*
X101360000Y-124150000D01*
X106980000Y-136570000D02*
X103880000Y-136570000D01*
X110880000Y-74270000D02*
X110880000Y-94470000D01*
X101360000Y-124150000D02*
X97880000Y-124150000D01*
X110880000Y-74270000D02*
X110880000Y-51920000D01*
X110880000Y-132670000D02*
X106980000Y-136570000D01*
X102600000Y-135290000D02*
X102600000Y-125390000D01*
X110880000Y-51920000D02*
X114960000Y-47840000D01*
%TO.N,H5*%
X101900000Y-130490000D02*
X100640000Y-129230000D01*
X103580000Y-137170000D02*
X101900000Y-135490000D01*
X111680000Y-53420000D02*
X117500000Y-47600000D01*
X101900000Y-135490000D02*
X101900000Y-130490000D01*
X100640000Y-129230000D02*
X97880000Y-129230000D01*
X111680000Y-96970000D02*
X111680000Y-53420000D01*
X117500000Y-47600000D02*
X117500000Y-47300000D01*
X107280000Y-137170000D02*
X103580000Y-137170000D01*
X111680000Y-132770000D02*
X107280000Y-137170000D01*
X111680000Y-96970000D02*
X111680000Y-132770000D01*
%TO.N,H6*%
X112480000Y-99470000D02*
X112480000Y-79270000D01*
X112480000Y-76770000D02*
X112480000Y-53970000D01*
X112480000Y-79270000D02*
X112480000Y-76770000D01*
X112480000Y-124070000D02*
X112480000Y-99470000D01*
X112480000Y-53970000D02*
X113230000Y-53970000D01*
X120040000Y-47660000D02*
X120040000Y-47300000D01*
X118300000Y-48900000D02*
X118800000Y-48900000D01*
X113230000Y-53970000D02*
X118300000Y-48900000D01*
X118800000Y-48900000D02*
X120040000Y-47660000D01*
%TO.N,H7*%
X113280000Y-55920000D02*
X120300000Y-48900000D01*
X121400000Y-48900000D02*
X122580000Y-47720000D01*
X122580000Y-47720000D02*
X122580000Y-47300000D01*
X113280000Y-81870000D02*
X113280000Y-79270000D01*
X113280000Y-124070000D02*
X113280000Y-101770000D01*
X113280000Y-56570000D02*
X113280000Y-55920000D01*
X120300000Y-48900000D02*
X121400000Y-48900000D01*
X113280000Y-101770000D02*
X113280000Y-81870000D01*
X113280000Y-79270000D02*
X113280000Y-56570000D01*
%TO.N,H0*%
X106740000Y-121610000D02*
X105500000Y-121610000D01*
X107680000Y-53180000D02*
X104800000Y-50300000D01*
X107680000Y-59670000D02*
X107680000Y-120670000D01*
X107680000Y-59670000D02*
X107680000Y-53180000D01*
X107680000Y-120670000D02*
X106740000Y-121610000D01*
X104800000Y-50300000D02*
X104800000Y-47300000D01*
%TO.N,V0*%
X177280000Y-104790000D02*
X177280000Y-110160000D01*
X169525000Y-47725000D02*
X170600000Y-48800000D01*
X170600000Y-48800000D02*
X171800000Y-48800000D01*
X189000000Y-136900000D02*
X192100000Y-133800000D01*
X171800000Y-48800000D02*
X177280000Y-54280000D01*
X177280000Y-133680000D02*
X180500000Y-136900000D01*
X192720000Y-126680000D02*
X194300000Y-126680000D01*
X169525000Y-47275000D02*
X169525000Y-47725000D01*
X180500000Y-136900000D02*
X189000000Y-136900000D01*
X177280000Y-84590000D02*
X177280000Y-104790000D01*
X192100000Y-133800000D02*
X192100000Y-127300000D01*
X177280000Y-54280000D02*
X177280000Y-61690000D01*
X177280000Y-110160000D02*
X177280000Y-133680000D01*
X192100000Y-127300000D02*
X192720000Y-126680000D01*
X177280000Y-61690000D02*
X177280000Y-84590000D01*
%TO.N,V1*%
X173400000Y-48600000D02*
X172900000Y-48600000D01*
X180800000Y-136000000D02*
X188300000Y-136000000D01*
X178080000Y-107660000D02*
X178080000Y-133280000D01*
X190700000Y-123200000D02*
X192300000Y-121600000D01*
X178080000Y-53280000D02*
X173400000Y-48600000D01*
X172900000Y-48600000D02*
X172065000Y-47765000D01*
X192300000Y-121600000D02*
X194300000Y-121600000D01*
X178080000Y-133280000D02*
X180800000Y-136000000D01*
X188300000Y-136000000D02*
X190700000Y-133600000D01*
X178080000Y-107660000D02*
X178080000Y-53280000D01*
X172065000Y-47765000D02*
X172065000Y-47275000D01*
X190700000Y-133600000D02*
X190700000Y-123200000D01*
%TO.N,V2*%
X180320000Y-129220000D02*
X186680000Y-129220000D01*
X178880000Y-105060000D02*
X178880000Y-124920000D01*
X178880000Y-105060000D02*
X178880000Y-52480000D01*
X178880000Y-124920000D02*
X178880000Y-127780000D01*
X178880000Y-127780000D02*
X180320000Y-129220000D01*
X174605000Y-48205000D02*
X174605000Y-47275000D01*
X178880000Y-52480000D02*
X174605000Y-48205000D01*
%TO.N,V3*%
X179700000Y-122500000D02*
X179680000Y-122480000D01*
X179680000Y-122480000D02*
X179680000Y-102390000D01*
X179680000Y-81990000D02*
X179680000Y-59190000D01*
X180440000Y-124140000D02*
X186680000Y-124140000D01*
X179680000Y-51680000D02*
X177145000Y-49145000D01*
X179700000Y-123400000D02*
X180440000Y-124140000D01*
X177145000Y-49145000D02*
X177145000Y-47275000D01*
X179680000Y-59190000D02*
X179680000Y-54080000D01*
X179680000Y-102390000D02*
X179680000Y-81990000D01*
X179680000Y-54080000D02*
X179680000Y-51680000D01*
X179700000Y-122500000D02*
X179700000Y-123400000D01*
%TO.N,V4*%
X179685000Y-50185000D02*
X179685000Y-47275000D01*
X180480000Y-79480000D02*
X180480000Y-56680000D01*
X180480000Y-122380000D02*
X180480000Y-99620000D01*
X180480000Y-88660000D02*
X180480000Y-79480000D01*
X180480000Y-56680000D02*
X180480000Y-50980000D01*
X180500000Y-119900000D02*
X180500000Y-122400000D01*
X180480000Y-50980000D02*
X179685000Y-50185000D01*
X180480000Y-99620000D02*
X180480000Y-88660000D01*
X180500000Y-122400000D02*
X180480000Y-122380000D01*
%TO.N,V5*%
X182760000Y-119060000D02*
X181280000Y-117580000D01*
X181280000Y-79490000D02*
X181280000Y-56590000D01*
X181280000Y-117380000D02*
X181280000Y-108890000D01*
X181280000Y-117580000D02*
X181280000Y-117380000D01*
X181280000Y-50920000D02*
X182225000Y-49975000D01*
X181280000Y-86160000D02*
X181280000Y-108890000D01*
X182225000Y-49975000D02*
X182225000Y-47275000D01*
X186680000Y-119060000D02*
X182760000Y-119060000D01*
X181280000Y-56590000D02*
X181280000Y-50920000D01*
X186650000Y-119090000D02*
X186680000Y-119060000D01*
X181280000Y-86160000D02*
X181280000Y-79490000D01*
%TO.N,V6*%
X182080000Y-51720000D02*
X184765000Y-49035000D01*
X182080000Y-83560000D02*
X182080000Y-97120000D01*
X182080000Y-54090000D02*
X182080000Y-51720000D01*
X182080000Y-54090000D02*
X182080000Y-59120000D01*
X182080000Y-76890000D02*
X182080000Y-83560000D01*
X184765000Y-49035000D02*
X184765000Y-47275000D01*
X182080000Y-59120000D02*
X182080000Y-76890000D01*
X182080000Y-97120000D02*
X182080000Y-114800000D01*
%TO.N,V7*%
X182880000Y-81060000D02*
X182880000Y-53020000D01*
X187305000Y-48595000D02*
X187305000Y-47275000D01*
X182880000Y-81060000D02*
X182880000Y-115400000D01*
X182880000Y-53020000D02*
X187305000Y-48595000D01*
%TO.N,H_1*%
X115680000Y-125070000D02*
X115680000Y-119770000D01*
X115680000Y-64070000D02*
X115680000Y-61670000D01*
X115680000Y-119770000D02*
X115680000Y-64070000D01*
%TO.N,H_2*%
X116480000Y-88970000D02*
X116480000Y-109170000D01*
X116480000Y-122370000D02*
X116480000Y-125970000D01*
X116480000Y-109170000D02*
X116480000Y-122370000D01*
X116480000Y-64170000D02*
X116480000Y-88970000D01*
%TO.N,H_3*%
X117280000Y-89970000D02*
X117280000Y-110170000D01*
X117280000Y-67970000D02*
X117280000Y-89970000D01*
X101890000Y-121610000D02*
X97880000Y-121610000D01*
X101900000Y-121600000D02*
X101890000Y-121610000D01*
X117280000Y-110170000D02*
X117280000Y-126870000D01*
%TO.N,H_4*%
X118080000Y-68770000D02*
X118080000Y-124870000D01*
X101580000Y-126690000D02*
X97880000Y-126690000D01*
X101600000Y-126670000D02*
X101580000Y-126690000D01*
X118080000Y-124870000D02*
X118080000Y-127770000D01*
%TO.N,H_5*%
X118880000Y-69570000D02*
X118880000Y-84470000D01*
X118880000Y-84470000D02*
X118880000Y-128670000D01*
X101030000Y-131770000D02*
X97880000Y-131770000D01*
%TO.N,H_0*%
X114880000Y-124170000D02*
X114880000Y-117270000D01*
X114880000Y-104570000D02*
X114880000Y-84370000D01*
X114880000Y-117270000D02*
X114880000Y-104570000D01*
X114880000Y-81870000D02*
X114880000Y-59170000D01*
X114880000Y-84370000D02*
X114880000Y-81870000D01*
%TO.N,V_0*%
X173200000Y-127500000D02*
X173280000Y-127420000D01*
X173280000Y-127420000D02*
X173280000Y-69790000D01*
%TO.N,V_1*%
X167370000Y-119870000D02*
X163360000Y-119870000D01*
X168600000Y-121100000D02*
X167370000Y-119870000D01*
X174080000Y-107280000D02*
X174080000Y-90020000D01*
X174080000Y-128180000D02*
X174080000Y-107280000D01*
X169300000Y-129200000D02*
X168600000Y-128500000D01*
X174080000Y-68920000D02*
X174100000Y-68900000D01*
X168600000Y-128500000D02*
X168600000Y-121100000D01*
X174080000Y-90020000D02*
X174080000Y-69490000D01*
X174080000Y-69490000D02*
X174080000Y-68920000D01*
X174100000Y-128200000D02*
X173100000Y-129200000D01*
X173100000Y-129200000D02*
X169300000Y-129200000D01*
X174100000Y-128200000D02*
X174080000Y-128180000D01*
%TO.N,V_2*%
X174880000Y-127380000D02*
X174880000Y-89020000D01*
X174880000Y-66880000D02*
X174880000Y-89020000D01*
X175100000Y-127600000D02*
X174880000Y-127380000D01*
X174800000Y-66800000D02*
X174880000Y-66880000D01*
%TO.N,V_3*%
X176200000Y-122450000D02*
X175680000Y-121930000D01*
X176200000Y-126770000D02*
X176200000Y-122450000D01*
X166610000Y-122410000D02*
X163360000Y-122410000D01*
X176200000Y-128000000D02*
X174000000Y-130200000D01*
X174000000Y-130200000D02*
X168600000Y-130200000D01*
X167400000Y-123200000D02*
X166610000Y-122410000D01*
X167400000Y-129000000D02*
X167400000Y-123200000D01*
X176200000Y-126770000D02*
X176200000Y-128000000D01*
X175680000Y-121930000D02*
X175680000Y-66790000D01*
X168600000Y-130200000D02*
X167400000Y-129000000D01*
%TO.N,V_5*%
X176480000Y-87020000D02*
X176480000Y-64290000D01*
X176480000Y-109220000D02*
X176480000Y-87020000D01*
X176500000Y-121500000D02*
X176480000Y-121480000D01*
X176480000Y-121480000D02*
X176480000Y-109220000D01*
%TO.N,V_SYNC*%
X156210000Y-141600000D02*
X157815000Y-141600000D01*
X155250000Y-141600000D02*
X156210000Y-141600000D01*
X145750000Y-142400000D02*
X146550000Y-141600000D01*
X146550000Y-141600000D02*
X155250000Y-141600000D01*
X130110000Y-142400000D02*
X145750000Y-142400000D01*
X127920000Y-140210000D02*
X130110000Y-142400000D01*
X157815000Y-141600000D02*
X159215000Y-140200000D01*
%TO.N,H_SYNC*%
X147050000Y-142400000D02*
X159305000Y-142400000D01*
X145150000Y-141600000D02*
X137250000Y-141600000D01*
X137250000Y-141600000D02*
X131600000Y-141600000D01*
X146980000Y-142470000D02*
X147050000Y-142400000D01*
X145180000Y-141570000D02*
X145150000Y-141600000D01*
X159305000Y-142400000D02*
X161505000Y-140200000D01*
X131600000Y-141600000D02*
X130210000Y-140210000D01*
%TO.N,RESET1*%
X131100000Y-92200000D02*
X131100000Y-126400000D01*
X132610000Y-92200000D02*
X131100000Y-92200000D01*
X191380000Y-91240000D02*
X191380000Y-112740000D01*
X99880000Y-54570000D02*
X97880000Y-54570000D01*
X191380000Y-91240000D02*
X191380000Y-69740000D01*
X191280000Y-51870000D02*
X191380000Y-51970000D01*
X125680000Y-45270000D02*
X125680000Y-48270000D01*
X131100000Y-50590000D02*
X131100000Y-92200000D01*
X99880000Y-97570000D02*
X99880000Y-76070000D01*
X191380000Y-51970000D02*
X191380000Y-69740000D01*
X131100000Y-126400000D02*
X130090000Y-127410000D01*
X130090000Y-127410000D02*
X128700000Y-127410000D01*
X99880000Y-54570000D02*
X99880000Y-76070000D01*
X125680000Y-48270000D02*
X126780000Y-49370000D01*
X129880000Y-49370000D02*
X131100000Y-50590000D01*
X126780000Y-49370000D02*
X129880000Y-49370000D01*
X124380000Y-44870000D02*
X125280000Y-44870000D01*
X125280000Y-44870000D02*
X125680000Y-45270000D01*
%TO.N,RESET2*%
X192280000Y-115240000D02*
X192280000Y-93740000D01*
X161480000Y-49070000D02*
X166680000Y-43870000D01*
X187980000Y-43870000D02*
X190280000Y-46170000D01*
X190280000Y-46170000D02*
X190280000Y-49270000D01*
X192280000Y-51270000D02*
X192280000Y-72240000D01*
X192280000Y-72240000D02*
X192280000Y-93740000D01*
X190280000Y-49270000D02*
X192280000Y-51270000D01*
X161480000Y-49470000D02*
X161480000Y-49070000D01*
X166680000Y-43870000D02*
X187980000Y-43870000D01*
%TO.N,V8*%
X183680000Y-67160000D02*
X183680000Y-115600000D01*
%TO.N,V9*%
X184480000Y-74390000D02*
X184480000Y-94480000D01*
X184480000Y-61710000D02*
X184480000Y-64660000D01*
X184180000Y-117570000D02*
X184480000Y-117270000D01*
X184480000Y-117270000D02*
X184480000Y-94480000D01*
X184480000Y-64660000D02*
X184480000Y-74390000D01*
%TO.N,H8*%
X114080000Y-124070000D02*
X114080000Y-114670000D01*
X114080000Y-114670000D02*
X114080000Y-102670000D01*
X114080000Y-57820000D02*
X114080000Y-102670000D01*
%TD*%
M02*
